<svg width="143" height="101" viewBox="0 0 143 101" fill="none" xmlns="http://www.w3.org/2000/svg">
<g clip-path="url(#clip0)">
<path d="M80.6409 44.6678C66.4491 52.8615 54.4299 45.988 43.293 39.7284C36.2196 35.7528 26.7064 43.888 36.4209 73.2146C51.9696 100.146 73.5734 92.9444 81.095 88.6018C116.317 68.2664 105.775 30.1569 80.6409 44.6678Z" fill="#E3F7FE"/>
<g clip-path="url(#clip1)">
<path d="M106.342 46.5234C105.848 45.7362 105.037 45.2052 104.118 45.0661C102.793 44.8656 101.524 45.5046 100.881 46.6252C100.543 46.3933 100.156 46.2324 99.7434 46.1592C98.318 45.9045 96.9051 46.7536 96.4595 48.1321L95.9645 49.6625C95.6975 49.4848 95.4024 49.3483 95.0872 49.2671C93.591 48.8814 92.06 49.7352 91.6016 51.211L91.2774 52.255C90.925 52.0163 90.5215 51.8531 90.0913 51.7826C88.6321 51.5435 87.2402 52.3905 86.7821 53.7968L83.4294 64.0925C82.2172 64.6334 79.0276 66.2905 76.692 69.6085C73.844 73.6543 73.3349 78.6526 73.3146 78.8634C73.3115 78.8969 73.3099 78.9305 73.3099 78.9645V89.9414C73.3099 90.5247 73.7826 90.9974 74.3659 90.9974H86.5327C87.1161 90.9974 87.5888 90.5247 87.5888 89.9414V82.3773L95.3628 76.0291C99.5623 72.5999 101.304 66.7968 102.841 61.6769C103.013 61.1055 103.824 58.4605 103.824 58.4605C103.995 57.903 103.683 57.312 103.125 57.1401C102.568 56.9686 101.977 57.281 101.805 57.8385C101.805 57.8385 100.992 60.4932 100.818 61.0696C99.3685 65.899 97.7252 71.3728 94.0268 74.3928L85.8647 81.0581C85.6191 81.2587 85.4766 81.5591 85.4766 81.8762V88.8851H75.422V79.0213C75.4781 78.5333 76.0343 74.2125 78.4192 70.8242C80.9036 67.2949 84.6127 65.8842 84.6478 65.8711C84.6844 65.8576 84.7202 65.842 84.7551 65.8245C84.7607 65.8217 84.766 65.8183 84.7714 65.8154C84.809 65.7958 84.8452 65.7737 84.8802 65.7498C84.8911 65.7423 84.902 65.7347 84.9127 65.7268C84.95 65.6991 84.986 65.6698 85.0196 65.6373C85.0218 65.6351 85.0239 65.6332 85.0262 65.6311L91.0285 59.7682C91.3337 59.4521 91.6586 59.1527 91.973 58.8456C92.2023 58.6217 92.4084 58.3829 92.7357 58.3123C93.0015 58.255 93.2864 58.3082 93.5128 58.4591C93.9888 58.7759 94.0931 59.4676 93.7384 59.9144L85.706 70.0244C85.3741 70.4419 85.4058 71.0412 85.7795 71.4216C86.1535 71.802 86.7523 71.8439 87.1753 71.5196L91.5247 68.1861C95.7879 64.9188 98.8547 60.4717 100.393 55.3254L102.619 47.8797C102.793 47.3566 103.347 47.0482 103.884 47.1701C104.486 47.3068 104.853 47.9481 104.671 48.5377L103.053 53.7884C102.881 54.3459 103.194 54.9369 103.751 55.1087C104.309 55.2809 104.9 54.968 105.072 54.4106L106.69 49.1597C106.963 48.2713 106.837 47.3105 106.342 46.5234ZM88.7907 54.4507C88.9443 53.9785 89.4771 53.7335 89.937 53.9193C90.3455 54.0842 90.5635 54.5512 90.4339 54.9716L89.3533 58.4517L86.6176 61.1241L88.7907 54.4507ZM92.9518 56.1751C92.711 56.1751 92.4752 56.2055 92.2461 56.2584L93.6188 51.8373C93.7428 51.4388 94.1565 51.2079 94.5602 51.3125C94.771 51.3669 94.9447 51.5018 95.0498 51.6925C95.1545 51.8828 95.1755 52.1017 95.1089 52.3085L93.8182 56.2991C93.5518 56.2225 93.2744 56.1786 92.9898 56.1752C92.977 56.1751 92.9645 56.1751 92.9518 56.1751ZM95.9328 60.196C96.1891 59.3477 96.0734 58.4161 95.6005 57.6511L97.1176 52.9605C97.1178 52.9602 97.1179 52.9598 97.118 52.9595C97.1182 52.9592 97.1182 52.9588 97.1183 52.9585L98.4691 48.7821C98.5919 48.4025 98.9811 48.169 99.3737 48.2389C99.6818 48.2938 99.846 48.4939 99.9164 48.6081C99.987 48.7226 100.092 48.9593 100.002 49.2592C100.002 49.2594 100.002 49.2595 100.002 49.2596L98.3693 54.7203C97.788 56.6647 96.9686 58.5002 95.9328 60.196Z" fill="black"/>
<path d="M64.9704 69.6084C62.6347 66.2903 59.445 64.6332 58.2329 64.0925L54.8802 53.7967C54.4222 52.3904 53.0302 51.543 51.5708 51.7826C51.1407 51.8531 50.7373 52.0163 50.3849 52.255L50.0606 51.2109C49.6022 49.7351 48.0712 48.881 46.5749 49.2671C46.2599 49.3483 45.9648 49.4848 45.6978 49.6625L45.2028 48.1321C44.7573 46.7537 43.3459 45.9049 41.9191 46.1592C41.5068 46.2324 41.12 46.3932 40.7816 46.6252C40.1382 45.5046 38.8701 44.8654 37.5443 45.0661C36.6254 45.2051 35.8146 45.7362 35.3202 46.5233C34.8256 47.3105 34.6992 48.2713 34.9729 49.1595L38.3096 59.988C38.48 60.541 38.6494 61.1055 38.8209 61.6767C40.358 66.7966 42.1 72.5996 46.2995 76.0289C46.7515 76.3976 47.4167 76.331 47.7856 75.879C48.1544 75.4271 48.0874 74.7618 47.6356 74.3928C43.9371 71.3728 42.2938 65.899 40.8441 61.0696C40.6711 60.4931 40.5002 59.9238 40.3282 59.3659L36.9915 48.5374C36.7998 47.9153 37.218 47.2516 37.8602 47.1547C38.3799 47.0749 38.8772 47.3803 39.0434 47.8795L41.2695 55.3253C42.808 60.4715 45.8746 64.9187 50.138 68.1859L54.4874 71.5194C54.911 71.8437 55.5095 71.8019 55.8832 71.4214C56.2569 71.0411 56.2886 70.4418 55.9567 70.0243L47.9244 59.9142C47.6109 59.5195 47.64 58.9499 47.9922 58.5894C48.3743 58.1981 49.0193 58.1908 49.4104 58.5728L50.632 59.7661C50.633 59.767 50.634 59.7679 50.6349 59.769L56.6368 65.6315C56.6385 65.6332 56.6402 65.6347 56.6417 65.6363C56.675 65.6686 56.711 65.6978 56.7482 65.7255C56.7602 65.7344 56.7723 65.7428 56.7845 65.7513C56.8172 65.7735 56.851 65.7941 56.8859 65.8126C56.8935 65.8166 56.9007 65.8214 56.9084 65.8252C56.9424 65.8421 56.977 65.8573 57.0123 65.8706C57.0495 65.8845 60.7587 67.295 63.2432 70.8245C65.6292 74.2143 66.1847 78.5381 66.2402 79.0215V88.8854H56.1856V81.8764C56.1856 81.5593 56.0431 81.259 55.7976 81.0583L50.9164 77.0723C50.4644 76.7036 49.7991 76.7707 49.4303 77.2225C49.0615 77.6743 49.1285 78.3397 49.5803 78.7086L54.0733 82.3776V89.9416C54.0733 90.525 54.546 90.9977 55.1294 90.9977H67.2962C67.8796 90.9977 68.3523 90.525 68.3523 89.9416V78.9647C68.3523 78.9309 68.3506 78.8973 68.3475 78.8636C68.3273 78.6524 67.8183 73.6543 64.9704 69.6084ZM51.3187 54.2645C51.3959 54.1398 51.5754 53.9222 51.9125 53.867C52.3361 53.7974 52.739 54.0432 52.8716 54.4507L55.0448 61.1239L52.3091 58.4516L51.2286 54.9722C51.1278 54.6467 51.2417 54.3891 51.3187 54.2645ZM43.293 54.7202L41.6604 49.2595C41.6604 49.2593 41.6604 49.2592 41.6603 49.2591C41.5706 48.9591 41.6753 48.7224 41.7459 48.6079C41.8163 48.4936 41.9806 48.2936 42.2887 48.2387C42.6826 48.1697 43.0704 48.4026 43.1931 48.782L44.544 52.9583C44.5441 52.9588 44.5441 52.959 44.5442 52.9593C44.5444 52.9597 44.5445 52.96 44.5447 52.9603L46.0618 57.6511C45.5889 58.4161 45.4732 59.3477 45.7296 60.1961C44.6936 58.5003 43.8744 56.6647 43.293 54.7202ZM48.6729 56.1752C48.3883 56.1786 48.1107 56.2225 47.8445 56.2991L46.5538 52.3085C46.4872 52.1016 46.5082 51.8831 46.6129 51.6926C46.7178 51.5019 46.8916 51.3669 47.1025 51.3125C47.5076 51.2083 47.9199 51.439 48.0437 51.8373L49.4164 56.2577C49.1747 56.202 48.9262 56.1714 48.6729 56.1752Z" fill="black"/>
</g>
<g clip-path="url(#clip2)">
<path d="M59.8796 46.5513C59.1887 46.5513 58.4978 46.3324 57.8947 45.8944C56.687 45.0173 56.2054 43.5338 56.6679 42.1146L60.1172 31.5294L51.0933 25.0143C49.8827 24.1402 49.3973 22.6574 49.8565 21.2366C50.3158 19.8158 51.5774 18.8978 53.0706 18.8978H64.1937L67.5873 8.34384C68.0445 6.92189 69.3052 6.00189 70.7989 6H70.8033C72.2951 6 73.556 6.9165 74.0162 8.33612L77.4404 18.8978H78.6463C79.1426 18.8978 79.5448 19.3001 79.5448 19.7962C79.5448 20.2923 79.1426 20.6947 78.6463 20.6947H76.7871C76.3977 20.6947 76.0526 20.4437 75.9324 20.0733L72.3069 8.89027C72.0455 8.08402 71.359 7.79688 70.803 7.79688C70.8024 7.79688 70.8017 7.79688 70.8011 7.79688C70.2447 7.79759 69.5577 8.08608 69.2979 8.89387L65.7039 20.0712C65.5844 20.4427 65.2389 20.6947 64.8486 20.6947H53.0706C52.2224 20.6947 51.7373 21.2601 51.5663 21.7893C51.3952 22.3186 51.4575 23.0609 52.1451 23.5575L61.7004 30.4562C62.017 30.6848 62.1497 31.0917 62.0287 31.463L58.3763 42.6714C58.1135 43.4776 58.5006 44.1139 58.9505 44.4405C59.4004 44.7671 60.1253 44.9382 60.8105 44.439L70.3383 37.4972C70.6532 37.2676 71.0803 37.2672 71.3956 37.4965L80.8898 44.3972C81.576 44.8958 82.3007 44.7236 82.7503 44.3961C83.1998 44.0685 83.586 43.4314 83.3215 42.6254L79.6628 31.4731C79.5412 31.1021 79.673 30.6949 79.9892 30.4657L89.5196 23.5555C90.2056 23.0581 90.2668 22.3162 90.0954 21.7877C89.924 21.2592 89.4389 20.6946 88.5916 20.6946H86.7324C86.2362 20.6946 85.8339 20.2923 85.8339 19.7961C85.8339 19.3 86.2362 18.8977 86.7324 18.8977H88.5916C90.0832 18.8977 91.3444 19.8145 91.8046 21.2333C92.2649 22.6521 91.782 24.1346 90.5744 25.0101L81.5745 31.5357L85.0289 42.0653C85.4944 43.4841 85.0154 44.969 83.8085 45.8483C82.6017 46.7275 81.0414 46.7285 79.8335 45.8505L70.868 39.3343L61.8687 45.8911C61.2647 46.3312 60.5722 46.5513 59.8796 46.5513Z" fill="#E7404A"/>
<path d="M92.747 36.0775C92.655 36.0775 92.5615 36.0632 92.4692 36.0333L85.5586 33.7879C85.0867 33.6346 84.8284 33.1277 84.9818 32.6558C85.1351 32.184 85.642 31.926 86.1139 32.0789L93.0245 34.3243C93.4964 34.4777 93.7547 34.9846 93.6013 35.4564C93.4779 35.8361 93.1257 36.0775 92.747 36.0775Z" fill="#E7404A"/>
<path d="M80.104 16.1925C79.9209 16.1925 79.7362 16.1367 79.5766 16.0208C79.1752 15.7292 79.0862 15.1673 79.3779 14.7659L83.6489 8.8873C83.9406 8.48588 84.5023 8.39684 84.9038 8.68856C85.3052 8.9802 85.3942 9.54208 85.1025 9.9435L80.8315 15.8221C80.6558 16.0641 80.3818 16.1925 80.104 16.1925Z" fill="#E7404A"/>
<path d="M61.5583 16.1925C61.2804 16.1925 61.0064 16.064 60.8306 15.8221L56.5596 9.9436C56.268 9.54218 56.357 8.9803 56.7584 8.68866C57.1599 8.39685 57.7217 8.48598 58.0133 8.8874L62.2843 14.766C62.5759 15.1674 62.4869 15.7293 62.0856 16.0209C61.9262 16.1367 61.7414 16.1925 61.5583 16.1925Z" fill="#E7404A"/>
<path d="M48.9153 36.0775C48.5365 36.0775 48.1844 35.8361 48.0609 35.4564C47.9077 34.9846 48.1659 34.4777 48.6377 34.3243L55.5483 32.079C56.0204 31.9257 56.5271 32.1839 56.6805 32.6558C56.8338 33.1277 56.5755 33.6346 56.1037 33.788L49.1932 36.0333C49.1009 36.0632 49.0073 36.0775 48.9153 36.0775Z" fill="#E7404A"/>
<path d="M82.6896 20.6949C82.4533 20.6949 82.2215 20.5988 82.0544 20.4316C81.8873 20.2645 81.7912 20.0327 81.7912 19.7964C81.7912 19.5601 81.8873 19.3283 82.0544 19.1613C82.2215 18.9942 82.4524 18.898 82.6896 18.898C82.9259 18.898 83.1577 18.9941 83.3248 19.1613C83.4919 19.3283 83.588 19.5601 83.588 19.7964C83.588 20.0327 83.4919 20.2645 83.3248 20.4316C83.1577 20.5987 82.9259 20.6949 82.6896 20.6949Z" fill="#E7404A"/>
</g>
</g>
<defs>
<clipPath id="clip0">
<rect width="143" height="101" fill="white"/>
</clipPath>
<clipPath id="clip1">
<rect width="72" height="72" fill="white" transform="translate(34.8311 19)"/>
</clipPath>
<clipPath id="clip2">
<rect width="46" height="46" fill="white" transform="translate(47.8311 6)"/>
</clipPath>
</defs>
</svg>
