<svg width="143" height="101" viewBox="0 0 143 101" fill="none" xmlns="http://www.w3.org/2000/svg">
<path d="M82.6636 53C68.4719 44.8064 68.4149 30.9607 68.2673 18.186C68.1736 10.0725 56.3717 5.90141 35.8314 28.9777C20.2827 55.9089 37.3211 71.0176 44.8427 75.3602C80.0647 95.6956 107.797 67.5109 82.6636 53Z" fill="#E3F7FE"/>
<path d="M66.1685 41.775L60.002 25.4816C59.974 25.4076 59.9241 25.3439 59.859 25.299C59.7938 25.254 59.7166 25.23 59.6375 25.23H58.328C58.2489 25.23 58.1717 25.2541 58.1067 25.299C58.0416 25.344 57.9918 25.4077 57.9639 25.4816L51.7974 41.775C51.775 41.834 51.7673 41.8975 51.7749 41.96C51.7826 42.0226 51.8052 42.0824 51.841 42.1343C51.8769 42.1862 51.9247 42.2286 51.9805 42.2579C52.0363 42.2873 52.0984 42.3026 52.1615 42.3026H53.6056C53.6853 42.3027 53.7631 42.2782 53.8285 42.2325C53.8938 42.1868 53.9435 42.1222 53.9709 42.0473L55.556 37.725H62.4099L64.0058 42.048C64.0334 42.1227 64.0832 42.1872 64.1485 42.2327C64.2138 42.2782 64.2915 42.3026 64.3711 42.3026H65.804C65.867 42.3026 65.9291 42.2872 65.9849 42.2579C66.0407 42.2286 66.0886 42.1862 66.1244 42.1343C66.1603 42.0824 66.183 42.0227 66.1907 41.9601C66.1983 41.8975 66.1907 41.834 66.1685 41.775ZM61.6869 35.7836H56.2674L58.9775 28.425L61.6869 35.7836Z" fill="#363636"/>
<path d="M98.3064 34.1393C98.904 33.7795 99.3957 33.2679 99.7316 32.6566C100.068 32.0452 100.236 31.3559 100.219 30.6585C100.219 29.1371 99.7141 27.963 98.7189 27.168C97.7491 26.3948 96.3305 26.0025 94.5027 26.0025H89.6907C89.5874 26.0025 89.4883 26.0436 89.4152 26.1166C89.3422 26.1897 89.3011 26.2888 89.3011 26.3921V42.6866C89.3011 42.79 89.3422 42.8891 89.4152 42.9621C89.4883 43.0352 89.5874 43.0763 89.6907 43.0763H95.141C96.8866 43.0763 98.2771 42.6356 99.2742 41.7668C99.785 41.3074 100.187 40.7401 100.451 40.106C100.716 39.4719 100.835 38.7869 100.802 38.1007C100.813 37.1016 100.477 36.1297 99.8491 35.352C99.4371 34.8324 98.9086 34.417 98.3064 34.1393ZM97.7439 40.3294C97.0213 40.8994 96.115 41.1854 95.1961 41.1334H91.4559V35.2534H95.3082C96.202 35.1986 97.0845 35.476 97.7862 36.0323C98.0762 36.2954 98.3038 36.6199 98.4524 36.9822C98.601 37.3444 98.667 37.7353 98.6454 38.1263C98.6707 38.5376 98.6029 38.9494 98.447 39.3308C98.291 39.7123 98.0509 40.0536 97.7446 40.3294H97.7439ZM97.25 32.5875C96.5465 33.0931 95.6938 33.3479 94.8282 33.3113H91.4574V27.9454H94.5039C95.7309 27.9454 96.6474 28.1704 97.2282 28.6114C97.784 29.0348 98.0532 29.6906 98.0532 30.6165C98.0811 30.9848 98.023 31.3545 97.8836 31.6966C97.7442 32.0386 97.5273 32.3436 97.25 32.5875Z" fill="#E7404A"/>
<path d="M73.8204 57.933V15.8449C73.8189 14.5638 73.3093 13.3357 72.4035 12.4299C71.4977 11.524 70.2695 11.0145 68.9885 11.013H48.9875C47.7061 11.014 46.4775 11.5233 45.5713 12.4292C44.665 13.3351 44.1552 14.5635 44.1537 15.8449V57.933C44.1551 59.2144 44.6649 60.4429 45.5711 61.3489C46.4774 62.2549 47.7061 62.7643 48.9875 62.7652H68.99C70.2708 62.7634 71.4986 62.2536 72.4042 61.3477C73.3097 60.4418 73.819 59.2138 73.8204 57.933ZM46.0287 57.933V15.8449C46.0296 15.0606 46.3417 14.3088 46.8964 13.7544C47.4512 13.2 48.2032 12.8884 48.9875 12.888H68.99C69.7739 12.8889 70.5255 13.2007 71.0798 13.755C71.6342 14.3094 71.946 15.0609 71.9469 15.8449V57.933C71.9455 58.7168 71.6335 59.4681 71.0793 60.0224C70.5251 60.5767 69.7738 60.8888 68.99 60.8902H48.9875C48.2034 60.8893 47.4516 60.5774 46.897 60.0231C46.3424 59.4688 46.0301 58.7171 46.0287 57.933Z" fill="#363636"/>
<path d="M62.2062 55.4385H55.8451C55.5965 55.4385 55.358 55.5373 55.1822 55.7131C55.0064 55.8889 54.9076 56.1273 54.9076 56.376C54.9076 56.6246 55.0064 56.8631 55.1822 57.0389C55.358 57.2147 55.5965 57.3135 55.8451 57.3135H62.2062C62.4549 57.3135 62.6933 57.2147 62.8691 57.0389C63.0449 56.8631 63.1437 56.6246 63.1437 56.376C63.1437 56.1273 63.0449 55.8889 62.8691 55.7131C62.6933 55.5373 62.4549 55.4385 62.2062 55.4385Z" fill="#363636"/>
<path d="M69.7723 15H68.2277C68.1673 15 68.1094 15.158 68.0667 15.4393C68.024 15.7206 68 16.1022 68 16.5C68 16.8978 68.024 17.2794 68.0667 17.5607C68.1094 17.842 68.1673 18 68.2277 18H69.7723C69.8327 18 69.8906 17.842 69.9333 17.5607C69.976 17.2794 70 16.8978 70 16.5C70 16.1022 69.976 15.7206 69.9333 15.4393C69.8906 15.158 69.8327 15 69.7723 15Z" fill="#363636"/>
<path d="M105.772 15H104.228C104.167 15 104.109 15.158 104.067 15.4393C104.024 15.7206 104 16.1022 104 16.5C104 16.8978 104.024 17.2794 104.067 17.5607C104.109 17.842 104.167 18 104.228 18H105.772C105.833 18 105.891 17.842 105.933 17.5607C105.976 17.2794 106 16.8978 106 16.5C106 16.1022 105.976 15.7206 105.933 15.4393C105.891 15.158 105.833 15 105.772 15Z" fill="#363636"/>
<path d="M105.012 11.013H85.01C83.729 11.0145 82.5008 11.524 81.595 12.4299C80.6892 13.3357 80.1796 14.5638 80.1781 15.8449V57.933C80.1795 59.2141 80.689 60.4423 81.5949 61.3482C82.5007 62.2542 83.7289 62.7638 85.01 62.7652H105.012C106.294 62.7639 107.522 62.2543 108.428 61.3484C109.334 60.4425 109.843 59.2142 109.845 57.933V15.8449C109.843 14.5638 109.334 13.3356 108.428 12.4297C107.522 11.5239 106.294 11.0144 105.012 11.013ZM107.97 57.933C107.968 58.7169 107.656 59.4683 107.102 60.0226C106.548 60.5768 105.796 60.8889 105.012 60.8902H85.01C84.2262 60.8888 83.4749 60.5767 82.9207 60.0224C82.3665 59.4681 82.0545 58.7168 82.0531 57.933V15.8449C82.054 15.0609 82.3658 14.3094 82.9202 13.755C83.4745 13.2007 84.2261 12.8889 85.01 12.888H105.012C105.796 12.8888 106.548 13.2006 107.103 13.7549C107.657 14.3092 107.969 15.0609 107.97 15.8449V57.933Z" fill="#E7404A"/>
<path d="M98.2317 55.4385H91.8706C91.622 55.4385 91.3835 55.5373 91.2077 55.7131C91.0319 55.8889 90.9331 56.1273 90.9331 56.376C90.9331 56.6246 91.0319 56.8631 91.2077 57.0389C91.3835 57.2147 91.622 57.3135 91.8706 57.3135H98.2317C98.4804 57.3135 98.7188 57.2147 98.8947 57.0389C99.0705 56.8631 99.1692 56.6246 99.1692 56.376C99.1692 56.1273 99.0705 55.8889 98.8947 55.7131C98.7188 55.5373 98.4804 55.4385 98.2317 55.4385Z" fill="#363636"/>
<path d="M68.4913 67C66.0207 67.0001 63.6056 67.7328 61.5514 69.1054C59.4972 70.478 57.8962 72.429 56.9508 74.7115C56.0054 76.9941 55.758 79.5057 56.2401 81.9289C56.7221 84.352 57.9119 86.5777 59.6588 88.3247C61.4058 90.0716 63.6316 91.2613 66.0548 91.7433C68.4779 92.2252 70.9895 91.9778 73.272 91.0323C75.5546 90.0869 77.5055 88.4858 78.8781 86.4316C80.2506 84.3773 80.9832 81.9622 80.9832 79.4916C80.9795 76.1797 79.6621 73.0046 77.3202 70.6628C74.9783 68.3209 71.8031 67.0037 68.4913 67ZM64.6809 89.3984C64.6889 89.3533 66.1646 89.8954 66.1658 89.8496L64.6948 84.5429C64.6952 84.1324 64.8585 83.7388 65.1488 83.4486C65.4391 83.1583 65.8326 82.995 66.2431 82.9945H70.8519C71.2624 82.995 71.6559 83.1583 71.9462 83.4486C72.2365 83.7388 72.3998 84.1324 72.4002 84.5429L71.3345 89.7189C71.3345 89.7512 72.4066 89.3245 72.4096 89.3556C69.931 90.3442 67.1703 90.3594 64.6809 89.3984ZM68.4913 80.3327C67.9934 80.3327 67.5067 80.185 67.0928 79.9083C66.6788 79.6317 66.3562 79.2385 66.1658 78.7785C65.9753 78.3185 65.9255 77.8123 66.0227 77.324C66.1198 76.8357 66.3596 76.3872 66.7117 76.0352C67.0638 75.6832 67.5123 75.4434 68.0006 75.3463C68.489 75.2492 68.9951 75.2991 69.4551 75.4897C69.915 75.6802 70.3082 76.0029 70.5848 76.4168C70.8614 76.8308 71.009 77.3175 71.009 77.8154C71.0082 78.4828 70.7427 79.1227 70.2707 79.5947C69.7987 80.0666 69.1587 80.3321 68.4913 80.3327ZM74.2752 88.3878V84.5429C74.2739 83.7194 73.9759 82.9239 73.4358 82.3022C72.8957 81.6805 72.1497 81.2742 71.3345 81.1578C72.0203 80.575 72.5106 79.7956 72.7389 78.9251C72.9673 78.0546 72.9227 77.1349 72.6112 76.2906C72.2997 75.4462 71.7363 74.718 70.9973 74.2043C70.2583 73.6907 69.3793 73.4165 68.4793 73.4188C67.5794 73.4211 66.7018 73.6999 65.9655 74.2173C65.2291 74.7347 64.6695 75.4659 64.3624 76.3119C64.0552 77.1578 64.0154 78.0777 64.2482 78.947C64.481 79.8164 64.9753 80.5932 65.6641 81.1724C64.869 81.3093 64.1478 81.7225 63.6275 82.3391C63.1072 82.9557 62.8211 83.7361 62.8198 84.5429V88.4597C60.8795 87.2337 59.3888 85.4119 58.5711 83.2674C57.7533 81.1228 57.6525 78.7711 58.2838 76.5644C58.9151 74.3578 60.2444 72.4151 62.0726 71.0275C63.9008 69.64 66.1295 68.8822 68.4246 68.8678C70.7197 68.8533 72.9577 69.583 74.8032 70.9475C76.6487 72.312 78.0024 74.2378 78.6613 76.4363C79.3203 78.6349 79.249 80.9877 78.4583 83.1424C77.6676 85.297 76.1999 87.1374 74.2752 88.3878Z" fill="#363636"/>
<path d="M85.3915 70.7508C87.0474 68.4324 85.3665 66.6335 83.1421 67.2957C81.7116 67.7217 81.2588 68.8028 81.4549 69.4615C81.6053 69.9666 82.1021 70.1154 82.4931 69.9989C82.8324 69.8979 82.917 69.6307 82.9787 69.4356C83.0534 69.1996 83.1179 68.9957 83.5758 68.8594C83.7729 68.8007 84.2441 68.7072 84.3626 69.1053C84.594 69.8824 83.0785 70.3523 83.6112 72.1413C83.74 72.5739 83.9616 72.9894 84.6296 72.7905C85.3488 72.5764 85.2971 72.1187 85.2414 71.9317C85.1018 71.4623 85.038 71.2482 85.3915 70.7508ZM84.7978 72.0638C84.815 72.1216 84.8508 72.2417 84.4975 72.3469C84.2976 72.4064 84.2484 72.3739 84.2321 72.3633C84.1913 72.3364 84.1274 72.2532 84.0547 72.0091C83.8404 71.2892 84.028 70.8543 84.2388 70.5254C84.4749 70.1635 84.9991 69.6204 84.8064 68.9732C84.6464 68.4358 84.1115 68.217 83.4438 68.4158C82.7506 68.6221 82.6224 69.0277 82.5374 69.296C82.4779 69.484 82.4563 69.527 82.3611 69.5553C82.2355 69.5927 81.9772 69.5937 81.8986 69.3296C81.7779 68.9243 82.0873 68.0927 83.2743 67.7393C85.0744 67.2034 86.416 68.5205 85.0146 70.4822C84.5518 71.1298 84.6331 71.5106 84.7978 72.0638Z" fill="#E7404A"/>
<path d="M84.7075 73.0166C84.1767 73.1746 83.8747 73.7394 84.0343 74.2755C84.194 74.8118 84.7558 75.1194 85.2865 74.9614C85.8227 74.8017 86.1291 74.2356 85.9694 73.6994C85.8098 73.1633 85.2437 72.8569 84.7075 73.0166ZM85.1544 74.5178C84.8683 74.603 84.5647 74.435 84.4779 74.1435C84.3911 73.852 84.5534 73.5454 84.8395 73.4602C85.1263 73.3748 85.4405 73.545 85.5258 73.8315C85.6112 74.1182 85.4411 74.4324 85.1544 74.5178Z" fill="#E7404A"/>
<path d="M92.8978 75.3691C98.6072 74.5624 98.8995 69.5881 94.8252 67.2508C92.2049 65.7477 89.988 66.5923 89.2959 67.7989C88.7652 68.724 89.2402 69.6599 89.9565 70.0708C90.5779 70.4273 91.0877 70.1783 91.4599 69.9967C91.9101 69.7768 92.299 69.5871 93.1378 70.0683C93.4988 70.2753 94.2933 70.8357 93.875 71.5649C93.0584 72.9883 90.255 71.4221 88.3753 74.6989C87.9207 75.4914 87.6209 76.396 88.8444 77.0978C90.1618 77.8535 90.7606 77.1391 90.957 76.7967C91.4504 75.9371 91.6755 75.5448 92.8978 75.3691ZM90.1445 76.3306C90.0838 76.4364 89.9576 76.6564 89.3105 76.2852C88.9444 76.0753 88.9233 75.9577 88.9162 75.919C88.8986 75.8217 88.9315 75.612 89.188 75.1648C89.9444 73.8461 90.8437 73.5144 91.6201 73.3646C92.4801 73.2058 94.0076 73.2167 94.6877 72.0311C95.2524 71.0467 94.827 69.9573 93.6039 69.2557C92.3343 68.5274 91.5608 68.9052 91.0488 69.1548C90.6902 69.3299 90.5969 69.3582 90.4226 69.2582C90.1926 69.1263 89.8308 68.7489 90.1083 68.2652C90.5341 67.5229 92.185 66.8163 94.3593 68.0635C97.6564 69.9549 97.5973 73.7595 92.7658 74.4417C91.1706 74.6668 90.7258 75.3172 90.1445 76.3306Z" fill="#E7404A"/>
<path d="M88.6216 77.5274C87.6495 76.9698 86.3999 77.3149 85.8366 78.2969C85.2731 79.2792 85.606 80.5321 86.5781 81.0897C87.5603 81.6532 88.8177 81.3125 89.3811 80.3302C89.9445 79.3482 89.6038 78.0909 88.6216 77.5274ZM87.0442 80.2771C86.52 79.9765 86.3428 79.2971 86.6491 78.7631C86.9554 78.2292 87.6313 78.0393 88.1554 78.3399C88.6806 78.6412 88.8696 79.3394 88.5686 79.8641C88.2673 80.3893 87.5694 80.5784 87.0442 80.2771Z" fill="#E7404A"/>
<path d="M97.5527 79.387C100.187 80.4713 101.556 78.4247 100.404 76.4097C99.6638 75.1138 98.5079 74.9193 97.9112 75.2603C97.4537 75.5218 97.422 76.0394 97.6245 76.3937C97.8001 76.701 98.0796 76.7224 98.2837 76.7381C98.5305 76.757 98.7436 76.7734 98.9807 77.1883C99.0828 77.3668 99.2812 77.8043 98.9206 78.0104C98.2166 78.4127 97.4137 77.0442 95.7932 77.9704C95.4013 78.1944 95.0473 78.5049 95.3931 79.1099C95.7655 79.7615 96.1993 79.6068 96.3687 79.51C96.7939 79.2671 96.9879 79.1562 97.5527 79.387ZM96.139 79.1082C96.0867 79.1381 95.9778 79.2003 95.7949 78.8803C95.6915 78.6992 95.7119 78.6438 95.7185 78.6256C95.7353 78.5797 95.8018 78.4986 96.0229 78.3722C96.6751 77.9994 97.1413 78.083 97.5095 78.2133C97.9157 78.3607 98.564 78.7474 99.1503 78.4123C99.6371 78.1341 99.7283 77.5634 99.3826 76.9586C99.0237 76.3307 98.5996 76.2982 98.319 76.2766C98.1224 76.2615 98.0756 76.2502 98.0263 76.164C97.9613 76.0502 97.9015 75.799 98.1408 75.6622C98.5079 75.4524 99.3881 75.5642 100.003 76.6395C100.935 78.2701 99.9578 79.8765 97.7284 78.9589C96.9924 78.6558 96.6401 78.8217 96.139 79.1082Z" fill="#E7404A"/>
<path d="M95.1907 79.2373C94.9159 78.7565 94.2971 78.5911 93.8115 78.8687C93.3257 79.1463 93.1542 79.7635 93.429 80.2442C93.7066 80.73 94.3276 80.8993 94.8134 80.6216C95.299 80.3441 95.4683 79.7231 95.1907 79.2373ZM93.8308 80.0145C93.6827 79.7553 93.777 79.4215 94.0411 79.2705C94.3052 79.1196 94.6407 79.2078 94.7888 79.467C94.9373 79.7267 94.8432 80.0715 94.5837 80.2198C94.324 80.3682 93.9793 80.2743 93.8308 80.0145Z" fill="#E7404A"/>
</svg>
