<svg width="143" height="101" viewBox="0 0 143 101" fill="none" xmlns="http://www.w3.org/2000/svg">
<g clip-path="url(#clip0)">
<path d="M79.4695 41.0838C70.0702 54.5074 56.2722 53.3575 43.5333 52.3911C35.4424 51.7773 30.2586 63.1708 51.4569 85.6441C76.9305 103.481 93.4667 87.8241 98.4483 80.7096C121.776 47.394 96.1157 17.3105 79.4695 41.0838Z" fill="#E3F7FE"/>
<g clip-path="url(#clip1)">
<path d="M42.3125 74.6875H23.5625C22.6997 74.6875 22 75.3872 22 76.25V88.4375C22 89.3003 22.6997 90 23.5625 90H42.3125C43.1753 90 43.875 89.3003 43.875 88.4375V76.25C43.875 75.3872 43.1753 74.6875 42.3125 74.6875ZM40.75 86.875H25.125V77.8125H40.75V86.875Z" fill="black"/>
<path d="M71.375 69.375H52.625C51.7622 69.375 51.0625 70.0747 51.0625 70.9375V88.4375C51.0625 89.3003 51.7622 90 52.625 90H71.375C72.2378 90 72.9375 89.3003 72.9375 88.4375V70.9375C72.9375 70.0747 72.2378 69.375 71.375 69.375ZM69.8125 86.875H54.1875V72.5H69.8125V86.875Z" fill="#E7404A"/>
<path d="M100.438 64.375H86.7892C86.8749 64.2191 86.9535 64.058 87.0242 63.8922C87.5864 62.5759 87.6024 61.1195 87.0692 59.7914L82.0224 47.2178C81.5802 46.1161 80.7716 45.1806 79.746 44.5834L74.8149 41.7122C74.8169 41.6794 74.8199 41.6469 74.8199 41.6134V30.9286C80.9886 30.0014 86.5725 27.1767 91.0424 22.707L91.1483 22.6009C93.1141 20.635 93.1141 17.4361 91.1483 15.4705C90.196 14.518 88.9299 13.9934 87.583 13.9934C86.2363 13.9934 84.97 14.518 84.0177 15.4703L83.9117 15.5763C80.843 18.645 76.9147 20.5414 72.6697 21.0423C73.2088 20.1 73.5186 19.0106 73.5186 17.8494V16.4523C73.5186 12.8944 70.6241 10 67.0663 10C63.5085 10 60.6139 12.8944 60.6139 16.4523V17.8494C60.6139 19.0658 60.9527 20.2045 61.5402 21.1767H61.3172C53.5164 21.1767 46.1825 24.2145 40.6661 29.7306L40.5602 29.8367C38.5944 31.8027 38.5944 35.0016 40.5602 36.9673C42.5261 38.9333 45.725 38.9333 47.6909 36.9673L47.7969 36.8614C50.3395 34.3184 53.4547 32.5805 56.8888 31.7734V41.6136C56.8888 41.9619 57.0042 42.2827 57.197 42.5425L52.6022 51.8714L41.1619 57.2997C39.8688 57.9134 38.892 58.9937 38.4114 60.342C37.9308 61.6903 38.0042 63.1448 38.6177 64.4378C39.5002 66.2981 41.4014 67.5003 43.4614 67.5003C44.2592 67.5003 45.0313 67.3259 45.7559 66.982L52.5286 63.7684C53.3081 63.3986 53.6403 62.4667 53.2703 61.687C52.9005 60.9075 51.9689 60.575 51.1889 60.9453L44.4163 64.1589C44.1134 64.3027 43.7924 64.3755 43.4616 64.3755C42.6022 64.3755 41.8092 63.8742 41.4411 63.0984C41.1853 62.5595 41.1549 61.9533 41.355 61.3913C41.5553 60.8294 41.9625 60.3791 42.5016 60.1233L54.4333 54.4617C54.7516 54.3108 55.0095 54.0566 55.1652 53.7406L60.3685 43.1766H71.1186L78.1738 47.2845C78.6013 47.5336 78.9383 47.9234 79.1225 48.3825L84.1694 60.9561C84.3916 61.5097 84.385 62.1167 84.1506 62.6652C83.9163 63.2139 83.4825 63.6384 82.9286 63.8606C82.6617 63.9678 82.3819 64.0222 82.0981 64.0223C81.1803 64.0223 80.3663 63.4719 80.0244 62.6198L75.4633 51.2566C75.3135 50.8831 75.0255 50.5822 74.6592 50.4158L66.8261 46.8587C66.1478 46.5508 65.3474 46.7642 64.9122 47.3683L61.0536 52.7247C60.5492 53.4247 60.708 54.4012 61.4083 54.9058C62.1086 55.4102 63.085 55.2514 63.5894 54.5511L66.6997 50.2333L72.7967 53.002L77.1244 63.7836C77.6869 65.1852 78.7822 66.2461 80.1255 66.7745V88.4375C80.1255 89.3003 80.8252 90 81.688 90H100.438C101.301 90 102 89.3003 102 88.4375V65.9375C102 65.0747 101.3 64.375 100.438 64.375ZM63.7389 17.8494V16.4523C63.7389 14.6177 65.2316 13.125 67.0663 13.125C68.901 13.125 70.3936 14.6177 70.3936 16.4523V17.8494C70.3936 19.6841 68.901 21.1767 67.0663 21.1767C65.2316 21.1767 63.7389 19.6842 63.7389 17.8494ZM60.0136 40.0509V29.8956C60.0136 29.4439 59.8181 29.0145 59.4778 28.7178C59.1374 28.4211 58.6858 28.2863 58.2377 28.3478C53.4219 29.0112 49.0474 31.1911 45.5869 34.6517L45.4809 34.7577C44.7336 35.5053 43.5172 35.5053 42.7697 34.7577C42.0222 34.0103 42.0222 32.7941 42.7697 32.0464L42.8756 31.9405C47.8016 27.0147 54.3508 24.3017 61.3169 24.3017H70.391C76.3331 24.3017 81.9195 21.9877 86.1211 17.7861L86.2271 17.6802C86.5891 17.3181 87.0705 17.1184 87.5827 17.1184C88.0949 17.1184 88.5761 17.3178 88.9383 17.68C89.6858 18.4273 89.6858 19.6438 88.9383 20.3914L88.8324 20.4973C84.5402 24.7895 79.0992 27.3828 73.098 27.997C72.3008 28.0786 71.6947 28.75 71.6947 29.5514V40.0509H60.0136ZM98.875 86.875H83.25V67.5H98.875V86.875Z" fill="black"/>
<path d="M59.3172 60.4467C59.6076 60.1563 59.7734 59.7531 59.7734 59.3422C59.7734 58.9313 59.6076 58.5281 59.3172 58.2375C59.025 57.9469 58.6234 57.7797 58.2125 57.7797C57.8016 57.7797 57.3984 57.9467 57.1062 58.2375C56.8156 58.5281 56.65 58.9313 56.65 59.3422C56.65 59.7531 56.8156 60.1563 57.1062 60.4467C57.3984 60.7374 57.8 60.9047 58.2125 60.9047C58.6234 60.9047 59.025 60.7375 59.3172 60.4467Z" fill="black"/>
</g>
</g>
<defs>
<clipPath id="clip0">
<rect width="143" height="101" fill="white"/>
</clipPath>
<clipPath id="clip1">
<rect width="80" height="80" fill="white" transform="translate(22 10)"/>
</clipPath>
</defs>
</svg>
