<svg width="143" height="101" viewBox="0 0 143 101" fill="none" xmlns="http://www.w3.org/2000/svg">
<path d="M71.275 65.5691C71.275 49.1818 83.2372 42.2096 94.2266 35.6945C101.206 31.5565 98.9176 19.2503 68.6628 13C37.5653 13 33 35.3101 33 43.9953C33 84.6661 71.275 94.5909 71.275 65.5691Z" fill="#E3F7FE"/>
<path d="M57.3335 74.1446C56.8149 74.6632 56.8149 75.5042 57.3335 76.023C57.8522 76.5415 58.6931 76.5415 59.2118 76.023C60.2903 74.9443 61.7245 74.3502 63.2499 74.3502C64.7753 74.3502 66.2095 74.9443 67.2882 76.023C67.5476 76.2822 67.8875 76.412 68.2273 76.412C68.5672 76.412 68.9072 76.2822 69.1665 76.023C69.6851 75.5043 69.6851 74.6634 69.1665 74.1446C67.5861 72.5643 65.4849 71.6939 63.2501 71.6939C61.015 71.6939 58.9139 72.5643 57.3335 74.1446Z" fill="black"/>
<path d="M52.1456 67.477C52.615 67.6028 53.0914 67.6651 53.5647 67.6651C54.5088 67.6651 55.4407 67.4175 56.2802 66.9326C57.5407 66.2049 58.4423 65.03 58.8191 63.6241C59.009 62.9157 58.5885 62.1875 57.8799 61.9976C57.1711 61.8077 56.4432 62.2281 56.2533 62.9366C56.0602 63.6571 55.5981 64.2592 54.9521 64.6323C54.3061 65.0053 53.5537 65.1046 52.8332 64.9114C52.1249 64.7209 51.3964 65.1419 51.2065 65.8503C51.0167 66.5589 51.4371 67.2872 52.1456 67.477Z" fill="black"/>
<path d="M70.2195 66.9328C71.0591 67.4176 71.9908 67.6653 72.9351 67.6653C73.4083 67.6653 73.8849 67.603 74.3542 67.4772C75.0627 67.2873 75.4831 66.5591 75.2933 65.8506C75.1034 65.142 74.3751 64.7211 73.6667 64.9115C72.9463 65.1045 72.1936 65.0054 71.5476 64.6325C70.9016 64.2594 70.4396 63.6572 70.2465 62.9367C70.0565 62.2283 69.3285 61.8077 68.6198 61.9977C67.9114 62.1877 67.4909 62.9159 67.6807 63.6243C68.0575 65.03 68.9591 66.205 70.2195 66.9328Z" fill="black"/>
<path d="M88.7501 21C77.0329 21 67.5002 30.5326 67.5002 42.2499C67.5002 43.8706 67.6844 45.4766 68.0485 47.0466C66.5059 46.6892 64.8996 46.5002 63.2499 46.5002C59.8066 46.5002 56.3849 47.3445 53.3545 48.942C52.7056 49.284 52.4568 50.0873 52.7989 50.7362C53.1411 51.3851 53.9442 51.6337 54.5931 51.2918C57.2431 49.8948 60.2365 49.1565 63.2499 49.1565C73.5025 49.1565 81.8436 57.4977 81.8436 67.7502C81.8436 78.0028 73.5025 86.3439 63.2499 86.3439C52.9974 86.3439 44.6562 78.0028 44.6562 67.7502C44.6562 64.7366 45.3944 61.7434 46.7911 59.0945C47.1332 58.4455 46.8844 57.6422 46.2355 57.3002C45.5866 56.9583 44.7833 57.2067 44.4412 57.8556C42.8442 60.885 42 64.3064 42 67.7501C42 79.4674 51.5327 89 63.2499 89C74.9671 89 84.4998 79.4674 84.4998 67.7501C84.4998 66.1004 84.3108 64.4941 83.9534 62.9516C85.5234 63.3156 87.1294 63.4998 88.7501 63.4998C100.467 63.4998 110 53.9673 110 42.2499C110 30.5326 100.467 21 88.7501 21ZM88.7501 60.8436C86.7962 60.8436 84.8668 60.5375 83.0107 59.9349C80.8512 54.4936 76.5064 50.1488 71.0651 47.9893C70.4625 46.1331 70.1564 44.2038 70.1564 42.2499C70.1564 31.9974 78.4975 23.6562 88.7501 23.6562C99.0026 23.6562 107.344 31.9974 107.344 42.2499C107.344 52.5025 99.0026 60.8436 88.7501 60.8436Z" fill="black"/>
<path d="M92.7883 46.5829C91.7097 47.6615 90.2756 48.2555 88.7501 48.2555C87.2246 48.2555 85.7905 47.6615 84.7121 46.5829C84.1934 46.0643 83.3526 46.0643 82.8337 46.5828C82.3151 47.1013 82.3149 47.9422 82.8336 48.461C84.4138 50.0413 86.515 50.9118 88.7501 50.9118C90.9852 50.9118 93.0864 50.0413 94.6666 48.461C95.1853 47.9424 95.1853 47.1015 94.6666 46.5828C94.1479 46.064 93.3069 46.0641 92.7883 46.5829Z" fill="black"/>
<path d="M83.7283 41.6913C84.0682 41.6913 84.4082 41.5616 84.6674 41.3023C85.1861 40.7836 85.1861 39.9427 84.6674 39.4239C83.6381 38.3948 82.2699 37.8279 80.8146 37.8279C79.3592 37.8279 77.9908 38.3948 76.9617 39.4239C76.443 39.9426 76.443 40.7836 76.9617 41.3023C77.4803 41.8208 78.3213 41.8208 78.84 41.3023C79.3676 40.7748 80.0687 40.4843 80.8147 40.4843C81.5606 40.4843 82.2618 40.7749 82.7893 41.3023C83.0486 41.5617 83.3885 41.6913 83.7283 41.6913Z" fill="black"/>
<path d="M96.6855 37.8281C95.2301 37.8281 93.8619 38.3949 92.8326 39.4241C92.3139 39.9427 92.3138 40.7835 92.8326 41.3024C93.3512 41.8209 94.1922 41.8211 94.7108 41.3024C95.2383 40.7749 95.9396 40.4844 96.6855 40.4844C97.4313 40.4844 98.1326 40.775 98.66 41.3024C98.9194 41.5617 99.2592 41.6914 99.5991 41.6914C99.939 41.6914 100.279 41.5617 100.538 41.3024C101.057 40.7838 101.057 39.9428 100.538 39.4241C99.5091 38.3949 98.1408 37.8281 96.6855 37.8281Z" fill="black"/>
<path d="M49.1627 54.9917C49.5027 54.9917 49.8428 54.862 50.1022 54.6026C50.6209 54.084 50.6209 53.243 50.1022 52.7242C49.5836 52.2057 48.7428 52.2057 48.224 52.7242L48.2233 52.7249C47.7047 53.2435 47.705 54.0841 48.2236 54.6029C48.483 54.8621 48.8227 54.9917 49.1627 54.9917Z" fill="black"/>
</svg>
