<svg width="549" height="160" viewBox="0 0 549 160" fill="none" xmlns="http://www.w3.org/2000/svg">
<line x1="80.0021" y1="80.5" x2="548.002" y2="82.5" stroke="#233C54"/>
<circle cx="194" cy="75" r="75" fill="#E7404A"/>
<path d="M151.086 71V59.625H154.586C155.586 59.625 156.479 59.8516 157.266 60.3047C158.057 60.7526 158.674 61.3932 159.117 62.2266C159.56 63.0547 159.781 63.9974 159.781 65.0547V65.5781C159.781 66.6354 159.562 67.5755 159.125 68.3984C158.693 69.2214 158.081 69.8594 157.289 70.3125C156.497 70.7656 155.604 70.9948 154.609 71H151.086ZM153.43 61.5234V69.1172H154.562C155.479 69.1172 156.18 68.8177 156.664 68.2188C157.148 67.6198 157.396 66.763 157.406 65.6484V65.0469C157.406 63.8906 157.167 63.0156 156.688 62.4219C156.208 61.8229 155.508 61.5234 154.586 61.5234H153.43ZM168.336 66.0703H163.836V69.1172H169.117V71H161.492V59.625H169.102V61.5234H163.836V64.2344H168.336V66.0703ZM176.391 68.0156C176.391 67.5729 176.234 67.2344 175.922 67C175.609 66.7604 175.047 66.5104 174.234 66.25C173.422 65.9844 172.779 65.724 172.305 65.4688C171.013 64.7708 170.367 63.8307 170.367 62.6484C170.367 62.0339 170.539 61.487 170.883 61.0078C171.232 60.5234 171.729 60.1458 172.375 59.875C173.026 59.6042 173.755 59.4688 174.562 59.4688C175.375 59.4688 176.099 59.6172 176.734 59.9141C177.37 60.2057 177.862 60.6198 178.211 61.1562C178.565 61.6927 178.742 62.3021 178.742 62.9844H176.398C176.398 62.4635 176.234 62.0599 175.906 61.7734C175.578 61.4818 175.117 61.3359 174.523 61.3359C173.951 61.3359 173.505 61.4583 173.188 61.7031C172.87 61.9427 172.711 62.2604 172.711 62.6562C172.711 63.026 172.896 63.3359 173.266 63.5859C173.641 63.8359 174.19 64.0703 174.914 64.2891C176.247 64.6901 177.219 65.1875 177.828 65.7812C178.438 66.375 178.742 67.1146 178.742 68C178.742 68.9844 178.37 69.7578 177.625 70.3203C176.88 70.8776 175.878 71.1562 174.617 71.1562C173.742 71.1562 172.945 70.9974 172.227 70.6797C171.508 70.3568 170.958 69.9167 170.578 69.3594C170.203 68.8021 170.016 68.1562 170.016 67.4219H172.367C172.367 68.6771 173.117 69.3047 174.617 69.3047C175.174 69.3047 175.609 69.1927 175.922 68.9688C176.234 68.7396 176.391 68.4219 176.391 68.0156ZM182.828 71H180.484V59.625H182.828V71ZM194.008 69.5625C193.586 70.0677 192.99 70.4609 192.219 70.7422C191.448 71.0182 190.594 71.1562 189.656 71.1562C188.672 71.1562 187.807 70.9427 187.062 70.5156C186.323 70.0833 185.75 69.4583 185.344 68.6406C184.943 67.8229 184.737 66.862 184.727 65.7578V64.9844C184.727 63.849 184.917 62.8672 185.297 62.0391C185.682 61.2057 186.234 60.5703 186.953 60.1328C187.677 59.6901 188.523 59.4688 189.492 59.4688C190.841 59.4688 191.896 59.7917 192.656 60.4375C193.417 61.0781 193.867 62.013 194.008 63.2422H191.727C191.622 62.5911 191.391 62.1146 191.031 61.8125C190.677 61.5104 190.188 61.3594 189.562 61.3594C188.766 61.3594 188.159 61.6589 187.742 62.2578C187.326 62.8568 187.115 63.7474 187.109 64.9297V65.6562C187.109 66.849 187.336 67.75 187.789 68.3594C188.242 68.9688 188.906 69.2734 189.781 69.2734C190.661 69.2734 191.289 69.0859 191.664 68.7109V66.75H189.531V65.0234H194.008V69.5625ZM205.164 71H202.82L198.258 63.5156V71H195.914V59.625H198.258L202.828 67.125V59.625H205.164V71ZM219.289 61.5234H215.805V71H213.461V61.5234H210.023V59.625H219.289V61.5234ZM229.891 71H227.547V66.125H222.977V71H220.633V59.625H222.977V64.2344H227.547V59.625H229.891V71ZM238.789 66.0703H234.289V69.1172H239.57V71H231.945V59.625H239.555V61.5234H234.289V64.2344H238.789V66.0703ZM163.5 87.0156C163.5 86.5729 163.344 86.2344 163.031 86C162.719 85.7604 162.156 85.5104 161.344 85.25C160.531 84.9844 159.888 84.724 159.414 84.4688C158.122 83.7708 157.477 82.8307 157.477 81.6484C157.477 81.0339 157.648 80.487 157.992 80.0078C158.341 79.5234 158.839 79.1458 159.484 78.875C160.135 78.6042 160.865 78.4688 161.672 78.4688C162.484 78.4688 163.208 78.6172 163.844 78.9141C164.479 79.2057 164.971 79.6198 165.32 80.1562C165.674 80.6927 165.852 81.3021 165.852 81.9844H163.508C163.508 81.4635 163.344 81.0599 163.016 80.7734C162.688 80.4818 162.227 80.3359 161.633 80.3359C161.06 80.3359 160.615 80.4583 160.297 80.7031C159.979 80.9427 159.82 81.2604 159.82 81.6562C159.82 82.026 160.005 82.3359 160.375 82.5859C160.75 82.8359 161.299 83.0703 162.023 83.2891C163.357 83.6901 164.328 84.1875 164.938 84.7812C165.547 85.375 165.852 86.1146 165.852 87C165.852 87.9844 165.479 88.7578 164.734 89.3203C163.99 89.8776 162.987 90.1562 161.727 90.1562C160.852 90.1562 160.055 89.9974 159.336 89.6797C158.617 89.3568 158.068 88.9167 157.688 88.3594C157.312 87.8021 157.125 87.1562 157.125 86.4219H159.477C159.477 87.6771 160.227 88.3047 161.727 88.3047C162.284 88.3047 162.719 88.1927 163.031 87.9688C163.344 87.7396 163.5 87.4219 163.5 87.0156ZM176.789 84.5703C176.789 85.6901 176.591 86.6719 176.195 87.5156C175.799 88.3594 175.232 89.0104 174.492 89.4688C173.758 89.9271 172.914 90.1562 171.961 90.1562C171.018 90.1562 170.177 89.9297 169.438 89.4766C168.698 89.0234 168.125 88.3776 167.719 87.5391C167.312 86.6953 167.107 85.7266 167.102 84.6328V84.0703C167.102 82.9505 167.302 81.9661 167.703 81.1172C168.109 80.263 168.68 79.6094 169.414 79.1562C170.154 78.6979 170.997 78.4688 171.945 78.4688C172.893 78.4688 173.734 78.6979 174.469 79.1562C175.208 79.6094 175.779 80.263 176.18 81.1172C176.586 81.9661 176.789 82.9479 176.789 84.0625V84.5703ZM174.414 84.0547C174.414 82.862 174.201 81.9557 173.773 81.3359C173.346 80.7161 172.737 80.4062 171.945 80.4062C171.159 80.4062 170.552 80.7135 170.125 81.3281C169.698 81.9375 169.482 82.8333 169.477 84.0156V84.5703C169.477 85.7318 169.69 86.6328 170.117 87.2734C170.544 87.9141 171.159 88.2344 171.961 88.2344C172.747 88.2344 173.352 87.9271 173.773 87.3125C174.195 86.6927 174.409 85.7917 174.414 84.6094V84.0547ZM180.836 88.1172H185.812V90H178.492V78.625H180.836V88.1172ZM195.586 78.625V86.1172C195.586 87.362 195.195 88.3464 194.414 89.0703C193.638 89.7943 192.576 90.1562 191.227 90.1562C189.898 90.1562 188.844 89.8047 188.062 89.1016C187.281 88.3984 186.883 87.4323 186.867 86.2031V78.625H189.211V86.1328C189.211 86.8776 189.388 87.4219 189.742 87.7656C190.102 88.1042 190.596 88.2734 191.227 88.2734C192.544 88.2734 193.214 87.5807 193.234 86.1953V78.625H195.586ZM206.07 80.5234H202.586V90H200.242V80.5234H196.805V78.625H206.07V80.5234ZM209.906 90H207.562V78.625H209.906V90ZM221.43 84.5703C221.43 85.6901 221.232 86.6719 220.836 87.5156C220.44 88.3594 219.872 89.0104 219.133 89.4688C218.398 89.9271 217.555 90.1562 216.602 90.1562C215.659 90.1562 214.818 89.9297 214.078 89.4766C213.339 89.0234 212.766 88.3776 212.359 87.5391C211.953 86.6953 211.747 85.7266 211.742 84.6328V84.0703C211.742 82.9505 211.943 81.9661 212.344 81.1172C212.75 80.263 213.32 79.6094 214.055 79.1562C214.794 78.6979 215.638 78.4688 216.586 78.4688C217.534 78.4688 218.375 78.6979 219.109 79.1562C219.849 79.6094 220.419 80.263 220.82 81.1172C221.227 81.9661 221.43 82.9479 221.43 84.0625V84.5703ZM219.055 84.0547C219.055 82.862 218.841 81.9557 218.414 81.3359C217.987 80.7161 217.378 80.4062 216.586 80.4062C215.799 80.4062 215.193 80.7135 214.766 81.3281C214.339 81.9375 214.122 82.8333 214.117 84.0156V84.5703C214.117 85.7318 214.331 86.6328 214.758 87.2734C215.185 87.9141 215.799 88.2344 216.602 88.2344C217.388 88.2344 217.992 87.9271 218.414 87.3125C218.836 86.6927 219.049 85.7917 219.055 84.6094V84.0547ZM232.383 90H230.039L225.477 82.5156V90H223.133V78.625H225.477L230.047 86.125V78.625H232.383V90Z" fill="white"/>
<circle cx="333" cy="83" r="46" fill="white" stroke="#E7404A" stroke-width="2"/>
<path d="M304.378 88V78.0469H307.188C308.053 78.0469 308.819 78.2383 309.484 78.6211C310.15 79.0039 310.662 79.5485 311.022 80.2549C311.387 80.9613 311.572 81.7725 311.576 82.6885V83.3242C311.576 84.263 311.394 85.0856 311.029 85.792C310.669 86.4984 310.152 87.0407 309.478 87.4189C308.808 87.7972 308.026 87.9909 307.133 88H304.378ZM305.69 79.127V86.9268H307.071C308.083 86.9268 308.869 86.6123 309.43 85.9834C309.995 85.3545 310.277 84.459 310.277 83.2969V82.7158C310.277 81.5856 310.011 80.7083 309.478 80.084C308.949 79.4551 308.197 79.1361 307.222 79.127H305.69ZM319.191 83.3994H314.878V86.9268H319.889V88H313.565V78.0469H319.82V79.127H314.878V82.3262H319.191V83.3994ZM324.817 86.2568L327.661 78.0469H329.097L325.405 88H324.243L320.559 78.0469H321.987L324.817 86.2568ZM336.062 83.3994H331.749V86.9268H336.76V88H330.437V78.0469H336.691V79.127H331.749V82.3262H336.062V83.3994ZM339.713 86.9268H344.43V88H338.394V78.0469H339.713V86.9268ZM353.132 83.3447C353.132 84.32 352.968 85.1722 352.64 85.9014C352.312 86.626 351.847 87.1797 351.245 87.5625C350.644 87.9453 349.942 88.1367 349.14 88.1367C348.356 88.1367 347.661 87.9453 347.055 87.5625C346.449 87.1751 345.977 86.626 345.64 85.915C345.307 85.1995 345.136 84.3724 345.127 83.4336V82.7158C345.127 81.7588 345.293 80.9134 345.626 80.1797C345.959 79.446 346.428 78.8854 347.034 78.498C347.645 78.1061 348.342 77.9102 349.126 77.9102C349.924 77.9102 350.625 78.1038 351.231 78.4912C351.842 78.874 352.312 79.4323 352.64 80.166C352.968 80.8952 353.132 81.7451 353.132 82.7158V83.3447ZM351.826 82.7021C351.826 81.5218 351.589 80.6172 351.115 79.9883C350.641 79.3548 349.978 79.0381 349.126 79.0381C348.297 79.0381 347.643 79.3548 347.164 79.9883C346.69 80.6172 346.446 81.4922 346.433 82.6133V83.3447C346.433 84.4886 346.672 85.3887 347.15 86.0449C347.633 86.6966 348.297 87.0225 349.14 87.0225C349.987 87.0225 350.644 86.7148 351.108 86.0996C351.573 85.4798 351.812 84.5934 351.826 83.4404V82.7021ZM356.413 84.1035V88H355.101V78.0469H358.771C359.861 78.0469 360.713 78.3249 361.328 78.8809C361.948 79.4368 362.258 80.1729 362.258 81.0889C362.258 82.055 361.955 82.8001 361.349 83.3242C360.747 83.8438 359.883 84.1035 358.758 84.1035H356.413ZM356.413 83.0303H358.771C359.473 83.0303 360.011 82.8662 360.385 82.5381C360.758 82.2054 360.945 81.7269 360.945 81.1025C360.945 80.5101 360.758 80.0361 360.385 79.6807C360.011 79.3252 359.498 79.1406 358.847 79.127H356.413V83.0303Z" fill="#233C54"/>
<path d="M106 80C106 105.366 84.5493 126 58 126C31.4506 126 10 105.366 10 80C10 54.6338 31.4506 34 58 34C84.5493 34 106 54.6338 106 80Z" fill="white" stroke="#E7404A" stroke-width="2"/>
<path d="M26.9679 77.6842V67.7311H29.7775C30.6434 67.7311 31.409 67.9225 32.0743 68.3053C32.7397 68.6881 33.2524 69.2327 33.6124 69.9391C33.977 70.6455 34.1616 71.4567 34.1661 72.3727V73.0084C34.1661 73.9472 33.9838 74.7698 33.6193 75.4762C33.2592 76.1826 32.742 76.7249 32.0675 77.1031C31.3976 77.4814 30.616 77.6751 29.7228 77.6842H26.9679ZM28.2804 68.8112V76.611H29.6613C30.673 76.611 31.4591 76.2965 32.0197 75.6676C32.5848 75.0387 32.8673 74.1432 32.8673 72.9811V72.4C32.8673 71.2698 32.6007 70.3925 32.0675 69.7682C31.5389 69.1393 30.7869 68.8203 29.8116 68.8112H28.2804ZM37.5636 77.6842H36.2511V67.7311H37.5636V77.6842ZM42.9025 73.2477C41.7768 72.9241 40.9565 72.5276 40.4415 72.0582C39.9311 71.5843 39.6759 71.0009 39.6759 70.3082C39.6759 69.5244 39.9881 68.8772 40.6124 68.3668C41.2413 67.8518 42.0571 67.5944 43.0597 67.5944C43.7433 67.5944 44.3517 67.7265 44.8849 67.9908C45.4226 68.2552 45.8374 68.6198 46.129 69.0846C46.4253 69.5494 46.5734 70.0576 46.5734 70.609H45.254C45.254 70.0074 45.0626 69.5358 44.6798 69.194C44.297 68.8476 43.757 68.6744 43.0597 68.6744C42.4126 68.6744 41.9067 68.818 41.5421 69.1051C41.1821 69.3877 41.0021 69.7819 41.0021 70.2877C41.0021 70.6933 41.173 71.0374 41.5148 71.3199C41.8611 71.5979 42.4467 71.8531 43.2716 72.0856C44.101 72.318 44.7482 72.5755 45.213 72.858C45.6824 73.136 46.0288 73.4619 46.2521 73.8356C46.4799 74.2093 46.5939 74.649 46.5939 75.1549C46.5939 75.9615 46.2794 76.6087 45.6505 77.0963C45.0216 77.5794 44.1808 77.8209 43.1281 77.8209C42.4445 77.8209 41.8064 77.691 41.214 77.4313C40.6215 77.167 40.1635 76.8069 39.84 76.3512C39.521 75.8955 39.3615 75.3782 39.3615 74.7994H40.6808C40.6808 75.401 40.9018 75.8772 41.3439 76.2281C41.7905 76.5745 42.3852 76.7477 43.1281 76.7477C43.8208 76.7477 44.3517 76.6064 44.7208 76.3239C45.09 76.0413 45.2745 75.6562 45.2745 75.1686C45.2745 74.6809 45.1036 74.305 44.7618 74.0406C44.42 73.7718 43.8003 73.5074 42.9025 73.2477ZM55.6036 74.526C55.4806 75.5787 55.0909 76.3922 54.4347 76.9664C53.783 77.5361 52.9148 77.8209 51.8302 77.8209C50.6544 77.8209 49.7111 77.3994 49.0001 76.5563C48.2937 75.7132 47.9406 74.5852 47.9406 73.1725V72.2155C47.9406 71.2903 48.1046 70.4768 48.4327 69.775C48.7654 69.0732 49.2348 68.5354 49.8409 68.1617C50.4471 67.7835 51.1489 67.5944 51.9464 67.5944C53.0037 67.5944 53.8514 67.8906 54.4894 68.483C55.1274 69.0709 55.4988 69.8867 55.6036 70.9303H54.2843C54.1704 70.1373 53.922 69.5631 53.5392 69.2076C53.1609 68.8522 52.63 68.6744 51.9464 68.6744C51.1079 68.6744 50.4493 68.9843 49.9708 69.6041C49.4969 70.2239 49.2599 71.1058 49.2599 72.2496V73.2135C49.2599 74.2936 49.4855 75.1526 49.9366 75.7906C50.3878 76.4287 51.019 76.7477 51.8302 76.7477C52.5594 76.7477 53.1176 76.5836 53.505 76.2555C53.8969 75.9228 54.1567 75.3463 54.2843 74.526H55.6036ZM65.0577 73.0289C65.0577 74.0042 64.8937 74.8564 64.5656 75.5856C64.2374 76.3102 63.7726 76.8639 63.171 77.2467C62.5695 77.6295 61.8676 77.8209 61.0656 77.8209C60.2817 77.8209 59.5867 77.6295 58.9806 77.2467C58.3745 76.8593 57.9028 76.3102 57.5656 75.5992C57.2329 74.8837 57.062 74.0566 57.0529 73.1178V72.4C57.0529 71.443 57.2192 70.5976 57.5519 69.8639C57.8846 69.1302 58.354 68.5696 58.9601 68.1823C59.5708 67.7903 60.268 67.5944 61.0519 67.5944C61.8494 67.5944 62.5512 67.788 63.1573 68.1754C63.768 68.5582 64.2374 69.1165 64.5656 69.8502C64.8937 70.5794 65.0577 71.4293 65.0577 72.4V73.0289ZM63.7521 72.3864C63.7521 71.206 63.5151 70.3014 63.0411 69.6725C62.5672 69.039 61.9041 68.7223 61.0519 68.7223C60.2225 68.7223 59.5685 69.039 59.09 69.6725C58.616 70.3014 58.3722 71.1764 58.3585 72.2975V73.0289C58.3585 74.1728 58.5978 75.0729 59.0763 75.7291C59.5594 76.3808 60.2225 76.7067 61.0656 76.7067C61.9132 76.7067 62.5695 76.399 63.0343 75.7838C63.4991 75.164 63.7384 74.2776 63.7521 73.1246V72.3864ZM70.171 75.941L73.0148 67.7311H74.4503L70.7589 77.6842H69.5968L65.9122 67.7311H67.3409L70.171 75.941ZM81.4161 73.0836H77.1027V76.611H82.1134V77.6842H75.7902V67.7311H82.045V68.8112H77.1027V72.0104H81.4161V73.0836ZM87.3976 73.6578H85.0597V77.6842H83.7404V67.7311H87.0353C88.1564 67.7311 89.0177 67.9863 89.6193 68.4967C90.2254 69.0071 90.5284 69.75 90.5284 70.7252C90.5284 71.345 90.3598 71.8851 90.0226 72.3453C89.6899 72.8056 89.2251 73.1497 88.6281 73.3776L90.9659 77.6022V77.6842H89.5577L87.3976 73.6578ZM85.0597 72.5846H87.0763C87.728 72.5846 88.2452 72.416 88.6281 72.0787C89.0154 71.7415 89.2091 71.2903 89.2091 70.7252C89.2091 70.11 89.0245 69.6383 88.6554 69.3102C88.2908 68.9821 87.7622 68.8157 87.0695 68.8112H85.0597V72.5846ZM34.1251 91.0865H29.9552L29.0187 93.6842H27.6652L31.4659 83.7311H32.6144L36.422 93.6842H35.0753L34.1251 91.0865ZM30.3517 90.0065H33.7355L32.0402 85.3512L30.3517 90.0065ZM45.4113 93.6842H44.0919L39.0812 86.0143V93.6842H37.7618V83.7311H39.0812L44.1056 91.4352V83.7311H45.4113V93.6842ZM47.7423 93.6842V83.7311H50.5519C51.4178 83.7311 52.1834 83.9225 52.8488 84.3053C53.5141 84.6881 54.0268 85.2327 54.3868 85.9391C54.7514 86.6455 54.936 87.4567 54.9406 88.3727V89.0084C54.9406 89.9472 54.7583 90.7698 54.3937 91.4762C54.0337 92.1826 53.5164 92.7249 52.8419 93.1031C52.172 93.4814 51.3904 93.6751 50.4972 93.6842H47.7423ZM49.0548 84.8112V92.611H50.4357C51.4474 92.611 52.2335 92.2965 52.7941 91.6676C53.3592 91.0387 53.6417 90.1432 53.6417 88.9811V88.4C53.6417 87.2698 53.3751 86.3925 52.8419 85.7682C52.3133 85.1393 51.5613 84.8203 50.5861 84.8112H49.0548ZM62.0978 83.7311L65.3517 91.8522L68.6056 83.7311H70.3077V93.6842H68.9952V89.8082L69.1183 85.6246L65.8507 93.6842H64.8458L61.5851 85.6451L61.715 89.8082V93.6842H60.4025V83.7311H62.0978ZM78.2443 91.0865H74.0743L73.1378 93.6842H71.7843L75.5851 83.7311H76.7335L80.5411 93.6842H79.1945L78.2443 91.0865ZM74.4708 90.0065H77.8546L76.1593 85.3512L74.4708 90.0065ZM83.1935 89.7877V93.6842H81.881V83.7311H85.5519C86.6411 83.7311 87.4933 84.0091 88.1085 84.5651C88.7283 85.1211 89.0382 85.8571 89.0382 86.7731C89.0382 87.7392 88.7351 88.4843 88.129 89.0084C87.5275 89.528 86.6639 89.7877 85.5382 89.7877H83.1935ZM83.1935 88.7145H85.5519C86.2537 88.7145 86.7915 88.5504 87.1652 88.2223C87.5389 87.8896 87.7257 87.4111 87.7257 86.7867C87.7257 86.1943 87.5389 85.7203 87.1652 85.3649C86.7915 85.0094 86.2788 84.8248 85.6271 84.8112H83.1935V88.7145Z" fill="#233C54"/>
<mask id="path-8-inside-1" fill="white">
<path d="M0.392002 63.2274C3.86542 51.2974 10.957 40.74 20.6875 33.013C30.418 25.286 42.3075 20.7705 54.7142 20.09C67.1209 19.4096 79.4329 22.5977 89.9501 29.2142C100.467 35.8308 108.671 45.5493 113.428 57.0279L110.954 58.0532C106.409 47.087 98.5718 37.8022 88.524 31.481C78.4762 25.1598 66.7138 22.114 54.8608 22.7641C43.0079 23.4142 31.6491 27.7281 22.3529 35.1102C13.0567 42.4924 6.28168 52.5786 2.9633 63.9761L0.392002 63.2274Z"/>
</mask>
<path d="M0.392002 63.2274C3.86542 51.2974 10.957 40.74 20.6875 33.013C30.418 25.286 42.3075 20.7705 54.7142 20.09C67.1209 19.4096 79.4329 22.5977 89.9501 29.2142C100.467 35.8308 108.671 45.5493 113.428 57.0279L110.954 58.0532C106.409 47.087 98.5718 37.8022 88.524 31.481C78.4762 25.1598 66.7138 22.114 54.8608 22.7641C43.0079 23.4142 31.6491 27.7281 22.3529 35.1102C13.0567 42.4924 6.28168 52.5786 2.9633 63.9761L0.392002 63.2274Z" fill="white" stroke="#233C54" stroke-width="4" mask="url(#path-8-inside-1)"/>
<path d="M115.191 62.3952L103.794 56.6411L115.045 49.6291L115.191 62.3952Z" fill="#233C54"/>
<mask id="path-10-inside-2" fill="white">
<path d="M111.845 96.8069C116.45 114.156 126.43 129.603 140.353 140.932C154.276 152.261 171.429 158.891 189.352 159.873C207.276 160.854 225.05 156.136 240.127 146.395C255.204 136.654 266.811 122.39 273.283 105.647L270.963 104.751C264.68 121.004 253.414 134.851 238.777 144.307C224.141 153.763 206.887 158.343 189.488 157.39C172.089 156.437 155.439 150 141.922 139.003C128.406 128.005 118.719 113.011 114.248 96.1689L111.845 96.8069Z"/>
</mask>
<path d="M111.845 96.8069C116.45 114.156 126.43 129.603 140.353 140.932C154.276 152.261 171.429 158.891 189.352 159.873C207.276 160.854 225.05 156.136 240.127 146.395C255.204 136.654 266.811 122.39 273.283 105.647L270.963 104.751C264.68 121.004 253.414 134.851 238.777 144.307C224.141 153.763 206.887 158.343 189.488 157.39C172.089 156.437 155.439 150 141.922 139.003C128.406 128.005 118.719 113.011 114.248 96.1689L111.845 96.8069Z" stroke="#233C54" stroke-width="6" mask="url(#path-10-inside-2)"/>
<path d="M277.256 110.041L265.138 106.024L275.236 97.4348L277.256 110.041Z" fill="#233C54"/>
<mask id="path-12-inside-3" fill="white">
<path d="M274.866 70.1541C277.94 58.1151 284.676 47.3275 294.144 39.2809C303.612 31.2343 315.345 26.3256 327.722 25.2326C340.099 24.1396 352.511 26.9162 363.242 33.179C373.974 39.4418 382.496 48.8819 387.633 60.1958L385.194 61.303C380.287 50.494 372.145 41.4753 361.892 35.492C351.64 29.5087 339.782 26.856 327.958 27.9003C316.133 28.9445 304.924 33.6341 295.879 41.3216C286.833 49.009 280.398 59.3151 277.46 70.8167L274.866 70.1541Z"/>
</mask>
<path d="M274.866 70.1541C277.94 58.1151 284.676 47.3275 294.144 39.2809C303.612 31.2343 315.345 26.3256 327.722 25.2326C340.099 24.1396 352.511 26.9162 363.242 33.179C373.974 39.4418 382.496 48.8819 387.633 60.1958L385.194 61.303C380.287 50.494 372.145 41.4753 361.892 35.492C351.64 29.5087 339.782 26.856 327.958 27.9003C316.133 28.9445 304.924 33.6341 295.879 41.3216C286.833 49.009 280.398 59.3151 277.46 70.8167L274.866 70.1541Z" fill="white" stroke="#233C54" stroke-width="4" mask="url(#path-12-inside-3)"/>
<path d="M389.391 64.6734L377.994 58.9193L389.245 51.9073L389.391 64.6734Z" fill="#233C54"/>
<path d="M439.994 54.6045H435.817V59H434.505V49.0469H440.671V50.127H435.817V53.5312H439.994V54.6045ZM446.577 56.4023H442.407L441.471 59H440.117L443.918 49.0469H445.066L448.874 59H447.527L446.577 56.4023ZM442.804 55.3223H446.188L444.492 50.667L442.804 55.3223ZM453.146 54.5635C452.021 54.2399 451.201 53.8434 450.686 53.374C450.175 52.9001 449.92 52.3167 449.92 51.624C449.92 50.8402 450.232 50.193 450.856 49.6826C451.485 49.1676 452.301 48.9102 453.304 48.9102C453.987 48.9102 454.596 49.0423 455.129 49.3066C455.667 49.571 456.081 49.9355 456.373 50.4004C456.669 50.8652 456.817 51.3734 456.817 51.9248H455.498C455.498 51.3232 455.307 50.8516 454.924 50.5098C454.541 50.1634 454.001 49.9902 453.304 49.9902C452.657 49.9902 452.151 50.1338 451.786 50.4209C451.426 50.7035 451.246 51.0977 451.246 51.6035C451.246 52.0091 451.417 52.3532 451.759 52.6357C452.105 52.9137 452.691 53.1689 453.516 53.4014C454.345 53.6338 454.992 53.8913 455.457 54.1738C455.926 54.4518 456.273 54.7777 456.496 55.1514C456.724 55.5251 456.838 55.9648 456.838 56.4707C456.838 57.2773 456.523 57.9245 455.895 58.4121C455.266 58.8952 454.425 59.1367 453.372 59.1367C452.688 59.1367 452.05 59.0068 451.458 58.7471C450.866 58.4827 450.408 58.1227 450.084 57.667C449.765 57.2113 449.605 56.694 449.605 56.1152H450.925C450.925 56.7168 451.146 57.193 451.588 57.5439C452.035 57.8903 452.629 58.0635 453.372 58.0635C454.065 58.0635 454.596 57.9222 454.965 57.6396C455.334 57.3571 455.519 56.972 455.519 56.4844C455.519 55.9967 455.348 55.6208 455.006 55.3564C454.664 55.0876 454.044 54.8232 453.146 54.5635ZM465.403 50.127H462.204V59H460.898V50.127H457.706V49.0469H465.403V50.127ZM473.374 57.2568L476.218 49.0469H477.653L473.962 59H472.8L469.115 49.0469H470.544L473.374 57.2568ZM483.97 56.4023H479.8L478.863 59H477.51L481.311 49.0469H482.459L486.267 59H484.92L483.97 56.4023ZM480.196 55.3223H483.58L481.885 50.667L480.196 55.3223ZM488.926 57.9268H493.643V59H487.606V49.0469H488.926V57.9268ZM501.777 49.0469V55.8145C501.773 56.7533 501.477 57.5212 500.889 58.1182C500.305 58.7152 499.512 59.0501 498.51 59.123L498.161 59.1367C497.072 59.1367 496.204 58.8428 495.557 58.2549C494.91 57.667 494.581 56.8581 494.572 55.8281V49.0469H495.871V55.7871C495.871 56.5072 496.069 57.0677 496.466 57.4688C496.862 57.8652 497.427 58.0635 498.161 58.0635C498.904 58.0635 499.471 57.8652 499.863 57.4688C500.26 57.0723 500.458 56.514 500.458 55.7939V49.0469H501.777ZM509.475 54.3994H505.161V57.9268H510.172V59H503.849V49.0469H510.104V50.127H505.161V53.3262H509.475V54.3994ZM442.12 75V65.0469H444.93C445.796 65.0469 446.561 65.2383 447.227 65.6211C447.892 66.0039 448.405 66.5485 448.765 67.2549C449.129 67.9613 449.314 68.7725 449.318 69.6885V70.3242C449.318 71.263 449.136 72.0856 448.771 72.792C448.411 73.4984 447.894 74.0407 447.22 74.4189C446.55 74.7972 445.768 74.9909 444.875 75H442.12ZM443.433 66.127V73.9268H444.813C445.825 73.9268 446.611 73.6123 447.172 72.9834C447.737 72.3545 448.02 71.459 448.02 70.2969V69.7158C448.02 68.5856 447.753 67.7083 447.22 67.084C446.691 66.4551 445.939 66.1361 444.964 66.127H443.433ZM456.934 70.3994H452.62V73.9268H457.631V75H451.308V65.0469H457.562V66.127H452.62V69.3262H456.934V70.3994ZM460.584 73.9268H465.301V75H459.265V65.0469H460.584V73.9268ZM468.206 75H466.894V65.0469H468.206V75ZM473.907 73.2568L476.751 65.0469H478.187L474.495 75H473.333L469.648 65.0469H471.077L473.907 73.2568ZM485.152 70.3994H480.839V73.9268H485.85V75H479.526V65.0469H485.781V66.127H480.839V69.3262H485.152V70.3994ZM491.134 70.9736H488.796V75H487.477V65.0469H490.771C491.893 65.0469 492.754 65.3021 493.355 65.8125C493.962 66.3229 494.265 67.0658 494.265 68.041C494.265 68.6608 494.096 69.2008 493.759 69.6611C493.426 70.1214 492.961 70.4655 492.364 70.6934L494.702 74.918V75H493.294L491.134 70.9736ZM488.796 69.9004H490.812C491.464 69.9004 491.981 69.7318 492.364 69.3945C492.752 69.0573 492.945 68.6061 492.945 68.041C492.945 67.4258 492.761 66.9541 492.392 66.626C492.027 66.2979 491.498 66.1315 490.806 66.127H488.796V69.9004ZM498.817 70.0439L501.415 65.0469H502.905L499.474 71.2881V75H498.161V71.2881L494.729 65.0469H496.233L498.817 70.0439Z" fill="#233C54"/>
</svg>
