<svg width="549" height="160" viewBox="0 0 549 160" fill="none" xmlns="http://www.w3.org/2000/svg">
<line x1="80.0021" y1="80.5" x2="548.002" y2="82.5" stroke="#233C54"/>
<circle cx="194" cy="75" r="75" fill="#E7404A"/>
<path d="M153.711 71V59.625H157.211C158.211 59.625 159.104 59.8516 159.891 60.3047C160.682 60.7526 161.299 61.3932 161.742 62.2266C162.185 63.0547 162.406 63.9974 162.406 65.0547V65.5781C162.406 66.6354 162.188 67.5755 161.75 68.3984C161.318 69.2214 160.706 69.8594 159.914 70.3125C159.122 70.7656 158.229 70.9948 157.234 71H153.711ZM156.055 61.5234V69.1172H157.188C158.104 69.1172 158.805 68.8177 159.289 68.2188C159.773 67.6198 160.021 66.763 160.031 65.6484V65.0469C160.031 63.8906 159.792 63.0156 159.312 62.4219C158.833 61.8229 158.133 61.5234 157.211 61.5234H156.055ZM170.961 66.0703H166.461V69.1172H171.742V71H164.117V59.625H171.727V61.5234H166.461V64.2344H170.961V66.0703ZM179.016 68.0156C179.016 67.5729 178.859 67.2344 178.547 67C178.234 66.7604 177.672 66.5104 176.859 66.25C176.047 65.9844 175.404 65.724 174.93 65.4688C173.638 64.7708 172.992 63.8307 172.992 62.6484C172.992 62.0339 173.164 61.487 173.508 61.0078C173.857 60.5234 174.354 60.1458 175 59.875C175.651 59.6042 176.38 59.4688 177.188 59.4688C178 59.4688 178.724 59.6172 179.359 59.9141C179.995 60.2057 180.487 60.6198 180.836 61.1562C181.19 61.6927 181.367 62.3021 181.367 62.9844H179.023C179.023 62.4635 178.859 62.0599 178.531 61.7734C178.203 61.4818 177.742 61.3359 177.148 61.3359C176.576 61.3359 176.13 61.4583 175.812 61.7031C175.495 61.9427 175.336 62.2604 175.336 62.6562C175.336 63.026 175.521 63.3359 175.891 63.5859C176.266 63.8359 176.815 64.0703 177.539 64.2891C178.872 64.6901 179.844 65.1875 180.453 65.7812C181.062 66.375 181.367 67.1146 181.367 68C181.367 68.9844 180.995 69.7578 180.25 70.3203C179.505 70.8776 178.503 71.1562 177.242 71.1562C176.367 71.1562 175.57 70.9974 174.852 70.6797C174.133 70.3568 173.583 69.9167 173.203 69.3594C172.828 68.8021 172.641 68.1562 172.641 67.4219H174.992C174.992 68.6771 175.742 69.3047 177.242 69.3047C177.799 69.3047 178.234 69.1927 178.547 68.9688C178.859 68.7396 179.016 68.4219 179.016 68.0156ZM189.805 66.0703H185.305V69.1172H190.586V71H182.961V59.625H190.57V61.5234H185.305V64.2344H189.805V66.0703ZM201.211 71H198.867L194.305 63.5156V71H191.961V59.625H194.305L198.875 67.125V59.625H201.211V71ZM212.516 71H210.172V66.125H205.602V71H203.258V59.625H205.602V64.2344H210.172V59.625H212.516V71ZM221.414 66.0703H216.914V69.1172H222.195V71H214.57V59.625H222.18V61.5234H216.914V64.2344H221.414V66.0703ZM233.977 68.6562H229.867L229.086 71H226.594L230.828 59.625H233L237.258 71H234.766L233.977 68.6562ZM230.5 66.7578H233.344L231.914 62.5L230.5 66.7578ZM165.906 87.0156C165.906 86.5729 165.75 86.2344 165.438 86C165.125 85.7604 164.562 85.5104 163.75 85.25C162.938 84.9844 162.294 84.724 161.82 84.4688C160.529 83.7708 159.883 82.8307 159.883 81.6484C159.883 81.0339 160.055 80.487 160.398 80.0078C160.747 79.5234 161.245 79.1458 161.891 78.875C162.542 78.6042 163.271 78.4688 164.078 78.4688C164.891 78.4688 165.615 78.6172 166.25 78.9141C166.885 79.2057 167.378 79.6198 167.727 80.1562C168.081 80.6927 168.258 81.3021 168.258 81.9844H165.914C165.914 81.4635 165.75 81.0599 165.422 80.7734C165.094 80.4818 164.633 80.3359 164.039 80.3359C163.466 80.3359 163.021 80.4583 162.703 80.7031C162.385 80.9427 162.227 81.2604 162.227 81.6562C162.227 82.026 162.411 82.3359 162.781 82.5859C163.156 82.8359 163.706 83.0703 164.43 83.2891C165.763 83.6901 166.734 84.1875 167.344 84.7812C167.953 85.375 168.258 86.1146 168.258 87C168.258 87.9844 167.885 88.7578 167.141 89.3203C166.396 89.8776 165.393 90.1562 164.133 90.1562C163.258 90.1562 162.461 89.9974 161.742 89.6797C161.023 89.3568 160.474 88.9167 160.094 88.3594C159.719 87.8021 159.531 87.1562 159.531 86.4219H161.883C161.883 87.6771 162.633 88.3047 164.133 88.3047C164.69 88.3047 165.125 88.1927 165.438 87.9688C165.75 87.7396 165.906 87.4219 165.906 87.0156ZM179.195 84.5703C179.195 85.6901 178.997 86.6719 178.602 87.5156C178.206 88.3594 177.638 89.0104 176.898 89.4688C176.164 89.9271 175.32 90.1562 174.367 90.1562C173.424 90.1562 172.583 89.9297 171.844 89.4766C171.104 89.0234 170.531 88.3776 170.125 87.5391C169.719 86.6953 169.513 85.7266 169.508 84.6328V84.0703C169.508 82.9505 169.708 81.9661 170.109 81.1172C170.516 80.263 171.086 79.6094 171.82 79.1562C172.56 78.6979 173.404 78.4688 174.352 78.4688C175.299 78.4688 176.141 78.6979 176.875 79.1562C177.615 79.6094 178.185 80.263 178.586 81.1172C178.992 81.9661 179.195 82.9479 179.195 84.0625V84.5703ZM176.82 84.0547C176.82 82.862 176.607 81.9557 176.18 81.3359C175.753 80.7161 175.143 80.4062 174.352 80.4062C173.565 80.4062 172.958 80.7135 172.531 81.3281C172.104 81.9375 171.888 82.8333 171.883 84.0156V84.5703C171.883 85.7318 172.096 86.6328 172.523 87.2734C172.951 87.9141 173.565 88.2344 174.367 88.2344C175.154 88.2344 175.758 87.9271 176.18 87.3125C176.602 86.6927 176.815 85.7917 176.82 84.6094V84.0547ZM183.242 88.1172H188.219V90H180.898V78.625H183.242V88.1172ZM197.992 78.625V86.1172C197.992 87.362 197.602 88.3464 196.82 89.0703C196.044 89.7943 194.982 90.1562 193.633 90.1562C192.305 90.1562 191.25 89.8047 190.469 89.1016C189.688 88.3984 189.289 87.4323 189.273 86.2031V78.625H191.617V86.1328C191.617 86.8776 191.794 87.4219 192.148 87.7656C192.508 88.1042 193.003 88.2734 193.633 88.2734C194.951 88.2734 195.62 87.5807 195.641 86.1953V78.625H197.992ZM208.844 86.2109C208.755 87.4349 208.302 88.3984 207.484 89.1016C206.672 89.8047 205.599 90.1562 204.266 90.1562C202.807 90.1562 201.659 89.6667 200.82 88.6875C199.987 87.7031 199.57 86.3542 199.57 84.6406V83.9453C199.57 82.8516 199.763 81.888 200.148 81.0547C200.534 80.2214 201.083 79.5833 201.797 79.1406C202.516 78.6927 203.349 78.4688 204.297 78.4688C205.609 78.4688 206.667 78.8203 207.469 79.5234C208.271 80.2266 208.734 81.2135 208.859 82.4844H206.516C206.458 81.75 206.253 81.2188 205.898 80.8906C205.549 80.5573 205.016 80.3906 204.297 80.3906C203.516 80.3906 202.93 80.6719 202.539 81.2344C202.154 81.7917 201.956 82.6589 201.945 83.8359V84.6953C201.945 85.9245 202.13 86.8229 202.5 87.3906C202.875 87.9583 203.464 88.2422 204.266 88.2422C204.99 88.2422 205.529 88.0781 205.883 87.75C206.242 87.4167 206.448 86.9036 206.5 86.2109H208.844ZM205.125 89.9531L205.039 90.4062C205.82 90.5469 206.211 90.9974 206.211 91.7578C206.211 92.3307 205.971 92.7839 205.492 93.1172C205.018 93.4505 204.349 93.6172 203.484 93.6172L203.43 92.3125C204.013 92.3125 204.305 92.1016 204.305 91.6797C204.305 91.4609 204.216 91.3099 204.039 91.2266C203.867 91.1484 203.586 91.0964 203.195 91.0703L203.438 89.9531H205.125ZM216.805 87.6562H212.695L211.914 90H209.422L213.656 78.625H215.828L220.086 90H217.594L216.805 87.6562ZM213.328 85.7578H216.172L214.742 81.5L213.328 85.7578ZM217.711 75.6875C217.711 76.276 217.539 76.7708 217.195 77.1719C216.852 77.5677 216.432 77.7656 215.938 77.7656C215.74 77.7656 215.562 77.7448 215.406 77.7031C215.255 77.6562 215.044 77.5599 214.773 77.4141C214.503 77.2682 214.307 77.1797 214.188 77.1484C214.068 77.112 213.938 77.0938 213.797 77.0938C213.615 77.0938 213.458 77.1589 213.328 77.2891C213.203 77.4193 213.141 77.6042 213.141 77.8438L211.828 77.7656C211.828 77.1875 211.997 76.6953 212.336 76.2891C212.68 75.8828 213.099 75.6797 213.594 75.6797C213.75 75.6797 213.896 75.7005 214.031 75.7422C214.172 75.7786 214.398 75.8724 214.711 76.0234C215.023 76.1745 215.24 76.2656 215.359 76.2969C215.479 76.3281 215.604 76.3438 215.734 76.3438C215.917 76.3438 216.073 76.2812 216.203 76.1562C216.339 76.026 216.406 75.8411 216.406 75.6016L217.711 75.6875ZM230.32 84.5703C230.32 85.6901 230.122 86.6719 229.727 87.5156C229.331 88.3594 228.763 89.0104 228.023 89.4688C227.289 89.9271 226.445 90.1562 225.492 90.1562C224.549 90.1562 223.708 89.9297 222.969 89.4766C222.229 89.0234 221.656 88.3776 221.25 87.5391C220.844 86.6953 220.638 85.7266 220.633 84.6328V84.0703C220.633 82.9505 220.833 81.9661 221.234 81.1172C221.641 80.263 222.211 79.6094 222.945 79.1562C223.685 78.6979 224.529 78.4688 225.477 78.4688C226.424 78.4688 227.266 78.6979 228 79.1562C228.74 79.6094 229.31 80.263 229.711 81.1172C230.117 81.9661 230.32 82.9479 230.32 84.0625V84.5703ZM227.945 84.0547C227.945 82.862 227.732 81.9557 227.305 81.3359C226.878 80.7161 226.268 80.4062 225.477 80.4062C224.69 80.4062 224.083 80.7135 223.656 81.3281C223.229 81.9375 223.013 82.8333 223.008 84.0156V84.5703C223.008 85.7318 223.221 86.6328 223.648 87.2734C224.076 87.9141 224.69 88.2344 225.492 88.2344C226.279 88.2344 226.883 87.9271 227.305 87.3125C227.727 86.6927 227.94 85.7917 227.945 84.6094V84.0547Z" fill="white"/>
<circle cx="333" cy="83" r="46" fill="white" stroke="#E7404A" stroke-width="2"/>
<path d="M291.308 88V78.0469H294.117C294.983 78.0469 295.749 78.2383 296.414 78.6211C297.079 79.0039 297.592 79.5485 297.952 80.2549C298.317 80.9613 298.501 81.7725 298.506 82.6885V83.3242C298.506 84.263 298.324 85.0856 297.959 85.792C297.599 86.4984 297.082 87.0407 296.407 87.4189C295.737 87.7972 294.956 87.9909 294.062 88H291.308ZM292.62 79.127V86.9268H294.001C295.013 86.9268 295.799 86.6123 296.359 85.9834C296.924 85.3545 297.207 84.459 297.207 83.2969V82.7158C297.207 81.5856 296.94 80.7083 296.407 80.084C295.879 79.4551 295.127 79.1361 294.151 79.127H292.62ZM306.121 83.3994H301.808V86.9268H306.818V88H300.495V78.0469H306.75V79.127H301.808V82.3262H306.121V83.3994ZM311.385 83.5635C310.259 83.2399 309.439 82.8434 308.924 82.374C308.413 81.9001 308.158 81.3167 308.158 80.624C308.158 79.8402 308.47 79.193 309.095 78.6826C309.724 78.1676 310.539 77.9102 311.542 77.9102C312.226 77.9102 312.834 78.0423 313.367 78.3066C313.905 78.571 314.32 78.9355 314.611 79.4004C314.908 79.8652 315.056 80.3734 315.056 80.9248H313.736C313.736 80.3232 313.545 79.8516 313.162 79.5098C312.779 79.1634 312.239 78.9902 311.542 78.9902C310.895 78.9902 310.389 79.1338 310.024 79.4209C309.664 79.7035 309.484 80.0977 309.484 80.6035C309.484 81.0091 309.655 81.3532 309.997 81.6357C310.343 81.9137 310.929 82.1689 311.754 82.4014C312.583 82.6338 313.23 82.8913 313.695 83.1738C314.165 83.4518 314.511 83.7777 314.734 84.1514C314.962 84.5251 315.076 84.9648 315.076 85.4707C315.076 86.2773 314.762 86.9245 314.133 87.4121C313.504 87.8952 312.663 88.1367 311.61 88.1367C310.927 88.1367 310.289 88.0068 309.696 87.7471C309.104 87.4827 308.646 87.1227 308.322 86.667C308.003 86.2113 307.844 85.694 307.844 85.1152H309.163C309.163 85.7168 309.384 86.193 309.826 86.5439C310.273 86.8903 310.868 87.0635 311.61 87.0635C312.303 87.0635 312.834 86.9222 313.203 86.6396C313.572 86.3571 313.757 85.972 313.757 85.4844C313.757 84.9967 313.586 84.6208 313.244 84.3564C312.902 84.0876 312.283 83.8232 311.385 83.5635ZM322.391 83.3994H318.077V86.9268H323.088V88H316.765V78.0469H323.02V79.127H318.077V82.3262H322.391V83.3994ZM332.371 88H331.052L326.041 80.3301V88H324.722V78.0469H326.041L331.065 85.751V78.0469H332.371V88ZM337.997 86.2568L340.841 78.0469H342.276L338.585 88H337.423L333.738 78.0469H335.167L337.997 86.2568ZM351.177 83.3447C351.177 84.32 351.013 85.1722 350.685 85.9014C350.356 86.626 349.892 87.1797 349.29 87.5625C348.688 87.9453 347.987 88.1367 347.185 88.1367C346.401 88.1367 345.706 87.9453 345.1 87.5625C344.493 87.1751 344.022 86.626 343.685 85.915C343.352 85.1995 343.181 84.3724 343.172 83.4336V82.7158C343.172 81.7588 343.338 80.9134 343.671 80.1797C344.004 79.446 344.473 78.8854 345.079 78.498C345.69 78.1061 346.387 77.9102 347.171 77.9102C347.968 77.9102 348.67 78.1038 349.276 78.4912C349.887 78.874 350.356 79.4323 350.685 80.166C351.013 80.8952 351.177 81.7451 351.177 82.7158V83.3447ZM349.871 82.7021C349.871 81.5218 349.634 80.6172 349.16 79.9883C348.686 79.3548 348.023 79.0381 347.171 79.0381C346.341 79.0381 345.688 79.3548 345.209 79.9883C344.735 80.6172 344.491 81.4922 344.478 82.6133V83.3447C344.478 84.4886 344.717 85.3887 345.195 86.0449C345.678 86.6966 346.341 87.0225 347.185 87.0225C348.032 87.0225 348.688 86.7148 349.153 86.0996C349.618 85.4798 349.857 84.5934 349.871 83.4404V82.7021ZM354.465 86.9268H359.182V88H353.146V78.0469H354.465V86.9268ZM362.771 86.2568L365.614 78.0469H367.05L363.358 88H362.196L358.512 78.0469H359.94L362.771 86.2568ZM373.366 85.4023H369.196L368.26 88H366.906L370.707 78.0469H371.855L375.663 88H374.316L373.366 85.4023ZM369.593 84.3223H372.977L371.281 79.667L369.593 84.3223Z" fill="#233C54"/>
<path d="M106 80C106 105.366 84.5493 126 58 126C31.4506 126 10 105.366 10 80C10 54.6338 31.4506 34 58 34C84.5493 34 106 54.6338 106 80Z" fill="white" stroke="#E7404A" stroke-width="2"/>
<path d="M24.6027 77.6842V67.7311H27.4122C28.2781 67.7311 29.0437 67.9225 29.7091 68.3053C30.3745 68.6881 30.8872 69.2327 31.2472 69.9391C31.6118 70.6455 31.7963 71.4567 31.8009 72.3727V73.0084C31.8009 73.9472 31.6186 74.7698 31.254 75.4762C30.894 76.1826 30.3767 76.7249 29.7023 77.1031C29.0323 77.4814 28.2508 77.6751 27.3575 77.6842H24.6027ZM25.9152 68.8112V76.611H27.296C28.3077 76.611 29.0939 76.2965 29.6544 75.6676C30.2195 75.0387 30.5021 74.1432 30.5021 72.9811V72.4C30.5021 71.2698 30.2355 70.3925 29.7023 69.7682C29.1736 69.1393 28.4217 68.8203 27.4464 68.8112H25.9152ZM39.4161 73.0836H35.1027V76.611H40.1134V77.6842H33.7902V67.7311H40.045V68.8112H35.1027V72.0104H39.4161V73.0836ZM44.6798 73.2477C43.5542 72.9241 42.7338 72.5276 42.2189 72.0582C41.7085 71.5843 41.4532 71.0009 41.4532 70.3082C41.4532 69.5244 41.7654 68.8772 42.3898 68.3668C43.0187 67.8518 43.8344 67.5944 44.837 67.5944C45.5206 67.5944 46.129 67.7265 46.6622 67.9908C47.2 68.2552 47.6147 68.6198 47.9064 69.0846C48.2026 69.5494 48.3507 70.0576 48.3507 70.609H47.0314C47.0314 70.0074 46.84 69.5358 46.4572 69.194C46.0743 68.8476 45.5343 68.6744 44.837 68.6744C44.1899 68.6744 43.684 68.818 43.3195 69.1051C42.9594 69.3877 42.7794 69.7819 42.7794 70.2877C42.7794 70.6933 42.9503 71.0374 43.2921 71.3199C43.6385 71.5979 44.2241 71.8531 45.049 72.0856C45.8784 72.318 46.5255 72.5755 46.9904 72.858C47.4598 73.136 47.8061 73.4619 48.0294 73.8356C48.2573 74.2093 48.3712 74.649 48.3712 75.1549C48.3712 75.9615 48.0568 76.6087 47.4279 77.0963C46.799 77.5794 45.9581 77.8209 44.9054 77.8209C44.2218 77.8209 43.5838 77.691 42.9913 77.4313C42.3989 77.167 41.9409 76.8069 41.6173 76.3512C41.2983 75.8955 41.1388 75.3782 41.1388 74.7994H42.4581C42.4581 75.401 42.6792 75.8772 43.1212 76.2281C43.5678 76.5745 44.1626 76.7477 44.9054 76.7477C45.5981 76.7477 46.129 76.6064 46.4982 76.3239C46.8673 76.0413 47.0519 75.6562 47.0519 75.1686C47.0519 74.6809 46.881 74.305 46.5392 74.0406C46.1974 73.7718 45.5776 73.5074 44.6798 73.2477ZM57.381 74.526C57.2579 75.5787 56.8683 76.3922 56.212 76.9664C55.5603 77.5361 54.6922 77.8209 53.6075 77.8209C52.4318 77.8209 51.4884 77.3994 50.7775 76.5563C50.0711 75.7132 49.7179 74.5852 49.7179 73.1725V72.2155C49.7179 71.2903 49.882 70.4768 50.2101 69.775C50.5428 69.0732 51.0122 68.5354 51.6183 68.1617C52.2244 67.7835 52.9262 67.5944 53.7238 67.5944C54.781 67.5944 55.6287 67.8906 56.2667 68.483C56.9047 69.0709 57.2762 69.8867 57.381 70.9303H56.0616C55.9477 70.1373 55.6993 69.5631 55.3165 69.2076C54.9383 68.8522 54.4073 68.6744 53.7238 68.6744C52.8852 68.6744 52.2267 68.9843 51.7482 69.6041C51.2742 70.2239 51.0372 71.1058 51.0372 72.2496V73.2135C51.0372 74.2936 51.2628 75.1526 51.714 75.7906C52.1652 76.4287 52.7963 76.7477 53.6075 76.7477C54.3367 76.7477 54.895 76.5836 55.2823 76.2555C55.6743 75.9228 55.934 75.3463 56.0616 74.526H57.381ZM66.1857 67.7311V74.4987C66.1811 75.4375 65.8849 76.2054 65.297 76.8024C64.7137 77.3994 63.9207 77.7343 62.9181 77.8073L62.5695 77.8209C61.4803 77.8209 60.6121 77.527 59.965 76.9391C59.3178 76.3512 58.9897 75.5423 58.9806 74.5123V67.7311H60.2794V74.4713C60.2794 75.1914 60.4777 75.7519 60.8741 76.153C61.2706 76.5494 61.8357 76.7477 62.5695 76.7477C63.3123 76.7477 63.8797 76.5494 64.2716 76.153C64.6681 75.7565 64.8663 75.1982 64.8663 74.4781V67.7311H66.1857ZM68.257 77.6842V67.7311H71.5109C72.5909 67.7311 73.4021 67.9544 73.9445 68.401C74.4913 68.8476 74.7648 69.5084 74.7648 70.3834C74.7648 70.8483 74.6326 71.2607 74.3683 71.6207C74.104 71.9762 73.7439 72.2519 73.2882 72.4479C73.826 72.5983 74.2498 72.8854 74.5597 73.3092C74.8741 73.7285 75.0314 74.2298 75.0314 74.8131C75.0314 75.7063 74.742 76.4082 74.1632 76.9186C73.5844 77.429 72.7664 77.6842 71.7091 77.6842H68.257ZM69.5695 73.0289V76.611H71.7365C72.3471 76.611 72.8279 76.4537 73.1788 76.1393C73.5343 75.8203 73.712 75.3828 73.712 74.8268C73.712 73.6282 73.0603 73.0289 71.757 73.0289H69.5695ZM69.5695 71.9762H71.5519C72.1261 71.9762 72.5841 71.8326 72.9259 71.5455C73.2723 71.2584 73.4454 70.8688 73.4454 70.3766C73.4454 69.8297 73.2859 69.4332 72.9669 69.1871C72.6479 68.9365 72.1626 68.8112 71.5109 68.8112H69.5695V71.9762ZM80.63 73.6578H78.2921V77.6842H76.9728V67.7311H80.2677C81.3888 67.7311 82.2501 67.9863 82.8517 68.4967C83.4578 69.0071 83.7609 69.75 83.7609 70.7252C83.7609 71.345 83.5922 71.8851 83.255 72.3453C82.9223 72.8056 82.4575 73.1497 81.8605 73.3776L84.1984 77.6022V77.6842H82.7902L80.63 73.6578ZM78.2921 72.5846H80.3087C80.9604 72.5846 81.4777 72.416 81.8605 72.0787C82.2478 71.7415 82.4415 71.2903 82.4415 70.7252C82.4415 70.11 82.257 69.6383 81.8878 69.3102C81.5232 68.9821 80.9946 68.8157 80.3019 68.8112H78.2921V72.5846ZM91.1027 75.0865H86.9327L85.9962 77.6842H84.6427L88.4435 67.7311H89.5919L93.3995 77.6842H92.0529L91.1027 75.0865ZM87.3292 74.0065H90.713L89.0177 69.3512L87.3292 74.0065ZM34.5626 89.0836H30.2491V92.611H35.2599V93.6842H28.9366V83.7311H35.1915V84.8112H30.2491V88.0104H34.5626V89.0836ZM42.0616 83.7311L45.3156 91.8522L48.5695 83.7311H50.2716V93.6842H48.9591V89.8082L49.0822 85.6246L45.8146 93.6842H44.8097L41.549 85.6451L41.6788 89.8082V93.6842H40.3663V83.7311H42.0616ZM58.2081 91.0865H54.0382L53.1017 93.6842H51.7482L55.549 83.7311H56.6974L60.505 93.6842H59.1583L58.2081 91.0865ZM54.4347 90.0065H57.8185L56.1232 85.3512L54.4347 90.0065ZM63.1573 89.7877V93.6842H61.8448V83.7311H65.5157C66.6049 83.7311 67.4572 84.0091 68.0724 84.5651C68.6922 85.1211 69.0021 85.8571 69.0021 86.7731C69.0021 87.7392 68.699 88.4843 68.0929 89.0084C67.4913 89.528 66.6277 89.7877 65.5021 89.7877H63.1573ZM63.1573 88.7145H65.5157C66.2176 88.7145 66.7553 88.5504 67.129 88.2223C67.5027 87.8896 67.6896 87.4111 67.6896 86.7867C67.6896 86.1943 67.5027 85.7203 67.129 85.3649C66.7553 85.0094 66.2426 84.8248 65.5909 84.8112H63.1573V88.7145ZM76.3029 89.0836H71.9894V92.611H77.0001V93.6842H70.6769V83.7311H76.9318V84.8112H71.9894V88.0104H76.3029V89.0836ZM80.0421 93.6842H78.7296V83.7311H80.0421V93.6842ZM88.0743 89.0836H83.7609V92.611H88.7716V93.6842H82.4484V83.7311H88.7032V84.8112H83.7609V88.0104H88.0743V89.0836Z" fill="#233C54"/>
<path d="M412.99 54.3994H408.677V57.9268H413.688V59H407.364V49.0469H413.619V50.127H408.677V53.3262H412.99V54.3994ZM422.971 59H421.651L416.641 51.3301V59H415.321V49.0469H416.641L421.665 56.751V49.0469H422.971V59ZM431.974 50.127H428.774V59H427.469V50.127H424.276V49.0469H431.974V50.127ZM437.101 54.9736H434.763V59H433.443V49.0469H436.738C437.859 49.0469 438.721 49.3021 439.322 49.8125C439.928 50.3229 440.231 51.0658 440.231 52.041C440.231 52.6608 440.063 53.2008 439.726 53.6611C439.393 54.1214 438.928 54.4655 438.331 54.6934L440.669 58.918V59H439.261L437.101 54.9736ZM434.763 53.9004H436.779C437.431 53.9004 437.948 53.7318 438.331 53.3945C438.718 53.0573 438.912 52.6061 438.912 52.041C438.912 51.4258 438.728 50.9541 438.358 50.626C437.994 50.2979 437.465 50.1315 436.772 50.127H434.763V53.9004ZM447.703 54.3994H443.39V57.9268H448.4V59H442.077V49.0469H448.332V50.127H443.39V53.3262H447.703V54.3994ZM457.383 57.6943C457.046 58.1774 456.574 58.5397 455.968 58.7812C455.366 59.0182 454.664 59.1367 453.862 59.1367C453.051 59.1367 452.331 58.9476 451.702 58.5693C451.073 58.1865 450.586 57.6442 450.239 56.9424C449.897 56.2406 449.722 55.4271 449.713 54.502V53.6338C449.713 52.1344 450.062 50.9723 450.759 50.1475C451.461 49.3226 452.445 48.9102 453.712 48.9102C454.751 48.9102 455.587 49.1768 456.221 49.71C456.854 50.2386 457.242 50.9906 457.383 51.9658H456.07C455.824 50.6488 455.04 49.9902 453.719 49.9902C452.839 49.9902 452.172 50.3001 451.716 50.9199C451.265 51.5352 451.037 52.4284 451.032 53.5996V54.4131C451.032 55.5296 451.287 56.4183 451.798 57.0791C452.308 57.7354 452.999 58.0635 453.869 58.0635C454.361 58.0635 454.792 58.0088 455.161 57.8994C455.53 57.79 455.836 57.6055 456.077 57.3457V55.1104H453.773V54.0439H457.383V57.6943ZM466.584 49.0469V55.8145C466.579 56.7533 466.283 57.5212 465.695 58.1182C465.112 58.7152 464.319 59.0501 463.316 59.123L462.968 59.1367C461.879 59.1367 461.01 58.8428 460.363 58.2549C459.716 57.667 459.388 56.8581 459.379 55.8281V49.0469H460.678V55.7871C460.678 56.5072 460.876 57.0677 461.272 57.4688C461.669 57.8652 462.234 58.0635 462.968 58.0635C463.711 58.0635 464.278 57.8652 464.67 57.4688C465.066 57.0723 465.265 56.514 465.265 55.7939V49.0469H466.584ZM474.281 54.3994H469.968V57.9268H474.979V59H468.655V49.0469H474.91V50.127H469.968V53.3262H474.281V54.3994ZM483.38 57.2568L486.224 49.0469H487.659L483.968 59H482.806L479.121 49.0469H480.55L483.38 57.2568ZM493.976 56.4023H489.806L488.869 59H487.516L491.316 49.0469H492.465L496.272 59H494.926L493.976 56.4023ZM490.202 55.3223H493.586L491.891 50.667L490.202 55.3223ZM498.932 57.9268H503.648V59H497.612V49.0469H498.932V57.9268ZM512.351 54.3447C512.351 55.32 512.187 56.1722 511.858 56.9014C511.53 57.626 511.065 58.1797 510.464 58.5625C509.862 58.9453 509.16 59.1367 508.358 59.1367C507.575 59.1367 506.88 58.9453 506.273 58.5625C505.667 58.1751 505.196 57.626 504.858 56.915C504.526 56.1995 504.355 55.3724 504.346 54.4336V53.7158C504.346 52.7588 504.512 51.9134 504.845 51.1797C505.177 50.446 505.647 49.8854 506.253 49.498C506.864 49.1061 507.561 48.9102 508.345 48.9102C509.142 48.9102 509.844 49.1038 510.45 49.4912C511.061 49.874 511.53 50.4323 511.858 51.166C512.187 51.8952 512.351 52.7451 512.351 53.7158V54.3447ZM511.045 53.7021C511.045 52.5218 510.808 51.6172 510.334 50.9883C509.86 50.3548 509.197 50.0381 508.345 50.0381C507.515 50.0381 506.861 50.3548 506.383 50.9883C505.909 51.6172 505.665 52.4922 505.651 53.6133V54.3447C505.651 55.4886 505.891 56.3887 506.369 57.0449C506.852 57.6966 507.515 58.0225 508.358 58.0225C509.206 58.0225 509.862 57.7148 510.327 57.0996C510.792 56.4798 511.031 55.5934 511.045 54.4404V53.7021ZM517.97 54.9736H515.632V59H514.312V49.0469H517.607C518.729 49.0469 519.59 49.3021 520.191 49.8125C520.798 50.3229 521.101 51.0658 521.101 52.041C521.101 52.6608 520.932 53.2008 520.595 53.6611C520.262 54.1214 519.797 54.4655 519.2 54.6934L521.538 58.918V59H520.13L517.97 54.9736ZM515.632 53.9004H517.648C518.3 53.9004 518.817 53.7318 519.2 53.3945C519.588 53.0573 519.781 52.6061 519.781 52.041C519.781 51.4258 519.597 50.9541 519.228 50.626C518.863 50.2979 518.334 50.1315 517.642 50.127H515.632V53.9004ZM421.385 70.9736H419.047V75H417.728V65.0469H421.022C422.144 65.0469 423.005 65.3021 423.606 65.8125C424.213 66.3229 424.516 67.0658 424.516 68.041C424.516 68.6608 424.347 69.2008 424.01 69.6611C423.677 70.1214 423.212 70.4655 422.615 70.6934L424.953 74.918V75H423.545L421.385 70.9736ZM419.047 69.9004H421.063C421.715 69.9004 422.232 69.7318 422.615 69.3945C423.003 69.0573 423.196 68.6061 423.196 68.041C423.196 67.4258 423.012 66.9541 422.643 66.626C422.278 66.2979 421.749 66.1315 421.057 66.127H419.047V69.9004ZM431.857 72.4023H427.688L426.751 75H425.397L429.198 65.0469H430.347L434.154 75H432.808L431.857 72.4023ZM428.084 71.3223H431.468L429.772 66.667L428.084 71.3223ZM436.807 71.1035V75H435.494V65.0469H439.165C440.254 65.0469 441.106 65.3249 441.722 65.8809C442.341 66.4368 442.651 67.1729 442.651 68.0889C442.651 69.055 442.348 69.8001 441.742 70.3242C441.141 70.8438 440.277 71.1035 439.151 71.1035H436.807ZM436.807 70.0303H439.165C439.867 70.0303 440.405 69.8662 440.778 69.5381C441.152 69.2054 441.339 68.7269 441.339 68.1025C441.339 67.5101 441.152 67.0361 440.778 66.6807C440.405 66.3252 439.892 66.1406 439.24 66.127H436.807V70.0303ZM445.734 75H444.422V65.0469H445.734V75ZM448.141 75V65.0469H450.95C451.816 65.0469 452.582 65.2383 453.247 65.6211C453.912 66.0039 454.425 66.5485 454.785 67.2549C455.15 67.9613 455.334 68.7725 455.339 69.6885V70.3242C455.339 71.263 455.157 72.0856 454.792 72.792C454.432 73.4984 453.915 74.0407 453.24 74.4189C452.57 74.7972 451.789 74.9909 450.896 75H448.141ZM449.453 66.127V73.9268H450.834C451.846 73.9268 452.632 73.6123 453.192 72.9834C453.757 72.3545 454.04 71.459 454.04 70.2969V69.7158C454.04 68.5856 453.773 67.7083 453.24 67.084C452.712 66.4551 451.96 66.1361 450.984 66.127H449.453ZM462.674 72.4023H458.504L457.567 75H456.214L460.015 65.0469H461.163L464.971 75H463.624L462.674 72.4023ZM458.9 71.3223H462.284L460.589 66.667L458.9 71.3223ZM468.006 65.0469L471.26 73.168L474.514 65.0469H476.216V75H474.903V71.124L475.026 66.9404L471.759 75H470.754L467.493 66.9609L467.623 71.124V75H466.311V65.0469H468.006ZM484.159 70.3994H479.846V73.9268H484.856V75H478.533V65.0469H484.788V66.127H479.846V69.3262H484.159V70.3994ZM494.14 75H492.82L487.81 67.3301V75H486.49V65.0469H487.81L492.834 72.751V65.0469H494.14V75ZM503.143 66.127H499.943V75H498.638V66.127H495.445V65.0469H503.143V66.127ZM510.245 70.3994H505.932V73.9268H510.942V75H504.619V65.0469H510.874V66.127H505.932V69.3262H510.245V70.3994Z" fill="#233C54"/>
<mask id="path-9-inside-1" fill="white">
<path d="M0.392002 63.2274C3.86542 51.2974 10.957 40.74 20.6875 33.013C30.418 25.286 42.3075 20.7705 54.7142 20.09C67.1209 19.4096 79.4329 22.5977 89.9501 29.2142C100.467 35.8308 108.671 45.5493 113.428 57.0279L110.954 58.0532C106.409 47.087 98.5718 37.8022 88.524 31.481C78.4762 25.1598 66.7138 22.114 54.8608 22.7641C43.0079 23.4142 31.6491 27.7281 22.3529 35.1102C13.0567 42.4924 6.28168 52.5786 2.9633 63.9761L0.392002 63.2274Z"/>
</mask>
<path d="M0.392002 63.2274C3.86542 51.2974 10.957 40.74 20.6875 33.013C30.418 25.286 42.3075 20.7705 54.7142 20.09C67.1209 19.4096 79.4329 22.5977 89.9501 29.2142C100.467 35.8308 108.671 45.5493 113.428 57.0279L110.954 58.0532C106.409 47.087 98.5718 37.8022 88.524 31.481C78.4762 25.1598 66.7138 22.114 54.8608 22.7641C43.0079 23.4142 31.6491 27.7281 22.3529 35.1102C13.0567 42.4924 6.28168 52.5786 2.9633 63.9761L0.392002 63.2274Z" fill="white" stroke="#233C54" stroke-width="4" mask="url(#path-9-inside-1)"/>
<path d="M115.191 62.3952L103.794 56.6411L115.045 49.6291L115.191 62.3952Z" fill="#233C54"/>
<mask id="path-11-inside-2" fill="white">
<path d="M111.845 96.8069C116.45 114.156 126.43 129.603 140.353 140.932C154.276 152.261 171.429 158.891 189.352 159.873C207.276 160.854 225.05 156.136 240.127 146.395C255.204 136.654 266.811 122.39 273.283 105.647L270.963 104.751C264.68 121.004 253.414 134.851 238.777 144.307C224.141 153.763 206.887 158.343 189.488 157.39C172.089 156.437 155.439 150 141.922 139.003C128.406 128.005 118.719 113.011 114.248 96.1689L111.845 96.8069Z"/>
</mask>
<path d="M111.845 96.8069C116.45 114.156 126.43 129.603 140.353 140.932C154.276 152.261 171.429 158.891 189.352 159.873C207.276 160.854 225.05 156.136 240.127 146.395C255.204 136.654 266.811 122.39 273.283 105.647L270.963 104.751C264.68 121.004 253.414 134.851 238.777 144.307C224.141 153.763 206.887 158.343 189.488 157.39C172.089 156.437 155.439 150 141.922 139.003C128.406 128.005 118.719 113.011 114.248 96.1689L111.845 96.8069Z" stroke="#233C54" stroke-width="6" mask="url(#path-11-inside-2)"/>
<path d="M277.256 110.041L265.138 106.024L275.236 97.4348L277.256 110.041Z" fill="#233C54"/>
<mask id="path-13-inside-3" fill="white">
<path d="M274.866 70.1541C277.94 58.1151 284.676 47.3275 294.144 39.2809C303.612 31.2343 315.345 26.3256 327.722 25.2326C340.099 24.1396 352.511 26.9162 363.242 33.179C373.974 39.4418 382.496 48.8819 387.633 60.1958L385.194 61.303C380.287 50.494 372.145 41.4753 361.892 35.492C351.64 29.5087 339.782 26.856 327.958 27.9003C316.133 28.9445 304.924 33.6341 295.879 41.3216C286.833 49.009 280.398 59.3151 277.46 70.8167L274.866 70.1541Z"/>
</mask>
<path d="M274.866 70.1541C277.94 58.1151 284.676 47.3275 294.144 39.2809C303.612 31.2343 315.345 26.3256 327.722 25.2326C340.099 24.1396 352.511 26.9162 363.242 33.179C373.974 39.4418 382.496 48.8819 387.633 60.1958L385.194 61.303C380.287 50.494 372.145 41.4753 361.892 35.492C351.64 29.5087 339.782 26.856 327.958 27.9003C316.133 28.9445 304.924 33.6341 295.879 41.3216C286.833 49.009 280.398 59.3151 277.46 70.8167L274.866 70.1541Z" fill="white" stroke="#233C54" stroke-width="4" mask="url(#path-13-inside-3)"/>
<path d="M389.391 64.6734L377.994 58.9193L389.245 51.9073L389.391 64.6734Z" fill="#233C54"/>
</svg>
