<svg width="553" height="162" viewBox="0 0 553 162" fill="none" xmlns="http://www.w3.org/2000/svg">
<line x1="105" y1="86.5" x2="553" y2="86.5" stroke="#233C54"/>
<circle cx="172" cy="87" r="46" fill="white" stroke="#E7404A" stroke-width="2"/>
<path d="M134.013 84V74.0469H136.822C137.688 74.0469 138.454 74.2383 139.119 74.6211C139.785 75.0039 140.297 75.5485 140.657 76.2549C141.022 76.9613 141.206 77.7725 141.211 78.6885V79.3242C141.211 80.263 141.029 81.0856 140.664 81.792C140.304 82.4984 139.787 83.0407 139.112 83.4189C138.442 83.7972 137.661 83.9909 136.768 84H134.013ZM135.325 75.127V82.9268H136.706C137.718 82.9268 138.504 82.6123 139.064 81.9834C139.63 81.3545 139.912 80.459 139.912 79.2969V78.7158C139.912 77.5856 139.646 76.7083 139.112 76.084C138.584 75.4551 137.832 75.1361 136.856 75.127H135.325ZM148.826 79.3994H144.513V82.9268H149.523V84H143.2V74.0469H149.455V75.127H144.513V78.3262H148.826V79.3994ZM154.09 79.5635C152.964 79.2399 152.144 78.8434 151.629 78.374C151.118 77.9001 150.863 77.3167 150.863 76.624C150.863 75.8402 151.175 75.193 151.8 74.6826C152.429 74.1676 153.244 73.9102 154.247 73.9102C154.931 73.9102 155.539 74.0423 156.072 74.3066C156.61 74.571 157.025 74.9355 157.316 75.4004C157.613 75.8652 157.761 76.3734 157.761 76.9248H156.441C156.441 76.3232 156.25 75.8516 155.867 75.5098C155.484 75.1634 154.944 74.9902 154.247 74.9902C153.6 74.9902 153.094 75.1338 152.729 75.4209C152.369 75.7035 152.189 76.0977 152.189 76.6035C152.189 77.0091 152.36 77.3532 152.702 77.6357C153.049 77.9137 153.634 78.1689 154.459 78.4014C155.288 78.6338 155.936 78.8913 156.4 79.1738C156.87 79.4518 157.216 79.7777 157.439 80.1514C157.667 80.5251 157.781 80.9648 157.781 81.4707C157.781 82.2773 157.467 82.9245 156.838 83.4121C156.209 83.8952 155.368 84.1367 154.315 84.1367C153.632 84.1367 152.994 84.0068 152.401 83.7471C151.809 83.4827 151.351 83.1227 151.027 82.667C150.708 82.2113 150.549 81.694 150.549 81.1152H151.868C151.868 81.7168 152.089 82.193 152.531 82.5439C152.978 82.8903 153.573 83.0635 154.315 83.0635C155.008 83.0635 155.539 82.9222 155.908 82.6396C156.277 82.3571 156.462 81.972 156.462 81.4844C156.462 80.9967 156.291 80.6208 155.949 80.3564C155.607 80.0876 154.988 79.8232 154.09 79.5635ZM160.878 84H159.565V74.0469H160.878V84ZM170.633 82.6943C170.296 83.1774 169.824 83.5397 169.218 83.7812C168.616 84.0182 167.914 84.1367 167.112 84.1367C166.301 84.1367 165.581 83.9476 164.952 83.5693C164.323 83.1865 163.836 82.6442 163.489 81.9424C163.147 81.2406 162.972 80.4271 162.963 79.502V78.6338C162.963 77.1344 163.312 75.9723 164.009 75.1475C164.711 74.3226 165.695 73.9102 166.962 73.9102C168.001 73.9102 168.837 74.1768 169.471 74.71C170.104 75.2386 170.492 75.9906 170.633 76.9658H169.32C169.074 75.6488 168.29 74.9902 166.969 74.9902C166.089 74.9902 165.422 75.3001 164.966 75.9199C164.515 76.5352 164.287 77.4284 164.282 78.5996V79.4131C164.282 80.5296 164.537 81.4183 165.048 82.0791C165.558 82.7354 166.249 83.0635 167.119 83.0635C167.611 83.0635 168.042 83.0088 168.411 82.8994C168.78 82.79 169.086 82.6055 169.327 82.3457V80.1104H167.023V79.0439H170.633V82.6943ZM180.477 84H179.157L174.146 76.3301V84H172.827V74.0469H174.146L179.171 81.751V74.0469H180.477V84ZM192.884 75.127H189.685V84H188.379V75.127H185.187V74.0469H192.884V75.127ZM202.01 84H200.69V79.3994H195.673V84H194.36V74.0469H195.673V78.3262H200.69V74.0469H202.01V84ZM209.967 79.3994H205.653V82.9268H210.664V84H204.341V74.0469H210.596V75.127H205.653V78.3262H209.967V79.3994ZM143.111 95.5635C141.986 95.2399 141.165 94.8434 140.65 94.374C140.14 93.9001 139.885 93.3167 139.885 92.624C139.885 91.8402 140.197 91.193 140.821 90.6826C141.45 90.1676 142.266 89.9102 143.269 89.9102C143.952 89.9102 144.561 90.0423 145.094 90.3066C145.632 90.571 146.046 90.9355 146.338 91.4004C146.634 91.8652 146.782 92.3734 146.782 92.9248H145.463C145.463 92.3232 145.271 91.8516 144.889 91.5098C144.506 91.1634 143.966 90.9902 143.269 90.9902C142.621 90.9902 142.116 91.1338 141.751 91.4209C141.391 91.7035 141.211 92.0977 141.211 92.6035C141.211 93.0091 141.382 93.3532 141.724 93.6357C142.07 93.9137 142.656 94.1689 143.48 94.4014C144.31 94.6338 144.957 94.8913 145.422 95.1738C145.891 95.4518 146.238 95.7777 146.461 96.1514C146.689 96.5251 146.803 96.9648 146.803 97.4707C146.803 98.2773 146.488 98.9245 145.859 99.4121C145.23 99.8952 144.39 100.137 143.337 100.137C142.653 100.137 142.015 100.007 141.423 99.7471C140.83 99.4827 140.372 99.1227 140.049 98.667C139.73 98.2113 139.57 97.694 139.57 97.1152H140.89C140.89 97.7168 141.111 98.193 141.553 98.5439C141.999 98.8903 142.594 99.0635 143.337 99.0635C144.03 99.0635 144.561 98.9222 144.93 98.6396C145.299 98.3571 145.483 97.972 145.483 97.4844C145.483 96.9967 145.312 96.6208 144.971 96.3564C144.629 96.0876 144.009 95.8232 143.111 95.5635ZM156.147 95.3447C156.147 96.32 155.983 97.1722 155.655 97.9014C155.327 98.626 154.862 99.1797 154.261 99.5625C153.659 99.9453 152.957 100.137 152.155 100.137C151.371 100.137 150.676 99.9453 150.07 99.5625C149.464 99.1751 148.993 98.626 148.655 97.915C148.323 97.1995 148.152 96.3724 148.143 95.4336V94.7158C148.143 93.7588 148.309 92.9134 148.642 92.1797C148.974 91.446 149.444 90.8854 150.05 90.498C150.66 90.1061 151.358 89.9102 152.142 89.9102C152.939 89.9102 153.641 90.1038 154.247 90.4912C154.858 90.874 155.327 91.4323 155.655 92.166C155.983 92.8952 156.147 93.7451 156.147 94.7158V95.3447ZM154.842 94.7021C154.842 93.5218 154.605 92.6172 154.131 91.9883C153.657 91.3548 152.994 91.0381 152.142 91.0381C151.312 91.0381 150.658 91.3548 150.18 91.9883C149.706 92.6172 149.462 93.4922 149.448 94.6133V95.3447C149.448 96.4886 149.688 97.3887 150.166 98.0449C150.649 98.6966 151.312 99.0225 152.155 99.0225C153.003 99.0225 153.659 98.7148 154.124 98.0996C154.589 97.4798 154.828 96.5934 154.842 95.4404V94.7021ZM159.436 98.9268H164.152V100H158.116V90.0469H159.436V98.9268ZM172.287 90.0469V96.8145C172.283 97.7533 171.986 98.5212 171.398 99.1182C170.815 99.7152 170.022 100.05 169.02 100.123L168.671 100.137C167.582 100.137 166.714 99.8428 166.066 99.2549C165.419 98.667 165.091 97.8581 165.082 96.8281V90.0469H166.381V96.7871C166.381 97.5072 166.579 98.0677 166.976 98.4688C167.372 98.8652 167.937 99.0635 168.671 99.0635C169.414 99.0635 169.981 98.8652 170.373 98.4688C170.77 98.0723 170.968 97.514 170.968 96.7939V90.0469H172.287ZM181.235 91.127H178.036V100H176.73V91.127H173.538V90.0469H181.235V91.127ZM184.12 100H182.808V90.0469H184.12V100ZM194.183 95.3447C194.183 96.32 194.019 97.1722 193.69 97.9014C193.362 98.626 192.897 99.1797 192.296 99.5625C191.694 99.9453 190.993 100.137 190.19 100.137C189.407 100.137 188.712 99.9453 188.105 99.5625C187.499 99.1751 187.028 98.626 186.69 97.915C186.358 97.1995 186.187 96.3724 186.178 95.4336V94.7158C186.178 93.7588 186.344 92.9134 186.677 92.1797C187.009 91.446 187.479 90.8854 188.085 90.498C188.696 90.1061 189.393 89.9102 190.177 89.9102C190.974 89.9102 191.676 90.1038 192.282 90.4912C192.893 90.874 193.362 91.4323 193.69 92.166C194.019 92.8952 194.183 93.7451 194.183 94.7158V95.3447ZM192.877 94.7021C192.877 93.5218 192.64 92.6172 192.166 91.9883C191.692 91.3548 191.029 91.0381 190.177 91.0381C189.347 91.0381 188.693 91.3548 188.215 91.9883C187.741 92.6172 187.497 93.4922 187.483 94.6133V95.3447C187.483 96.4886 187.723 97.3887 188.201 98.0449C188.684 98.6966 189.347 99.0225 190.19 99.0225C191.038 99.0225 191.694 98.7148 192.159 98.0996C192.624 97.4798 192.863 96.5934 192.877 95.4404V94.7021ZM203.801 100H202.481L197.471 92.3301V100H196.151V90.0469H197.471L202.495 97.751V90.0469H203.801V100Z" fill="#233C54"/>
<circle cx="58" cy="87" r="46" fill="white" stroke="#E7404A" stroke-width="2"/>
<path d="M24.7158 84V74.0469H27.5254C28.3913 74.0469 29.1569 74.2383 29.8223 74.6211C30.4876 75.0039 31.0003 75.5485 31.3604 76.2549C31.7249 76.9613 31.9095 77.7725 31.9141 78.6885V79.3242C31.9141 80.263 31.7318 81.0856 31.3672 81.792C31.0072 82.4984 30.4899 83.0407 29.8154 83.4189C29.1455 83.7972 28.3639 83.9909 27.4707 84H24.7158ZM26.0283 75.127V82.9268H27.4092C28.4209 82.9268 29.207 82.6123 29.7676 81.9834C30.3327 81.3545 30.6152 80.459 30.6152 79.2969V78.7158C30.6152 77.5856 30.3486 76.7083 29.8154 76.084C29.2868 75.4551 28.5348 75.1361 27.5596 75.127H26.0283ZM35.3115 84H33.999V74.0469H35.3115V84ZM40.6504 79.5635C39.5247 79.2399 38.7044 78.8434 38.1895 78.374C37.679 77.9001 37.4238 77.3167 37.4238 76.624C37.4238 75.8402 37.736 75.193 38.3604 74.6826C38.9893 74.1676 39.805 73.9102 40.8076 73.9102C41.4912 73.9102 42.0996 74.0423 42.6328 74.3066C43.1706 74.571 43.5853 74.9355 43.877 75.4004C44.1732 75.8652 44.3213 76.3734 44.3213 76.9248H43.002C43.002 76.3232 42.8105 75.8516 42.4277 75.5098C42.0449 75.1634 41.5049 74.9902 40.8076 74.9902C40.1605 74.9902 39.6546 75.1338 39.29 75.4209C38.93 75.7035 38.75 76.0977 38.75 76.6035C38.75 77.0091 38.9209 77.3532 39.2627 77.6357C39.609 77.9137 40.1947 78.1689 41.0195 78.4014C41.849 78.6338 42.4961 78.8913 42.9609 79.1738C43.4303 79.4518 43.7767 79.7777 44 80.1514C44.2279 80.5251 44.3418 80.9648 44.3418 81.4707C44.3418 82.2773 44.0273 82.9245 43.3984 83.4121C42.7695 83.8952 41.9287 84.1367 40.876 84.1367C40.1924 84.1367 39.5544 84.0068 38.9619 83.7471C38.3695 83.4827 37.9115 83.1227 37.5879 82.667C37.2689 82.2113 37.1094 81.694 37.1094 81.1152H38.4287C38.4287 81.7168 38.6497 82.193 39.0918 82.5439C39.5384 82.8903 40.1331 83.0635 40.876 83.0635C41.5687 83.0635 42.0996 82.9222 42.4688 82.6396C42.8379 82.3571 43.0225 81.972 43.0225 81.4844C43.0225 80.9967 42.8516 80.6208 42.5098 80.3564C42.168 80.0876 41.5482 79.8232 40.6504 79.5635ZM53.3516 80.8418C53.2285 81.8945 52.8389 82.708 52.1826 83.2822C51.5309 83.8519 50.6628 84.1367 49.5781 84.1367C48.4023 84.1367 47.459 83.7152 46.748 82.8721C46.0417 82.029 45.6885 80.901 45.6885 79.4883V78.5312C45.6885 77.6061 45.8525 76.7926 46.1807 76.0908C46.5133 75.389 46.9827 74.8512 47.5889 74.4775C48.195 74.0993 48.8968 73.9102 49.6943 73.9102C50.7516 73.9102 51.5993 74.2064 52.2373 74.7988C52.8753 75.3867 53.2467 76.2025 53.3516 77.2461H52.0322C51.9183 76.4531 51.6699 75.8789 51.2871 75.5234C50.9089 75.168 50.3779 74.9902 49.6943 74.9902C48.8558 74.9902 48.1973 75.3001 47.7188 75.9199C47.2448 76.5397 47.0078 77.4215 47.0078 78.5654V79.5293C47.0078 80.6094 47.2334 81.4684 47.6846 82.1064C48.1357 82.7445 48.7669 83.0635 49.5781 83.0635C50.3073 83.0635 50.8656 82.8994 51.2529 82.5713C51.6449 82.2386 51.9046 81.6621 52.0322 80.8418H53.3516ZM62.8057 79.3447C62.8057 80.32 62.6416 81.1722 62.3135 81.9014C61.9854 82.626 61.5205 83.1797 60.9189 83.5625C60.3174 83.9453 59.6156 84.1367 58.8135 84.1367C58.0296 84.1367 57.3346 83.9453 56.7285 83.5625C56.1224 83.1751 55.6507 82.626 55.3135 81.915C54.9808 81.1995 54.8099 80.3724 54.8008 79.4336V78.7158C54.8008 77.7588 54.9671 76.9134 55.2998 76.1797C55.6325 75.446 56.1019 74.8854 56.708 74.498C57.3187 74.1061 58.016 73.9102 58.7998 73.9102C59.5973 73.9102 60.2992 74.1038 60.9053 74.4912C61.516 74.874 61.9854 75.4323 62.3135 76.166C62.6416 76.8952 62.8057 77.7451 62.8057 78.7158V79.3447ZM61.5 78.7021C61.5 77.5218 61.263 76.6172 60.7891 75.9883C60.3151 75.3548 59.652 75.0381 58.7998 75.0381C57.9704 75.0381 57.3164 75.3548 56.8379 75.9883C56.3639 76.6172 56.1201 77.4922 56.1064 78.6133V79.3447C56.1064 80.4886 56.3457 81.3887 56.8242 82.0449C57.3073 82.6966 57.9704 83.0225 58.8135 83.0225C59.6611 83.0225 60.3174 82.7148 60.7822 82.0996C61.2471 81.4798 61.4863 80.5934 61.5 79.4404V78.7021ZM67.9189 82.2568L70.7627 74.0469H72.1982L68.5068 84H67.3447L63.6602 74.0469H65.0889L67.9189 82.2568ZM79.1641 79.3994H74.8506V82.9268H79.8613V84H73.5381V74.0469H79.793V75.127H74.8506V78.3262H79.1641V79.3994ZM85.1455 79.9736H82.8076V84H81.4883V74.0469H84.7832C85.9043 74.0469 86.7656 74.3021 87.3672 74.8125C87.9733 75.3229 88.2764 76.0658 88.2764 77.041C88.2764 77.6608 88.1077 78.2008 87.7705 78.6611C87.4378 79.1214 86.973 79.4655 86.376 79.6934L88.7139 83.918V84H87.3057L85.1455 79.9736ZM82.8076 78.9004H84.8242C85.4759 78.9004 85.9932 78.7318 86.376 78.3945C86.7633 78.0573 86.957 77.6061 86.957 77.041C86.957 76.4258 86.7725 75.9541 86.4033 75.626C86.0387 75.2979 85.5101 75.1315 84.8174 75.127H82.8076V78.9004ZM33.6094 97.4023H29.4395L28.5029 100H27.1494L30.9502 90.0469H32.0986L35.9062 100H34.5596L33.6094 97.4023ZM29.8359 96.3223H33.2197L31.5244 91.667L29.8359 96.3223ZM44.8955 100H43.5762L38.5654 92.3301V100H37.2461V90.0469H38.5654L43.5898 97.751V90.0469H44.8955V100ZM47.2266 100V90.0469H50.0361C50.902 90.0469 51.6676 90.2383 52.333 90.6211C52.9984 91.0039 53.5111 91.5485 53.8711 92.2549C54.2357 92.9613 54.4202 93.7725 54.4248 94.6885V95.3242C54.4248 96.263 54.2425 97.0856 53.8779 97.792C53.5179 98.4984 53.0007 99.0407 52.3262 99.4189C51.6562 99.7972 50.8747 99.9909 49.9814 100H47.2266ZM48.5391 91.127V98.9268H49.9199C50.9316 98.9268 51.7178 98.6123 52.2783 97.9834C52.8434 97.3545 53.126 96.459 53.126 95.2969V94.7158C53.126 93.5856 52.8594 92.7083 52.3262 92.084C51.7975 91.4551 51.0456 91.1361 50.0703 91.127H48.5391ZM61.582 90.0469L64.8359 98.168L68.0898 90.0469H69.792V100H68.4795V96.124L68.6025 91.9404L65.335 100H64.3301L61.0693 91.9609L61.1992 96.124V100H59.8867V90.0469H61.582ZM77.7285 97.4023H73.5586L72.6221 100H71.2686L75.0693 90.0469H76.2178L80.0254 100H78.6787L77.7285 97.4023ZM73.9551 96.3223H77.3389L75.6436 91.667L73.9551 96.3223ZM82.6777 96.1035V100H81.3652V90.0469H85.0361C86.1253 90.0469 86.9775 90.3249 87.5928 90.8809C88.2126 91.4368 88.5225 92.1729 88.5225 93.0889C88.5225 94.055 88.2194 94.8001 87.6133 95.3242C87.0117 95.8438 86.1481 96.1035 85.0225 96.1035H82.6777ZM82.6777 95.0303H85.0361C85.738 95.0303 86.2757 94.8662 86.6494 94.5381C87.0231 94.2054 87.21 93.7269 87.21 93.1025C87.21 92.5101 87.0231 92.0361 86.6494 91.6807C86.2757 91.3252 85.763 91.1406 85.1113 91.127H82.6777V95.0303Z" fill="#233C54"/>
<circle cx="312" cy="87" r="75" fill="#E7404A"/>
<path d="M278.805 90V78.625H282.305C283.305 78.625 284.198 78.8516 284.984 79.3047C285.776 79.7526 286.393 80.3932 286.836 81.2266C287.279 82.0547 287.5 82.9974 287.5 84.0547V84.5781C287.5 85.6354 287.281 86.5755 286.844 87.3984C286.411 88.2214 285.799 88.8594 285.008 89.3125C284.216 89.7656 283.323 89.9948 282.328 90H278.805ZM281.148 80.5234V88.1172H282.281C283.198 88.1172 283.898 87.8177 284.383 87.2188C284.867 86.6198 285.115 85.763 285.125 84.6484V84.0469C285.125 82.8906 284.885 82.0156 284.406 81.4219C283.927 80.8229 283.227 80.5234 282.305 80.5234H281.148ZM296.055 85.0703H291.555V88.1172H296.836V90H289.211V78.625H296.82V80.5234H291.555V83.2344H296.055V85.0703ZM302.414 87.1797L304.992 78.625H307.602L303.641 90H301.195L297.25 78.625H299.852L302.414 87.1797ZM315.523 85.0703H311.023V88.1172H316.305V90H308.68V78.625H316.289V80.5234H311.023V83.2344H315.523V85.0703ZM320.023 88.1172H325V90H317.68V78.625H320.023V88.1172ZM335.195 84.5703C335.195 85.6901 334.997 86.6719 334.602 87.5156C334.206 88.3594 333.638 89.0104 332.898 89.4688C332.164 89.9271 331.32 90.1562 330.367 90.1562C329.424 90.1562 328.583 89.9297 327.844 89.4766C327.104 89.0234 326.531 88.3776 326.125 87.5391C325.719 86.6953 325.513 85.7266 325.508 84.6328V84.0703C325.508 82.9505 325.708 81.9661 326.109 81.1172C326.516 80.263 327.086 79.6094 327.82 79.1562C328.56 78.6979 329.404 78.4688 330.352 78.4688C331.299 78.4688 332.141 78.6979 332.875 79.1562C333.615 79.6094 334.185 80.263 334.586 81.1172C334.992 81.9661 335.195 82.9479 335.195 84.0625V84.5703ZM332.82 84.0547C332.82 82.862 332.607 81.9557 332.18 81.3359C331.753 80.7161 331.143 80.4062 330.352 80.4062C329.565 80.4062 328.958 80.7135 328.531 81.3281C328.104 81.9375 327.888 82.8333 327.883 84.0156V84.5703C327.883 85.7318 328.096 86.6328 328.523 87.2734C328.951 87.9141 329.565 88.2344 330.367 88.2344C331.154 88.2344 331.758 87.9271 332.18 87.3125C332.602 86.6927 332.815 85.7917 332.82 84.6094V84.0547ZM339.242 85.9922V90H336.898V78.625H341.336C342.19 78.625 342.94 78.7812 343.586 79.0938C344.237 79.4062 344.737 79.8516 345.086 80.4297C345.435 81.0026 345.609 81.6562 345.609 82.3906C345.609 83.5052 345.227 84.3854 344.461 85.0312C343.701 85.6719 342.646 85.9922 341.297 85.9922H339.242ZM339.242 84.0938H341.336C341.956 84.0938 342.427 83.9479 342.75 83.6562C343.078 83.3646 343.242 82.9479 343.242 82.4062C343.242 81.849 343.078 81.3984 342.75 81.0547C342.422 80.7109 341.969 80.5339 341.391 80.5234H339.242V84.0938Z" fill="white"/>
<mask id="path-8-inside-1" fill="white">
<path d="M0.392002 73.2274C3.86542 61.2974 10.957 50.74 20.6875 43.013C30.418 35.286 42.3075 30.7705 54.7142 30.09C67.1209 29.4096 79.4329 32.5977 89.9501 39.2142C100.467 45.8308 108.671 55.5493 113.428 67.0279L110.954 68.0532C106.409 57.087 98.5718 47.8022 88.524 41.481C78.4762 35.1598 66.7138 32.114 54.8608 32.7641C43.0079 33.4142 31.6491 37.7281 22.3529 45.1102C13.0567 52.4924 6.28168 62.5786 2.9633 73.9761L0.392002 73.2274Z"/>
</mask>
<path d="M0.392002 73.2274C3.86542 61.2974 10.957 50.74 20.6875 43.013C30.418 35.286 42.3075 30.7705 54.7142 30.09C67.1209 29.4096 79.4329 32.5977 89.9501 39.2142C100.467 45.8308 108.671 55.5493 113.428 67.0279L110.954 68.0532C106.409 57.087 98.5718 47.8022 88.524 41.481C78.4762 35.1598 66.7138 32.114 54.8608 32.7641C43.0079 33.4142 31.6491 37.7281 22.3529 45.1102C13.0567 52.4924 6.28168 62.5786 2.9633 73.9761L0.392002 73.2274Z" fill="white" stroke="#233C54" stroke-width="4" mask="url(#path-8-inside-1)"/>
<path d="M115.646 72.3952L104.249 66.6411L115.5 59.6291L115.646 72.3952Z" fill="#233C54"/>
<mask id="path-10-inside-2" fill="white">
<path d="M223.955 117.011C218.019 127.287 209.17 135.572 198.526 140.818C187.881 146.064 175.92 148.036 164.155 146.485C152.39 144.933 141.35 139.928 132.429 132.102C123.509 124.275 117.11 113.98 114.041 102.516L116.903 101.75C119.82 112.648 125.903 122.435 134.383 129.875C142.863 137.315 153.359 142.073 164.543 143.548C175.727 145.023 187.097 143.148 197.216 138.161C207.335 133.174 215.747 125.298 221.39 115.53L223.955 117.011Z"/>
</mask>
<path d="M223.955 117.011C218.019 127.287 209.17 135.572 198.526 140.818C187.881 146.064 175.92 148.036 164.155 146.485C152.39 144.933 141.35 139.928 132.429 132.102C123.509 124.275 117.11 113.98 114.041 102.516L116.903 101.75C119.82 112.648 125.903 122.435 134.383 129.875C142.863 137.315 153.359 142.073 164.543 143.548C175.727 145.023 187.097 143.148 197.216 138.161C207.335 133.174 215.747 125.298 221.39 115.53L223.955 117.011Z" fill="white" stroke="#233C54" stroke-width="4" mask="url(#path-10-inside-2)"/>
<path d="M226.102 110.156L226.544 122.915L214.983 116.429L226.102 110.156Z" fill="#233C54"/>
<mask id="path-12-inside-3" fill="white">
<path d="M380.002 34.0027C369.916 20.5532 356.068 10.3966 340.209 4.81739C324.35 -0.761828 307.193 -1.51313 290.908 2.6585C274.622 6.83013 259.939 15.7373 248.716 28.2537C237.493 40.7701 230.233 56.3335 227.855 72.9759L230.317 73.3276C232.625 57.1722 239.673 42.0641 250.568 29.9139C261.463 17.7637 275.716 9.11712 291.525 5.06754C307.334 1.01796 323.989 1.74728 339.384 7.16327C354.778 12.5793 368.221 22.4387 378.013 35.4947L380.002 34.0027Z"/>
</mask>
<path d="M380.002 34.0027C369.916 20.5532 356.068 10.3966 340.209 4.81739C324.35 -0.761828 307.193 -1.51313 290.908 2.6585C274.622 6.83013 259.939 15.7373 248.716 28.2537C237.493 40.7701 230.233 56.3335 227.855 72.9759L230.317 73.3276C232.625 57.1722 239.673 42.0641 250.568 29.9139C261.463 17.7637 275.716 9.11712 291.525 5.06754C307.334 1.01796 323.989 1.74728 339.384 7.16327C354.778 12.5793 368.221 22.4387 378.013 35.4947L380.002 34.0027Z" stroke="#233C54" stroke-width="6" mask="url(#path-12-inside-3)"/>
<path d="M384.256 40.041L372.138 36.024L382.236 27.4348L384.256 40.041Z" fill="#233C54"/>
<path d="M444.994 58.6045H440.817V63H439.505V53.0469H445.671V54.127H440.817V57.5312H444.994V58.6045ZM451.577 60.4023H447.407L446.471 63H445.117L448.918 53.0469H450.066L453.874 63H452.527L451.577 60.4023ZM447.804 59.3223H451.188L449.492 54.667L447.804 59.3223ZM458.146 58.5635C457.021 58.2399 456.201 57.8434 455.686 57.374C455.175 56.9001 454.92 56.3167 454.92 55.624C454.92 54.8402 455.232 54.193 455.856 53.6826C456.485 53.1676 457.301 52.9102 458.304 52.9102C458.987 52.9102 459.596 53.0423 460.129 53.3066C460.667 53.571 461.081 53.9355 461.373 54.4004C461.669 54.8652 461.817 55.3734 461.817 55.9248H460.498C460.498 55.3232 460.307 54.8516 459.924 54.5098C459.541 54.1634 459.001 53.9902 458.304 53.9902C457.657 53.9902 457.151 54.1338 456.786 54.4209C456.426 54.7035 456.246 55.0977 456.246 55.6035C456.246 56.0091 456.417 56.3532 456.759 56.6357C457.105 56.9137 457.691 57.1689 458.516 57.4014C459.345 57.6338 459.992 57.8913 460.457 58.1738C460.926 58.4518 461.273 58.7777 461.496 59.1514C461.724 59.5251 461.838 59.9648 461.838 60.4707C461.838 61.2773 461.523 61.9245 460.895 62.4121C460.266 62.8952 459.425 63.1367 458.372 63.1367C457.688 63.1367 457.05 63.0068 456.458 62.7471C455.866 62.4827 455.408 62.1227 455.084 61.667C454.765 61.2113 454.605 60.694 454.605 60.1152H455.925C455.925 60.7168 456.146 61.193 456.588 61.5439C457.035 61.8903 457.629 62.0635 458.372 62.0635C459.065 62.0635 459.596 61.9222 459.965 61.6396C460.334 61.3571 460.519 60.972 460.519 60.4844C460.519 59.9967 460.348 59.6208 460.006 59.3564C459.664 59.0876 459.044 58.8232 458.146 58.5635ZM470.403 54.127H467.204V63H465.898V54.127H462.706V53.0469H470.403V54.127ZM478.374 61.2568L481.218 53.0469H482.653L478.962 63H477.8L474.115 53.0469H475.544L478.374 61.2568ZM488.97 60.4023H484.8L483.863 63H482.51L486.311 53.0469H487.459L491.267 63H489.92L488.97 60.4023ZM485.196 59.3223H488.58L486.885 54.667L485.196 59.3223ZM493.926 61.9268H498.643V63H492.606V53.0469H493.926V61.9268ZM506.777 53.0469V59.8145C506.773 60.7533 506.477 61.5212 505.889 62.1182C505.305 62.7152 504.512 63.0501 503.51 63.123L503.161 63.1367C502.072 63.1367 501.204 62.8428 500.557 62.2549C499.91 61.667 499.581 60.8581 499.572 59.8281V53.0469H500.871V59.7871C500.871 60.5072 501.069 61.0677 501.466 61.4688C501.862 61.8652 502.427 62.0635 503.161 62.0635C503.904 62.0635 504.471 61.8652 504.863 61.4688C505.26 61.0723 505.458 60.514 505.458 59.7939V53.0469H506.777ZM514.475 58.3994H510.161V61.9268H515.172V63H508.849V53.0469H515.104V54.127H510.161V57.3262H514.475V58.3994ZM447.12 79V69.0469H449.93C450.796 69.0469 451.561 69.2383 452.227 69.6211C452.892 70.0039 453.405 70.5485 453.765 71.2549C454.129 71.9613 454.314 72.7725 454.318 73.6885V74.3242C454.318 75.263 454.136 76.0856 453.771 76.792C453.411 77.4984 452.894 78.0407 452.22 78.4189C451.55 78.7972 450.768 78.9909 449.875 79H447.12ZM448.433 70.127V77.9268H449.813C450.825 77.9268 451.611 77.6123 452.172 76.9834C452.737 76.3545 453.02 75.459 453.02 74.2969V73.7158C453.02 72.5856 452.753 71.7083 452.22 71.084C451.691 70.4551 450.939 70.1361 449.964 70.127H448.433ZM461.934 74.3994H457.62V77.9268H462.631V79H456.308V69.0469H462.562V70.127H457.62V73.3262H461.934V74.3994ZM465.584 77.9268H470.301V79H464.265V69.0469H465.584V77.9268ZM473.206 79H471.894V69.0469H473.206V79ZM478.907 77.2568L481.751 69.0469H483.187L479.495 79H478.333L474.648 69.0469H476.077L478.907 77.2568ZM490.152 74.3994H485.839V77.9268H490.85V79H484.526V69.0469H490.781V70.127H485.839V73.3262H490.152V74.3994ZM496.134 74.9736H493.796V79H492.477V69.0469H495.771C496.893 69.0469 497.754 69.3021 498.355 69.8125C498.962 70.3229 499.265 71.0658 499.265 72.041C499.265 72.6608 499.096 73.2008 498.759 73.6611C498.426 74.1214 497.961 74.4655 497.364 74.6934L499.702 78.918V79H498.294L496.134 74.9736ZM493.796 73.9004H495.812C496.464 73.9004 496.981 73.7318 497.364 73.3945C497.752 73.0573 497.945 72.6061 497.945 72.041C497.945 71.4258 497.761 70.9541 497.392 70.626C497.027 70.2979 496.498 70.1315 495.806 70.127H493.796V73.9004ZM503.817 74.0439L506.415 69.0469H507.905L504.474 75.2881V79H503.161V75.2881L499.729 69.0469H501.233L503.817 74.0439Z" fill="#233C54"/>
</svg>
