<svg width="553" height="162" viewBox="0 0 553 162" fill="none" xmlns="http://www.w3.org/2000/svg">
<line x1="105" y1="86.5" x2="553" y2="86.5" stroke="#233C54"/>
<circle cx="172" cy="87" r="46" fill="white" stroke="#E7404A" stroke-width="2"/>
<path d="M136.187 84V74.0469H138.996C139.862 74.0469 140.628 74.2383 141.293 74.6211C141.958 75.0039 142.471 75.5485 142.831 76.2549C143.196 76.9613 143.38 77.7725 143.385 78.6885V79.3242C143.385 80.263 143.202 81.0856 142.838 81.792C142.478 82.4984 141.961 83.0407 141.286 83.4189C140.616 83.7972 139.835 83.9909 138.941 84H136.187ZM137.499 75.127V82.9268H138.88C139.892 82.9268 140.678 82.6123 141.238 81.9834C141.803 81.3545 142.086 80.459 142.086 79.2969V78.7158C142.086 77.5856 141.819 76.7083 141.286 76.084C140.757 75.4551 140.006 75.1361 139.03 75.127H137.499ZM151 79.3994H146.687V82.9268H151.697V84H145.374V74.0469H151.629V75.127H146.687V78.3262H151V79.3994ZM156.264 79.5635C155.138 79.2399 154.318 78.8434 153.803 78.374C153.292 77.9001 153.037 77.3167 153.037 76.624C153.037 75.8402 153.349 75.193 153.974 74.6826C154.603 74.1676 155.418 73.9102 156.421 73.9102C157.104 73.9102 157.713 74.0423 158.246 74.3066C158.784 74.571 159.199 74.9355 159.49 75.4004C159.786 75.8652 159.935 76.3734 159.935 76.9248H158.615C158.615 76.3232 158.424 75.8516 158.041 75.5098C157.658 75.1634 157.118 74.9902 156.421 74.9902C155.774 74.9902 155.268 75.1338 154.903 75.4209C154.543 75.7035 154.363 76.0977 154.363 76.6035C154.363 77.0091 154.534 77.3532 154.876 77.6357C155.222 77.9137 155.808 78.1689 156.633 78.4014C157.462 78.6338 158.109 78.8913 158.574 79.1738C159.044 79.4518 159.39 79.7777 159.613 80.1514C159.841 80.5251 159.955 80.9648 159.955 81.4707C159.955 82.2773 159.641 82.9245 159.012 83.4121C158.383 83.8952 157.542 84.1367 156.489 84.1367C155.806 84.1367 155.168 84.0068 154.575 83.7471C153.983 83.4827 153.525 83.1227 153.201 82.667C152.882 82.2113 152.723 81.694 152.723 81.1152H154.042C154.042 81.7168 154.263 82.193 154.705 82.5439C155.152 82.8903 155.746 83.0635 156.489 83.0635C157.182 83.0635 157.713 82.9222 158.082 82.6396C158.451 82.3571 158.636 81.972 158.636 81.4844C158.636 80.9967 158.465 80.6208 158.123 80.3564C157.781 80.0876 157.161 79.8232 156.264 79.5635ZM167.27 79.3994H162.956V82.9268H167.967V84H161.644V74.0469H167.898V75.127H162.956V78.3262H167.27V79.3994ZM177.25 84H175.931L170.92 76.3301V84H169.601V74.0469H170.92L175.944 81.751V74.0469H177.25V84ZM187.23 84H185.911V79.3994H180.894V84H179.581V74.0469H180.894V78.3262H185.911V74.0469H187.23V84ZM195.188 79.3994H190.874V82.9268H195.885V84H189.562V74.0469H195.816V75.127H190.874V78.3262H195.188V79.3994ZM206.487 81.4023H202.317L201.381 84H200.027L203.828 74.0469H204.977L208.784 84H207.438L206.487 81.4023ZM202.714 80.3223H206.098L204.402 75.667L202.714 80.3223ZM145.101 95.5635C143.975 95.2399 143.155 94.8434 142.64 94.374C142.129 93.9001 141.874 93.3167 141.874 92.624C141.874 91.8402 142.186 91.193 142.811 90.6826C143.439 90.1676 144.255 89.9102 145.258 89.9102C145.941 89.9102 146.55 90.0423 147.083 90.3066C147.621 90.571 148.035 90.9355 148.327 91.4004C148.623 91.8652 148.771 92.3734 148.771 92.9248H147.452C147.452 92.3232 147.261 91.8516 146.878 91.5098C146.495 91.1634 145.955 90.9902 145.258 90.9902C144.611 90.9902 144.105 91.1338 143.74 91.4209C143.38 91.7035 143.2 92.0977 143.2 92.6035C143.2 93.0091 143.371 93.3532 143.713 93.6357C144.059 93.9137 144.645 94.1689 145.47 94.4014C146.299 94.6338 146.946 94.8913 147.411 95.1738C147.881 95.4518 148.227 95.7777 148.45 96.1514C148.678 96.5251 148.792 96.9648 148.792 97.4707C148.792 98.2773 148.478 98.9245 147.849 99.4121C147.22 99.8952 146.379 100.137 145.326 100.137C144.643 100.137 144.005 100.007 143.412 99.7471C142.82 99.4827 142.362 99.1227 142.038 98.667C141.719 98.2113 141.56 97.694 141.56 97.1152H142.879C142.879 97.7168 143.1 98.193 143.542 98.5439C143.989 98.8903 144.583 99.0635 145.326 99.0635C146.019 99.0635 146.55 98.9222 146.919 98.6396C147.288 98.3571 147.473 97.972 147.473 97.4844C147.473 96.9967 147.302 96.6208 146.96 96.3564C146.618 96.0876 145.998 95.8232 145.101 95.5635ZM158.137 95.3447C158.137 96.32 157.973 97.1722 157.645 97.9014C157.316 98.626 156.852 99.1797 156.25 99.5625C155.648 99.9453 154.947 100.137 154.145 100.137C153.361 100.137 152.666 99.9453 152.06 99.5625C151.453 99.1751 150.982 98.626 150.645 97.915C150.312 97.1995 150.141 96.3724 150.132 95.4336V94.7158C150.132 93.7588 150.298 92.9134 150.631 92.1797C150.964 91.446 151.433 90.8854 152.039 90.498C152.65 90.1061 153.347 89.9102 154.131 89.9102C154.928 89.9102 155.63 90.1038 156.236 90.4912C156.847 90.874 157.316 91.4323 157.645 92.166C157.973 92.8952 158.137 93.7451 158.137 94.7158V95.3447ZM156.831 94.7021C156.831 93.5218 156.594 92.6172 156.12 91.9883C155.646 91.3548 154.983 91.0381 154.131 91.0381C153.301 91.0381 152.647 91.3548 152.169 91.9883C151.695 92.6172 151.451 93.4922 151.438 94.6133V95.3447C151.438 96.4886 151.677 97.3887 152.155 98.0449C152.638 98.6966 153.301 99.0225 154.145 99.0225C154.992 99.0225 155.648 98.7148 156.113 98.0996C156.578 97.4798 156.817 96.5934 156.831 95.4404V94.7021ZM161.425 98.9268H166.142V100H160.105V90.0469H161.425V98.9268ZM174.276 90.0469V96.8145C174.272 97.7533 173.976 98.5212 173.388 99.1182C172.804 99.7152 172.011 100.05 171.009 100.123L170.66 100.137C169.571 100.137 168.703 99.8428 168.056 99.2549C167.409 98.667 167.08 97.8581 167.071 96.8281V90.0469H168.37V96.7871C168.37 97.5072 168.568 98.0677 168.965 98.4688C169.361 98.8652 169.926 99.0635 170.66 99.0635C171.403 99.0635 171.97 98.8652 172.362 98.4688C172.759 98.0723 172.957 97.514 172.957 96.7939V90.0469H174.276ZM183.669 96.8418C183.546 97.8945 183.156 98.708 182.5 99.2822C181.848 99.8519 180.98 100.137 179.896 100.137C178.72 100.137 177.776 99.7152 177.065 98.8721C176.359 98.029 176.006 96.901 176.006 95.4883V94.5312C176.006 93.6061 176.17 92.7926 176.498 92.0908C176.831 91.389 177.3 90.8512 177.906 90.4775C178.512 90.0993 179.214 89.9102 180.012 89.9102C181.069 89.9102 181.917 90.2064 182.555 90.7988C183.193 91.3867 183.564 92.2025 183.669 93.2461H182.35C182.236 92.4531 181.987 91.8789 181.604 91.5234C181.226 91.168 180.695 90.9902 180.012 90.9902C179.173 90.9902 178.515 91.3001 178.036 91.9199C177.562 92.5397 177.325 93.4215 177.325 94.5654V95.5293C177.325 96.6094 177.551 97.4684 178.002 98.1064C178.453 98.7445 179.084 99.0635 179.896 99.0635C180.625 99.0635 181.183 98.8994 181.57 98.5713C181.962 98.2386 182.222 97.6621 182.35 96.8418H183.669ZM180.326 100.062L180.244 100.417C180.941 100.54 181.29 100.934 181.29 101.6C181.29 102.042 181.108 102.39 180.743 102.646C180.379 102.905 179.87 103.035 179.219 103.035L179.171 102.304C179.531 102.304 179.809 102.244 180.005 102.126C180.205 102.007 180.306 101.841 180.306 101.627C180.306 101.426 180.233 101.278 180.087 101.183C179.941 101.087 179.645 101.019 179.198 100.978L179.417 100.062H180.326ZM190.963 97.4023H186.793L185.856 100H184.503L188.304 90.0469H189.452L193.26 100H191.913L190.963 97.4023ZM187.189 96.3223H190.573L188.878 91.667L187.189 96.3223ZM191.332 87.5996C191.332 88.0918 191.191 88.4906 190.908 88.7959C190.63 89.1012 190.282 89.2539 189.862 89.2539C189.675 89.2539 189.514 89.2311 189.377 89.1855C189.24 89.14 189.06 89.0465 188.837 88.9053C188.618 88.764 188.459 88.6797 188.358 88.6523C188.263 88.6204 188.151 88.6045 188.023 88.6045C187.837 88.6045 187.677 88.6774 187.545 88.8232C187.413 88.9645 187.347 89.1468 187.347 89.3701L186.499 89.3223C186.499 88.8346 186.636 88.4313 186.909 88.1123C187.187 87.7933 187.538 87.6338 187.962 87.6338C188.121 87.6338 188.265 87.6566 188.393 87.7021C188.52 87.7477 188.693 87.8366 188.912 87.9688C189.131 88.1009 189.297 88.1875 189.411 88.2285C189.53 88.2695 189.66 88.29 189.801 88.29C189.997 88.29 190.159 88.2126 190.286 88.0576C190.418 87.9027 190.484 87.7227 190.484 87.5176L191.332 87.5996ZM202.174 95.3447C202.174 96.32 202.01 97.1722 201.682 97.9014C201.354 98.626 200.889 99.1797 200.287 99.5625C199.686 99.9453 198.984 100.137 198.182 100.137C197.398 100.137 196.703 99.9453 196.097 99.5625C195.491 99.1751 195.019 98.626 194.682 97.915C194.349 97.1995 194.178 96.3724 194.169 95.4336V94.7158C194.169 93.7588 194.335 92.9134 194.668 92.1797C195.001 91.446 195.47 90.8854 196.076 90.498C196.687 90.1061 197.384 89.9102 198.168 89.9102C198.965 89.9102 199.667 90.1038 200.273 90.4912C200.884 90.874 201.354 91.4323 201.682 92.166C202.01 92.8952 202.174 93.7451 202.174 94.7158V95.3447ZM200.868 94.7021C200.868 93.5218 200.631 92.6172 200.157 91.9883C199.683 91.3548 199.02 91.0381 198.168 91.0381C197.339 91.0381 196.685 91.3548 196.206 91.9883C195.732 92.6172 195.488 93.4922 195.475 94.6133V95.3447C195.475 96.4886 195.714 97.3887 196.192 98.0449C196.675 98.6966 197.339 99.0225 198.182 99.0225C199.029 99.0225 199.686 98.7148 200.15 98.0996C200.615 97.4798 200.854 96.5934 200.868 95.4404V94.7021Z" fill="#233C54"/>
<circle cx="58" cy="87" r="46" fill="white" stroke="#E7404A" stroke-width="2"/>
<path d="M24.0869 84V74.0469H26.8965C27.7624 74.0469 28.528 74.2383 29.1934 74.6211C29.8587 75.0039 30.3714 75.5485 30.7314 76.2549C31.096 76.9613 31.2806 77.7725 31.2852 78.6885V79.3242C31.2852 80.263 31.1029 81.0856 30.7383 81.792C30.3783 82.4984 29.861 83.0407 29.1865 83.4189C28.5166 83.7972 27.735 83.9909 26.8418 84H24.0869ZM25.3994 75.127V82.9268H26.7803C27.792 82.9268 28.5781 82.6123 29.1387 81.9834C29.7038 81.3545 29.9863 80.459 29.9863 79.2969V78.7158C29.9863 77.5856 29.7197 76.7083 29.1865 76.084C28.6579 75.4551 27.9059 75.1361 26.9307 75.127H25.3994ZM38.9004 79.3994H34.5869V82.9268H39.5977V84H33.2744V74.0469H39.5293V75.127H34.5869V78.3262H38.9004V79.3994ZM44.1641 79.5635C43.0384 79.2399 42.2181 78.8434 41.7031 78.374C41.1927 77.9001 40.9375 77.3167 40.9375 76.624C40.9375 75.8402 41.2497 75.193 41.874 74.6826C42.5029 74.1676 43.3187 73.9102 44.3213 73.9102C45.0049 73.9102 45.6133 74.0423 46.1465 74.3066C46.6842 74.571 47.099 74.9355 47.3906 75.4004C47.6868 75.8652 47.835 76.3734 47.835 76.9248H46.5156C46.5156 76.3232 46.3242 75.8516 45.9414 75.5098C45.5586 75.1634 45.0186 74.9902 44.3213 74.9902C43.6742 74.9902 43.1683 75.1338 42.8037 75.4209C42.4437 75.7035 42.2637 76.0977 42.2637 76.6035C42.2637 77.0091 42.4346 77.3532 42.7764 77.6357C43.1227 77.9137 43.7083 78.1689 44.5332 78.4014C45.3626 78.6338 46.0098 78.8913 46.4746 79.1738C46.944 79.4518 47.2904 79.7777 47.5137 80.1514C47.7415 80.5251 47.8555 80.9648 47.8555 81.4707C47.8555 82.2773 47.541 82.9245 46.9121 83.4121C46.2832 83.8952 45.4424 84.1367 44.3896 84.1367C43.7061 84.1367 43.068 84.0068 42.4756 83.7471C41.8831 83.4827 41.4251 83.1227 41.1016 82.667C40.7826 82.2113 40.623 81.694 40.623 81.1152H41.9424C41.9424 81.7168 42.1634 82.193 42.6055 82.5439C43.0521 82.8903 43.6468 83.0635 44.3896 83.0635C45.0824 83.0635 45.6133 82.9222 45.9824 82.6396C46.3516 82.3571 46.5361 81.972 46.5361 81.4844C46.5361 80.9967 46.3652 80.6208 46.0234 80.3564C45.6816 80.0876 45.0618 79.8232 44.1641 79.5635ZM56.8652 80.8418C56.7422 81.8945 56.3525 82.708 55.6963 83.2822C55.0446 83.8519 54.1764 84.1367 53.0918 84.1367C51.916 84.1367 50.9727 83.7152 50.2617 82.8721C49.5553 82.029 49.2021 80.901 49.2021 79.4883V78.5312C49.2021 77.6061 49.3662 76.7926 49.6943 76.0908C50.027 75.389 50.4964 74.8512 51.1025 74.4775C51.7087 74.0993 52.4105 73.9102 53.208 73.9102C54.2653 73.9102 55.113 74.2064 55.751 74.7988C56.389 75.3867 56.7604 76.2025 56.8652 77.2461H55.5459C55.432 76.4531 55.1836 75.8789 54.8008 75.5234C54.4225 75.168 53.8916 74.9902 53.208 74.9902C52.3695 74.9902 51.7109 75.3001 51.2324 75.9199C50.7585 76.5397 50.5215 77.4215 50.5215 78.5654V79.5293C50.5215 80.6094 50.7471 81.4684 51.1982 82.1064C51.6494 82.7445 52.2806 83.0635 53.0918 83.0635C53.821 83.0635 54.3792 82.8994 54.7666 82.5713C55.1585 82.2386 55.4183 81.6621 55.5459 80.8418H56.8652ZM65.6699 74.0469V80.8145C65.6654 81.7533 65.3691 82.5212 64.7812 83.1182C64.1979 83.7152 63.4049 84.0501 62.4023 84.123L62.0537 84.1367C60.9645 84.1367 60.0964 83.8428 59.4492 83.2549C58.8021 82.667 58.474 81.8581 58.4648 80.8281V74.0469H59.7637V80.7871C59.7637 81.5072 59.9619 82.0677 60.3584 82.4688C60.7549 82.8652 61.32 83.0635 62.0537 83.0635C62.7965 83.0635 63.3639 82.8652 63.7559 82.4688C64.1523 82.0723 64.3506 81.514 64.3506 80.7939V74.0469H65.6699ZM67.7412 84V74.0469H70.9951C72.0752 74.0469 72.8864 74.2702 73.4287 74.7168C73.9756 75.1634 74.249 75.8242 74.249 76.6992C74.249 77.1641 74.1169 77.5765 73.8525 77.9365C73.5882 78.292 73.2282 78.5677 72.7725 78.7637C73.3102 78.9141 73.734 79.2012 74.0439 79.625C74.3584 80.0443 74.5156 80.5456 74.5156 81.1289C74.5156 82.0221 74.2262 82.724 73.6475 83.2344C73.0687 83.7448 72.2507 84 71.1934 84H67.7412ZM69.0537 79.3447V82.9268H71.2207C71.8314 82.9268 72.3122 82.7695 72.6631 82.4551C73.0186 82.1361 73.1963 81.6986 73.1963 81.1426C73.1963 79.944 72.5446 79.3447 71.2412 79.3447H69.0537ZM69.0537 78.292H71.0361C71.6104 78.292 72.0684 78.1484 72.4102 77.8613C72.7565 77.5742 72.9297 77.1846 72.9297 76.6924C72.9297 76.1455 72.7702 75.749 72.4512 75.5029C72.1322 75.2523 71.6468 75.127 70.9951 75.127H69.0537V78.292ZM80.1143 79.9736H77.7764V84H76.457V74.0469H79.752C80.873 74.0469 81.7344 74.3021 82.3359 74.8125C82.9421 75.3229 83.2451 76.0658 83.2451 77.041C83.2451 77.6608 83.0765 78.2008 82.7393 78.6611C82.4066 79.1214 81.9417 79.4655 81.3447 79.6934L83.6826 83.918V84H82.2744L80.1143 79.9736ZM77.7764 78.9004H79.793C80.4447 78.9004 80.9619 78.7318 81.3447 78.3945C81.7321 78.0573 81.9258 77.6061 81.9258 77.041C81.9258 76.4258 81.7412 75.9541 81.3721 75.626C81.0075 75.2979 80.4788 75.1315 79.7861 75.127H77.7764V78.9004ZM90.5869 81.4023H86.417L85.4805 84H84.127L87.9277 74.0469H89.0762L92.8838 84H91.5371L90.5869 81.4023ZM86.8135 80.3223H90.1973L88.502 75.667L86.8135 80.3223ZM34.0469 95.3994H29.7334V98.9268H34.7441V100H28.4209V90.0469H34.6758V91.127H29.7334V94.3262H34.0469V95.3994ZM41.5459 90.0469L44.7998 98.168L48.0537 90.0469H49.7559V100H48.4434V96.124L48.5664 91.9404L45.2988 100H44.2939L41.0332 91.9609L41.1631 96.124V100H39.8506V90.0469H41.5459ZM57.6924 97.4023H53.5225L52.5859 100H51.2324L55.0332 90.0469H56.1816L59.9893 100H58.6426L57.6924 97.4023ZM53.9189 96.3223H57.3027L55.6074 91.667L53.9189 96.3223ZM62.6416 96.1035V100H61.3291V90.0469H65C66.0892 90.0469 66.9414 90.3249 67.5566 90.8809C68.1764 91.4368 68.4863 92.1729 68.4863 93.0889C68.4863 94.055 68.1833 94.8001 67.5771 95.3242C66.9756 95.8438 66.112 96.1035 64.9863 96.1035H62.6416ZM62.6416 95.0303H65C65.7018 95.0303 66.2396 94.8662 66.6133 94.5381C66.987 94.2054 67.1738 93.7269 67.1738 93.1025C67.1738 92.5101 66.987 92.0361 66.6133 91.6807C66.2396 91.3252 65.7269 91.1406 65.0752 91.127H62.6416V95.0303ZM75.7871 95.3994H71.4736V98.9268H76.4844V100H70.1611V90.0469H76.416V91.127H71.4736V94.3262H75.7871V95.3994ZM79.5264 100H78.2139V90.0469H79.5264V100ZM87.5586 95.3994H83.2451V98.9268H88.2559V100H81.9326V90.0469H88.1875V91.127H83.2451V94.3262H87.5586V95.3994Z" fill="#233C54"/>
<circle cx="312" cy="87" r="75" fill="#E7404A"/>
<path d="M263.688 90V78.625H267.188C268.188 78.625 269.081 78.8516 269.867 79.3047C270.659 79.7526 271.276 80.3932 271.719 81.2266C272.161 82.0547 272.383 82.9974 272.383 84.0547V84.5781C272.383 85.6354 272.164 86.5755 271.727 87.3984C271.294 88.2214 270.682 88.8594 269.891 89.3125C269.099 89.7656 268.206 89.9948 267.211 90H263.688ZM266.031 80.5234V88.1172H267.164C268.081 88.1172 268.781 87.8177 269.266 87.2188C269.75 86.6198 269.997 85.763 270.008 84.6484V84.0469C270.008 82.8906 269.768 82.0156 269.289 81.4219C268.81 80.8229 268.109 80.5234 267.188 80.5234H266.031ZM280.938 85.0703H276.438V88.1172H281.719V90H274.094V78.625H281.703V80.5234H276.438V83.2344H280.938V85.0703ZM288.992 87.0156C288.992 86.5729 288.836 86.2344 288.523 86C288.211 85.7604 287.648 85.5104 286.836 85.25C286.023 84.9844 285.38 84.724 284.906 84.4688C283.615 83.7708 282.969 82.8307 282.969 81.6484C282.969 81.0339 283.141 80.487 283.484 80.0078C283.833 79.5234 284.331 79.1458 284.977 78.875C285.628 78.6042 286.357 78.4688 287.164 78.4688C287.977 78.4688 288.701 78.6172 289.336 78.9141C289.971 79.2057 290.464 79.6198 290.812 80.1562C291.167 80.6927 291.344 81.3021 291.344 81.9844H289C289 81.4635 288.836 81.0599 288.508 80.7734C288.18 80.4818 287.719 80.3359 287.125 80.3359C286.552 80.3359 286.107 80.4583 285.789 80.7031C285.471 80.9427 285.312 81.2604 285.312 81.6562C285.312 82.026 285.497 82.3359 285.867 82.5859C286.242 82.8359 286.792 83.0703 287.516 83.2891C288.849 83.6901 289.82 84.1875 290.43 84.7812C291.039 85.375 291.344 86.1146 291.344 87C291.344 87.9844 290.971 88.7578 290.227 89.3203C289.482 89.8776 288.479 90.1562 287.219 90.1562C286.344 90.1562 285.547 89.9974 284.828 89.6797C284.109 89.3568 283.56 88.9167 283.18 88.3594C282.805 87.8021 282.617 87.1562 282.617 86.4219H284.969C284.969 87.6771 285.719 88.3047 287.219 88.3047C287.776 88.3047 288.211 88.1927 288.523 87.9688C288.836 87.7396 288.992 87.4219 288.992 87.0156ZM299.781 85.0703H295.281V88.1172H300.562V90H292.938V78.625H300.547V80.5234H295.281V83.2344H299.781V85.0703ZM311.188 90H308.844L304.281 82.5156V90H301.938V78.625H304.281L308.852 86.125V78.625H311.188V90ZM317.438 87.1797L320.016 78.625H322.625L318.664 90H316.219L312.273 78.625H314.875L317.438 87.1797ZM332.938 84.5703C332.938 85.6901 332.74 86.6719 332.344 87.5156C331.948 88.3594 331.38 89.0104 330.641 89.4688C329.906 89.9271 329.062 90.1562 328.109 90.1562C327.167 90.1562 326.326 89.9297 325.586 89.4766C324.846 89.0234 324.273 88.3776 323.867 87.5391C323.461 86.6953 323.255 85.7266 323.25 84.6328V84.0703C323.25 82.9505 323.451 81.9661 323.852 81.1172C324.258 80.263 324.828 79.6094 325.562 79.1562C326.302 78.6979 327.146 78.4688 328.094 78.4688C329.042 78.4688 329.883 78.6979 330.617 79.1562C331.357 79.6094 331.927 80.263 332.328 81.1172C332.734 81.9661 332.938 82.9479 332.938 84.0625V84.5703ZM330.562 84.0547C330.562 82.862 330.349 81.9557 329.922 81.3359C329.495 80.7161 328.885 80.4062 328.094 80.4062C327.307 80.4062 326.701 80.7135 326.273 81.3281C325.846 81.9375 325.63 82.8333 325.625 84.0156V84.5703C325.625 85.7318 325.839 86.6328 326.266 87.2734C326.693 87.9141 327.307 88.2344 328.109 88.2344C328.896 88.2344 329.5 87.9271 329.922 87.3125C330.344 86.6927 330.557 85.7917 330.562 84.6094V84.0547ZM336.984 88.1172H341.961V90H334.641V78.625H336.984V88.1172ZM345.906 87.1797L348.484 78.625H351.094L347.133 90H344.688L340.742 78.625H343.344L345.906 87.1797ZM358 87.6562H353.891L353.109 90H350.617L354.852 78.625H357.023L361.281 90H358.789L358 87.6562ZM354.523 85.7578H357.367L355.938 81.5L354.523 85.7578Z" fill="white"/>
<path d="M417.99 61.3994H413.677V64.9268H418.688V66H412.364V56.0469H418.619V57.127H413.677V60.3262H417.99V61.3994ZM427.971 66H426.651L421.641 58.3301V66H420.321V56.0469H421.641L426.665 63.751V56.0469H427.971V66ZM436.974 57.127H433.774V66H432.469V57.127H429.276V56.0469H436.974V57.127ZM442.101 61.9736H439.763V66H438.443V56.0469H441.738C442.859 56.0469 443.721 56.3021 444.322 56.8125C444.928 57.3229 445.231 58.0658 445.231 59.041C445.231 59.6608 445.063 60.2008 444.726 60.6611C444.393 61.1214 443.928 61.4655 443.331 61.6934L445.669 65.918V66H444.261L442.101 61.9736ZM439.763 60.9004H441.779C442.431 60.9004 442.948 60.7318 443.331 60.3945C443.718 60.0573 443.912 59.6061 443.912 59.041C443.912 58.4258 443.728 57.9541 443.358 57.626C442.994 57.2979 442.465 57.1315 441.772 57.127H439.763V60.9004ZM452.703 61.3994H448.39V64.9268H453.4V66H447.077V56.0469H453.332V57.127H448.39V60.3262H452.703V61.3994ZM462.383 64.6943C462.046 65.1774 461.574 65.5397 460.968 65.7812C460.366 66.0182 459.664 66.1367 458.862 66.1367C458.051 66.1367 457.331 65.9476 456.702 65.5693C456.073 65.1865 455.586 64.6442 455.239 63.9424C454.897 63.2406 454.722 62.4271 454.713 61.502V60.6338C454.713 59.1344 455.062 57.9723 455.759 57.1475C456.461 56.3226 457.445 55.9102 458.712 55.9102C459.751 55.9102 460.587 56.1768 461.221 56.71C461.854 57.2386 462.242 57.9906 462.383 58.9658H461.07C460.824 57.6488 460.04 56.9902 458.719 56.9902C457.839 56.9902 457.172 57.3001 456.716 57.9199C456.265 58.5352 456.037 59.4284 456.032 60.5996V61.4131C456.032 62.5296 456.287 63.4183 456.798 64.0791C457.308 64.7354 457.999 65.0635 458.869 65.0635C459.361 65.0635 459.792 65.0088 460.161 64.8994C460.53 64.79 460.836 64.6055 461.077 64.3457V62.1104H458.773V61.0439H462.383V64.6943ZM471.584 56.0469V62.8145C471.579 63.7533 471.283 64.5212 470.695 65.1182C470.112 65.7152 469.319 66.0501 468.316 66.123L467.968 66.1367C466.879 66.1367 466.01 65.8428 465.363 65.2549C464.716 64.667 464.388 63.8581 464.379 62.8281V56.0469H465.678V62.7871C465.678 63.5072 465.876 64.0677 466.272 64.4688C466.669 64.8652 467.234 65.0635 467.968 65.0635C468.711 65.0635 469.278 64.8652 469.67 64.4688C470.066 64.0723 470.265 63.514 470.265 62.7939V56.0469H471.584ZM479.281 61.3994H474.968V64.9268H479.979V66H473.655V56.0469H479.91V57.127H474.968V60.3262H479.281V61.3994ZM488.38 64.2568L491.224 56.0469H492.659L488.968 66H487.806L484.121 56.0469H485.55L488.38 64.2568ZM498.976 63.4023H494.806L493.869 66H492.516L496.316 56.0469H497.465L501.272 66H499.926L498.976 63.4023ZM495.202 62.3223H498.586L496.891 57.667L495.202 62.3223ZM503.932 64.9268H508.648V66H502.612V56.0469H503.932V64.9268ZM517.351 61.3447C517.351 62.32 517.187 63.1722 516.858 63.9014C516.53 64.626 516.065 65.1797 515.464 65.5625C514.862 65.9453 514.16 66.1367 513.358 66.1367C512.575 66.1367 511.88 65.9453 511.273 65.5625C510.667 65.1751 510.196 64.626 509.858 63.915C509.526 63.1995 509.355 62.3724 509.346 61.4336V60.7158C509.346 59.7588 509.512 58.9134 509.845 58.1797C510.177 57.446 510.647 56.8854 511.253 56.498C511.864 56.1061 512.561 55.9102 513.345 55.9102C514.142 55.9102 514.844 56.1038 515.45 56.4912C516.061 56.874 516.53 57.4323 516.858 58.166C517.187 58.8952 517.351 59.7451 517.351 60.7158V61.3447ZM516.045 60.7021C516.045 59.5218 515.808 58.6172 515.334 57.9883C514.86 57.3548 514.197 57.0381 513.345 57.0381C512.515 57.0381 511.861 57.3548 511.383 57.9883C510.909 58.6172 510.665 59.4922 510.651 60.6133V61.3447C510.651 62.4886 510.891 63.3887 511.369 64.0449C511.852 64.6966 512.515 65.0225 513.358 65.0225C514.206 65.0225 514.862 64.7148 515.327 64.0996C515.792 63.4798 516.031 62.5934 516.045 61.4404V60.7021ZM522.97 61.9736H520.632V66H519.312V56.0469H522.607C523.729 56.0469 524.59 56.3021 525.191 56.8125C525.798 57.3229 526.101 58.0658 526.101 59.041C526.101 59.6608 525.932 60.2008 525.595 60.6611C525.262 61.1214 524.797 61.4655 524.2 61.6934L526.538 65.918V66H525.13L522.97 61.9736ZM520.632 60.9004H522.648C523.3 60.9004 523.817 60.7318 524.2 60.3945C524.588 60.0573 524.781 59.6061 524.781 59.041C524.781 58.4258 524.597 57.9541 524.228 57.626C523.863 57.2979 523.334 57.1315 522.642 57.127H520.632V60.9004ZM426.385 77.9736H424.047V82H422.728V72.0469H426.022C427.144 72.0469 428.005 72.3021 428.606 72.8125C429.213 73.3229 429.516 74.0658 429.516 75.041C429.516 75.6608 429.347 76.2008 429.01 76.6611C428.677 77.1214 428.212 77.4655 427.615 77.6934L429.953 81.918V82H428.545L426.385 77.9736ZM424.047 76.9004H426.063C426.715 76.9004 427.232 76.7318 427.615 76.3945C428.003 76.0573 428.196 75.6061 428.196 75.041C428.196 74.4258 428.012 73.9541 427.643 73.626C427.278 73.2979 426.749 73.1315 426.057 73.127H424.047V76.9004ZM436.857 79.4023H432.688L431.751 82H430.397L434.198 72.0469H435.347L439.154 82H437.808L436.857 79.4023ZM433.084 78.3223H436.468L434.772 73.667L433.084 78.3223ZM441.807 78.1035V82H440.494V72.0469H444.165C445.254 72.0469 446.106 72.3249 446.722 72.8809C447.341 73.4368 447.651 74.1729 447.651 75.0889C447.651 76.055 447.348 76.8001 446.742 77.3242C446.141 77.8438 445.277 78.1035 444.151 78.1035H441.807ZM441.807 77.0303H444.165C444.867 77.0303 445.405 76.8662 445.778 76.5381C446.152 76.2054 446.339 75.7269 446.339 75.1025C446.339 74.5101 446.152 74.0361 445.778 73.6807C445.405 73.3252 444.892 73.1406 444.24 73.127H441.807V77.0303ZM450.734 82H449.422V72.0469H450.734V82ZM453.141 82V72.0469H455.95C456.816 72.0469 457.582 72.2383 458.247 72.6211C458.912 73.0039 459.425 73.5485 459.785 74.2549C460.15 74.9613 460.334 75.7725 460.339 76.6885V77.3242C460.339 78.263 460.157 79.0856 459.792 79.792C459.432 80.4984 458.915 81.0407 458.24 81.4189C457.57 81.7972 456.789 81.9909 455.896 82H453.141ZM454.453 73.127V80.9268H455.834C456.846 80.9268 457.632 80.6123 458.192 79.9834C458.757 79.3545 459.04 78.459 459.04 77.2969V76.7158C459.04 75.5856 458.773 74.7083 458.24 74.084C457.712 73.4551 456.96 73.1361 455.984 73.127H454.453ZM467.674 79.4023H463.504L462.567 82H461.214L465.015 72.0469H466.163L469.971 82H468.624L467.674 79.4023ZM463.9 78.3223H467.284L465.589 73.667L463.9 78.3223ZM473.006 72.0469L476.26 80.168L479.514 72.0469H481.216V82H479.903V78.124L480.026 73.9404L476.759 82H475.754L472.493 73.9609L472.623 78.124V82H471.311V72.0469H473.006ZM489.159 77.3994H484.846V80.9268H489.856V82H483.533V72.0469H489.788V73.127H484.846V76.3262H489.159V77.3994ZM499.14 82H497.82L492.81 74.3301V82H491.49V72.0469H492.81L497.834 79.751V72.0469H499.14V82ZM508.143 73.127H504.943V82H503.638V73.127H500.445V72.0469H508.143V73.127ZM515.245 77.3994H510.932V80.9268H515.942V82H509.619V72.0469H515.874V73.127H510.932V76.3262H515.245V77.3994Z" fill="#233C54"/>
<mask id="path-9-inside-1" fill="white">
<path d="M0.392002 73.2274C3.86542 61.2974 10.957 50.74 20.6875 43.013C30.418 35.286 42.3075 30.7705 54.7142 30.09C67.1209 29.4096 79.4329 32.5977 89.9501 39.2142C100.467 45.8308 108.671 55.5493 113.428 67.0279L110.954 68.0532C106.409 57.087 98.5718 47.8022 88.524 41.481C78.4762 35.1598 66.7138 32.114 54.8608 32.7641C43.0079 33.4142 31.6491 37.7281 22.3529 45.1102C13.0567 52.4924 6.28168 62.5786 2.9633 73.9761L0.392002 73.2274Z"/>
</mask>
<path d="M0.392002 73.2274C3.86542 61.2974 10.957 50.74 20.6875 43.013C30.418 35.286 42.3075 30.7705 54.7142 30.09C67.1209 29.4096 79.4329 32.5977 89.9501 39.2142C100.467 45.8308 108.671 55.5493 113.428 67.0279L110.954 68.0532C106.409 57.087 98.5718 47.8022 88.524 41.481C78.4762 35.1598 66.7138 32.114 54.8608 32.7641C43.0079 33.4142 31.6491 37.7281 22.3529 45.1102C13.0567 52.4924 6.28168 62.5786 2.9633 73.9761L0.392002 73.2274Z" fill="white" stroke="#233C54" stroke-width="4" mask="url(#path-9-inside-1)"/>
<path d="M115.646 72.3952L104.249 66.6411L115.5 59.6291L115.646 72.3952Z" fill="#233C54"/>
<mask id="path-11-inside-2" fill="white">
<path d="M223.955 117.011C218.019 127.287 209.17 135.572 198.526 140.818C187.881 146.064 175.92 148.036 164.155 146.485C152.39 144.933 141.35 139.928 132.429 132.102C123.509 124.275 117.11 113.98 114.041 102.516L116.903 101.75C119.82 112.648 125.903 122.435 134.383 129.875C142.863 137.315 153.359 142.073 164.543 143.548C175.727 145.023 187.097 143.148 197.216 138.161C207.335 133.174 215.747 125.298 221.39 115.53L223.955 117.011Z"/>
</mask>
<path d="M223.955 117.011C218.019 127.287 209.17 135.572 198.526 140.818C187.881 146.064 175.92 148.036 164.155 146.485C152.39 144.933 141.35 139.928 132.429 132.102C123.509 124.275 117.11 113.98 114.041 102.516L116.903 101.75C119.82 112.648 125.903 122.435 134.383 129.875C142.863 137.315 153.359 142.073 164.543 143.548C175.727 145.023 187.097 143.148 197.216 138.161C207.335 133.174 215.747 125.298 221.39 115.53L223.955 117.011Z" fill="white" stroke="#233C54" stroke-width="4" mask="url(#path-11-inside-2)"/>
<path d="M226.102 110.156L226.544 122.915L214.983 116.429L226.102 110.156Z" fill="#233C54"/>
<mask id="path-13-inside-3" fill="white">
<path d="M380.002 34.0027C369.916 20.5532 356.068 10.3966 340.209 4.81739C324.35 -0.761828 307.193 -1.51313 290.908 2.6585C274.622 6.83013 259.939 15.7373 248.716 28.2537C237.493 40.7701 230.233 56.3335 227.855 72.9759L230.317 73.3276C232.625 57.1722 239.673 42.0641 250.568 29.9139C261.463 17.7637 275.716 9.11712 291.525 5.06754C307.334 1.01796 323.989 1.74728 339.384 7.16327C354.778 12.5793 368.221 22.4387 378.013 35.4947L380.002 34.0027Z"/>
</mask>
<path d="M380.002 34.0027C369.916 20.5532 356.068 10.3966 340.209 4.81739C324.35 -0.761828 307.193 -1.51313 290.908 2.6585C274.622 6.83013 259.939 15.7373 248.716 28.2537C237.493 40.7701 230.233 56.3335 227.855 72.9759L230.317 73.3276C232.625 57.1722 239.673 42.0641 250.568 29.9139C261.463 17.7637 275.716 9.11712 291.525 5.06754C307.334 1.01796 323.989 1.74728 339.384 7.16327C354.778 12.5793 368.221 22.4387 378.013 35.4947L380.002 34.0027Z" stroke="#233C54" stroke-width="6" mask="url(#path-13-inside-3)"/>
<path d="M384.256 40.041L372.138 36.024L382.236 27.4348L384.256 40.041Z" fill="#233C54"/>
</svg>
