<svg width="84" height="77" viewBox="0 0 84 77" fill="none" xmlns="http://www.w3.org/2000/svg">
<path d="M34.6016 28.5606L34.1522 28.7451C33.3959 27.4283 31.9728 26.5384 30.3441 26.5384H23.3856C20.9674 26.5384 19 28.4988 19 30.9085V50.6299C19 53.0396 20.9675 55 23.3856 55H30.3441C31.7219 55 32.9527 54.363 33.7573 53.3697C36.1787 54.4388 38.8232 55 41.4727 55H56.1763C58.6422 55 60.6485 53.0008 60.6485 50.5436C60.6485 49.7748 60.452 49.051 60.1067 48.4189C61.6436 47.7131 62.7136 46.1642 62.7136 44.3702C62.7136 43.6328 62.5318 42.9373 62.2124 42.3241C63.8457 41.6595 65 40.0604 65 38.1968C65 36.3333 63.8457 34.7341 62.2124 34.0697C62.5318 33.4564 62.7136 32.761 62.7136 32.0236C62.7136 29.5663 60.7073 27.567 58.2414 27.567H50.9154C50.2229 27.567 49.6596 27.0057 49.6596 26.3157V22.286C49.6596 18.2685 46.3796 15 42.3477 15C40.5799 15 39.1415 16.4333 39.1415 18.1949V21.8042C39.1413 24.7765 37.3594 27.4285 34.6016 28.5606ZM30.344 52.2603H23.3855C22.4833 52.2603 21.7493 51.5288 21.7493 50.6299V30.9085C21.7493 30.0096 22.4833 29.2781 23.3855 29.2781H30.344C31.2462 29.2781 31.9802 30.0096 31.9802 30.9085V50.6299C31.9802 51.5288 31.2462 52.2603 30.344 52.2603ZM41.8908 21.8045V18.1952C41.8908 17.9442 42.0957 17.74 42.3476 17.74C44.8633 17.74 46.91 19.7794 46.91 22.2863V26.3159C46.91 28.5166 48.7066 30.307 50.9152 30.307H58.2412C59.1911 30.307 59.964 31.0771 59.964 32.0239C59.964 32.9704 59.1911 33.7406 58.2412 33.7406H49.6614C48.9022 33.7406 48.2866 34.3538 48.2866 35.1104C48.2866 35.8668 48.9022 36.4803 49.6614 36.4803H60.5275C61.4776 36.4803 62.2504 37.2504 62.2504 38.197C62.2504 39.1437 61.4776 39.9138 60.5275 39.9138H49.6614C48.9022 39.9138 48.2866 40.5271 48.2866 41.2837C48.2866 42.0401 48.9022 42.6535 49.6614 42.6535H58.2412C59.1911 42.6535 59.964 43.4236 59.964 44.3702C59.964 45.3168 59.1911 46.0869 58.2412 46.0869H49.6614C48.9022 46.0869 48.2866 46.7003 48.2866 47.4568C48.2866 48.2132 48.9022 48.8266 49.6614 48.8266H56.1763C57.1262 48.8266 57.8991 49.5967 57.8991 50.5435C57.8991 51.49 57.1262 52.2602 56.1763 52.2602H41.4726C39.1521 52.2602 36.8366 51.7556 34.7254 50.7981C34.7276 50.7422 34.7296 50.6862 34.7296 50.6298V31.471L35.6489 31.0937C39.4406 29.5372 41.8908 25.891 41.8908 21.8045Z" fill="#E7404A"/>
<path d="M68.8432 0H49.1038C48.203 0 47.4725 0.730521 47.4725 1.63136C47.4725 2.53219 48.203 3.26271 49.1038 3.26271H68.8432C75.1399 3.26271 80.2627 8.3855 80.2627 14.6822V52.5297C80.2627 58.8264 75.1399 63.9492 68.8432 63.9492H47.4139C46.8312 63.9492 46.2925 64.2601 46.0011 64.7648L41.7627 72.1059L37.5243 64.7648C37.2329 64.2601 36.6944 63.9492 36.1115 63.9492H14.6822C8.3855 63.9492 3.26271 58.8264 3.26271 52.5297V14.6822C3.26271 8.3855 8.3855 3.26271 14.6822 3.26271H34.4214C35.3224 3.26271 36.0528 2.53219 36.0528 1.63136C36.0528 0.730521 35.3224 0 34.4214 0H14.6822C6.58644 0 0 6.58644 0 14.6822V52.5297C0 60.6254 6.58644 67.2119 14.6822 67.2119H35.1696L40.3498 76.1843C40.6412 76.6891 41.1797 77 41.7625 77C42.3453 77 42.8839 76.6891 43.1753 76.1843L48.3555 67.2119H68.8432C76.939 67.2119 83.5254 60.6254 83.5254 52.5297V14.6822C83.5254 6.58644 76.939 0 68.8432 0Z" fill="#E7404A"/>
</svg>
