<svg width="23" height="23" viewBox="0 0 23 23" fill="none" xmlns="http://www.w3.org/2000/svg">
<path d="M11.5133 0.00146484C11.9256 0.00146484 12.3376 0.0236279 12.7475 0.06781C13.1232 0.106188 13.4943 0.169127 13.8604 0.245498C13.9313 0.260321 14.0022 0.27596 14.073 0.292319C16.2302 0.783455 18.1999 1.88638 19.746 3.46883C19.8898 3.6162 20.0305 3.76793 20.1682 3.92399C24.3446 8.71869 23.8434 15.9912 19.0486 20.1677C14.4583 24.1661 7.54866 23.9 3.27936 19.5605C3.1353 19.4132 2.99459 19.2614 2.8572 19.1054C1.01407 17.0064 -0.0016346 14.308 -1.90735e-06 11.5147C-1.90735e-06 5.15605 5.15467 0.00141687 11.5133 0.00146484ZM19.2344 4.04449C19.1738 3.98155 19.1109 3.9213 19.0491 3.86028C18.9777 3.79005 18.9067 3.71943 18.8338 3.65151C18.7697 3.59164 18.7037 3.53407 18.638 3.47574C18.564 3.41011 18.4903 3.34449 18.4143 3.28116C18.3475 3.22475 18.2788 3.17063 18.2105 3.11614C18.1338 3.05473 18.057 2.99333 17.9779 2.93423C17.9081 2.88165 17.8371 2.83061 17.7657 2.78072C17.6863 2.72392 17.6065 2.66559 17.5255 2.61263C17.4529 2.5635 17.3796 2.51591 17.306 2.46871C17.2238 2.41613 17.1413 2.36432 17.058 2.3152C16.9831 2.27044 16.9076 2.2264 16.8316 2.18318C16.7467 2.13482 16.6614 2.08762 16.5756 2.04157C16.4989 2.00065 16.4221 1.96059 16.3454 1.92145C16.2579 1.87731 16.1696 1.83471 16.0809 1.79288C16.0042 1.75642 15.9244 1.71996 15.8453 1.68542C15.7551 1.64705 15.6638 1.60867 15.5724 1.57029C15.493 1.53767 15.4139 1.50582 15.3337 1.47511C15.2409 1.43981 15.1468 1.4068 15.0528 1.3738C14.9726 1.34578 14.8924 1.31777 14.811 1.29129C14.7155 1.26058 14.6191 1.23219 14.5224 1.20417C14.4415 1.18076 14.3613 1.15658 14.2799 1.13471C14.2488 1.12665 14.2177 1.12012 14.1866 1.11206C15.3226 2.21508 16.1656 3.58401 16.6393 5.09489C17.5502 4.85464 18.4321 4.51529 19.269 4.08287C19.2563 4.06944 19.2456 4.05601 19.2344 4.04449ZM19.7863 4.66237C18.8644 5.16185 17.8868 5.55091 16.8738 5.82137C17.3704 7.54817 17.6311 9.33421 17.6487 11.1309H22.2501C22.1665 8.76162 21.3001 6.48689 19.7863 4.66237ZM19.7863 18.367C21.3 16.5424 22.1664 14.2677 22.2501 11.8985H17.6487C17.6311 13.6952 17.3705 15.4812 16.8738 17.208C17.8868 17.4786 18.8644 17.8676 19.7863 18.367ZM14.2822 21.8962C14.3597 21.8766 14.4399 21.8513 14.5197 21.8279C14.6168 21.7995 14.7143 21.7711 14.8103 21.74C14.8912 21.7139 14.9711 21.6859 15.0509 21.6579C15.1453 21.6252 15.2397 21.5919 15.333 21.5562C15.4128 21.5259 15.4915 21.494 15.5705 21.4618C15.6622 21.4234 15.754 21.385 15.8449 21.3466C15.9232 21.3121 16.0011 21.2765 16.0786 21.2399C16.1681 21.1977 16.2571 21.1547 16.3473 21.1102C16.424 21.0718 16.5008 21.0335 16.5776 20.9916C16.6643 20.9452 16.7503 20.8976 16.8362 20.8485C16.913 20.8059 16.9859 20.7621 17.06 20.7176C17.1444 20.667 17.2273 20.6148 17.3102 20.5614C17.3831 20.515 17.456 20.4678 17.5278 20.4194C17.6095 20.3642 17.6905 20.3066 17.7707 20.249C17.8409 20.1988 17.9112 20.1485 17.9803 20.0955C18.0597 20.0357 18.1376 19.9739 18.2151 19.9117C18.2831 19.8576 18.3506 19.8039 18.417 19.7482C18.4937 19.6845 18.5678 19.6181 18.6423 19.5521C18.7075 19.4941 18.7731 19.437 18.8368 19.3779C18.9101 19.3095 18.9811 19.2385 19.0525 19.1683C19.1143 19.1073 19.1772 19.047 19.2379 18.9845C19.249 18.9726 19.2598 18.9603 19.2709 18.9488C18.434 18.5162 17.5522 18.1767 16.6413 17.9364C16.1674 19.4472 15.3245 20.8161 14.1886 21.9192C14.2196 21.9112 14.2511 21.9046 14.2822 21.8962ZM11.897 22.2301C13.5392 21.9967 14.9787 20.2828 15.8845 17.7518C14.575 17.4586 13.2388 17.3013 11.897 17.2824V22.2301ZM11.897 16.5149C13.3204 16.5336 14.7377 16.7027 16.1255 17.0192C16.6073 15.3542 16.8615 13.6316 16.8811 11.8985H11.897V16.5149ZM11.897 11.1309H16.8811C16.8616 9.39773 16.6074 7.67515 16.1255 6.01019C14.7377 6.32666 13.3203 6.49571 11.897 6.51447V11.1309ZM11.897 5.74692C13.2388 5.72821 14.575 5.57091 15.8845 5.27756C14.9787 2.74656 13.5392 1.03262 11.897 0.799286V5.74692ZM3.24021 4.66237C1.72651 6.48693 0.860085 8.76167 0.776375 11.1309H5.37784C5.3954 9.33421 5.65603 7.54817 6.15268 5.82137C5.13971 5.55076 4.16213 5.16176 3.24021 4.66237ZM8.74739 1.13279C8.66679 1.15274 8.58658 1.17807 8.50676 1.20148C8.40966 1.22988 8.31219 1.25828 8.21624 1.28937C8.13526 1.31546 8.05544 1.34348 7.97561 1.3715C7.8812 1.40412 7.7868 1.4375 7.69354 1.4732C7.61371 1.50351 7.53504 1.53537 7.45598 1.5676C7.36426 1.60598 7.27254 1.64436 7.18158 1.68274C7.10329 1.71728 7.02539 1.75282 6.94786 1.78943C6.85844 1.83164 6.76941 1.87463 6.67922 1.91914C6.60247 1.95752 6.52571 1.9959 6.44896 2.03773C6.36222 2.08417 6.27626 2.13175 6.19029 2.18088C6.11353 2.22348 6.04062 2.26723 5.96655 2.31175C5.88212 2.3624 5.79922 2.4146 5.71633 2.46794C5.64341 2.51438 5.57049 2.56158 5.49873 2.60994C5.41698 2.6652 5.33639 2.72239 5.25618 2.77995C5.18557 2.83023 5.11534 2.88088 5.04587 2.93346C4.96682 2.99295 4.88929 3.05473 4.81139 3.11691C4.74384 3.17063 4.67591 3.22436 4.60952 3.28039C4.53277 3.3441 4.4587 3.41049 4.38424 3.4765C4.319 3.53445 4.25338 3.59164 4.18967 3.65074C4.11637 3.71905 4.04537 3.79005 3.97399 3.86028C3.9122 3.9213 3.84926 3.98155 3.78863 4.04411C3.7775 4.05601 3.76675 4.06829 3.75562 4.0798C4.59249 4.51241 5.47431 4.85191 6.38525 5.0922C6.85998 3.58118 7.70404 2.2124 8.84103 1.10976C8.80994 1.11782 8.77847 1.12434 8.74739 1.13279ZM11.1295 0.799286C9.4873 1.03262 8.04776 2.74656 7.14205 5.27756C8.4515 5.57077 9.78775 5.72807 11.1295 5.74692V0.799286ZM11.1295 6.51447C9.70615 6.49576 8.28882 6.32671 6.90104 6.01019C6.41916 7.67515 6.16496 9.39773 6.14539 11.1309H11.1295V6.51447ZM11.1295 11.8985H6.14539C6.16492 13.6316 6.41912 15.3542 6.90104 17.0192C8.28882 16.7027 9.70615 16.5336 11.1295 16.5149V11.8985ZM11.1295 22.2301V17.2824C9.7877 17.3012 8.4515 17.4585 7.14205 17.7518C8.04776 20.2828 9.4873 21.9967 11.1295 22.2301ZM3.79208 18.9849C3.85272 19.0474 3.91527 19.1077 3.97706 19.1687C4.04844 19.2389 4.11982 19.3099 4.19312 19.3782C4.25683 19.4377 4.32246 19.4934 4.3877 19.5529C4.46215 19.6189 4.53622 19.6849 4.61221 19.7486C4.67937 19.8046 4.74768 19.8587 4.81599 19.9132C4.89275 19.9746 4.9695 20.036 5.04856 20.0951C5.11841 20.1477 5.18941 20.1988 5.26079 20.2486C5.34023 20.3054 5.42006 20.3638 5.50103 20.4167C5.57356 20.4659 5.64687 20.5134 5.72055 20.5603C5.80268 20.6132 5.88543 20.6644 5.96885 20.7138C6.04561 20.7587 6.11891 20.8024 6.19451 20.8458C6.27947 20.8942 6.36491 20.9414 6.45087 20.9874C6.52763 21.0283 6.60439 21.0684 6.68114 21.1075C6.76864 21.1517 6.85691 21.1943 6.94556 21.2361C7.02232 21.2726 7.10214 21.309 7.1812 21.3436C7.27139 21.3819 7.36273 21.4203 7.45406 21.4587C7.53351 21.4909 7.61256 21.5232 7.69239 21.5535C7.78603 21.5892 7.88005 21.6226 7.97446 21.6552C8.05429 21.6832 8.13411 21.7112 8.21509 21.7373C8.31103 21.7684 8.40698 21.7968 8.50484 21.8248C8.58505 21.8486 8.66564 21.8724 8.74662 21.8943C8.7777 21.9023 8.80879 21.9089 8.83988 21.9169C7.7039 20.8139 6.86089 19.445 6.38717 17.9341C5.47628 18.1743 4.59446 18.5137 3.75754 18.9461C3.7702 18.9599 3.78095 18.9734 3.79208 18.9849ZM3.24021 18.367C4.16209 17.8675 5.13966 17.4785 6.15268 17.208C5.65608 15.4812 5.3954 13.6952 5.37784 11.8985H0.776375C0.859941 14.2677 1.72641 16.5425 3.24021 18.367Z" fill="#E7404A"/>
</svg>
