<svg width="121" height="53" viewBox="0 0 121 53" fill="none" xmlns="http://www.w3.org/2000/svg">
<path d="M24.8229 26.6421C24.8229 29.4916 24.1859 31.7587 22.9118 33.4434C21.649 35.1285 19.9071 35.9708 17.6859 35.9708C15.5437 35.9708 13.875 35.1962 12.6799 33.6472L12.4769 35.6316H8.75623V9.57895H12.8659V19.0434C14.0498 17.6413 15.6452 16.9402 17.6521 16.9402C19.8845 16.9402 21.6377 17.7713 22.9118 19.4335C24.1859 21.0957 24.8229 23.4194 24.8229 26.4046V26.6421ZM20.7132 26.2859C20.7132 24.2957 20.3637 22.8032 19.6647 21.8081C18.9656 20.813 17.9509 20.3155 16.6204 20.3155C14.839 20.3155 13.5875 21.0957 12.8659 22.6562V30.221C13.5988 31.8152 14.8616 32.6124 16.6543 32.6124C17.9396 32.6124 18.9318 32.1318 19.6308 31.1708C20.3299 30.2097 20.6907 28.7566 20.7132 26.8117V26.2859Z" fill="#E7404A"/>
<path d="M31.2552 35.9708C28.6506 35.9708 26.5367 35.1511 24.9131 33.5115C23.3008 31.8606 22.4946 29.667 22.4946 26.9304V26.4216C22.4946 24.5898 22.8441 22.9558 23.5432 21.5197C24.2535 20.0724 25.2457 18.9473 26.5198 18.1444C27.7939 17.3416 29.2146 16.9402 30.7816 16.9402C33.2734 16.9402 35.1957 17.7374 36.5488 19.3317C37.9129 20.9261 38.5953 23.182 38.5953 26.0993V27.7614H26.6381C26.7621 29.2768 27.264 30.4755 28.1434 31.3572C29.0342 32.2392 30.1503 32.6804 31.4919 32.6804C33.375 32.6804 34.9082 31.9171 36.0922 30.3907L38.3075 32.5108C37.5746 33.6076 36.5939 34.4612 35.3648 35.0717C34.1471 35.6712 32.7772 35.9708 31.2552 35.9708ZM30.7648 20.2477C29.6371 20.2477 28.7239 20.6434 28.0248 21.4349C27.3373 22.2265 26.8974 23.329 26.7058 24.7424H34.5362V24.4371C34.4461 23.0576 34.0795 22.0173 33.4367 21.3162C32.7942 20.6038 31.9035 20.2477 30.7648 20.2477Z" fill="#E7404A"/>
<path d="M8.31934 5.71175H4.5507V38.7978H8.31934V41.8055H0.880737V2.70395H8.31934V5.71175Z" fill="#E7404A"/>
<path d="M38.5867 2.70395H46.045V41.8055H38.5867V38.7978H42.3949V5.71175H38.5867V2.70395Z" fill="#E7404A"/>
<path d="M54.371 35.8197C52.8201 35.8197 51.5819 35.2553 50.6562 34.1263C49.7306 32.9974 49.2679 31.5173 49.2679 29.6858C49.2679 27.6789 49.7306 25.7847 50.6562 24.0034C51.5819 22.1971 52.8074 20.7546 54.3334 19.6758C55.8843 18.572 57.5229 18.02 59.2489 18.02C59.7994 18.02 60.1619 18.1329 60.3371 18.3587C60.5371 18.5594 60.6999 18.9357 60.8249 19.4876C61.3502 19.3873 61.9006 19.3371 62.4759 19.3371C63.7017 19.3371 64.3145 19.7762 64.3145 20.6542C64.3145 21.1811 64.1269 22.4354 63.7517 24.4174C63.1764 27.3026 62.8886 29.3095 62.8886 30.4384C62.8886 30.8148 62.9761 31.1158 63.1513 31.3416C63.3513 31.5674 63.6016 31.6803 63.9017 31.6803C64.3771 31.6803 64.9524 31.3792 65.6278 30.7771C66.3032 30.1498 67.2162 29.1465 68.367 27.7666C68.6671 27.4155 69.0048 27.2397 69.3801 27.2397C69.7054 27.2397 69.9553 27.3903 70.1305 27.6913C70.3305 27.9924 70.4307 28.4063 70.4307 28.9332C70.4307 29.9368 70.1932 30.7143 69.7178 31.2663C68.6922 32.5458 67.6041 33.6247 66.4533 34.5026C65.3025 35.3806 64.1895 35.8197 63.1138 35.8197C62.2883 35.8197 61.5254 35.5439 60.8249 34.9919C60.1495 34.4149 59.6366 33.6371 59.2865 32.6587C57.9856 34.7661 56.3473 35.8197 54.371 35.8197ZM55.7218 32.019C56.2722 32.019 56.7975 31.6927 57.2977 31.0405C57.798 30.3884 58.1608 29.5228 58.3859 28.444L59.7742 21.5197C58.7236 21.5448 57.748 21.9462 56.8475 22.724C55.972 23.4766 55.2715 24.4801 54.7462 25.7345C54.2209 26.9888 53.9582 28.3186 53.9582 29.7234C53.9582 30.5012 54.1083 31.0782 54.4085 31.4545C54.7338 31.8308 55.1714 32.019 55.7218 32.019ZM86.5926 27.315C86.9179 27.315 87.1682 27.478 87.3431 27.8042C87.5434 28.1053 87.6432 28.494 87.6432 28.9708C87.6432 29.5477 87.5558 29.9993 87.3806 30.3255C87.2057 30.6518 86.9303 30.9401 86.5551 31.1911C84.4039 32.6462 82.8279 33.7248 81.8272 34.4274L79.4258 36.0455C78.4753 41.2387 77.2246 45.3154 75.6735 48.2758C74.1478 51.2611 72.1966 52.754 69.8199 52.754C68.5442 52.754 67.5062 52.3525 66.7056 51.5498C65.9052 50.7719 65.5048 49.7434 65.5048 48.464C65.5048 46.6828 66.2054 44.7636 67.6061 42.7063C69.0071 40.6742 71.6337 38.1654 75.4859 35.18L75.711 33.7124C75.2859 34.3897 74.723 34.9166 74.0225 35.2929C73.3471 35.644 72.6717 35.8197 71.9963 35.8197C70.4454 35.8197 69.2072 35.2553 68.2815 34.1263C67.3562 32.9974 66.8932 31.5173 66.8932 29.6858C66.8932 27.6789 67.3562 25.7847 68.2815 24.0034C69.2072 22.1971 70.433 20.7546 71.9587 19.6758C73.5099 18.572 75.1482 18.02 76.8742 18.02C77.4247 18.02 77.7875 18.1329 77.9624 18.3587C78.1627 18.5594 78.3252 18.9357 78.4502 19.4876C78.9256 19.3873 79.476 19.3371 80.1012 19.3371C80.7267 19.3371 81.1645 19.4375 81.4145 19.6382C81.6898 19.8138 81.8272 20.1775 81.8272 20.7295C81.8272 21.0305 81.8148 21.2689 81.7897 21.4445C81.6898 22.2222 81.377 24.1916 80.8516 27.3526C80.7518 27.9548 80.6392 28.6197 80.5139 29.3471C80.4141 30.0497 80.3015 30.8023 80.1762 31.605C82.1026 30.0998 83.9536 28.7702 85.7296 27.6161C86.0549 27.4155 86.3427 27.315 86.5926 27.315ZM73.3471 32.019C73.9226 32.019 74.4728 31.6678 74.9981 30.9653C75.5234 30.2627 75.8986 29.2594 76.1238 27.9547L77.3245 21.5197C76.299 21.5448 75.3485 21.9462 74.4728 22.724C73.5973 23.4766 72.8968 24.4801 72.3715 25.7345C71.8462 26.9888 71.5835 28.3186 71.5835 29.7234C71.5835 30.5012 71.7336 31.0782 72.0338 31.4545C72.3591 31.8308 72.7969 32.019 73.3471 32.019ZM70.2327 49.1037C70.8582 49.1037 71.5587 48.3511 72.334 46.8458C73.1346 45.3405 73.8975 42.9446 74.6229 39.6582C72.6968 41.314 71.3084 42.8068 70.4578 44.1363C69.6075 45.4659 69.1821 46.6325 69.1821 47.6361C69.1821 48.0625 69.2571 48.4139 69.4072 48.6897C69.5824 48.9656 69.8575 49.1037 70.2327 49.1037ZM89.8487 15.6116C88.7981 15.6116 88.0101 15.3733 87.4848 14.8966C86.9595 14.3948 86.6968 13.7049 86.6968 12.8269C86.6968 11.9488 87.0345 11.2212 87.7099 10.6442C88.4104 10.0421 89.2735 9.74107 90.299 9.74107C91.2247 9.74107 91.9751 9.96685 92.5504 10.4184C93.1256 10.87 93.4134 11.5097 93.4134 12.3376C93.4134 13.3412 93.0881 14.144 92.4378 14.7461C91.7875 15.3231 90.9245 15.6116 89.8487 15.6116ZM89.5485 35.8197C87.9226 35.8197 86.7343 35.2428 85.9839 34.0887C85.2585 32.9346 84.8957 31.4044 84.8957 29.4976C84.8957 28.3687 85.0334 26.9262 85.3085 25.17C85.6087 23.3888 85.9839 21.733 86.4341 20.2026C86.6593 19.3998 86.9595 18.8479 87.3347 18.5469C87.7099 18.2458 88.3103 18.0953 89.1358 18.0953C90.4116 18.0953 91.0494 18.5218 91.0494 19.3747C91.0494 20.002 90.8119 21.457 90.3365 23.74C89.7361 26.4997 89.436 28.3687 89.436 29.3471C89.436 30.0998 89.5361 30.6767 89.7361 31.0782C89.9362 31.4797 90.2739 31.6803 90.7493 31.6803C91.1995 31.6803 91.7624 31.3668 92.4378 30.7395C93.1132 30.1122 94.0137 29.1213 95.1394 27.7666C95.4396 27.4155 95.7773 27.2397 96.1525 27.2397C96.4778 27.2397 96.7278 27.3903 96.903 27.6913C97.103 27.9924 97.2032 28.4063 97.2032 28.9332C97.2032 29.9368 96.9656 30.7143 96.4902 31.2663C94.0137 34.302 91.6997 35.8197 89.5485 35.8197ZM108.388 27.2397C108.714 27.2397 108.964 27.3903 109.139 27.6913C109.339 27.9924 109.439 28.4063 109.439 28.9332C109.439 29.9368 109.201 30.7143 108.726 31.2663C107.651 32.5959 106.475 33.6872 105.199 34.5403C103.948 35.3934 102.522 35.8197 100.921 35.8197C98.7202 35.8197 97.0817 34.8161 96.0059 32.8092C94.9553 30.8023 94.43 28.2057 94.43 25.0195C94.43 21.9588 94.8179 18.4716 95.5932 14.5579C96.3938 10.6442 97.557 7.28248 99.0828 4.47264C100.634 1.66281 102.473 0.257904 104.599 0.257904C105.799 0.257904 106.737 0.822378 107.413 1.95133C108.113 3.05518 108.463 4.64827 108.463 6.73054C108.463 9.71597 107.638 13.1781 105.987 17.1169C104.336 21.0556 102.097 24.9568 99.2704 28.8203C99.4456 29.8488 99.7334 30.589 100.133 31.0405C100.534 31.4669 101.059 31.6803 101.709 31.6803C102.735 31.6803 103.636 31.3917 104.411 30.8148C105.187 30.2126 106.175 29.1966 107.375 27.7666C107.675 27.4155 108.013 27.2397 108.388 27.2397ZM103.773 3.98343C103.198 3.98343 102.548 5.02458 101.822 7.10685C101.097 9.18913 100.459 11.7732 99.9083 14.859C99.3581 17.9447 99.0579 20.9051 99.0077 23.74C100.784 20.8048 102.197 17.8695 103.248 14.9342C104.298 11.9739 104.824 9.27695 104.824 6.84343C104.824 4.93676 104.474 3.98343 103.773 3.98343ZM119.839 28.3687C120.164 28.3687 120.415 28.5192 120.59 28.8203C120.79 29.1213 120.89 29.5353 120.89 30.0621C120.89 30.9653 120.677 31.7431 120.252 32.3953C119.552 33.4741 118.626 34.3145 117.476 34.9166C116.35 35.5187 114.999 35.8197 113.423 35.8197C111.022 35.8197 109.158 35.1048 107.832 33.6748C106.506 32.2196 105.844 30.2627 105.844 27.8042C105.844 26.0732 106.206 24.4675 106.932 22.9874C107.657 21.4821 108.658 20.2904 109.933 19.4124C111.234 18.5343 112.697 18.0953 114.324 18.0953C115.774 18.0953 116.938 18.5343 117.813 19.4124C118.689 20.2654 119.127 21.432 119.127 22.9121C119.127 24.6432 118.501 26.1359 117.25 27.3903C116.025 28.6197 113.923 29.5981 110.947 30.3255C111.547 31.4797 112.56 32.0566 113.986 32.0566C115.011 32.0566 115.849 31.8184 116.5 31.3416C117.175 30.8648 117.951 30.0621 118.826 28.9332C119.127 28.5569 119.464 28.3687 119.839 28.3687ZM113.686 21.7832C112.76 21.7832 111.972 22.3225 111.322 23.4013C110.696 24.4801 110.384 25.7847 110.384 27.315V27.3903C111.86 27.0391 113.023 26.5122 113.873 25.8097C114.724 25.1073 115.149 24.292 115.149 23.3637C115.149 22.887 115.011 22.5107 114.736 22.2347C114.486 21.9337 114.136 21.7832 113.686 21.7832Z" fill="#233C54"/>
</svg>
