<svg width="256" height="120" viewBox="0 0 256 120" fill="none" xmlns="http://www.w3.org/2000/svg">
<path d="M51.025 50.6803C51.025 56.1202 49.6707 60.4484 46.9621 63.6647C44.2774 66.8816 40.574 68.4898 35.8519 68.4898C31.2975 68.4898 27.75 67.0109 25.2091 64.0538L24.7776 67.8421H16.8675V18.1052H25.6046V36.1737C28.1215 33.4969 31.5133 32.1585 35.7799 32.1585C40.5261 32.1585 44.2534 33.7451 46.9621 36.9185C49.6707 40.0918 51.025 44.5279 51.025 50.2269V50.6803ZM42.2879 50.0002C42.2879 46.2009 41.5448 43.3514 40.0586 41.4518C38.5725 39.5521 36.4152 38.6022 33.5867 38.6022C29.7994 38.6022 27.1387 40.0918 25.6046 43.0708V57.5128C27.1627 60.5562 29.8474 62.0781 33.6586 62.0781C36.3912 62.0781 38.5006 61.1608 39.9867 59.326C41.4729 57.4913 42.2399 54.7171 42.2879 51.0041V50.0002Z" fill="#E7404A"/>
<path d="M64.7001 68.4897C59.1626 68.4897 54.6685 66.9247 51.2168 63.7946C47.789 60.6429 46.0752 56.4551 46.0752 51.2307V50.2593C46.0752 46.7622 46.8182 43.6428 48.3044 40.9012C49.8145 38.1381 51.9239 35.9902 54.6325 34.4574C57.3414 32.9248 60.3617 32.1584 63.6931 32.1584C68.9907 32.1584 73.0775 33.6803 75.9542 36.7241C78.8542 39.7679 80.3049 44.0746 80.3049 49.644V52.8171H54.8843C55.1479 55.7101 56.2147 57.9986 58.0845 59.6819C59.9782 61.3657 62.3511 62.2079 65.2033 62.2079C69.2067 62.2079 72.4663 60.7507 74.9834 57.8366L79.6931 61.8841C78.1351 63.978 76.0499 65.6077 73.4371 66.7732C70.8481 67.9177 67.9358 68.4897 64.7001 68.4897ZM63.6575 38.4727C61.2601 38.4727 59.3185 39.2283 57.8323 40.7393C56.3706 42.2504 55.4354 44.3552 55.028 47.0536H71.6753V46.4707C71.4839 43.8371 70.7045 41.8511 69.338 40.5127C67.972 39.1527 66.0783 38.4727 63.6575 38.4727Z" fill="#E7404A"/>
<path d="M15.9387 10.7224H7.92661V73.8867H15.9387V79.6286H0.124329V4.98022H15.9387V10.7224Z" fill="#E7404A"/>
<path d="M80.2866 4.98022H96.143V79.6286H80.2866V73.8867H88.3829V10.7224H80.2866V4.98022Z" fill="#E7404A"/>
<path d="M113.844 68.2013C110.547 68.2013 107.914 67.1237 105.946 64.9684C103.978 62.8132 102.995 59.9876 102.995 56.4911C102.995 52.6597 103.978 49.0434 105.946 45.6429C107.914 42.1945 110.52 39.4406 113.764 37.3811C117.061 35.2737 120.545 34.22 124.214 34.22C125.385 34.22 126.155 34.4356 126.528 34.8666C126.953 35.2497 127.299 35.9682 127.565 37.0219C128.682 36.8303 129.852 36.7345 131.075 36.7345C133.681 36.7345 134.984 37.5727 134.984 39.249C134.984 40.2548 134.585 42.6495 133.787 46.4332C132.564 51.9413 131.952 55.7727 131.952 57.9279C131.952 58.6463 132.138 59.2211 132.511 59.6521C132.936 60.0832 133.468 60.2987 134.106 60.2987C135.117 60.2987 136.34 59.724 137.776 58.5745C139.212 57.3769 141.153 55.4615 143.599 52.8271C144.237 52.1568 144.955 51.8213 145.753 51.8213C146.444 51.8213 146.976 52.1087 147.348 52.6834C147.774 53.2582 147.987 54.0484 147.987 55.0542C147.987 56.9702 147.482 58.4546 146.471 59.5084C144.291 61.9511 141.977 64.0107 139.531 65.6869C137.084 67.363 134.718 68.2013 132.431 68.2013C130.676 68.2013 129.054 67.6747 127.565 66.6208C126.129 65.5194 125.038 64.0345 124.294 62.1666C121.528 66.1898 118.045 68.2013 113.844 68.2013ZM116.716 60.9453C117.886 60.9453 119.003 60.3225 120.066 59.0774C121.13 57.8323 121.901 56.1799 122.38 54.1203L125.331 40.9013C123.097 40.9493 121.023 41.7155 119.109 43.2003C117.248 44.6371 115.758 46.5529 114.642 48.9477C113.525 51.3422 112.966 53.881 112.966 56.5629C112.966 58.0478 113.285 59.1492 113.924 59.8677C114.615 60.5861 115.545 60.9453 116.716 60.9453ZM182.347 51.965C183.038 51.965 183.57 52.2762 183.942 52.899C184.368 53.4737 184.58 54.2159 184.58 55.1261C184.58 56.2275 184.394 57.0896 184.022 57.7124C183.65 58.3352 183.064 58.8856 182.267 59.3648C177.693 62.1428 174.343 64.2019 172.215 65.5432L167.11 68.6324C165.089 78.5466 162.43 86.3293 159.133 91.9811C155.889 97.6804 151.741 100.53 146.688 100.53C143.976 100.53 141.769 99.7638 140.067 98.2313C138.365 96.7464 137.514 94.7829 137.514 92.3403C137.514 88.9399 139.004 85.276 141.982 81.3484C144.96 77.469 150.544 72.6793 158.734 66.98L159.212 64.1782C158.309 65.4713 157.112 66.4771 155.623 67.1955C154.187 67.8659 152.751 68.2013 151.315 68.2013C148.018 68.2013 145.385 67.1237 143.417 64.9684C141.45 62.8132 140.466 59.9876 140.466 56.4911C140.466 52.6597 141.45 49.0434 143.417 45.6429C145.385 42.1945 147.991 39.4406 151.235 37.3811C154.533 35.2737 158.016 34.22 161.685 34.22C162.856 34.22 163.627 34.4356 163.999 34.8666C164.425 35.2497 164.77 35.9682 165.036 37.0219C166.046 36.8303 167.217 36.7345 168.546 36.7345C169.876 36.7345 170.806 36.9261 171.338 37.3092C171.923 37.6445 172.215 38.339 172.215 39.3927C172.215 39.9674 172.189 40.4224 172.136 40.7577C171.923 42.2424 171.258 46.0021 170.141 52.0369C169.929 53.1863 169.69 54.4557 169.423 55.8445C169.211 57.1857 168.972 58.6226 168.705 60.155C172.801 57.2813 176.736 54.7431 180.512 52.5398C181.203 52.1568 181.815 51.965 182.347 51.965ZM154.187 60.9453C155.41 60.9453 156.58 60.2749 157.697 58.9337C158.814 57.5925 159.611 55.6771 160.09 53.1863L162.643 40.9013C160.462 40.9493 158.442 41.7155 156.58 43.2003C154.719 44.6371 153.229 46.5529 152.113 48.9477C150.996 51.3422 150.437 53.881 150.437 56.5629C150.437 58.0478 150.757 59.1492 151.395 59.8677C152.086 60.5861 153.017 60.9453 154.187 60.9453ZM147.566 93.5616C148.895 93.5616 150.385 92.1248 152.033 89.2511C153.735 86.3774 155.357 81.8033 156.899 75.5292C152.804 78.6903 149.853 81.5402 148.044 84.0784C146.236 86.6167 145.332 88.8438 145.332 90.7598C145.332 91.5738 145.492 92.2447 145.811 92.7713C146.183 93.298 146.768 93.5616 147.566 93.5616ZM189.269 29.6221C187.035 29.6221 185.36 29.1671 184.243 28.2571C183.126 27.2993 182.568 25.9821 182.568 24.3058C182.568 22.6295 183.286 21.2405 184.722 20.139C186.211 18.9895 188.046 18.4148 190.226 18.4148C192.194 18.4148 193.79 18.8458 195.013 19.7079C196.236 20.57 196.847 21.7913 196.847 23.3719C196.847 25.2877 196.156 26.8203 194.773 27.9698C193.391 29.0713 191.556 29.6221 189.269 29.6221ZM188.631 68.2013C185.174 68.2013 182.648 67.0999 181.052 64.8966C179.51 62.6933 178.739 59.772 178.739 56.1319C178.739 53.9766 179.032 51.2227 179.616 47.87C180.255 44.4695 181.052 41.3085 182.01 38.3869C182.488 36.8543 183.126 35.8006 183.924 35.2258C184.722 34.6511 185.998 34.3637 187.753 34.3637C190.466 34.3637 191.822 35.1779 191.822 36.8063C191.822 38.0037 191.317 40.7816 190.306 45.14C189.03 50.4084 188.391 53.9766 188.391 55.8445C188.391 57.2813 188.604 58.3827 189.03 59.1492C189.455 59.9157 190.173 60.2987 191.184 60.2987C192.141 60.2987 193.337 59.7002 194.773 58.5027C196.209 57.3051 198.124 55.4134 200.517 52.8271C201.155 52.1568 201.873 51.8213 202.671 51.8213C203.362 51.8213 203.894 52.1087 204.266 52.6834C204.691 53.2582 204.904 54.0484 204.904 55.0542C204.904 56.9702 204.399 58.4546 203.389 59.5084C198.124 65.3039 193.204 68.2013 188.631 68.2013ZM228.684 51.8213C229.376 51.8213 229.908 52.1087 230.28 52.6834C230.705 53.2582 230.918 54.0484 230.918 55.0542C230.918 56.9702 230.413 58.4546 229.402 59.5084C227.116 62.0467 224.616 64.1301 221.903 65.7587C219.244 67.3873 216.213 68.2013 212.809 68.2013C208.13 68.2013 204.646 66.2854 202.359 62.454C200.125 58.6226 199.009 53.6655 199.009 47.5827C199.009 41.7395 199.833 35.0821 201.482 27.6105C203.184 20.139 205.657 13.7211 208.9 8.35687C212.198 2.99264 216.107 0.310547 220.627 0.310547C223.18 0.310547 225.174 1.38818 226.61 3.54345C228.099 5.6508 228.844 8.69215 228.844 12.6674C228.844 18.3668 227.089 24.9763 223.579 32.4958C220.069 40.0153 215.309 47.4629 209.299 54.8387C209.672 56.8022 210.284 58.2153 211.134 59.0774C211.985 59.8914 213.102 60.2987 214.484 60.2987C216.665 60.2987 218.58 59.7477 220.228 58.6463C221.877 57.4969 223.977 55.5571 226.53 52.8271C227.168 52.1568 227.886 51.8213 228.684 51.8213ZM218.872 7.42292C217.649 7.42292 216.267 9.41057 214.724 13.3858C213.182 17.3611 211.826 22.2942 210.655 28.1853C209.486 34.0763 208.848 39.7279 208.741 45.14C212.517 39.5363 215.522 33.9327 217.755 28.329C219.989 22.6774 221.106 17.5287 221.106 12.8829C221.106 9.2429 220.361 7.42292 218.872 7.42292ZM253.029 53.9766C253.72 53.9766 254.252 54.264 254.624 54.8387C255.05 55.4134 255.262 56.2037 255.262 57.2095C255.262 58.9337 254.81 60.4186 253.906 61.6637C252.417 63.7234 250.449 65.3277 248.003 66.4771C245.61 67.6266 242.738 68.2013 239.388 68.2013C234.282 68.2013 230.32 66.8363 227.502 64.1063C224.683 61.3283 223.274 57.5925 223.274 52.899C223.274 49.5942 224.044 46.529 225.587 43.7032C227.129 40.8295 229.257 38.5545 231.969 36.8782C234.734 35.2019 237.845 34.3637 241.302 34.3637C244.386 34.3637 246.859 35.2019 248.721 36.8782C250.582 38.5066 251.513 40.7337 251.513 43.5595C251.513 46.8642 250.183 49.714 247.525 52.1087C244.918 54.4557 240.451 56.3236 234.123 57.7124C235.399 59.9157 237.553 61.0171 240.584 61.0171C242.765 61.0171 244.546 60.5623 245.929 59.6521C247.365 58.7419 249.013 57.2095 250.875 55.0542C251.513 54.3358 252.231 53.9766 253.029 53.9766ZM239.946 41.4042C237.978 41.4042 236.303 42.434 234.92 44.4934C233.591 46.5529 232.926 49.0434 232.926 51.965V52.1087C236.064 51.4384 238.537 50.4324 240.345 49.0913C242.153 47.7503 243.057 46.1937 243.057 44.4216C243.057 43.5116 242.765 42.7932 242.18 42.2663C241.648 41.6916 240.903 41.4042 239.946 41.4042Z" fill="#233C54"/>
<path d="M42.3027 114.995H42.2412C41.7171 115.756 40.9333 116.137 39.8896 116.137C38.9098 116.137 38.1465 115.802 37.5996 115.132C37.0573 114.462 36.7861 113.509 36.7861 112.274C36.7861 111.039 37.0596 110.08 37.6064 109.396C38.1533 108.713 38.9144 108.371 39.8896 108.371C40.9059 108.371 41.6852 108.74 42.2275 109.479H42.3164L42.2686 108.938L42.2412 108.412V105.363H43.376V116H42.4531L42.3027 114.995ZM40.0332 115.187C40.8079 115.187 41.3685 114.977 41.7148 114.558C42.0658 114.134 42.2412 113.452 42.2412 112.514V112.274C42.2412 111.213 42.0635 110.456 41.708 110.005C41.3571 109.549 40.7943 109.321 40.0195 109.321C39.3542 109.321 38.8438 109.581 38.4883 110.101C38.1374 110.616 37.9619 111.345 37.9619 112.288C37.9619 113.245 38.1374 113.967 38.4883 114.455C38.8392 114.943 39.3542 115.187 40.0332 115.187ZM48.9541 116.137C47.8467 116.137 46.9717 115.799 46.3291 115.125C45.6911 114.451 45.3721 113.514 45.3721 112.315C45.3721 111.108 45.6683 110.148 46.2607 109.438C46.8577 108.727 47.6576 108.371 48.6602 108.371C49.599 108.371 50.3418 108.681 50.8887 109.301C51.4355 109.916 51.709 110.729 51.709 111.741V112.459H46.5479C46.5706 113.339 46.7917 114.006 47.2109 114.462C47.6348 114.918 48.2295 115.146 48.9951 115.146C49.8018 115.146 50.5993 114.977 51.3877 114.64V115.651C50.9867 115.825 50.6061 115.948 50.2461 116.021C49.8906 116.098 49.46 116.137 48.9541 116.137ZM48.6465 109.321C48.0449 109.321 47.5641 109.517 47.2041 109.909C46.8486 110.301 46.639 110.843 46.5752 111.536H50.4922C50.4922 110.821 50.3327 110.274 50.0137 109.896C49.6947 109.513 49.2389 109.321 48.6465 109.321ZM55.291 116L52.4473 108.508H53.6641L55.2773 112.951C55.6419 113.99 55.8561 114.665 55.9199 114.975H55.9746C56.0247 114.733 56.182 114.234 56.4463 113.478C56.7152 112.716 57.3145 111.06 58.2441 108.508H59.4609L56.6172 116H55.291ZM63.8291 116.137C62.7217 116.137 61.8467 115.799 61.2041 115.125C60.5661 114.451 60.2471 113.514 60.2471 112.315C60.2471 111.108 60.5433 110.148 61.1357 109.438C61.7327 108.727 62.5326 108.371 63.5352 108.371C64.474 108.371 65.2168 108.681 65.7637 109.301C66.3105 109.916 66.584 110.729 66.584 111.741V112.459H61.4229C61.4456 113.339 61.6667 114.006 62.0859 114.462C62.5098 114.918 63.1045 115.146 63.8701 115.146C64.6768 115.146 65.4743 114.977 66.2627 114.64V115.651C65.8617 115.825 65.4811 115.948 65.1211 116.021C64.7656 116.098 64.335 116.137 63.8291 116.137ZM63.5215 109.321C62.9199 109.321 62.4391 109.517 62.0791 109.909C61.7236 110.301 61.514 110.843 61.4502 111.536H65.3672C65.3672 110.821 65.2077 110.274 64.8887 109.896C64.5697 109.513 64.1139 109.321 63.5215 109.321ZM69.6602 116H68.5254V105.363H69.6602V116ZM78.5332 112.247C78.5332 113.468 78.2256 114.423 77.6104 115.111C76.9951 115.795 76.1452 116.137 75.0605 116.137C74.3906 116.137 73.7959 115.979 73.2764 115.665C72.7568 115.351 72.3558 114.899 72.0732 114.312C71.7907 113.724 71.6494 113.035 71.6494 112.247C71.6494 111.026 71.9548 110.076 72.5654 109.396C73.1761 108.713 74.0238 108.371 75.1084 108.371C76.1566 108.371 76.9883 108.72 77.6035 109.417C78.2233 110.114 78.5332 111.058 78.5332 112.247ZM72.8252 112.247C72.8252 113.204 73.0166 113.933 73.3994 114.435C73.7822 114.936 74.3451 115.187 75.0879 115.187C75.8307 115.187 76.3936 114.938 76.7764 114.441C77.1637 113.94 77.3574 113.209 77.3574 112.247C77.3574 111.295 77.1637 110.572 76.7764 110.08C76.3936 109.583 75.8262 109.335 75.0742 109.335C74.3314 109.335 73.7708 109.579 73.3926 110.066C73.0143 110.554 72.8252 111.281 72.8252 112.247ZM84.0156 116.137C83.528 116.137 83.0814 116.048 82.6758 115.87C82.2747 115.688 81.9375 115.41 81.6641 115.036H81.582C81.6367 115.474 81.6641 115.888 81.6641 116.28V119.363H80.5293V108.508H81.4521L81.6094 109.533H81.6641C81.9557 109.123 82.2952 108.827 82.6826 108.645C83.07 108.462 83.5143 108.371 84.0156 108.371C85.0091 108.371 85.7747 108.711 86.3125 109.39C86.8548 110.069 87.126 111.021 87.126 112.247C87.126 113.478 86.8503 114.435 86.2988 115.118C85.752 115.797 84.9909 116.137 84.0156 116.137ZM83.8516 109.335C83.0859 109.335 82.5322 109.547 82.1904 109.971C81.8486 110.395 81.6732 111.069 81.6641 111.994V112.247C81.6641 113.3 81.8395 114.054 82.1904 114.51C82.5413 114.961 83.1042 115.187 83.8789 115.187C84.526 115.187 85.0319 114.924 85.3965 114.4C85.7656 113.876 85.9502 113.154 85.9502 112.233C85.9502 111.299 85.7656 110.584 85.3965 110.087C85.0319 109.586 84.5169 109.335 83.8516 109.335ZM90.25 116H89.1152V108.508H90.25V116ZM89.0195 106.478C89.0195 106.218 89.0833 106.029 89.2109 105.91C89.3385 105.787 89.498 105.726 89.6895 105.726C89.8717 105.726 90.029 105.787 90.1611 105.91C90.2933 106.033 90.3594 106.222 90.3594 106.478C90.3594 106.733 90.2933 106.924 90.1611 107.052C90.029 107.175 89.8717 107.236 89.6895 107.236C89.498 107.236 89.3385 107.175 89.2109 107.052C89.0833 106.924 89.0195 106.733 89.0195 106.478ZM97.7832 116V111.153C97.7832 110.543 97.6442 110.087 97.3662 109.786C97.0882 109.485 96.653 109.335 96.0605 109.335C95.2767 109.335 94.7025 109.547 94.3379 109.971C93.9733 110.395 93.791 111.094 93.791 112.069V116H92.6562V108.508H93.5791L93.7637 109.533H93.8184C94.0508 109.164 94.3766 108.879 94.7959 108.679C95.2152 108.474 95.6823 108.371 96.1973 108.371C97.0996 108.371 97.7786 108.59 98.2344 109.027C98.6901 109.46 98.918 110.155 98.918 111.112V116H97.7832ZM107.388 108.508V109.226L106 109.39C106.128 109.549 106.242 109.759 106.342 110.019C106.442 110.274 106.492 110.563 106.492 110.887C106.492 111.62 106.242 112.206 105.74 112.644C105.239 113.081 104.551 113.3 103.676 113.3C103.452 113.3 103.243 113.282 103.047 113.245C102.564 113.5 102.322 113.822 102.322 114.209C102.322 114.414 102.407 114.567 102.575 114.667C102.744 114.763 103.033 114.811 103.443 114.811H104.77C105.581 114.811 106.203 114.981 106.636 115.323C107.073 115.665 107.292 116.162 107.292 116.813C107.292 117.643 106.959 118.274 106.294 118.707C105.629 119.145 104.658 119.363 103.382 119.363C102.402 119.363 101.646 119.181 101.112 118.816C100.584 118.452 100.319 117.937 100.319 117.271C100.319 116.816 100.465 116.422 100.757 116.089C101.049 115.756 101.459 115.531 101.987 115.412C101.796 115.326 101.634 115.191 101.502 115.009C101.374 114.826 101.311 114.615 101.311 114.373C101.311 114.1 101.383 113.86 101.529 113.655C101.675 113.45 101.905 113.252 102.22 113.061C101.832 112.901 101.516 112.63 101.27 112.247C101.028 111.864 100.907 111.427 100.907 110.935C100.907 110.114 101.153 109.483 101.646 109.041C102.138 108.594 102.835 108.371 103.737 108.371C104.129 108.371 104.482 108.417 104.797 108.508H107.388ZM101.413 117.258C101.413 117.663 101.584 117.971 101.926 118.181C102.268 118.39 102.757 118.495 103.396 118.495C104.348 118.495 105.052 118.352 105.508 118.064C105.968 117.782 106.198 117.397 106.198 116.909C106.198 116.504 106.073 116.221 105.822 116.062C105.572 115.907 105.1 115.829 104.407 115.829H103.047C102.532 115.829 102.131 115.952 101.844 116.198C101.557 116.444 101.413 116.798 101.413 117.258ZM102.028 110.907C102.028 111.431 102.176 111.828 102.473 112.097C102.769 112.366 103.181 112.5 103.71 112.5C104.817 112.5 105.371 111.962 105.371 110.887C105.371 109.761 104.811 109.198 103.689 109.198C103.156 109.198 102.746 109.342 102.459 109.629C102.172 109.916 102.028 110.342 102.028 110.907ZM166.484 116.137C165.997 116.137 165.55 116.048 165.145 115.87C164.743 115.688 164.406 115.41 164.133 115.036H164.051C164.105 115.474 164.133 115.888 164.133 116.28V119.363H162.998V108.508H163.921L164.078 109.533H164.133C164.424 109.123 164.764 108.827 165.151 108.645C165.539 108.462 165.983 108.371 166.484 108.371C167.478 108.371 168.243 108.711 168.781 109.39C169.324 110.069 169.595 111.021 169.595 112.247C169.595 113.478 169.319 114.435 168.768 115.118C168.221 115.797 167.46 116.137 166.484 116.137ZM166.32 109.335C165.555 109.335 165.001 109.547 164.659 109.971C164.317 110.395 164.142 111.069 164.133 111.994V112.247C164.133 113.3 164.308 114.054 164.659 114.51C165.01 114.961 165.573 115.187 166.348 115.187C166.995 115.187 167.501 114.924 167.865 114.4C168.234 113.876 168.419 113.154 168.419 112.233C168.419 111.299 168.234 110.584 167.865 110.087C167.501 109.586 166.986 109.335 166.32 109.335ZM175.002 108.371C175.335 108.371 175.633 108.398 175.897 108.453L175.74 109.506C175.43 109.438 175.157 109.403 174.92 109.403C174.314 109.403 173.794 109.649 173.361 110.142C172.933 110.634 172.719 111.247 172.719 111.98V116H171.584V108.508H172.521L172.65 109.896H172.705C172.983 109.408 173.318 109.032 173.71 108.768C174.102 108.503 174.533 108.371 175.002 108.371ZM183.766 112.247C183.766 113.468 183.458 114.423 182.843 115.111C182.228 115.795 181.378 116.137 180.293 116.137C179.623 116.137 179.028 115.979 178.509 115.665C177.989 115.351 177.588 114.899 177.306 114.312C177.023 113.724 176.882 113.035 176.882 112.247C176.882 111.026 177.187 110.076 177.798 109.396C178.409 108.713 179.256 108.371 180.341 108.371C181.389 108.371 182.221 108.72 182.836 109.417C183.456 110.114 183.766 111.058 183.766 112.247ZM178.058 112.247C178.058 113.204 178.249 113.933 178.632 114.435C179.015 114.936 179.577 115.187 180.32 115.187C181.063 115.187 181.626 114.938 182.009 114.441C182.396 113.94 182.59 113.209 182.59 112.247C182.59 111.295 182.396 110.572 182.009 110.08C181.626 109.583 181.059 109.335 180.307 109.335C179.564 109.335 179.003 109.579 178.625 110.066C178.247 110.554 178.058 111.281 178.058 112.247ZM190.861 114.995H190.8C190.276 115.756 189.492 116.137 188.448 116.137C187.468 116.137 186.705 115.802 186.158 115.132C185.616 114.462 185.345 113.509 185.345 112.274C185.345 111.039 185.618 110.08 186.165 109.396C186.712 108.713 187.473 108.371 188.448 108.371C189.465 108.371 190.244 108.74 190.786 109.479H190.875L190.827 108.938L190.8 108.412V105.363H191.935V116H191.012L190.861 114.995ZM188.592 115.187C189.367 115.187 189.927 114.977 190.273 114.558C190.624 114.134 190.8 113.452 190.8 112.514V112.274C190.8 111.213 190.622 110.456 190.267 110.005C189.916 109.549 189.353 109.321 188.578 109.321C187.913 109.321 187.402 109.581 187.047 110.101C186.696 110.616 186.521 111.345 186.521 112.288C186.521 113.245 186.696 113.967 187.047 114.455C187.398 114.943 187.913 115.187 188.592 115.187ZM195.414 108.508V113.368C195.414 113.979 195.553 114.435 195.831 114.735C196.109 115.036 196.544 115.187 197.137 115.187C197.921 115.187 198.493 114.972 198.853 114.544C199.217 114.116 199.399 113.416 199.399 112.445V108.508H200.534V116H199.598L199.434 114.995H199.372C199.14 115.364 198.816 115.647 198.401 115.843C197.991 116.039 197.522 116.137 196.993 116.137C196.082 116.137 195.398 115.92 194.942 115.487C194.491 115.054 194.266 114.362 194.266 113.409V108.508H195.414ZM205.941 116.137C204.857 116.137 204.016 115.804 203.419 115.139C202.826 114.469 202.53 113.523 202.53 112.302C202.53 111.049 202.831 110.08 203.433 109.396C204.039 108.713 204.9 108.371 206.017 108.371C206.377 108.371 206.737 108.41 207.097 108.487C207.457 108.565 207.739 108.656 207.944 108.761L207.596 109.725C207.345 109.624 207.072 109.542 206.775 109.479C206.479 109.41 206.217 109.376 205.989 109.376C204.467 109.376 203.706 110.347 203.706 112.288C203.706 113.209 203.891 113.915 204.26 114.407C204.633 114.899 205.185 115.146 205.914 115.146C206.538 115.146 207.179 115.011 207.835 114.742V115.747C207.334 116.007 206.702 116.137 205.941 116.137ZM212.039 115.2C212.24 115.2 212.433 115.187 212.62 115.159C212.807 115.127 212.955 115.095 213.064 115.063V115.932C212.941 115.991 212.759 116.039 212.518 116.075C212.281 116.116 212.066 116.137 211.875 116.137C210.426 116.137 209.701 115.373 209.701 113.847V109.39H208.628V108.843L209.701 108.371L210.18 106.771H210.836V108.508H213.01V109.39H210.836V113.799C210.836 114.25 210.943 114.596 211.157 114.838C211.371 115.079 211.665 115.2 212.039 115.2ZM219.401 113.956C219.401 114.653 219.142 115.191 218.622 115.569C218.103 115.948 217.373 116.137 216.435 116.137C215.441 116.137 214.666 115.979 214.11 115.665V114.612C214.47 114.795 214.855 114.938 215.266 115.043C215.68 115.148 216.079 115.2 216.462 115.2C217.054 115.2 217.51 115.107 217.829 114.92C218.148 114.729 218.308 114.439 218.308 114.052C218.308 113.76 218.18 113.512 217.925 113.307C217.674 113.097 217.182 112.851 216.448 112.568C215.751 112.309 215.254 112.083 214.958 111.892C214.666 111.696 214.448 111.475 214.302 111.229C214.16 110.982 214.09 110.688 214.09 110.347C214.09 109.736 214.338 109.255 214.835 108.904C215.332 108.549 216.013 108.371 216.879 108.371C217.686 108.371 218.474 108.535 219.244 108.863L218.841 109.786C218.089 109.476 217.408 109.321 216.797 109.321C216.259 109.321 215.854 109.406 215.58 109.574C215.307 109.743 215.17 109.975 215.17 110.271C215.17 110.472 215.22 110.643 215.32 110.784C215.425 110.925 215.591 111.06 215.819 111.188C216.047 111.315 216.485 111.5 217.132 111.741C218.021 112.065 218.62 112.391 218.93 112.719C219.244 113.047 219.401 113.459 219.401 113.956Z" fill="#233C54"/>
<path d="M113.697 116H112.562V105.363H113.697V116ZM122.57 112.247C122.57 113.468 122.263 114.423 121.647 115.111C121.032 115.795 120.182 116.137 119.098 116.137C118.428 116.137 117.833 115.979 117.313 115.665C116.794 115.351 116.393 114.899 116.11 114.312C115.828 113.724 115.687 113.035 115.687 112.247C115.687 111.026 115.992 110.076 116.603 109.396C117.213 108.713 118.061 108.371 119.146 108.371C120.194 108.371 121.025 108.72 121.641 109.417C122.26 110.114 122.57 111.058 122.57 112.247ZM116.862 112.247C116.862 113.204 117.054 113.933 117.437 114.435C117.819 114.936 118.382 115.187 119.125 115.187C119.868 115.187 120.431 114.938 120.813 114.441C121.201 113.94 121.395 113.209 121.395 112.247C121.395 111.295 121.201 110.572 120.813 110.08C120.431 109.583 119.863 109.335 119.111 109.335C118.368 109.335 117.808 109.579 117.43 110.066C117.051 110.554 116.862 111.281 116.862 112.247ZM126.207 116L123.363 108.508H124.58L126.193 112.951C126.558 113.99 126.772 114.665 126.836 114.975H126.891C126.941 114.733 127.098 114.234 127.362 113.478C127.631 112.716 128.23 111.06 129.16 108.508H130.377L127.533 116H126.207ZM136.188 116L135.962 114.934H135.907C135.534 115.403 135.16 115.722 134.786 115.891C134.417 116.055 133.954 116.137 133.398 116.137C132.656 116.137 132.072 115.945 131.648 115.562C131.229 115.18 131.02 114.635 131.02 113.929C131.02 112.416 132.229 111.623 134.649 111.55L135.921 111.509V111.044C135.921 110.456 135.793 110.023 135.538 109.745C135.287 109.463 134.884 109.321 134.328 109.321C133.704 109.321 132.997 109.513 132.209 109.896L131.86 109.027C132.229 108.827 132.633 108.67 133.07 108.556C133.512 108.442 133.954 108.385 134.396 108.385C135.29 108.385 135.951 108.583 136.379 108.979C136.812 109.376 137.028 110.012 137.028 110.887V116H136.188ZM133.624 115.2C134.33 115.2 134.884 115.007 135.285 114.619C135.691 114.232 135.894 113.689 135.894 112.992V112.315L134.759 112.363C133.856 112.395 133.205 112.536 132.804 112.787C132.407 113.033 132.209 113.418 132.209 113.942C132.209 114.353 132.332 114.665 132.578 114.879C132.829 115.093 133.177 115.2 133.624 115.2ZM142.859 108.385C143.844 108.385 144.607 108.722 145.149 109.396C145.696 110.066 145.97 111.017 145.97 112.247C145.97 113.478 145.694 114.435 145.143 115.118C144.596 115.797 143.835 116.137 142.859 116.137C142.372 116.137 141.925 116.048 141.52 115.87C141.118 115.688 140.781 115.41 140.508 115.036H140.426L140.187 116H139.373V105.363H140.508V107.947C140.508 108.526 140.49 109.046 140.453 109.506H140.508C141.036 108.758 141.82 108.385 142.859 108.385ZM142.695 109.335C141.921 109.335 141.362 109.558 141.021 110.005C140.679 110.447 140.508 111.194 140.508 112.247C140.508 113.3 140.683 114.054 141.034 114.51C141.385 114.961 141.948 115.187 142.723 115.187C143.42 115.187 143.939 114.934 144.281 114.428C144.623 113.917 144.794 113.186 144.794 112.233C144.794 111.258 144.623 110.531 144.281 110.053C143.939 109.574 143.411 109.335 142.695 109.335ZM149.094 116H147.959V105.363H149.094V116ZM154.665 116.137C153.558 116.137 152.683 115.799 152.04 115.125C151.402 114.451 151.083 113.514 151.083 112.315C151.083 111.108 151.379 110.148 151.972 109.438C152.569 108.727 153.368 108.371 154.371 108.371C155.31 108.371 156.053 108.681 156.6 109.301C157.146 109.916 157.42 110.729 157.42 111.741V112.459H152.259C152.282 113.339 152.503 114.006 152.922 114.462C153.346 114.918 153.94 115.146 154.706 115.146C155.513 115.146 156.31 114.977 157.099 114.64V115.651C156.698 115.825 156.317 115.948 155.957 116.021C155.602 116.098 155.171 116.137 154.665 116.137ZM154.357 109.321C153.756 109.321 153.275 109.517 152.915 109.909C152.56 110.301 152.35 110.843 152.286 111.536H156.203C156.203 110.821 156.044 110.274 155.725 109.896C155.406 109.513 154.95 109.321 154.357 109.321Z" fill="#E7404A"/>
</svg>
