<svg width="88" height="39" viewBox="0 0 88 39" fill="none" xmlns="http://www.w3.org/2000/svg">
<path d="M17.4308 19.8306C17.4308 21.9029 16.9694 23.5518 16.0464 24.7771C15.1317 26.0025 13.8698 26.6152 12.2607 26.6152C10.7089 26.6152 9.50009 26.0518 8.63433 24.9253L8.4873 26.3684H5.79199V7.42105H8.76909V14.3043C9.6267 13.2845 10.7824 12.7747 12.2362 12.7747C13.8534 12.7747 15.1235 13.3791 16.0464 14.588C16.9694 15.7969 17.4308 17.4868 17.4308 19.6579V19.8306ZM14.4537 19.5715C14.4537 18.1242 14.2006 17.0387 13.6942 16.315C13.1878 15.5913 12.4527 15.2294 11.4889 15.2294C10.1984 15.2294 9.29182 15.7969 8.76909 16.9317V22.4335C9.29999 23.5928 10.2148 24.1726 11.5134 24.1726C12.4445 24.1726 13.1633 23.8232 13.6697 23.1242C14.1761 22.4253 14.4374 21.3684 14.4537 19.9539V19.5715Z" fill="white"/>
<path d="M22.0904 26.6152C20.2036 26.6152 18.6722 26.019 17.4961 24.8265C16.3281 23.6259 15.7441 22.0305 15.7441 20.0403V19.6702C15.7441 18.338 15.9973 17.1497 16.5037 16.1053C17.0183 15.0526 17.737 14.2344 18.66 13.6505C19.583 13.0666 20.6121 12.7747 21.7473 12.7747C23.5524 12.7747 24.9449 13.3545 25.9251 14.514C26.9133 15.6735 27.4076 17.3142 27.4076 19.4359V20.6446H18.7457C18.8356 21.7467 19.1991 22.6185 19.8362 23.2598C20.4815 23.9013 21.29 24.2221 22.2619 24.2221C23.626 24.2221 24.7367 23.667 25.5944 22.5569L27.1991 24.0987C26.6682 24.8964 25.9578 25.5173 25.0674 25.9613C24.1853 26.3973 23.1929 26.6152 22.0904 26.6152ZM21.7352 15.1801C20.9182 15.1801 20.2567 15.468 19.7503 16.0436C19.2522 16.6193 18.9336 17.4211 18.7947 18.449H24.4671V18.227C24.4019 17.2237 24.1364 16.4671 23.6707 15.9573C23.2053 15.4392 22.56 15.1801 21.7352 15.1801Z" fill="white"/>
<path d="M5.47551 4.60855H2.74547V28.6712H5.47551V30.8585H0.0869141V2.42105H5.47551V4.60855Z" fill="white"/>
<path d="M27.4014 2.42105H32.8043V30.8585H27.4014V28.6712H30.1601V4.60855H27.4014V2.42105Z" fill="white"/>
<path d="M38.8356 26.5053C37.7122 26.5053 36.8152 26.0948 36.1446 25.2737C35.4741 24.4526 35.1389 23.3762 35.1389 22.0442C35.1389 20.5846 35.4741 19.207 36.1446 17.9116C36.8152 16.5979 37.703 15.5488 38.8085 14.7642C39.9319 13.9614 41.1189 13.56 42.3693 13.56C42.768 13.56 43.0306 13.6421 43.1576 13.8063C43.3025 13.9523 43.4204 14.226 43.5109 14.6274C43.8915 14.5544 44.2902 14.5179 44.7069 14.5179C45.5949 14.5179 46.0388 14.8372 46.0388 15.4758C46.0388 15.859 45.9029 16.7712 45.6311 18.2126C45.2144 20.311 45.0059 21.7705 45.0059 22.5916C45.0059 22.8653 45.0693 23.0842 45.1962 23.2484C45.3411 23.4126 45.5224 23.4948 45.7398 23.4948C46.0842 23.4948 46.5009 23.2758 46.9902 22.8379C47.4795 22.3817 48.1408 21.652 48.9745 20.6484C49.1919 20.3931 49.4366 20.2653 49.7084 20.2653C49.944 20.2653 50.1251 20.3748 50.252 20.5937C50.3969 20.8126 50.4695 21.1137 50.4695 21.4969C50.4695 22.2268 50.2974 22.7922 49.953 23.1937C49.2101 24.1242 48.4218 24.9089 47.5882 25.5474C46.7545 26.1859 45.9483 26.5053 45.169 26.5053C44.571 26.5053 44.0184 26.3046 43.5109 25.9032C43.0216 25.4836 42.6501 24.9179 42.3965 24.2063C41.4541 25.739 40.2673 26.5053 38.8356 26.5053ZM39.8142 23.7411C40.2129 23.7411 40.5935 23.5038 40.9558 23.0295C41.3182 22.5552 41.581 21.9257 41.7441 21.1411L42.7498 16.1053C41.9887 16.1235 41.282 16.4154 40.6296 16.9811C39.9955 17.5284 39.488 18.2583 39.1075 19.1705C38.7269 20.0828 38.5366 21.0499 38.5366 22.0716C38.5366 22.6373 38.6454 23.0569 38.8628 23.3305C39.0985 23.6042 39.4155 23.7411 39.8142 23.7411ZM62.1773 20.32C62.4129 20.32 62.5942 20.4385 62.7209 20.6758C62.866 20.8948 62.9384 21.1775 62.9384 21.5242C62.9384 21.9438 62.875 22.2722 62.7481 22.5095C62.6214 22.7468 62.4219 22.9564 62.1501 23.139C60.5918 24.1973 59.4501 24.9817 58.7252 25.4926L56.9856 26.6695C56.297 30.4463 55.391 33.4112 54.2674 35.5642C53.1621 37.7354 51.7487 38.8211 50.027 38.8211C49.1028 38.8211 48.351 38.5291 47.7709 37.9453C47.1911 37.3796 46.9011 36.6316 46.9011 35.7011C46.9011 34.4057 47.4086 33.0099 48.4233 31.5137C49.4382 30.0358 51.341 28.2112 54.1315 26.04L54.2946 24.9726C53.9866 25.4653 53.5789 25.8484 53.0714 26.1221C52.5821 26.3775 52.0928 26.5053 51.6036 26.5053C50.4801 26.5053 49.5831 26.0948 48.9126 25.2737C48.2422 24.4526 47.9068 23.3762 47.9068 22.0442C47.9068 20.5846 48.2422 19.207 48.9126 17.9116C49.5831 16.5979 50.4711 15.5488 51.5764 14.7642C52.7 13.9614 53.8868 13.56 55.1372 13.56C55.5359 13.56 55.7988 13.6421 55.9255 13.8063C56.0706 13.9523 56.1883 14.226 56.2788 14.6274C56.6232 14.5544 57.022 14.5179 57.4748 14.5179C57.9279 14.5179 58.2451 14.5909 58.4262 14.7369C58.6257 14.8646 58.7252 15.1291 58.7252 15.5305C58.7252 15.7495 58.7162 15.9228 58.698 16.0505C58.6257 16.6162 58.399 18.0484 58.0185 20.3474C57.9461 20.7853 57.8646 21.2689 57.7738 21.7979C57.7015 22.3089 57.62 22.8562 57.5292 23.44C58.9247 22.3453 60.2656 21.3783 61.5521 20.539C61.7878 20.3931 61.9962 20.32 62.1773 20.32ZM52.5821 23.7411C52.999 23.7411 53.3976 23.4857 53.7781 22.9748C54.1587 22.4638 54.4305 21.7341 54.5936 20.7853L55.4634 16.1053C54.7205 16.1235 54.032 16.4154 53.3976 16.9811C52.7634 17.5284 52.2559 18.2583 51.8754 19.1705C51.4948 20.0828 51.3046 21.0499 51.3046 22.0716C51.3046 22.6373 51.4133 23.0569 51.6308 23.3305C51.8664 23.6042 52.1836 23.7411 52.5821 23.7411ZM50.326 36.1663C50.7791 36.1663 51.2866 35.619 51.8482 34.5242C52.4282 33.4295 52.9809 31.687 53.5063 29.2969C52.111 30.5011 51.1053 31.5868 50.4891 32.5537C49.8731 33.5206 49.5649 34.3691 49.5649 35.099C49.5649 35.4091 49.6193 35.6646 49.728 35.8653C49.8549 36.0659 50.0542 36.1663 50.326 36.1663ZM64.5361 11.8084C63.775 11.8084 63.2041 11.6351 62.8236 11.2884C62.4431 10.9235 62.2528 10.4218 62.2528 9.78317C62.2528 9.14458 62.4974 8.61545 62.9867 8.19581C63.4942 7.75791 64.1193 7.53896 64.8622 7.53896C65.5328 7.53896 66.0764 7.70317 66.4932 8.0316C66.9099 8.36002 67.1183 8.82528 67.1183 9.42739C67.1183 10.1572 66.8827 10.7411 66.4116 11.179C65.9405 11.5986 65.3153 11.8084 64.5361 11.8084ZM64.3186 26.5053C63.1408 26.5053 62.28 26.0857 61.7363 25.2463C61.2109 24.407 60.9481 23.2941 60.9481 21.9074C60.9481 21.0863 61.0478 20.0372 61.2471 18.76C61.4645 17.4646 61.7363 16.2604 62.0625 15.1474C62.2256 14.5635 62.4431 14.1621 62.7149 13.9432C62.9867 13.7242 63.4216 13.6148 64.0196 13.6148C64.9438 13.6148 65.4059 13.9249 65.4059 14.5453C65.4059 15.0014 65.2338 16.0597 64.8894 17.72C64.4545 19.727 64.2371 21.0863 64.2371 21.7979C64.2371 22.3453 64.3096 22.7649 64.4545 23.0569C64.5994 23.3489 64.844 23.4948 65.1884 23.4948C65.5146 23.4948 65.9223 23.2668 66.4116 22.8105C66.9009 22.3543 67.5532 21.6337 68.3687 20.6484C68.5861 20.3931 68.8308 20.2653 69.1026 20.2653C69.3383 20.2653 69.5193 20.3748 69.6462 20.5937C69.7911 20.8126 69.8637 21.1137 69.8637 21.4969C69.8637 22.2268 69.6916 22.7922 69.3472 23.1937C67.5532 25.4015 65.877 26.5053 64.3186 26.5053ZM77.9664 20.2653C78.202 20.2653 78.3833 20.3748 78.51 20.5937C78.6551 20.8126 78.7275 21.1137 78.7275 21.4969C78.7275 22.2268 78.5554 22.7922 78.211 23.1937C77.4319 24.1606 76.5801 24.9543 75.6559 25.5748C74.7499 26.1952 73.717 26.5053 72.5572 26.5053C70.9627 26.5053 69.7757 25.7754 68.9964 24.3158C68.2353 22.8562 67.8547 20.9678 67.8547 18.6505C67.8547 16.4246 68.1358 13.8884 68.6974 11.0421C69.2774 8.19581 70.12 5.7509 71.2253 3.70739C72.3489 1.66387 73.6809 0.64212 75.221 0.64212C76.0908 0.64212 76.7704 1.05265 77.2597 1.8737C77.7671 2.6765 78.0207 3.83511 78.0207 5.34949C78.0207 7.52071 77.4228 10.0386 76.2268 12.9032C75.0308 15.7677 73.409 18.6049 71.3612 21.4148C71.4881 22.1628 71.6966 22.7011 71.9864 23.0295C72.2764 23.3396 72.6569 23.4948 73.128 23.4948C73.8711 23.4948 74.5235 23.2849 75.0851 22.8653C75.6469 22.4274 76.3627 21.6884 77.2325 20.6484C77.4499 20.3931 77.6946 20.2653 77.9664 20.2653ZM74.623 3.3516C74.2063 3.3516 73.7352 4.1088 73.2096 5.62317C72.6841 7.13755 72.222 9.01686 71.8233 11.2611C71.4248 13.5053 71.2073 15.6583 71.1709 17.72C72.4577 15.5853 73.4814 13.4505 74.2425 11.3158C75.0036 9.16282 75.3841 7.20143 75.3841 5.4316C75.3841 4.04492 75.1305 3.3516 74.623 3.3516ZM86.2616 21.0863C86.4971 21.0863 86.6784 21.1958 86.8053 21.4148C86.9502 21.6337 87.0227 21.9348 87.0227 22.3179C87.0227 22.9748 86.8686 23.5404 86.5607 24.0148C86.0532 24.7994 85.3826 25.4105 84.5492 25.8484C83.7337 26.2863 82.7552 26.5053 81.6136 26.5053C79.8739 26.5053 78.5238 25.9853 77.5635 24.9453C76.6029 23.887 76.1228 22.4638 76.1228 20.6758C76.1228 19.4169 76.3854 18.2491 76.9111 17.1726C77.4365 16.0779 78.1615 15.2112 79.0856 14.5726C80.0278 13.9341 81.0879 13.6148 82.2659 13.6148C83.3168 13.6148 84.1595 13.9341 84.7938 14.5726C85.428 15.193 85.7452 16.0414 85.7452 17.1179C85.7452 18.3769 85.2921 19.4625 84.3861 20.3748C83.4981 21.2689 81.9759 21.9804 79.8196 22.5095C80.2545 23.3489 80.9884 23.7684 82.0213 23.7684C82.7642 23.7684 83.3712 23.5952 83.8425 23.2484C84.3317 22.9017 84.8934 22.3179 85.5277 21.4969C85.7452 21.2232 85.9898 21.0863 86.2616 21.0863ZM81.8038 16.2969C81.1333 16.2969 80.5625 16.6891 80.0914 17.4737C79.6383 18.2583 79.4118 19.207 79.4118 20.32V20.3748C80.4809 20.1194 81.3236 19.7362 81.9397 19.2253C82.5557 18.7144 82.8639 18.1214 82.8639 17.4463C82.8639 17.0997 82.7642 16.826 82.5649 16.6253C82.3836 16.4063 82.13 16.2969 81.8038 16.2969Z" fill="white"/>
</svg>
