<svg width="56" height="69" viewBox="0 0 56 69" fill="none" xmlns="http://www.w3.org/2000/svg">
<path d="M27.9428 38.9924C33.179 38.9924 37.439 34.7324 37.439 29.4962C37.439 24.26 33.179 20 27.9428 20C22.7066 20 18.4466 24.26 18.4466 29.4962C18.4466 34.7324 22.7066 38.9924 27.9428 38.9924ZM27.9428 23.2745C31.3735 23.2745 34.1645 26.0656 34.1645 29.4962C34.1645 32.9268 31.3735 35.7178 27.9428 35.7178C24.5122 35.7178 21.7212 32.9268 21.7212 29.4962C21.7212 26.0656 24.5122 23.2745 27.9428 23.2745Z" fill="black"/>
<path d="M47.1535 38.9924C50.4638 38.9924 53.1569 36.2993 53.1569 32.9891C53.1569 29.6788 50.4638 26.9857 47.1535 26.9857C43.8433 26.9857 41.1502 29.6788 41.1502 32.9891C41.1502 36.2993 43.8433 38.9924 47.1535 38.9924ZM47.1535 30.2603C48.6582 30.2603 49.8823 31.4844 49.8823 32.9891C49.8823 34.4937 48.6582 35.7179 47.1535 35.7179C45.6489 35.7179 44.4247 34.4937 44.4247 32.9891C44.4247 31.4844 45.6489 30.2603 47.1535 30.2603Z" fill="black"/>
<path d="M48.4743 42.7035H45.9419C42.9578 42.7035 40.3819 44.4665 39.208 46.9988C36.7913 44.3606 33.32 42.7035 29.4687 42.7035H26.4171C22.5658 42.7035 19.0944 44.3606 16.6777 46.9988C15.5038 44.4665 12.9278 42.7035 9.94372 42.7035H7.4114C3.32476 42.7035 0 46.0082 0 50.0701V61.9906C0 63.754 1.44015 65.1887 3.21037 65.1887H13.2225C13.3904 67.1425 15.0333 68.6816 17.0301 68.6816H38.8557C40.8523 68.6816 42.4953 67.1425 42.6632 65.1887H52.561C54.3943 65.1887 55.8858 63.7032 55.8858 61.8771V50.0701C55.8856 46.0082 52.5609 42.7035 48.4743 42.7035ZM3.21037 51.1912C3.21037 48.9348 5.13035 45.978 7.4114 45.978H9.94372C12.2248 45.978 14.0806 47.8138 14.0806 50.0701V51.1912C12.9796 54.058 13.2074 55.776 13.2074 61.9142L5.5 61.8771L3.21037 51.1912ZM36.5 65.1887C36.5 65.491 39.1579 65.407 38.8557 65.407H17.03C16.7277 65.407 20.5 65.7092 20.5 65.407L16.4819 55.9132C16.4819 50.4349 20.9388 45.978 26.417 45.978H29.4685C34.9469 45.978 39.4038 50.4349 39.4038 55.9131L36.5 65.1887ZM51 61.9906C51 62.047 53.2215 61.9142 42.6783 61.9142C42.6783 55.7306 42.9044 54.0533 41.8051 51.1912V50.0701C41.8051 47.8138 43.6609 45.978 45.9419 45.978H48.4743C50.7553 45.978 52.6111 52.5 52.6111 50.0701L51 61.9906Z" fill="black"/>
<path d="M8.73213 38.9924C12.0424 38.9924 14.7355 36.2993 14.7355 32.9891C14.7355 29.6788 12.0424 26.9857 8.73213 26.9857C5.42189 26.9857 2.72879 29.6788 2.72879 32.9891C2.72879 36.2993 5.42189 38.9924 8.73213 38.9924ZM8.73213 30.2603C10.2368 30.2603 11.4609 31.4844 11.4609 32.9891C11.4609 34.4937 10.2368 35.7179 8.73213 35.7179C7.22748 35.7179 6.00334 34.4937 6.00334 32.9891C6.00334 31.4844 7.22748 30.2603 8.73213 30.2603Z" fill="black"/>
<path d="M32.7493 0.515869C30.1735 0.518227 29.1207 2.30507 29.0419 2.38359C28.7438 2.67768 28.3474 2.73803 27.9451 2.37696C26.5617 0.281268 23.2342 -0.117449 21.2436 1.59856C20.4404 2.29084 19.9989 3.20959 20 4.18581C20.0049 8.2784 24.1971 11.5098 28.3155 13.1832C28.3771 13.2082 28.4436 13.2207 28.51 13.2207C28.5768 13.2207 28.6436 13.2081 28.7054 13.1828C32.8599 11.4858 37.0048 8.24434 37 4.17079C36.9975 2.15554 35.0908 0.515869 32.7493 0.515869Z" fill="#FF5050"/>
<path d="M26.2819 14.1282C26.4063 14.1911 26.5429 14.2209 26.6777 14.2209C26.9448 14.2209 27.2051 14.1035 27.3507 13.8925C27.5697 13.5751 27.4463 13.1658 27.0749 12.9786C25.1182 11.992 20.5662 9.25199 20.5611 5.12657C20.559 3.28856 22.453 1.84364 24.6159 2.09258C26.549 2.31528 27.2184 3.61376 27.3672 3.74633C28.0566 4.36113 28.9974 4.36336 29.6461 3.72791C29.8194 3.55664 30.6563 2.05806 32.8588 2.05611C34.8304 2.05611 36.4365 3.42727 36.4387 5.1126C36.4434 9.04041 32.3562 11.7254 29.9195 12.9764C29.5499 13.1662 29.4302 13.5761 29.6522 13.8921C29.8743 14.2081 30.3537 14.3102 30.7233 14.1206C35.4197 11.7095 38.0041 8.50986 38 5.11118C37.9944 0.815375 31.3901 -1.01329 28.4995 2.79681C26.7596 0.410281 22.8551 0.00723231 20.504 2.01998C19.5328 2.85144 18.9986 3.95515 19 5.1279C19.004 8.51662 21.658 11.7972 26.2819 14.1282Z" fill="black"/>
</svg>
