<svg width="56" height="83" viewBox="0 0 56 83" fill="none" xmlns="http://www.w3.org/2000/svg">
<path d="M27.9428 52.9924C33.179 52.9924 37.439 48.7324 37.439 43.4962C37.439 38.26 33.179 34 27.9428 34C22.7066 34 18.4466 38.26 18.4466 43.4962C18.4466 48.7324 22.7066 52.9924 27.9428 52.9924ZM27.9428 37.2745C31.3735 37.2745 34.1645 40.0656 34.1645 43.4962C34.1645 46.9268 31.3735 49.7178 27.9428 49.7178C24.5122 49.7178 21.7212 46.9268 21.7212 43.4962C21.7212 40.0656 24.5122 37.2745 27.9428 37.2745Z" fill="black"/>
<path d="M47.1535 52.9924C50.4638 52.9924 53.1569 50.2993 53.1569 46.9891C53.1569 43.6788 50.4638 40.9857 47.1535 40.9857C43.8433 40.9857 41.1502 43.6788 41.1502 46.9891C41.1502 50.2993 43.8433 52.9924 47.1535 52.9924ZM47.1535 44.2603C48.6582 44.2603 49.8823 45.4844 49.8823 46.9891C49.8823 48.4937 48.6582 49.7179 47.1535 49.7179C45.6489 49.7179 44.4247 48.4937 44.4247 46.9891C44.4247 45.4844 45.6489 44.2603 47.1535 44.2603Z" fill="black"/>
<path d="M48.4743 56.7035H45.9419C42.9578 56.7035 40.3819 58.4665 39.208 60.9988C36.7913 58.3606 33.32 56.7035 29.4687 56.7035H26.4171C22.5658 56.7035 19.0944 58.3606 16.6777 60.9988C15.5038 58.4665 12.9278 56.7035 9.94372 56.7035H7.4114C3.32476 56.7035 0 60.0082 0 64.0701V75.9906C0 77.754 1.44015 79.1887 3.21037 79.1887H13.2225C13.3904 81.1425 15.0333 82.6816 17.0301 82.6816H38.8557C40.8523 82.6816 42.4953 81.1425 42.6632 79.1887H52.561C54.3943 79.1887 55.8858 77.7032 55.8858 75.8771V64.0701C55.8856 60.0082 52.5609 56.7035 48.4743 56.7035ZM3.21037 65.1912C3.21037 62.9348 5.13035 59.978 7.4114 59.978H9.94372C12.2248 59.978 14.0806 61.8138 14.0806 64.0701V65.1912C12.9796 68.058 13.2074 69.776 13.2074 75.9142L5.5 75.8771L3.21037 65.1912ZM36.5 79.1887C36.5 79.491 39.1579 79.407 38.8557 79.407H17.03C16.7277 79.407 20.5 79.7092 20.5 79.407L16.4819 69.9132C16.4819 64.4349 20.9388 59.978 26.417 59.978H29.4685C34.9469 59.978 39.4038 64.4349 39.4038 69.9131L36.5 79.1887ZM51 75.9906C51 76.047 53.2215 75.9142 42.6783 75.9142C42.6783 69.7306 42.9044 68.0533 41.8051 65.1912V64.0701C41.8051 61.8138 43.6609 59.978 45.9419 59.978H48.4743C50.7553 59.978 52.6111 66.5 52.6111 64.0701L51 75.9906Z" fill="black"/>
<path d="M8.73213 52.9924C12.0424 52.9924 14.7355 50.2993 14.7355 46.9891C14.7355 43.6788 12.0424 40.9857 8.73213 40.9857C5.42189 40.9857 2.72879 43.6788 2.72879 46.9891C2.72879 50.2993 5.42189 52.9924 8.73213 52.9924ZM8.73213 44.2603C10.2368 44.2603 11.4609 45.4844 11.4609 46.9891C11.4609 48.4937 10.2368 49.7179 8.73213 49.7179C7.22748 49.7179 6.00334 48.4937 6.00334 46.9891C6.00334 45.4844 7.22748 44.2603 8.73213 44.2603Z" fill="black"/>
<g clip-path="url(#clip0)">
<path d="M19.6826 13.0531L22.5624 14.5671C23.1424 14.8721 23.8339 14.8238 24.3667 14.4367C24.8982 14.0505 25.1593 13.4084 25.0483 12.761L24.4983 9.55427C24.4975 9.54968 24.499 9.54503 24.5023 9.5418L26.8322 7.27074C27.8486 6.27987 27.2869 4.5525 25.8827 4.34842L22.6629 3.88057C22.6583 3.87989 22.6543 3.87706 22.6523 3.87287L21.2124 0.955311C20.5841 -0.317744 18.7677 -0.317177 18.1397 0.955311L16.6998 3.87287C16.6977 3.877 16.6938 3.87989 16.6892 3.88057L13.4694 4.34842C12.0646 4.55256 11.5037 6.28021 12.5199 7.27074L14.8497 9.54175C14.8531 9.54503 14.8546 9.54968 14.8538 9.55427L14.3038 12.761C14.0639 14.1597 15.5333 15.2276 16.7897 14.5671L19.6695 13.0531C19.6736 13.0509 19.6784 13.0509 19.6826 13.0531Z" fill="#E7404A"/>
<path d="M39.7964 8.87686L37.8819 8.59864L37.0257 6.86385C36.5108 5.82041 35.022 5.82081 34.5072 6.86385L33.651 8.59864L31.7366 8.87686C30.5851 9.04412 30.1254 10.4602 30.9583 11.2721L32.3436 12.6225L32.0166 14.5292C31.8199 15.6761 33.0247 16.5509 34.0541 16.0096L35.7665 15.1094L37.4788 16.0096C38.5087 16.5511 39.7129 15.6757 39.5163 14.5292L39.1893 12.6225L40.5746 11.2721C41.4078 10.46 40.9474 9.04406 39.7964 8.87686Z" fill="#E7404A"/>
<path d="M32.02 19.5657L29.2069 19.1569L27.9489 16.6079C27.3564 15.4073 25.6433 15.4078 25.051 16.6079L23.793 19.1569L20.9799 19.5657C19.655 19.7583 19.1262 21.3877 20.0845 22.3218L22.12 24.306L21.6395 27.1077C21.4131 28.4273 22.7993 29.4338 23.9839 28.811L26.5 27.4882L29.0161 28.811C29.5632 29.0987 30.2154 29.053 30.7177 28.688C31.2189 28.3239 31.4653 27.7183 31.3605 27.1077L30.88 24.306L32.9156 22.3218C33.8743 21.3872 33.3444 19.7582 32.02 19.5657Z" fill="#E7404A"/>
</g>
<defs>
<clipPath id="clip0">
<rect width="29" height="29" fill="white" transform="translate(12)"/>
</clipPath>
</defs>
</svg>
