<svg width="112" height="88" viewBox="0 0 112 88" fill="none" xmlns="http://www.w3.org/2000/svg">
<path d="M89.8117 64.8251C93.899 64.8251 97.2242 61.4999 97.2242 57.4126C97.2242 53.3253 93.899 50 89.8117 50C85.7244 50 82.3991 53.3253 82.3991 57.4126C82.3991 61.4999 85.7244 64.8251 89.8117 64.8251ZM89.8117 52.5561C92.4896 52.5561 94.6682 54.7347 94.6682 57.4126C94.6682 60.0904 92.4896 62.2691 89.8117 62.2691C87.1338 62.2691 84.9552 60.0904 84.9552 57.4126C84.9552 54.7347 87.1338 52.5561 89.8117 52.5561Z" fill="black"/>
<path d="M104.807 64.8251C107.391 64.8251 109.493 62.7229 109.493 60.139C109.493 57.5551 107.391 55.4529 104.807 55.4529C102.223 55.4529 100.121 57.5551 100.121 60.139C100.121 62.7229 102.223 64.8251 104.807 64.8251ZM104.807 58.0089C105.982 58.0089 106.937 58.9645 106.937 60.139C106.937 61.3135 105.982 62.269 104.807 62.269C103.633 62.269 102.677 61.3135 102.677 60.139C102.677 58.9645 103.633 58.0089 104.807 58.0089Z" fill="black"/>
<path d="M105.838 67.7219H103.861C101.532 67.7219 99.5213 69.0981 98.6051 71.0748C96.7186 69.0155 94.009 67.7219 91.0027 67.7219H88.6207C85.6144 67.7219 82.9048 69.0155 81.0183 71.0748C80.102 69.0981 78.0912 67.7219 75.7619 67.7219H73.7852C70.5952 67.7219 68 70.3015 68 73.4722V82.7771C68 84.1536 69.1242 85.2735 70.506 85.2735H78.3213C78.4523 86.7986 79.7348 88 81.2934 88H98.33C99.8886 88 101.171 86.7986 101.302 85.2735H109.028C110.459 85.2735 111.623 84.1139 111.623 82.6885V73.4722C111.623 70.3015 109.028 67.7219 105.838 67.7219ZM70.506 74.3473C70.506 72.586 72.0047 70.278 73.7852 70.278H75.7619C77.5424 70.278 78.991 71.7109 78.991 73.4722V74.3473C78.1316 76.585 78.3094 77.9261 78.3094 82.7174L72.2932 82.6885L70.506 74.3473ZM96.4912 85.2735C96.4912 85.5094 98.566 85.4439 98.33 85.4439H81.2933C81.0573 85.4439 84.0019 85.6797 84.0019 85.4439L80.8655 78.0332C80.8655 73.7569 84.3444 70.278 88.6206 70.278H91.0026C95.2789 70.278 98.7578 73.7569 98.7578 78.0331L96.4912 85.2735ZM107.81 82.7771C107.81 82.8211 109.544 82.7174 101.314 82.7174C101.314 77.8907 101.49 76.5814 100.632 74.3473V73.4722C100.632 71.7109 102.081 70.278 103.861 70.278H105.838C107.619 70.278 109.067 75.3689 109.067 73.4722L107.81 82.7771Z" fill="black"/>
<path d="M74.8161 64.8251C77.4001 64.8251 79.5022 62.7229 79.5022 60.139C79.5022 57.5551 77.4001 55.4529 74.8161 55.4529C72.2322 55.4529 70.13 57.5551 70.13 60.139C70.13 62.7229 72.2322 64.8251 74.8161 64.8251ZM74.8161 58.0089C75.9906 58.0089 76.9462 58.9645 76.9462 60.139C76.9462 61.3135 75.9906 62.269 74.8161 62.269C73.6416 62.269 72.6861 61.3135 72.6861 60.139C72.6861 58.9645 73.6416 58.0089 74.8161 58.0089Z" fill="black"/>
<path d="M28.7493 0C26.1735 0.00235824 25.1207 1.7892 25.0419 1.86772C24.7438 2.16181 24.3474 2.22216 23.9451 1.86109C22.5617 -0.234601 19.2342 -0.633318 17.2436 1.08269C16.4404 1.77497 15.9989 2.69372 16 3.66994C16.0049 7.76254 20.1971 10.9939 24.3155 12.6673C24.3771 12.6923 24.4436 12.7049 24.51 12.7049C24.5768 12.7049 24.6436 12.6922 24.7054 12.667C28.8599 10.9699 33.0048 7.72847 33 3.65492C32.9975 1.63967 31.0908 0 28.7493 0Z" fill="#FF5050"/>
<path d="M22.2819 13.6124C22.4063 13.6752 22.5429 13.705 22.6777 13.705C22.9448 13.705 23.2051 13.5876 23.3507 13.3766C23.5697 13.0592 23.4463 12.65 23.0749 12.4628C21.1182 11.4761 16.5662 8.73612 16.5611 4.6107C16.559 2.77269 18.453 1.32777 20.6159 1.57672C22.549 1.79942 23.2184 3.09789 23.3672 3.23046C24.0566 3.84526 24.9974 3.84749 25.6461 3.21204C25.8194 3.04077 26.6563 1.54219 28.8588 1.54024C30.8304 1.54024 32.4365 2.9114 32.4387 4.59673C32.4434 8.52454 28.3562 11.2096 25.9195 12.4605C25.5499 12.6503 25.4302 13.0602 25.6522 13.3762C25.8743 13.6923 26.3537 13.7943 26.7233 13.6047C31.4197 11.1936 34.0041 7.99399 34 4.59531C33.9944 0.299506 27.3901 -1.52916 24.4995 2.28094C22.7596 -0.105589 18.8551 -0.508637 16.504 1.50411C15.5328 2.33557 14.9986 3.43928 15 4.61203C15.004 8.00076 17.658 11.2814 22.2819 13.6124Z" fill="black"/>
<path d="M52.0453 44.81H28.3207V44.5236C28.3207 44.5054 28.3201 44.4872 28.3201 44.4688H28.3205C28.3874 41.1917 29.6496 38.1016 31.8838 35.7189C32.1775 35.7495 32.4697 35.7663 32.7596 35.7663C36.8108 35.7663 40.4006 32.8378 41.0955 28.7126C41.157 28.3475 40.9952 27.9681 40.6535 27.7629C40.5552 27.7038 40.4445 27.6671 40.3313 27.6481C38.1058 27.2753 35.8685 27.7904 34.0299 29.0989C32.2551 30.3621 31.0594 32.2196 30.6397 34.348C29.2251 35.8271 28.1443 37.5521 27.4381 39.4242C26.7667 37.5562 24.3422 34.3063 24.3397 34.2911C23.3556 28.4477 17.801 24.4945 11.9572 25.4787C11.7159 25.5194 11.5007 25.6542 11.3588 25.8535C11.2168 26.0529 11.1599 26.3005 11.2006 26.5417C11.6774 29.3724 13.228 31.848 15.5667 33.5125C17.4068 34.822 19.5614 35.5062 21.7753 35.5062C22.1357 35.5062 22.4977 35.4858 22.8601 35.4493C25.1941 37.9105 26.4754 41.1187 26.4754 44.5238V44.8101H4.11844C3.62704 44.8101 3.19794 45.1809 3.16614 45.6713C3.13129 46.2088 3.55691 46.6554 4.08685 46.6554H26.4754C26.4754 47.2292 26.3737 47.798 26.1751 48.3363C25.8667 49.1726 25.3775 50.4817 24.9847 51.4544C24.6395 52.3093 23.9957 53.0097 23.1699 53.4197C21.5508 54.2238 18.7218 55.0386 15.7292 53.1683C15.2823 52.8889 14.6873 53.0392 14.4303 53.5087C14.1934 53.9412 14.3579 54.4889 14.7768 54.7491C16.2864 55.6865 17.9125 56.1598 19.5816 56.1598C20.2736 56.1598 20.9732 56.0776 21.6747 55.9142C20.6502 56.7628 19.4843 57.4514 18.2108 57.943C15.89 58.8387 13.8821 60.3075 12.3432 62.1689C10.7581 62.353 5.22032 63.29 4.34552 67.4451C4.24045 67.9437 4.55969 68.4332 5.05826 68.5381C5.1223 68.5516 5.18635 68.5581 5.24931 68.5581C5.67634 68.5581 6.05974 68.2598 6.15124 67.8253C6.43901 66.4585 7.61026 65.3993 9.63264 64.6769C10.0614 64.5238 10.4859 64.4027 10.88 64.3071C10.2468 65.441 9.76388 66.669 9.4556 67.9638L8.91231 70.2454C8.7942 70.741 9.10031 71.2386 9.59617 71.3566C9.66803 71.3738 9.73989 71.3819 9.81066 71.3819C10.2281 71.3819 10.6065 71.0966 10.7075 70.6728L11.2508 68.3912C12.0375 65.087 14.1297 62.2822 16.999 60.5774C16.7003 62.2982 16.8172 64.8313 18.8466 67.5372C19.0279 67.7789 19.3049 67.9063 19.5855 67.9063C19.7964 67.9063 20.0094 67.8342 20.1848 67.6844C20.5559 67.3676 20.6014 66.8031 20.3096 66.4121C17.9232 63.2154 18.8371 60.3925 19.2152 59.5279C22.0039 58.3695 24.3203 56.3802 25.8797 53.8576L25.5541 55.8757C25.3379 57.2158 25.7705 58.6023 26.7753 59.5149C27.2473 59.9435 27.5019 60.5555 27.4736 61.1923C27.4454 61.8257 27.1403 62.4098 26.6368 62.7949L24.0254 64.7918C23.6392 65.0871 23.5217 65.6343 23.7858 66.0426C23.9652 66.3198 24.2619 66.4659 24.5624 66.4659C24.7579 66.4659 24.9549 66.404 25.1222 66.2761L26.692 65.0756C26.8741 66.0844 26.8807 67.5698 25.8333 68.8294C25.5133 69.2143 25.5229 69.7927 25.8918 70.131C26.0699 70.2944 26.2933 70.374 26.5154 70.374C26.7776 70.374 27.0379 70.2629 27.2205 70.047C29.1621 67.7502 28.6485 65.0132 28.2715 63.7905C28.901 63.1062 29.275 62.22 29.3171 61.2744C29.3697 60.0918 28.8984 58.9547 28.024 58.1562C27.4949 57.673 27.2495 56.9528 27.3636 56.2453L27.931 52.7285L29.1921 57.0309C29.4543 57.9253 29.9693 58.6787 30.6363 59.2368C31.1164 59.8216 33.9044 63.412 32.3043 66.0313C32.0583 66.4339 32.1172 66.9646 32.4831 67.2624C32.6581 67.4047 32.8646 67.472 33.068 67.472C33.3755 67.472 33.6763 67.3183 33.8513 67.0382C34.9124 65.3404 34.9007 63.2033 33.8174 60.8578C33.7292 60.6669 33.6372 60.4828 33.5437 60.3051C33.9709 60.3075 34.4051 60.2504 34.8355 60.1254C36.1961 59.7301 37.646 60.4624 38.1359 61.7921C38.8122 63.6283 39.9398 65.2471 41.378 66.5176C41.3161 66.7518 41.2589 67.0369 41.2273 67.3665C41.1135 68.5538 41.3787 69.8048 41.994 70.9843C42.1587 71.2998 42.4801 71.4804 42.8128 71.4804C42.9736 71.4803 43.1368 71.4382 43.2864 71.3489C43.7098 71.0963 43.8415 70.5411 43.6158 70.1029C43.1313 69.1626 43.024 68.3507 43.0484 67.7489C43.901 68.2686 44.8234 68.6824 45.7964 68.9707L46.4743 69.1716C46.5618 69.1976 46.65 69.2099 46.7369 69.2099C47.1506 69.2099 47.5313 68.9292 47.634 68.5008C47.7496 68.0184 47.4424 67.5338 46.9669 67.3929L46.3207 67.2015C43.6555 66.4118 41.4394 64.5102 40.2388 62.0278C40.3261 62.0476 40.4144 62.0665 40.5049 62.0838C40.9662 62.1717 41.4207 62.2152 41.8666 62.2152C43.4893 62.2152 44.9974 61.6372 46.2857 60.5099C46.6691 60.1744 46.7081 59.5915 46.3725 59.208C46.0372 58.8245 45.4541 58.7856 45.0705 59.1211C42.1872 61.6442 38.9378 59.5832 38.7914 59.4879C38.7894 59.4866 38.7877 59.4863 38.7859 59.4852C37.6425 58.366 35.9446 57.8822 34.321 58.3533C32.8888 58.7692 31.3825 57.9432 30.963 56.5121L30.8697 56.1935C31.3484 56.363 31.8501 56.4489 32.3526 56.4489C32.9246 56.4489 33.4973 56.3386 34.0369 56.1173C34.4972 55.9285 34.7473 55.4066 34.577 54.9392C34.3954 54.441 33.8376 54.2006 33.3535 54.4029C32.6637 54.6916 31.9119 54.6734 31.2365 54.3517C30.5613 54.03 30.0736 53.4575 29.8634 52.7403L28.5588 48.3055C28.4011 47.7697 28.321 47.2139 28.321 46.6554H52.0773C52.6072 46.6554 53.0327 46.2088 52.998 45.6713C52.9658 45.1808 52.5367 44.81 52.0453 44.81ZM35.0999 30.6024C36.2642 29.7737 37.6304 29.3518 39.0363 29.3767C38.1362 32.115 35.5353 33.9674 32.6525 33.9199C33.0889 32.5864 33.9355 31.4311 35.0999 30.6024ZM16.6367 32.0091C14.967 30.8208 13.7824 29.1334 13.2341 27.1887C17.3844 26.9483 21.1737 29.6467 22.3056 33.6449C20.29 33.7642 18.3063 33.1974 16.6367 32.0091Z" fill="#E7404A"/>
<rect y="19" width="52.9995" height="23.7311" fill="white"/>
<path d="M26.7046 29.0859C29.4853 29.0859 31.7476 26.8237 31.7476 24.043C31.7476 21.2623 29.4853 19 26.7046 19C23.9239 19 21.6616 21.2623 21.6616 24.043C21.6616 26.8237 23.9239 29.0859 26.7046 29.0859ZM26.7046 20.739C28.5264 20.739 30.0086 22.2211 30.0086 24.043C30.0086 25.8648 28.5264 27.347 26.7046 27.347C24.8828 27.347 23.4006 25.8648 23.4006 24.043C23.4006 22.2211 24.8828 20.739 26.7046 20.739Z" fill="black"/>
<path d="M36.9064 29.0859C38.6643 29.0859 40.0945 27.6557 40.0945 25.8978C40.0945 24.1399 38.6643 22.7097 36.9064 22.7097C35.1485 22.7097 33.7184 24.1399 33.7184 25.8978C33.7184 27.6557 35.1485 29.0859 36.9064 29.0859ZM36.9064 24.4487C37.7055 24.4487 38.3556 25.0987 38.3556 25.8978C38.3556 26.6968 37.7055 27.3469 36.9064 27.3469C36.1074 27.3469 35.4573 26.6968 35.4573 25.8978C35.4573 25.0987 36.1074 24.4487 36.9064 24.4487Z" fill="black"/>
<path d="M37.6078 31.0566H36.263C34.6783 31.0566 33.3103 31.9929 32.687 33.3377C31.4036 31.9367 29.5601 31.0566 27.5149 31.0566H25.8944C23.8491 31.0566 22.0057 31.9367 20.7223 33.3377C20.0988 31.9929 18.7309 31.0566 17.1462 31.0566H15.8014C13.6312 31.0566 11.8656 32.8116 11.8656 34.9687V41.2991C11.8656 42.2355 12.6303 42.9974 13.5704 42.9974H18.8874C18.9765 44.035 19.849 44.8523 20.9094 44.8523H32.4999C33.5602 44.8523 34.4327 44.035 34.5219 42.9974H39.7781C40.7517 42.9974 41.5437 42.2085 41.5437 41.2388V34.9687C41.5436 32.8116 39.778 31.0566 37.6078 31.0566ZM13.5704 35.5641C13.5704 34.3658 14.59 32.7956 15.8014 32.7956H17.1462C18.3575 32.7956 19.343 33.7704 19.343 34.9687V35.5641C18.7583 37.0865 18.8793 37.9988 18.8793 41.2585L14.7863 41.2388L13.5704 35.5641ZM31.2489 42.9974C31.2489 43.1579 32.6604 43.1134 32.4999 43.1134H20.9093C20.7488 43.1134 22.7521 43.2738 22.7521 43.1134L20.6183 38.0717C20.6183 35.1624 22.9851 32.7956 25.8943 32.7956H27.5148C30.4241 32.7956 32.7909 35.1624 32.7909 38.0716L31.2489 42.9974ZM38.9491 41.2991C38.9491 41.329 40.1288 41.2585 34.5299 41.2585C34.5299 37.9747 34.6499 37.084 34.0662 35.5641V34.9687C34.0662 33.7704 35.0517 32.7956 36.263 32.7956H37.6078C38.8192 32.7956 39.8047 36.2591 39.8047 34.9687L38.9491 41.2991Z" fill="black"/>
<path d="M16.5028 29.0859C18.2607 29.0859 19.6908 27.6557 19.6908 25.8978C19.6908 24.1399 18.2607 22.7097 16.5028 22.7097C14.7448 22.7097 13.3147 24.1399 13.3147 25.8978C13.3147 27.6557 14.7448 29.0859 16.5028 29.0859ZM16.5028 24.4487C17.3018 24.4487 17.9519 25.0987 17.9519 25.8978C17.9519 26.6968 17.3018 27.3469 16.5028 27.3469C15.7037 27.3469 15.0536 26.6968 15.0536 25.8978C15.0536 25.0987 15.7037 24.4487 16.5028 24.4487Z" fill="black"/>
<path d="M85.8587 42.3366C86.5429 42.0707 86.8848 41.2989 86.5867 40.6281C85.1724 37.4458 83.1751 34.5516 80.6941 32.0967C77.8978 29.3298 74.5499 27.1832 70.8686 25.7967C67.1872 24.4103 63.255 23.8151 59.3283 24.0499C55.8443 24.2583 52.4339 25.116 49.2717 26.5747C48.6051 26.8822 48.353 27.6877 48.6918 28.3389C49.0305 28.9901 49.8317 29.24 50.4998 28.9359C53.3295 27.6476 56.3758 26.8895 59.487 26.7034C63.0409 26.4908 66.5998 27.0295 69.9317 28.2843C73.2636 29.5392 76.2936 31.482 78.8244 33.9862C81.0399 36.1784 82.8293 38.7577 84.1061 41.5926C84.4076 42.2618 85.1746 42.6026 85.8587 42.3366Z" fill="#E7404A"/>
<path d="M87.1151 45.0346L81.8354 41.2466L87.7558 38.5683L87.1151 45.0346Z" fill="#E7404A"/>
<path d="M105.759 44.9118C110.721 44.2107 110.975 39.8872 107.434 37.8558C105.157 36.5494 103.23 37.2835 102.628 38.3322C102.167 39.1362 102.58 39.9497 103.202 40.3068C103.742 40.6166 104.186 40.4003 104.509 40.2424C104.9 40.0513 105.238 39.8864 105.967 40.3046C106.281 40.4846 106.972 40.9716 106.608 41.6054C105.898 42.8426 103.462 41.4813 101.828 44.3294C101.433 45.0181 101.172 45.8043 102.236 46.4143C103.381 47.0712 103.901 46.4502 104.072 46.1526C104.501 45.4055 104.696 45.0645 105.759 44.9118ZM103.366 45.7475C103.313 45.8395 103.203 46.0307 102.641 45.7081C102.323 45.5256 102.304 45.4234 102.298 45.3898C102.283 45.3053 102.311 45.1229 102.534 44.7343C103.192 43.5882 103.973 43.2998 104.648 43.1697C105.396 43.0316 106.723 43.0411 107.314 42.0106C107.805 41.1551 107.436 40.2082 106.372 39.5984C105.269 38.9654 104.597 39.2937 104.152 39.5107C103.84 39.6629 103.759 39.6875 103.607 39.6006C103.408 39.4859 103.093 39.1579 103.334 38.7375C103.704 38.0923 105.139 37.4781 107.029 38.5622C109.895 40.2061 109.843 43.5128 105.644 44.1058C104.258 44.3014 103.871 44.8667 103.366 45.7475Z" fill="#E7404A"/>
<path d="M102.042 46.7877C101.197 46.303 100.111 46.603 99.6215 47.4566C99.1318 48.3103 99.4211 49.3992 100.266 49.8839C101.12 50.3736 102.213 50.0775 102.702 49.2238C103.192 48.3703 102.896 47.2774 102.042 46.7877ZM100.671 49.1777C100.216 48.9163 100.061 48.3259 100.328 47.8617C100.594 47.3977 101.181 47.2326 101.637 47.4939C102.093 47.7558 102.258 48.3626 101.996 48.8187C101.734 49.2752 101.128 49.4395 100.671 49.1777Z" fill="#E7404A"/>
</svg>
