<svg width="101" height="104" viewBox="0 0 101 104" fill="none" xmlns="http://www.w3.org/2000/svg">
<circle cx="75.2384" cy="43.2384" r="23.2384" fill="white" stroke="#E7404A" stroke-width="4"/>
<circle cx="25.2384" cy="25.2384" r="23.2384" fill="white" stroke="#E7404A" stroke-width="4"/>
<circle cx="33.2384" cy="78.2384" r="23.2384" fill="white" stroke="#E7404A" stroke-width="4"/>
<path d="M75.426 40.2651C78.5318 40.2651 81.0586 37.7384 81.0586 34.6326C81.0586 31.5268 78.5318 29 75.426 29C72.3202 29 69.7935 31.5268 69.7935 34.6326C69.7935 37.7384 72.3202 40.2651 75.426 40.2651ZM75.426 30.9423C77.4609 30.9423 79.1163 32.5977 79.1163 34.6326C79.1163 36.6674 77.4609 38.3229 75.426 38.3229C73.3912 38.3229 71.7357 36.6674 71.7357 34.6326C71.7357 32.5977 73.3912 30.9423 75.426 30.9423Z" fill="black"/>
<path d="M86.8206 40.2652C88.784 40.2652 90.3814 38.6678 90.3814 36.7044C90.3814 34.7409 88.784 33.1436 86.8206 33.1436C84.8571 33.1436 83.2598 34.7409 83.2598 36.7044C83.2598 38.6678 84.8571 40.2652 86.8206 40.2652ZM86.8206 35.0858C87.713 35.0858 88.4391 35.8119 88.4391 36.7044C88.4391 37.5968 87.713 38.3229 86.8206 38.3229C85.9281 38.3229 85.202 37.5968 85.202 36.7044C85.202 35.8119 85.9281 35.0858 86.8206 35.0858Z" fill="black"/>
<path d="M87.604 42.4663H86.102C84.332 42.4663 82.8041 43.512 82.1078 45.014C80.6744 43.4492 78.6154 42.4663 76.331 42.4663H74.521C72.2367 42.4663 70.1777 43.4492 68.7442 45.014C68.0479 43.512 66.52 42.4663 64.75 42.4663H63.248C60.8241 42.4663 58.8521 44.4264 58.8521 46.8357V53.9062C58.8521 54.9522 59.7063 55.8032 60.7562 55.8032H66.6948C66.7944 56.962 67.7689 57.8749 68.9532 57.8749H81.8989C83.0831 57.8749 84.0576 56.962 84.1573 55.8032H90.028C91.1154 55.8032 92 54.922 92 53.8389V46.8357C92 44.4264 90.0279 42.4663 87.604 42.4663ZM60.7562 47.5007C60.7562 46.1624 61.8951 44.4086 63.248 44.4086H64.75C66.103 44.4086 67.2038 45.4974 67.2038 46.8357V47.5007C66.5507 49.2011 66.6858 50.2201 66.6858 53.8609L62.1143 53.8389L60.7562 47.5007ZM80.5016 55.8032C80.5016 55.9824 82.0781 55.9327 81.8989 55.9327H68.9532C68.7739 55.9327 71.0114 56.1119 71.0114 55.9327L68.6281 50.3015C68.6281 47.0521 71.2716 44.4086 74.521 44.4086H76.331C79.5804 44.4086 82.2239 47.0521 82.2239 50.3015L80.5016 55.8032ZM89.1021 53.9062C89.1021 53.9397 90.4197 53.8609 84.1662 53.8609C84.1662 50.1932 84.3003 49.1983 83.6482 47.5007V46.8357C83.6482 45.4974 84.749 44.4086 86.102 44.4086H87.604C88.957 44.4086 90.0577 48.277 90.0577 46.8357L89.1021 53.9062Z" fill="black"/>
<path d="M64.0314 40.2652C65.9948 40.2652 67.5922 38.6678 67.5922 36.7044C67.5922 34.7409 65.9948 33.1436 64.0314 33.1436C62.068 33.1436 60.4706 34.7409 60.4706 36.7044C60.4706 38.6678 62.068 40.2652 64.0314 40.2652ZM64.0314 35.0858C64.9239 35.0858 65.6499 35.8119 65.6499 36.7044C65.6499 37.5968 64.9239 38.3229 64.0314 38.3229C63.1389 38.3229 62.4128 37.5968 62.4128 36.7044C62.4128 35.8119 63.1389 35.0858 64.0314 35.0858Z" fill="black"/>
<path d="M25.574 22.2651C28.6798 22.2651 31.2065 19.7384 31.2065 16.6326C31.2065 13.5268 28.6798 11 25.574 11C22.4682 11 19.9414 13.5268 19.9414 16.6326C19.9414 19.7384 22.4682 22.2651 25.574 22.2651ZM25.574 12.9423C27.6088 12.9423 29.2643 14.5977 29.2643 16.6326C29.2643 18.6674 27.6088 20.3229 25.574 20.3229C23.5391 20.3229 21.8837 18.6674 21.8837 16.6326C21.8837 14.5977 23.5391 12.9423 25.574 12.9423Z" fill="black"/>
<path d="M36.9685 22.2652C38.932 22.2652 40.5293 20.6678 40.5293 18.7044C40.5293 16.7409 38.932 15.1436 36.9685 15.1436C35.0051 15.1436 33.4077 16.7409 33.4077 18.7044C33.4077 20.6678 35.0051 22.2652 36.9685 22.2652ZM36.9685 17.0858C37.861 17.0858 38.5871 17.8119 38.5871 18.7044C38.5871 19.5968 37.861 20.3229 36.9685 20.3229C36.0761 20.3229 35.35 19.5968 35.35 18.7044C35.35 17.8119 36.0761 17.0858 36.9685 17.0858Z" fill="black"/>
<path d="M37.7519 24.4663H36.2499C34.4799 24.4663 32.952 25.512 32.2558 27.014C30.8223 25.4492 28.7633 24.4663 26.479 24.4663H24.669C22.3846 24.4663 20.3256 25.4492 18.8922 27.014C18.1959 25.512 16.668 24.4663 14.898 24.4663H13.396C10.972 24.4663 9 26.4264 9 28.8357V35.9062C9 36.9522 9.85421 37.8032 10.9042 37.8032H16.8428C16.9424 38.962 17.9169 39.8749 19.1012 39.8749H32.0468C33.2311 39.8749 34.2056 38.962 34.3052 37.8032H40.1759C41.2633 37.8032 42.148 36.922 42.148 35.8389V28.8357C42.1479 26.4264 40.1759 24.4663 37.7519 24.4663ZM10.9042 29.5007C10.9042 28.1624 12.043 26.4086 13.396 26.4086H14.898C16.251 26.4086 17.3517 27.4974 17.3517 28.8357V29.5007C16.6987 31.2011 16.8338 32.2201 16.8338 35.8609L12.2623 35.8389L10.9042 29.5007ZM30.6495 37.8032C30.6495 37.9824 32.2261 37.9327 32.0468 37.9327H19.1011C18.9218 37.9327 21.1593 38.1119 21.1593 37.9327L18.776 32.3015C18.776 29.0521 21.4196 26.4086 24.6689 26.4086H26.4789C29.7283 26.4086 32.3719 29.0521 32.3719 32.3015L30.6495 37.8032ZM39.2501 35.9062C39.2501 35.9397 40.5677 35.8609 34.3141 35.8609C34.3141 32.1932 34.4482 31.1983 33.7962 29.5007V28.8357C33.7962 27.4974 34.8969 26.4086 36.2499 26.4086H37.7519C39.1049 26.4086 40.2057 30.277 40.2057 28.8357L39.2501 35.9062Z" fill="black"/>
<path d="M14.1793 22.2652C16.1428 22.2652 17.7402 20.6678 17.7402 18.7044C17.7402 16.7409 16.1428 15.1436 14.1793 15.1436C12.2159 15.1436 10.6185 16.7409 10.6185 18.7044C10.6185 20.6678 12.2159 22.2652 14.1793 22.2652ZM14.1793 17.0858C15.0718 17.0858 15.7979 17.8119 15.7979 18.7044C15.7979 19.5968 15.0718 20.3229 14.1793 20.3229C13.2869 20.3229 12.5608 19.5968 12.5608 18.7044C12.5608 17.8119 13.2869 17.0858 14.1793 17.0858Z" fill="black"/>
<path d="M33.574 74.2651C36.6798 74.2651 39.2065 71.7384 39.2065 68.6326C39.2065 65.5268 36.6798 63 33.574 63C30.4682 63 27.9414 65.5268 27.9414 68.6326C27.9414 71.7384 30.4682 74.2651 33.574 74.2651ZM33.574 64.9423C35.6088 64.9423 37.2643 66.5977 37.2643 68.6326C37.2643 70.6674 35.6088 72.3229 33.574 72.3229C31.5391 72.3229 29.8837 70.6674 29.8837 68.6326C29.8837 66.5977 31.5391 64.9423 33.574 64.9423Z" fill="black"/>
<path d="M44.9685 74.2652C46.932 74.2652 48.5293 72.6678 48.5293 70.7044C48.5293 68.7409 46.932 67.1436 44.9685 67.1436C43.0051 67.1436 41.4077 68.7409 41.4077 70.7044C41.4077 72.6678 43.0051 74.2652 44.9685 74.2652ZM44.9685 69.0858C45.861 69.0858 46.5871 69.8119 46.5871 70.7044C46.5871 71.5968 45.861 72.3229 44.9685 72.3229C44.0761 72.3229 43.35 71.5968 43.35 70.7044C43.35 69.8119 44.0761 69.0858 44.9685 69.0858Z" fill="black"/>
<path d="M45.7519 76.4663H44.2499C42.4799 76.4663 40.952 77.512 40.2558 79.014C38.8223 77.4492 36.7633 76.4663 34.479 76.4663H32.669C30.3846 76.4663 28.3256 77.4492 26.8922 79.014C26.1959 77.512 24.668 76.4663 22.898 76.4663H21.396C18.972 76.4663 17 78.4264 17 80.8357V87.9062C17 88.9522 17.8542 89.8032 18.9042 89.8032H24.8428C24.9424 90.962 25.9169 91.8749 27.1012 91.8749H40.0468C41.2311 91.8749 42.2056 90.962 42.3052 89.8032H48.1759C49.2633 89.8032 50.148 88.922 50.148 87.8389V80.8357C50.1479 78.4264 48.1759 76.4663 45.7519 76.4663ZM18.9042 81.5007C18.9042 80.1624 20.043 78.4086 21.396 78.4086H22.898C24.251 78.4086 25.3517 79.4974 25.3517 80.8357V81.5007C24.6987 83.2011 24.8338 84.2201 24.8338 87.8609L20.2623 87.8389L18.9042 81.5007ZM38.6495 89.8032C38.6495 89.9824 40.2261 89.9327 40.0468 89.9327H27.1011C26.9218 89.9327 29.1593 90.1119 29.1593 89.9327L26.776 84.3015C26.776 81.0521 29.4196 78.4086 32.6689 78.4086H34.4789C37.7283 78.4086 40.3719 81.0521 40.3719 84.3015L38.6495 89.8032ZM47.2501 87.9062C47.2501 87.9397 48.5677 87.8609 42.3141 87.8609C42.3141 84.1932 42.4482 83.1983 41.7962 81.5007V80.8357C41.7962 79.4974 42.8969 78.4086 44.2499 78.4086H45.7519C47.1049 78.4086 48.2057 82.277 48.2057 80.8357L47.2501 87.9062Z" fill="black"/>
<path d="M22.1793 74.2652C24.1428 74.2652 25.7402 72.6678 25.7402 70.7044C25.7402 68.7409 24.1428 67.1436 22.1793 67.1436C20.2159 67.1436 18.6185 68.7409 18.6185 70.7044C18.6185 72.6678 20.2159 74.2652 22.1793 74.2652ZM22.1793 69.0858C23.0718 69.0858 23.7979 69.8119 23.7979 70.7044C23.7979 71.5968 23.0718 72.3229 22.1793 72.3229C21.2869 72.3229 20.5608 71.5968 20.5608 70.7044C20.5608 69.8119 21.2869 69.0858 22.1793 69.0858Z" fill="black"/>
</svg>
