<svg width="26" height="36" viewBox="0 0 26 36" fill="none" xmlns="http://www.w3.org/2000/svg">
<path fill-rule="evenodd" clip-rule="evenodd" d="M25.4378 23.7261C25.4378 28.6224 22.787 32.8832 18.8733 35.0988C18.8733 35.0988 18.3977 35.3771 17.7777 35.4865C17.1749 35.5927 16.7298 35.6129 16.7298 35.6129H12.7189H8.70859C8.70859 35.6129 8.26292 35.5927 7.65988 35.4865C7.04011 35.3771 6.56452 35.0988 6.56452 35.0988C2.65083 32.8832 0 28.6224 0 23.7261C0 18.3199 3.23098 13.686 7.82692 11.7274V4.34497C7.20198 4.34497 6.69539 3.82731 6.69539 3.18938V1.1559C6.69539 0.517326 7.20198 0 7.82692 0H17.6108C18.2358 0 18.7425 0.517326 18.7425 1.1559V3.18938C18.7425 3.82734 18.2358 4.34497 17.6108 4.34497V11.7274C22.2068 13.686 25.4378 18.32 25.4378 23.7261ZM15.9919 0.785413H9.44645C9.03395 0.785413 8.69955 1.1274 8.69955 1.54877C8.69955 1.97044 9.03395 2.31181 9.44645 2.31181H15.9919C16.4044 2.31181 16.7391 1.97044 16.7391 1.54877C16.7391 1.12743 16.4044 0.785413 15.9919 0.785413ZM16.7148 13.9234C15.8475 13.5539 15.2822 12.6875 15.2822 11.7274V4.34497H10.1556V11.7274C10.1556 12.6875 9.59062 13.5539 8.72318 13.9234C4.83909 15.5791 2.32853 19.4272 2.32853 23.7261C2.32853 27.5836 4.38338 31.1434 7.69124 33.0167C7.74164 33.0426 7.90242 33.1145 8.0566 33.142C8.40039 33.2025 8.67714 33.2259 8.77721 33.2332H12.7189H16.6616C16.7558 33.2265 17.0346 33.2032 17.382 33.1417C17.5362 33.1145 17.6959 33.0426 17.7466 33.0167C21.0543 31.1434 23.1093 27.5836 23.1093 23.7261C23.1093 19.4272 20.5994 15.5791 16.7148 13.9234ZM21.6155 23.7261C21.6155 27.0042 19.8828 30.0307 17.0872 31.6448C16.8721 31.681 16.6941 31.6995 16.6026 31.7069H8.83357C8.74886 31.6998 8.56932 31.6816 8.35172 31.6448C5.55578 30.031 3.82186 27.0042 3.82186 23.7261C3.82186 22.5721 4.03664 21.4677 4.42237 20.4507H21.0159C21.4018 21.4678 21.6155 22.5722 21.6155 23.7261ZM10.0145 28.8972C8.09838 27.6565 6.91161 25.4627 6.91161 23.148C6.91161 22.7264 6.57737 22.385 6.16472 22.385C5.75254 22.385 5.41767 22.7264 5.41767 23.148C5.41767 26.0204 6.90956 28.7411 9.3107 30.2473L9.46302 30.3379L9.68643 30.3625C9.70803 30.3645 9.72964 30.3654 9.75138 30.3654C10.1334 30.3654 10.4454 30.064 10.479 29.667C10.5077 29.3294 10.3073 29.0236 10.0145 28.8972Z" fill="#E7404A"/>
</svg>
