<svg width="40" height="34" viewBox="0 0 40 34" fill="none" xmlns="http://www.w3.org/2000/svg">
<path d="M27.6285 0C24.4429 0 20.3147 1.8227 19.5023 4.891L19.5017 4.89038V4.891C18.6894 1.8227 14.5611 0 11.3761 0C5.09466 0 0 4.73284 0 11.0431C0 18.468 4.52276 23.0113 9.45296 26.6985C12.4104 28.9106 18.9741 33.917 19.4935 33.917C19.4967 33.917 19.4992 33.9164 19.5017 33.9164C19.5042 33.9164 19.5073 33.917 19.5099 33.917C20.0297 33.917 26.5936 28.9106 29.551 26.6985C34.4809 23.0113 39.0046 18.468 39.0046 11.0431C39.0046 4.73284 33.91 0 27.6285 0ZM6.96358 4.99487C4.99958 6.405 3.87275 8.6095 3.87275 11.0431C3.87275 11.4447 3.53817 11.7701 3.12447 11.7701C2.71077 11.7701 2.37554 11.4447 2.37554 11.0431C2.37554 8.14361 3.72304 5.51346 6.07309 3.82636C6.40518 3.58749 6.87349 3.65572 7.11989 3.97841C7.36597 4.30109 7.29535 4.75662 6.96358 4.99487Z" fill="#E7404A"/>
</svg>
