<svg width="43" height="36" viewBox="0 0 43 36" fill="none" xmlns="http://www.w3.org/2000/svg">
<path fill-rule="evenodd" clip-rule="evenodd" d="M41.8133 13.6094C41.7617 13.6094 41.7069 13.6056 41.649 13.5969L39.4615 13.286L39.4611 29.5239C39.4611 30.1595 38.9677 30.8176 38.365 30.9868L22.2938 35.4859C21.9926 35.57 21.5948 35.6129 21.1976 35.6129C20.7998 35.6129 20.403 35.57 20.1012 35.4859L4.03093 30.9868C3.42734 30.8176 2.93449 30.1595 2.93449 29.5239L2.93482 13.286L0.746339 13.5969C0.688751 13.6056 0.634285 13.6094 0.582691 13.6094C0.0779003 13.6094 -0.14145 13.2312 0.0955417 12.7075L3.17087 5.89963C3.43207 5.32218 4.1383 4.71048 4.7419 4.5419L20.8125 0.0418997C20.9132 0.0137589 21.0067 0 21.092 0C21.1301 0 21.164 0.00576909 21.198 0.0112072C21.2323 0.00576909 21.266 0 21.3038 0C21.3893 0 21.4828 0.0137589 21.5832 0.0418997L37.6541 4.5419C38.2574 4.71048 38.9642 5.32218 39.2255 5.89963L42.3008 12.7075C42.5377 13.2312 42.3184 13.6094 41.8133 13.6094ZM5.37285 27.6715C5.37285 28.0928 5.70897 28.4342 6.12343 28.4342C6.53821 28.4342 6.87401 28.0928 6.87401 27.6715V20.3895C6.87401 19.9678 6.53821 19.6265 6.12343 19.6265C5.70897 19.6265 5.37285 19.9678 5.37285 20.3895V27.6715ZM5.13999 6.01318C4.96248 6.0634 4.61191 6.36702 4.53482 6.53659L2.13045 11.8588L17.1537 9.71692C17.2308 9.69101 17.3639 9.57455 17.4008 9.50163L19.6745 1.94286L5.13999 6.01318ZM21.3245 10.6556L21.198 10.2345V32.7867C21.4605 32.7867 21.6332 32.756 21.6729 32.7454L37.121 28.4204V15.3542L24.6969 13.5822C23.1895 13.3675 21.7708 12.1365 21.3245 10.6556ZM37.8612 6.53659C37.7841 6.36702 37.4332 6.06343 37.2557 6.01318L22.7212 1.94283L24.9952 9.50159C25.0318 9.57454 25.1652 9.69097 25.2423 9.71688L40.2652 11.8588L37.8612 6.53659Z" fill="#E7404A"/>
</svg>
