<svg width="29" height="34" viewBox="0 0 29 34" fill="none" xmlns="http://www.w3.org/2000/svg">
<path d="M27.7223 0H1.10597C0.495748 0 0 0.491465 0 1.09718L0.00122781 11.2781C0.00122781 11.279 0.00186089 11.2805 0.00186089 11.2817C0.00186089 14.3396 0.00186089 17.4066 0.00186089 18.4319C0.00186089 20.7045 0.774461 23.9796 3.73286 27.269C7.97156 31.9814 14.4154 33.917 14.4154 33.917C14.4154 33.917 20.8592 31.9814 25.0979 27.269C28.0563 23.9796 28.8289 20.7045 28.8289 18.4319C28.8289 17.4066 28.8289 14.3396 28.8289 11.2817C28.8289 11.2805 28.8295 11.279 28.8295 11.2781L28.828 1.09718C28.828 0.491465 28.3326 0 27.7223 0ZM6.63508 25.9095C6.49543 26.0329 6.32108 26.0936 6.14795 26.0936C5.94628 26.0936 5.74584 26.0116 5.60125 25.8507C2.6978 22.6232 2.26438 19.5714 2.26438 18.0394C2.26438 17.6382 2.59191 17.3124 2.99615 17.3124C3.40071 17.3124 3.72887 17.6381 3.72887 18.0394C3.72887 19.3642 4.11377 22.0147 6.69369 24.883C6.9629 25.1823 6.9362 25.6417 6.63508 25.9095ZM26.5464 11.2424C26.5461 11.2552 26.5461 11.2686 26.5461 11.2817V18.4319C26.5461 19.8602 26.1363 22.7115 23.3952 25.7596C20.4025 29.0871 16.0609 30.9131 14.4154 31.5198L14.4142 2.26597H26.5452L26.5464 11.2424Z" fill="#E7404A"/>
</svg>
