<svg width="93" height="93" viewBox="0 0 93 93" fill="none" xmlns="http://www.w3.org/2000/svg">
<circle cx="46.5" cy="46.5" r="46.5" fill="#E3F7FE"/>
<path d="M61.3098 26.345L48.881 38.773C47.9606 39.6936 46.4676 39.6936 45.5464 38.773L39.1305 32.3567C38.2098 31.4361 38.2098 29.943 39.1305 29.0223C40.0514 28.1014 41.5443 28.1014 42.4647 29.0219L47.2142 33.7714L57.9751 23.0104C58.8959 22.0895 60.3889 22.0902 61.3095 23.0104C62.23 23.9311 62.23 25.4238 61.3098 26.345Z" fill="#E7404A"/>
<path d="M27.6158 61.2767H20.9508C20.3376 61.2767 19.84 60.779 19.84 60.1658V40.1708C19.84 39.5577 20.3376 39.06 20.9508 39.06C28.5067 39.06 32.499 41.606 32.6656 41.7149C33.0633 41.9748 33.2522 42.4591 33.1366 42.919L28.6933 60.4391C28.5667 60.9323 28.1246 61.2767 27.6158 61.2767ZM22.0616 59.055H26.7516L30.7706 43.2145C29.5198 42.6169 26.5738 41.4683 22.0616 41.3017V59.055Z" fill="black"/>
<path d="M48.7216 65.72C43.4785 65.72 33.341 61.3122 27.7624 58.6817C27.207 58.4218 26.9715 57.7575 27.2314 57.2043C27.4914 56.6467 28.1556 56.4134 28.7111 56.6734C33.0655 58.7262 43.7295 63.4983 48.7216 63.4983C54.1247 63.4983 66.8615 57.151 70.525 55.2648C69.9474 54.5094 68.7544 53.5008 66.4949 53.5008C64.4443 53.5008 61.845 54.3206 59.3301 55.116C56.6574 55.958 53.8914 56.8333 51.4987 56.8333C46.9132 56.8333 40.8236 54.6383 40.5659 54.545C39.9905 54.3362 39.6928 53.6985 39.9016 53.1209C40.1104 52.5455 40.7458 52.25 41.3257 52.4566C41.3834 52.4788 47.3064 54.6116 51.4987 54.6116C53.5493 54.6116 56.1486 53.7919 58.6636 52.9965C61.3362 52.1545 64.1022 51.2791 66.4949 51.2791C71.6781 51.2791 73.0466 55.2048 73.1022 55.3715C73.2733 55.8847 73.0511 56.4467 72.5712 56.7045C71.8803 57.0688 55.5843 65.72 48.7216 65.72Z" fill="black"/>
<path d="M56.4975 55.9225C55.8844 55.9225 55.3867 55.4248 55.3867 54.8116V53.7008C55.3867 52.1501 54.3425 50.8215 52.8451 50.4749L31.3971 45.2962C30.7995 45.1518 30.4329 44.552 30.5773 43.9543C30.7195 43.3545 31.3305 43.0012 31.917 43.1345L53.3561 48.311C55.8577 48.8953 57.6084 51.1126 57.6084 53.7008V54.8116C57.6084 55.4248 57.1107 55.9225 56.4975 55.9225Z" fill="black"/>
</svg>
