<svg width="93" height="93" viewBox="0 0 93 93" fill="none" xmlns="http://www.w3.org/2000/svg">
<circle cx="46.5" cy="46.5" r="46.5" fill="#E3F7FE"/>
<g clip-path="url(#clip0)">
<path d="M27.6159 62.5167H20.9509C20.3377 62.5167 19.8401 62.019 19.8401 61.4059V41.4109C19.8401 40.7977 20.3377 40.3 20.9509 40.3C28.5068 40.3 32.4991 42.846 32.6658 42.9549C33.0634 43.2148 33.2523 43.6992 33.1368 44.1591L28.6934 61.6791C28.5668 62.1723 28.1247 62.5167 27.6159 62.5167ZM22.0618 60.295H26.7517L30.7707 44.4545C29.5199 43.8569 26.574 42.7083 22.0618 42.5417V60.295Z" fill="black"/>
<path d="M48.7217 66.96C43.4786 66.96 33.3411 62.5522 27.7625 59.9218C27.2071 59.6618 26.9716 58.9975 27.2316 58.4444C27.4915 57.8867 28.1558 57.6534 28.7112 57.9134C33.0656 59.9662 43.7296 64.7383 48.7217 64.7383C54.1248 64.7383 66.8616 58.391 70.5252 56.5048C69.9475 55.7495 68.7545 54.7408 66.4951 54.7408C64.4445 54.7408 61.8451 55.5606 59.3302 56.356C56.6575 57.198 53.8916 58.0733 51.4988 58.0733C46.9133 58.0733 40.8237 55.8783 40.566 55.785C39.9906 55.5762 39.6929 54.9386 39.9017 54.3609C40.1106 53.7855 40.7459 53.49 41.3258 53.6967C41.3836 53.7189 47.3065 55.8517 51.4988 55.8517C53.5494 55.8517 56.1488 55.0319 58.6637 54.2365C61.3364 53.3945 64.1023 52.5192 66.4951 52.5192C71.6782 52.5192 73.0468 56.4448 73.1023 56.6115C73.2734 57.1247 73.0512 57.6868 72.5713 57.9445C71.8804 58.3088 55.5845 66.96 48.7217 66.96Z" fill="black"/>
<path d="M56.4976 57.1625C55.8844 57.1625 55.3868 56.6648 55.3868 56.0516V54.9408C55.3868 53.3901 54.3426 52.0615 52.8452 51.715L31.3972 46.5363C30.7996 46.3918 30.433 45.792 30.5774 45.1944C30.7196 44.5945 31.3306 44.2413 31.9171 44.3746L53.3562 49.5511C55.8578 50.1353 57.6084 52.3526 57.6084 54.9408V56.0516C57.6084 56.6648 57.1108 57.1625 56.4976 57.1625Z" fill="black"/>
</g>
<path d="M57.5987 26.1945L51.0619 25.2549L48.1204 19.331C47.9237 18.9248 47.435 18.755 47.0288 18.9518C46.8633 19.0319 46.7297 19.1655 46.6496 19.331L43.7081 25.2549L37.1713 26.1945C36.8617 26.244 36.6077 26.4662 36.5177 26.7665C36.4382 27.0558 36.5156 27.3656 36.7219 27.5836L41.4611 32.2002L40.358 38.6961C40.3083 39.0078 40.4338 39.3216 40.6849 39.5132C40.932 39.7012 41.2645 39.7329 41.5428 39.5949L47.385 36.4899L53.2272 39.5949L53.5949 39.6766C53.7738 39.6918 53.9511 39.6326 54.0851 39.5132C54.3361 39.3216 54.4616 39.0078 54.412 38.6961L53.3089 32.2002L58.0481 27.5836C58.2544 27.3656 58.3319 27.0558 58.2523 26.7665C58.1622 26.4663 57.9083 26.244 57.5987 26.1945ZM51.8382 31.3423C51.671 31.5323 51.5962 31.7865 51.6339 32.0368L52.5327 37.3479L47.7527 34.8558C47.52 34.7454 47.25 34.7454 47.0173 34.8558L42.2373 37.3479L43.1361 32.0368C43.1738 31.7865 43.099 31.5324 42.9318 31.3423L39.0506 27.5836L44.4026 26.8074C44.6656 26.7612 44.8923 26.595 45.0154 26.358L47.385 21.5371L49.7546 26.358C49.8777 26.595 50.1043 26.7612 50.3674 26.8074L55.7194 27.5836L51.8382 31.3423Z" fill="#E7404A"/>
<path d="M47.385 16.8797C47.8363 16.8797 48.2021 16.5139 48.2021 16.0626V11.9771C48.2021 11.5258 47.8362 11.16 47.385 11.16C46.9338 11.16 46.5679 11.5258 46.5679 11.9771V16.0626C46.5679 16.5139 46.9337 16.8797 47.385 16.8797Z" fill="#E7404A"/>
<path d="M59.723 15.4906C59.362 15.2198 58.8498 15.293 58.579 15.6541L56.1277 18.9225C55.857 19.2835 55.9301 19.7956 56.2912 20.0664C56.4312 20.1753 56.6041 20.233 56.7814 20.2299C57.0371 20.2238 57.2768 20.104 57.4351 19.903L59.8864 16.6346C60.1572 16.2736 60.084 15.7614 59.723 15.4906Z" fill="#E7404A"/>
<path d="M37.9883 20.2298C38.1656 20.2329 38.3386 20.1752 38.4785 20.0663C38.8396 19.7955 38.9127 19.2834 38.642 18.9224L36.1908 15.654C35.92 15.2929 35.4078 15.2198 35.0468 15.4905C34.6858 15.7613 34.6126 16.2735 34.8834 16.6345L37.3347 19.9029C37.4929 20.1039 37.7326 20.2237 37.9883 20.2298Z" fill="#E7404A"/>
<defs>
<clipPath id="clip0">
<rect width="53.32" height="53.32" fill="white" transform="translate(19.8401 13.64)"/>
</clipPath>
</defs>
</svg>
