<svg width="93" height="93" viewBox="0 0 93 93" fill="none" xmlns="http://www.w3.org/2000/svg">
<circle cx="46.5" cy="46.5" r="46.5" fill="#E3F7FE"/>
<path d="M56.8587 21.5697C56.8345 21.5452 56.8101 21.5208 56.7855 21.4966C54.1155 18.8745 49.837 18.8745 47.1669 21.4966L46.5988 22.0577L46.031 21.4966C43.3609 18.8745 39.0824 18.8745 36.4124 21.4966C33.7715 24.097 33.7386 28.3459 36.3392 30.9868C36.3634 31.0114 36.3878 31.0358 36.4124 31.06L45.3747 39.9176C46.053 40.5887 47.1452 40.5887 47.8234 39.9176L56.7858 31.06C59.4264 28.4596 59.4591 24.2106 56.8587 21.5697ZM54.3817 28.5392C54.3669 28.5542 54.3519 28.5693 54.3369 28.5841L46.5988 36.2311L38.8608 28.5841C37.5873 27.3354 37.5673 25.2909 38.816 24.0173C38.8308 24.0023 38.8458 23.9873 38.8608 23.9725C40.172 22.687 42.2709 22.687 43.5821 23.9725L45.3743 25.7445C46.053 26.4144 47.1443 26.4144 47.823 25.7445L49.6152 23.9725C50.9268 22.6879 53.025 22.6879 54.3364 23.9725C55.6102 25.221 55.6304 27.2657 54.3817 28.5392Z" fill="#E7404A"/>
<path d="M27.6158 62.5167H20.9508C20.3376 62.5167 19.84 62.019 19.84 61.4059V41.4109C19.84 40.7977 20.3376 40.3 20.9508 40.3C28.5067 40.3 32.499 42.846 32.6656 42.9549C33.0633 43.2148 33.2522 43.6992 33.1366 44.1591L28.6933 61.6791C28.5667 62.1723 28.1246 62.5167 27.6158 62.5167ZM22.0616 60.295H26.7516L30.7706 44.4545C29.5198 43.8569 26.5738 42.7083 22.0616 42.5417V60.295Z" fill="black"/>
<path d="M48.7216 66.96C43.4785 66.96 33.341 62.5522 27.7624 59.9218C27.207 59.6618 26.9715 58.9975 27.2314 58.4444C27.4914 57.8867 28.1556 57.6534 28.7111 57.9134C33.0655 59.9662 43.7295 64.7383 48.7216 64.7383C54.1247 64.7383 66.8615 58.391 70.525 56.5048C69.9474 55.7495 68.7544 54.7408 66.4949 54.7408C64.4443 54.7408 61.845 55.5606 59.3301 56.356C56.6574 57.198 53.8914 58.0733 51.4987 58.0733C46.9132 58.0733 40.8236 55.8783 40.5659 55.785C39.9905 55.5762 39.6928 54.9386 39.9016 54.3609C40.1104 53.7855 40.7458 53.49 41.3257 53.6967C41.3834 53.7189 47.3064 55.8517 51.4987 55.8517C53.5493 55.8517 56.1486 55.0319 58.6636 54.2365C61.3362 53.3945 64.1022 52.5192 66.4949 52.5192C71.6781 52.5192 73.0466 56.4448 73.1022 56.6115C73.2733 57.1247 73.0511 57.6868 72.5712 57.9445C71.8803 58.3088 55.5843 66.96 48.7216 66.96Z" fill="black"/>
<path d="M56.4975 57.1625C55.8844 57.1625 55.3867 56.6648 55.3867 56.0516V54.9408C55.3867 53.3901 54.3425 52.0615 52.8451 51.715L31.3971 46.5363C30.7995 46.3918 30.4329 45.792 30.5773 45.1944C30.7195 44.5945 31.3305 44.2413 31.917 44.3746L53.3561 49.5511C55.8577 50.1353 57.6084 52.3526 57.6084 54.9408V56.0516C57.6084 56.6648 57.1107 57.1625 56.4975 57.1625Z" fill="black"/>
</svg>
