<svg width="100" height="100" viewBox="0 0 100 100" fill="none" xmlns="http://www.w3.org/2000/svg">
<circle cx="50" cy="50" r="50" fill="#FCFCFC"/>
<g clip-path="url(#clip0)">
<path d="M73.0506 38.7847C73.5439 38.7847 73.9441 38.385 73.9441 37.8912V36.3907C73.9441 35.897 73.5439 35.4972 73.0506 35.4972C72.5572 35.4972 72.157 35.897 72.157 36.3907V37.8912C72.157 38.385 72.5572 38.7847 73.0506 38.7847Z" fill="black"/>
<path d="M57.6135 38.7847C58.1073 38.7847 58.5071 38.385 58.5071 37.8912V36.3907C58.5071 35.897 58.1073 35.4972 57.6135 35.4972C57.1202 35.4972 56.72 35.897 56.72 36.3907V37.8912C56.72 38.385 57.1202 38.7847 57.6135 38.7847Z" fill="black"/>
<path d="M67.3006 38.7289C66.9293 38.404 66.3647 38.4422 66.0399 38.8136C65.8705 39.0077 65.6122 39.1189 65.332 39.1189C65.0519 39.1189 64.794 39.0077 64.6246 38.8136C64.2998 38.4422 63.7353 38.404 63.3634 38.7289C62.992 39.0537 62.9543 39.6182 63.2787 39.9901C63.7879 40.5723 64.5362 40.906 65.332 40.906C66.1279 40.906 66.8762 40.5723 67.3853 39.9901C67.7102 39.6182 67.6725 39.0537 67.3006 38.7289Z" fill="black"/>
<path d="M27.8931 67.4361C28.3865 67.4361 28.7867 67.0358 28.7867 66.5425V65.0416C28.7867 64.5483 28.3865 64.1481 27.8931 64.1481C27.3994 64.1481 26.9996 64.5483 26.9996 65.0416V66.5425C26.9996 67.0358 27.3994 67.4361 27.8931 67.4361Z" fill="black"/>
<path d="M43.3297 67.4361C43.823 67.4361 44.2233 67.0358 44.2233 66.5425V65.0416C44.2233 64.5483 43.823 64.1481 43.3297 64.1481C42.8364 64.1481 42.4362 64.5483 42.4362 65.0416V66.5425C42.4362 67.0358 42.8364 67.4361 43.3297 67.4361Z" fill="black"/>
<path d="M34.9038 67.4649C34.579 67.0931 34.0144 67.0554 33.6426 67.3802C33.2712 67.7051 33.2335 68.2696 33.5579 68.641C34.067 69.2232 34.8154 69.5573 35.6112 69.5573C36.407 69.5573 37.1558 69.2232 37.6645 68.641C37.9894 68.2696 37.9517 67.7051 37.5798 67.3802C37.2084 67.0554 36.6439 67.0935 36.3191 67.4649C36.1497 67.659 35.8914 67.7702 35.6112 67.7702C35.331 67.7702 35.0732 67.659 34.9038 67.4649Z" fill="black"/>
<path d="M26.9051 45.9197H47.3433C48.0103 45.9197 48.4487 45.1783 48.1257 44.5938L45.472 39.7918V31.0964C45.472 27.4203 42.4814 24.4297 38.8052 24.4297H26.9051C23.2295 24.4297 20.2384 27.4203 20.2384 31.0964V39.2529C20.2384 42.9286 23.2295 45.9197 26.9051 45.9197ZM22.0255 31.0964C22.0255 28.4055 24.2147 26.2168 26.9051 26.2168H38.8052C41.4957 26.2168 43.6849 28.4055 43.6849 31.0964V40.0218C43.6849 40.173 43.7231 40.3219 43.7966 40.4541L45.829 44.1326H26.9051C24.2147 44.1326 22.0255 41.9434 22.0255 39.2525V31.0964Z" fill="#E7404A"/>
<path d="M26.6231 31.9901H39.0872C39.581 31.9901 39.9808 31.5898 39.9808 31.0965C39.9808 30.6032 39.581 30.2029 39.0872 30.2029H26.6231C26.1298 30.2029 25.7295 30.6032 25.7295 31.0965C25.7295 31.5898 26.1298 31.9901 26.6231 31.9901Z" fill="black"/>
<path d="M25.9803 35.7871H29.4787C29.6173 35.7871 29.7295 35.3869 29.7295 34.8936C29.7295 34.3998 29.6173 34 29.4787 34H25.9803C25.8419 34 25.7295 34.3998 25.7295 34.8936C25.7295 35.3869 25.8419 35.7871 25.9803 35.7871Z" fill="black"/>
<path d="M31.2508 35.7871H34.7492C34.8878 35.7871 35 35.3869 35 34.8936C35 34.3998 34.8878 34 34.7492 34H31.2508C31.1123 34 31 34.3998 31 34.8936C31 35.3869 31.1123 35.7871 31.2508 35.7871Z" fill="black"/>
<path d="M36.2508 35.7871H39.7492C39.8878 35.7871 40 35.3869 40 34.8936C40 34.3998 39.8878 34 39.7492 34H36.2508C36.1123 34 36 34.3998 36 34.8936C36 35.3869 36.1123 35.7871 36.2508 35.7871Z" fill="black"/>
<path d="M26.6231 40.1465H34.3961C34.8899 40.1465 35.2896 39.7462 35.2896 39.2529C35.2896 38.7591 34.8899 38.3594 34.3961 38.3594H26.6231C26.1298 38.3594 25.7295 38.7591 25.7295 39.2529C25.7295 39.7462 26.1298 40.1465 26.6231 40.1465Z" fill="black"/>
<path d="M53.6 75.0853H74.0382C77.7143 75.0853 80.7049 72.0947 80.7049 68.4186V60.2621C80.7049 56.5864 77.7143 53.5953 74.0382 53.5953H62.1381C58.4624 53.5953 55.4713 56.5864 55.4713 60.2621V68.9575C55.4713 68.9575 52.819 73.758 52.8181 73.7599C52.4951 74.3444 52.934 75.0853 53.6 75.0853ZM57.1472 69.6202C57.2203 69.4876 57.2584 69.3391 57.2584 69.1879V60.2626C57.2584 57.5717 59.4476 55.3829 62.1381 55.3829H74.0382C76.7286 55.3829 78.9178 57.5717 78.9178 60.2626V68.419C78.9178 71.1095 76.7286 73.2987 74.0382 73.2987H55.1144L57.1472 69.6202Z" fill="#E7404A"/>
<path d="M61.856 61.1561H74.3202C74.814 61.1561 75.2137 60.7559 75.2137 60.2626C75.2137 59.7688 74.814 59.369 74.3202 59.369H61.856C61.3627 59.369 60.9625 59.7688 60.9625 60.2626C60.9625 60.7559 61.3627 61.1561 61.856 61.1561Z" fill="black"/>
<path d="M66.9625 64.3403C66.9625 63.847 66.7942 63.4468 66.5863 63.4468H61.3387C61.131 63.4468 60.9625 63.847 60.9625 64.3403C60.9625 64.8341 61.131 65.2339 61.3387 65.2339H66.5863C66.7942 65.2339 66.9625 64.8341 66.9625 64.3403Z" fill="black"/>
<path d="M74.9625 64.3403C74.9625 63.847 74.7942 63.4468 74.5863 63.4468H69.3387C69.131 63.4468 68.9625 63.847 68.9625 64.3403C68.9625 64.8341 69.131 65.2339 69.3387 65.2339H74.5863C74.7942 65.2339 74.9625 64.8341 74.9625 64.3403Z" fill="black"/>
<path d="M75.2137 68.4185C75.2137 67.9252 74.8139 67.525 74.3202 67.525H66.5472C66.0538 67.525 65.6536 67.9252 65.6536 68.4185C65.6536 68.9123 66.0538 69.3121 66.5472 69.3121H74.3202C74.8139 69.3121 75.2137 68.9123 75.2137 68.4185Z" fill="black"/>
<path d="M65.3326 51.3486C73.8088 51.3486 80.705 44.3235 80.705 35.689C80.705 34.0918 80.4671 32.5155 80.0013 31.0011C79.561 25.7687 78.3719 22.7525 76.1511 21.2292C74.055 19.7921 71.2966 19.8764 68.1021 19.9741C67.2151 20.0011 66.2982 20.0295 65.3326 20.0295C59.4183 20.0295 56.6483 19.4403 55.5235 19.0894C54.6155 18.8059 53.6437 19.2146 53.2123 20.0611C52.686 21.0938 51.919 22.8446 51.2553 25.3196C51.1274 25.7962 51.4103 26.2862 51.8869 26.4137C52.3634 26.5417 52.8535 26.2592 52.9815 25.7822C53.6051 23.4576 58.7203 22.5108 59.208 21.5539C59.2429 21.485 54.9166 20.7718 54.9911 20.7955C56.4836 21.2609 59.4895 22.5 65.3326 22.5C66.3252 22.5 70.2815 21.675 68.1566 21.7603C71.1565 21.6681 72.3856 21.3928 74 22.5C75.601 23.5979 77.7013 26.215 78.136 30.263C76.7915 30.2434 75.4428 30.1946 74.1071 30.0284C72.8105 29.8669 71.5423 29.5998 70.2815 29.2638C68.9273 28.9013 67.6479 28.5587 65.3326 28.5587C63.2718 28.5587 61.2096 28.7733 59.208 29.2712C57.4953 29.7017 55.832 30.3561 54.3158 31.2659C53.4339 31.7951 52.6031 32.4112 51.852 33.1149C51.8422 33.1242 51.831 33.134 51.8213 33.1433C51.9018 31.7867 52.0474 30.4575 52.2569 29.1707C52.3365 28.6839 52.0056 28.2246 51.5188 28.1455C51.032 28.0663 50.5726 28.3968 50.493 28.8836C50.1389 31.0611 49.9592 33.3504 49.9592 35.689C49.9592 44.3235 56.8559 51.3486 65.3326 51.3486ZM65.3326 49.5615C57.924 49.5615 51.8813 43.475 51.7487 35.9422C51.7482 35.9338 51.7682 35.9133 51.7729 35.9064C52.6031 34.6931 53.7908 33.7106 55.0302 32.9376C58.5257 30.7568 63.0852 29.9884 67.1527 30.4371C69.1553 30.6581 71.0667 31.3953 73.0609 31.6894C74.7917 31.9449 76.5462 32.0324 78.2942 32.0524C78.3454 32.0529 78.3947 32.0538 78.4464 32.0543C78.7596 33.2355 78.9183 34.4548 78.9183 35.689C78.9178 43.3382 72.8235 49.5615 65.3326 49.5615Z" fill="black"/>
<path d="M20.2491 72.8449C20.2491 75.6754 22.0264 79.2445 24.8397 79.5573H31.9798C33.1447 79.8458 34.3607 79.9999 35.6112 79.9999C36.8622 79.9999 38.0783 79.8458 39.2432 79.5573H46.2906C49.1039 79.2445 50.9739 76.118 50.9739 73.2875V64.8904C50.9739 64.5051 50.9874 64.1211 50.9729 63.7353C50.8221 59.6836 49.1593 55.8981 46.2906 53.076C43.4103 50.2417 39.6178 48.6808 35.6117 48.6808C30.7958 48.6808 26.3495 50.9151 23.4128 54.8105C23.1154 55.2047 23.1946 55.765 23.5883 56.0619C23.9825 56.3593 24.5428 56.2807 24.8397 55.8865C27.4361 52.443 31.3622 50.4679 35.6117 50.4679C39.1459 50.4679 42.4935 51.8464 45.0373 54.3497C47.3219 56.5976 48.7437 59.5365 49.1058 62.718C48.8866 62.6756 48.6688 62.6277 48.4519 62.5751C45.8364 61.9408 43.4247 60.633 41.2332 59.0986C41.2309 59.0972 41.2285 59.0954 41.2262 59.094C39.8435 58.1138 38.5334 57.0332 37.3113 55.8581C37.0228 55.5807 36.7389 55.2982 36.4629 55.0078C36.2898 54.8254 36.1381 54.6364 35.89 54.5554C35.7146 54.4977 35.5084 54.4917 35.3334 54.5554C35.0523 54.6574 34.8796 54.8821 34.68 55.0925C34.1332 55.6635 33.5593 56.2085 32.9683 56.733C32.0128 57.581 31.015 58.381 29.9697 59.1163C27.6265 60.7656 24.9696 62.1665 22.1176 62.718C22.2721 61.359 22.6217 60.0392 23.161 58.7817C23.3556 58.3279 23.1457 57.8025 22.6919 57.608C22.2382 57.4134 21.7132 57.6233 21.5187 58.0771C20.7498 59.8698 20.3226 61.7732 20.2495 63.7358C20.2351 64.1207 20.236 64.5055 20.2491 64.8904L20.2491 72.8449ZM26.8269 77.1861L25.3814 77.0256C23.4743 76.8133 22.0362 75.2063 22.0362 73.2875V71.7005C22.5086 72.6006 23.0712 73.4578 23.72 74.2644C24.5633 75.312 25.5401 76.2395 26.6129 77.0288C26.6571 77.0614 26.7995 77.167 26.8269 77.1861ZM49.1863 73.2875C49.1863 75.2063 47.7482 76.8133 45.841 77.0256L44.396 77.1861C44.423 77.167 44.5673 77.0605 44.6124 77.0265C45.6842 76.2381 46.6601 75.3106 47.5025 74.2644C48.1517 73.4578 48.7139 72.6001 49.1863 71.7005V73.2875ZM35.7988 56.8885C38.647 59.7129 37.3113 62.718 45.7522 63.6004C46.864 64.0262 48.0195 64.3571 49.1956 64.5502C49.1942 64.6461 49.1909 64.7415 49.1877 64.8369C49.1877 64.8402 49.1872 64.843 49.1868 64.8462C49.0453 68.8826 47.1744 72.5634 44.2531 75.036C44.2489 75.0397 44.2443 75.0434 44.2396 75.0472C41.8303 77.0684 38.7596 78.2132 35.6112 78.2132C32.4605 78.2132 29.3726 77.0698 26.9689 75.0355C24.0481 72.5629 22.1772 68.8821 22.0357 64.8462C22.0353 64.8434 22.0348 64.8406 22.0348 64.8374C22.0315 64.742 22.0287 64.6461 22.0273 64.5502C22.1093 64.5367 22.1907 64.52 22.2726 64.5051C23.1229 64.351 24.3632 64.8197 25.1841 64.5502C27.3808 63.8293 29.0259 61.964 30.9173 60.6488C30.9191 60.6474 30.9205 60.6465 30.9224 60.6456C32.6025 59.477 32.5601 62.4534 34 61C32.6157 61 35.7327 56.8228 35.7988 56.8885Z" fill="black"/>
</g>
<defs>
<clipPath id="clip0">
<rect width="61" height="61" fill="white" transform="translate(20 19)"/>
</clipPath>
</defs>
</svg>
