<svg width="550" height="160" viewBox="0 0 550 160" fill="none" xmlns="http://www.w3.org/2000/svg">
<line x1="160" y1="84.5" x2="550" y2="84.5" stroke="#233C54"/>
<mask id="path-2-inside-1" fill="white">
<path d="M276.955 114.011C271.019 124.287 262.17 132.572 251.526 137.818C240.881 143.064 228.92 145.036 217.155 143.485C205.39 141.933 194.35 136.928 185.429 129.102C176.509 121.275 170.11 110.98 167.041 99.5165L169.903 98.7504C172.82 109.648 178.903 119.435 187.383 126.875C195.863 134.315 206.359 139.073 217.543 140.548C228.727 142.023 240.097 140.148 250.216 135.161C260.335 130.174 268.747 122.298 274.39 112.53L276.955 114.011Z"/>
</mask>
<path d="M276.955 114.011C271.019 124.287 262.17 132.572 251.526 137.818C240.881 143.064 228.92 145.036 217.155 143.485C205.39 141.933 194.35 136.928 185.429 129.102C176.509 121.275 170.11 110.98 167.041 99.5165L169.903 98.7504C172.82 109.648 178.903 119.435 187.383 126.875C195.863 134.315 206.359 139.073 217.543 140.548C228.727 142.023 240.097 140.148 250.216 135.161C260.335 130.174 268.747 122.298 274.39 112.53L276.955 114.011Z" fill="white" stroke="#233C54" stroke-width="4" mask="url(#path-2-inside-1)"/>
<circle cx="225" cy="85" r="46" fill="white" stroke="#E7404A" stroke-width="2"/>
<mask id="path-4-inside-2" fill="white">
<path d="M278.866 70.1541C281.94 58.1151 288.676 47.3275 298.144 39.2809C307.612 31.2343 319.345 26.3256 331.722 25.2326C344.099 24.1396 356.511 26.9162 367.242 33.179C377.974 39.4418 386.496 48.8819 391.633 60.1958L389.194 61.303C384.287 50.494 376.145 41.4753 365.892 35.492C355.64 29.5087 343.782 26.856 331.958 27.9003C320.133 28.9445 308.924 33.6341 299.879 41.3216C290.833 49.009 284.398 59.3151 281.46 70.8167L278.866 70.1541Z"/>
</mask>
<path d="M278.866 70.1541C281.94 58.1151 288.676 47.3275 298.144 39.2809C307.612 31.2343 319.345 26.3256 331.722 25.2326C344.099 24.1396 356.511 26.9162 367.242 33.179C377.974 39.4418 386.496 48.8819 391.633 60.1958L389.194 61.303C384.287 50.494 376.145 41.4753 365.892 35.492C355.64 29.5087 343.782 26.856 331.958 27.9003C320.133 28.9445 308.924 33.6341 299.879 41.3216C290.833 49.009 284.398 59.3151 281.46 70.8167L278.866 70.1541Z" fill="white" stroke="#233C54" stroke-width="4" mask="url(#path-4-inside-2)"/>
<circle cx="337" cy="85" r="46" fill="white" stroke="#E7404A" stroke-width="2"/>
<mask id="path-6-inside-3" fill="white">
<path d="M153.002 34.0027C142.232 19.6421 127.193 9.05951 110.039 3.77173C92.8856 -1.51606 74.4982 -1.2376 57.5125 4.5672C40.5267 10.372 25.8147 21.4051 15.4849 36.0853C5.15512 50.7654 -0.262066 68.3389 0.0097456 86.2871L2.49628 86.2495C2.23242 68.8264 7.49112 51.767 17.5187 37.5164C27.5462 23.2657 41.8279 12.5554 58.3166 6.9204C74.8054 1.28543 92.6549 1.01511 109.307 6.14819C125.959 11.2813 140.558 21.5542 151.013 35.4947L153.002 34.0027Z"/>
</mask>
<path d="M153.002 34.0027C142.232 19.6421 127.193 9.05951 110.039 3.77173C92.8856 -1.51606 74.4982 -1.2376 57.5125 4.5672C40.5267 10.372 25.8147 21.4051 15.4849 36.0853C5.15512 50.7654 -0.262066 68.3389 0.0097456 86.2871L2.49628 86.2495C2.23242 68.8264 7.49112 51.767 17.5187 37.5164C27.5462 23.2657 41.8279 12.5554 58.3166 6.9204C74.8054 1.28543 92.6549 1.01511 109.307 6.14819C125.959 11.2813 140.558 21.5542 151.013 35.4947L153.002 34.0027Z" stroke="#233C54" stroke-width="6" mask="url(#path-6-inside-3)"/>
<circle cx="84.5" cy="84.5" r="75.5" fill="#E7404A"/>
<path d="M38.7969 81V69.625H42.2969C43.2969 69.625 44.1901 69.8516 44.9766 70.3047C45.7682 70.7526 46.3854 71.3932 46.8281 72.2266C47.2708 73.0547 47.4922 73.9974 47.4922 75.0547V75.5781C47.4922 76.6354 47.2734 77.5755 46.8359 78.3984C46.4036 79.2214 45.7917 79.8594 45 80.3125C44.2083 80.7656 43.3151 80.9948 42.3203 81H38.7969ZM41.1406 71.5234V79.1172H42.2734C43.1901 79.1172 43.8906 78.8177 44.375 78.2188C44.8594 77.6198 45.1068 76.763 45.1172 75.6484V75.0469C45.1172 73.8906 44.8776 73.0156 44.3984 72.4219C43.9193 71.8229 43.2188 71.5234 42.2969 71.5234H41.1406ZM56.0469 76.0703H51.5469V79.1172H56.8281V81H49.2031V69.625H56.8125V71.5234H51.5469V74.2344H56.0469V76.0703ZM64.1016 78.0156C64.1016 77.5729 63.9453 77.2344 63.6328 77C63.3203 76.7604 62.7578 76.5104 61.9453 76.25C61.1328 75.9844 60.4896 75.724 60.0156 75.4688C58.724 74.7708 58.0781 73.8307 58.0781 72.6484C58.0781 72.0339 58.25 71.487 58.5938 71.0078C58.9427 70.5234 59.4401 70.1458 60.0859 69.875C60.737 69.6042 61.4661 69.4688 62.2734 69.4688C63.0859 69.4688 63.8099 69.6172 64.4453 69.9141C65.0807 70.2057 65.5729 70.6198 65.9219 71.1562C66.276 71.6927 66.4531 72.3021 66.4531 72.9844H64.1094C64.1094 72.4635 63.9453 72.0599 63.6172 71.7734C63.2891 71.4818 62.8281 71.3359 62.2344 71.3359C61.6615 71.3359 61.2161 71.4583 60.8984 71.7031C60.5807 71.9427 60.4219 72.2604 60.4219 72.6562C60.4219 73.026 60.6068 73.3359 60.9766 73.5859C61.3516 73.8359 61.901 74.0703 62.625 74.2891C63.9583 74.6901 64.9297 75.1875 65.5391 75.7812C66.1484 76.375 66.4531 77.1146 66.4531 78C66.4531 78.9844 66.0807 79.7578 65.3359 80.3203C64.5911 80.8776 63.5885 81.1562 62.3281 81.1562C61.4531 81.1562 60.6562 80.9974 59.9375 80.6797C59.2188 80.3568 58.6693 79.9167 58.2891 79.3594C57.9141 78.8021 57.7266 78.1562 57.7266 77.4219H60.0781C60.0781 78.6771 60.8281 79.3047 62.3281 79.3047C62.8854 79.3047 63.3203 79.1927 63.6328 78.9688C63.9453 78.7396 64.1016 78.4219 64.1016 78.0156ZM76.9766 77.2109C76.888 78.4349 76.4349 79.3984 75.6172 80.1016C74.8047 80.8047 73.7318 81.1562 72.3984 81.1562C70.9401 81.1562 69.7917 80.6667 68.9531 79.6875C68.1198 78.7031 67.7031 77.3542 67.7031 75.6406V74.9453C67.7031 73.8516 67.8958 72.888 68.2812 72.0547C68.6667 71.2214 69.2161 70.5833 69.9297 70.1406C70.6484 69.6927 71.4818 69.4688 72.4297 69.4688C73.7422 69.4688 74.7995 69.8203 75.6016 70.5234C76.4036 71.2266 76.8672 72.2135 76.9922 73.4844H74.6484C74.5911 72.75 74.3854 72.2188 74.0312 71.8906C73.6823 71.5573 73.1484 71.3906 72.4297 71.3906C71.6484 71.3906 71.0625 71.6719 70.6719 72.2344C70.2865 72.7917 70.0885 73.6589 70.0781 74.8359V75.6953C70.0781 76.9245 70.263 77.8229 70.6328 78.3906C71.0078 78.9583 71.5964 79.2422 72.3984 79.2422C73.1224 79.2422 73.6615 79.0781 74.0156 78.75C74.375 78.4167 74.5807 77.9036 74.6328 77.2109H76.9766ZM87.125 69.625V77.1172C87.125 78.362 86.7344 79.3464 85.9531 80.0703C85.1771 80.7943 84.1146 81.1562 82.7656 81.1562C81.4375 81.1562 80.3828 80.8047 79.6016 80.1016C78.8203 79.3984 78.4219 78.4323 78.4062 77.2031V69.625H80.75V77.1328C80.75 77.8776 80.9271 78.4219 81.2812 78.7656C81.6406 79.1042 82.1354 79.2734 82.7656 79.2734C84.0833 79.2734 84.7526 78.5807 84.7734 77.1953V69.625H87.125ZM89.0469 81V69.625H93.0312C94.4115 69.625 95.4583 69.8906 96.1719 70.4219C96.8854 70.9479 97.2422 71.7214 97.2422 72.7422C97.2422 73.2995 97.099 73.7917 96.8125 74.2188C96.526 74.6406 96.1276 74.9505 95.6172 75.1484C96.2005 75.2943 96.6589 75.5885 96.9922 76.0312C97.3307 76.474 97.5 77.0156 97.5 77.6562C97.5 78.75 97.151 79.5781 96.4531 80.1406C95.7552 80.7031 94.7604 80.9896 93.4688 81H89.0469ZM91.3906 76.0469V79.1172H93.3984C93.9505 79.1172 94.3802 78.987 94.6875 78.7266C95 78.4609 95.1562 78.0964 95.1562 77.6328C95.1562 76.5911 94.6172 76.0625 93.5391 76.0469H91.3906ZM91.3906 74.3906H93.125C94.3073 74.3698 94.8984 73.8984 94.8984 72.9766C94.8984 72.4609 94.7474 72.0911 94.4453 71.8672C94.1484 71.638 93.6771 71.5234 93.0312 71.5234H91.3906V74.3906ZM103.477 76.8359H101.609V81H99.2656V69.625H103.492C104.836 69.625 105.872 69.9245 106.602 70.5234C107.331 71.1224 107.695 71.9688 107.695 73.0625C107.695 73.8385 107.526 74.487 107.188 75.0078C106.854 75.5234 106.346 75.9349 105.664 76.2422L108.125 80.8906V81H105.609L103.477 76.8359ZM101.609 74.9375H103.5C104.089 74.9375 104.544 74.7891 104.867 74.4922C105.19 74.1901 105.352 73.776 105.352 73.25C105.352 72.7135 105.198 72.2917 104.891 71.9844C104.589 71.6771 104.122 71.5234 103.492 71.5234H101.609V74.9375ZM115.906 78.6562H111.797L111.016 81H108.523L112.758 69.625H114.93L119.188 81H116.695L115.906 78.6562ZM112.43 76.7578H115.273L113.844 72.5L112.43 76.7578ZM131.078 76.0703H126.578V79.1172H131.859V81H124.234V69.625H131.844V71.5234H126.578V74.2344H131.078V76.0703ZM60.1172 88.625L63.0391 96.875L65.9453 88.625H69.0234V100H66.6719V96.8906L66.9062 91.5234L63.8359 100H62.2266L59.1641 91.5312L59.3984 96.8906V100H57.0547V88.625H60.1172ZM77.6328 97.6562H73.5234L72.7422 100H70.25L74.4844 88.625H76.6562L80.9141 100H78.4219L77.6328 97.6562ZM74.1562 95.7578H77L75.5703 91.5L74.1562 95.7578ZM84.3203 95.9922V100H81.9766V88.625H86.4141C87.2682 88.625 88.0182 88.7812 88.6641 89.0938C89.3151 89.4062 89.8151 89.8516 90.1641 90.4297C90.513 91.0026 90.6875 91.6562 90.6875 92.3906C90.6875 93.5052 90.3047 94.3854 89.5391 95.0312C88.7786 95.6719 87.724 95.9922 86.375 95.9922H84.3203ZM84.3203 94.0938H86.4141C87.0339 94.0938 87.5052 93.9479 87.8281 93.6562C88.1562 93.3646 88.3203 92.9479 88.3203 92.4062C88.3203 91.849 88.1562 91.3984 87.8281 91.0547C87.5 90.7109 87.0469 90.5339 86.4688 90.5234H84.3203V94.0938ZM99.1484 95.0703H94.6484V98.1172H99.9297V100H92.3047V88.625H99.9141V90.5234H94.6484V93.2344H99.1484V95.0703ZM103.797 100H101.453V88.625H103.797V100ZM112.82 95.0703H108.32V98.1172H113.602V100H105.977V88.625H113.586V90.5234H108.32V93.2344H112.82V95.0703Z" fill="white"/>
<path d="M189.187 82V72.0469H191.996C192.862 72.0469 193.628 72.2383 194.293 72.6211C194.958 73.0039 195.471 73.5485 195.831 74.2549C196.196 74.9613 196.38 75.7725 196.385 76.6885V77.3242C196.385 78.263 196.202 79.0856 195.838 79.792C195.478 80.4984 194.961 81.0407 194.286 81.4189C193.616 81.7972 192.835 81.9909 191.941 82H189.187ZM190.499 73.127V80.9268H191.88C192.892 80.9268 193.678 80.6123 194.238 79.9834C194.803 79.3545 195.086 78.459 195.086 77.2969V76.7158C195.086 75.5856 194.819 74.7083 194.286 74.084C193.757 73.4551 193.006 73.1361 192.03 73.127H190.499ZM204 77.3994H199.687V80.9268H204.697V82H198.374V72.0469H204.629V73.127H199.687V76.3262H204V77.3994ZM209.264 77.5635C208.138 77.2399 207.318 76.8434 206.803 76.374C206.292 75.9001 206.037 75.3167 206.037 74.624C206.037 73.8402 206.349 73.193 206.974 72.6826C207.603 72.1676 208.418 71.9102 209.421 71.9102C210.104 71.9102 210.713 72.0423 211.246 72.3066C211.784 72.571 212.199 72.9355 212.49 73.4004C212.786 73.8652 212.935 74.3734 212.935 74.9248H211.615C211.615 74.3232 211.424 73.8516 211.041 73.5098C210.658 73.1634 210.118 72.9902 209.421 72.9902C208.774 72.9902 208.268 73.1338 207.903 73.4209C207.543 73.7035 207.363 74.0977 207.363 74.6035C207.363 75.0091 207.534 75.3532 207.876 75.6357C208.222 75.9137 208.808 76.1689 209.633 76.4014C210.462 76.6338 211.109 76.8913 211.574 77.1738C212.044 77.4518 212.39 77.7777 212.613 78.1514C212.841 78.5251 212.955 78.9648 212.955 79.4707C212.955 80.2773 212.641 80.9245 212.012 81.4121C211.383 81.8952 210.542 82.1367 209.489 82.1367C208.806 82.1367 208.168 82.0068 207.575 81.7471C206.983 81.4827 206.525 81.1227 206.201 80.667C205.882 80.2113 205.723 79.694 205.723 79.1152H207.042C207.042 79.7168 207.263 80.193 207.705 80.5439C208.152 80.8903 208.746 81.0635 209.489 81.0635C210.182 81.0635 210.713 80.9222 211.082 80.6396C211.451 80.3571 211.636 79.972 211.636 79.4844C211.636 78.9967 211.465 78.6208 211.123 78.3564C210.781 78.0876 210.161 77.8232 209.264 77.5635ZM220.27 77.3994H215.956V80.9268H220.967V82H214.644V72.0469H220.898V73.127H215.956V76.3262H220.27V77.3994ZM230.25 82H228.931L223.92 74.3301V82H222.601V72.0469H223.92L228.944 79.751V72.0469H230.25V82ZM240.23 82H238.911V77.3994H233.894V82H232.581V72.0469H233.894V76.3262H238.911V72.0469H240.23V82ZM248.188 77.3994H243.874V80.9268H248.885V82H242.562V72.0469H248.816V73.127H243.874V76.3262H248.188V77.3994ZM259.487 79.4023H255.317L254.381 82H253.027L256.828 72.0469H257.977L261.784 82H260.438L259.487 79.4023ZM255.714 78.3223H259.098L257.402 73.667L255.714 78.3223ZM198.101 93.5635C196.975 93.2399 196.155 92.8434 195.64 92.374C195.129 91.9001 194.874 91.3167 194.874 90.624C194.874 89.8402 195.186 89.193 195.811 88.6826C196.439 88.1676 197.255 87.9102 198.258 87.9102C198.941 87.9102 199.55 88.0423 200.083 88.3066C200.621 88.571 201.035 88.9355 201.327 89.4004C201.623 89.8652 201.771 90.3734 201.771 90.9248H200.452C200.452 90.3232 200.261 89.8516 199.878 89.5098C199.495 89.1634 198.955 88.9902 198.258 88.9902C197.611 88.9902 197.105 89.1338 196.74 89.4209C196.38 89.7035 196.2 90.0977 196.2 90.6035C196.2 91.0091 196.371 91.3532 196.713 91.6357C197.059 91.9137 197.645 92.1689 198.47 92.4014C199.299 92.6338 199.946 92.8913 200.411 93.1738C200.881 93.4518 201.227 93.7777 201.45 94.1514C201.678 94.5251 201.792 94.9648 201.792 95.4707C201.792 96.2773 201.478 96.9245 200.849 97.4121C200.22 97.8952 199.379 98.1367 198.326 98.1367C197.643 98.1367 197.005 98.0068 196.412 97.7471C195.82 97.4827 195.362 97.1227 195.038 96.667C194.719 96.2113 194.56 95.694 194.56 95.1152H195.879C195.879 95.7168 196.1 96.193 196.542 96.5439C196.989 96.8903 197.583 97.0635 198.326 97.0635C199.019 97.0635 199.55 96.9222 199.919 96.6396C200.288 96.3571 200.473 95.972 200.473 95.4844C200.473 94.9967 200.302 94.6208 199.96 94.3564C199.618 94.0876 198.998 93.8232 198.101 93.5635ZM211.137 93.3447C211.137 94.32 210.973 95.1722 210.645 95.9014C210.316 96.626 209.852 97.1797 209.25 97.5625C208.648 97.9453 207.947 98.1367 207.145 98.1367C206.361 98.1367 205.666 97.9453 205.06 97.5625C204.453 97.1751 203.982 96.626 203.645 95.915C203.312 95.1995 203.141 94.3724 203.132 93.4336V92.7158C203.132 91.7588 203.298 90.9134 203.631 90.1797C203.964 89.446 204.433 88.8854 205.039 88.498C205.65 88.1061 206.347 87.9102 207.131 87.9102C207.928 87.9102 208.63 88.1038 209.236 88.4912C209.847 88.874 210.316 89.4323 210.645 90.166C210.973 90.8952 211.137 91.7451 211.137 92.7158V93.3447ZM209.831 92.7021C209.831 91.5218 209.594 90.6172 209.12 89.9883C208.646 89.3548 207.983 89.0381 207.131 89.0381C206.301 89.0381 205.647 89.3548 205.169 89.9883C204.695 90.6172 204.451 91.4922 204.438 92.6133V93.3447C204.438 94.4886 204.677 95.3887 205.155 96.0449C205.638 96.6966 206.301 97.0225 207.145 97.0225C207.992 97.0225 208.648 96.7148 209.113 96.0996C209.578 95.4798 209.817 94.5934 209.831 93.4404V92.7021ZM214.425 96.9268H219.142V98H213.105V88.0469H214.425V96.9268ZM227.276 88.0469V94.8145C227.272 95.7533 226.976 96.5212 226.388 97.1182C225.804 97.7152 225.011 98.0501 224.009 98.123L223.66 98.1367C222.571 98.1367 221.703 97.8428 221.056 97.2549C220.409 96.667 220.08 95.8581 220.071 94.8281V88.0469H221.37V94.7871C221.37 95.5072 221.568 96.0677 221.965 96.4688C222.361 96.8652 222.926 97.0635 223.66 97.0635C224.403 97.0635 224.97 96.8652 225.362 96.4688C225.759 96.0723 225.957 95.514 225.957 94.7939V88.0469H227.276ZM236.669 94.8418C236.546 95.8945 236.156 96.708 235.5 97.2822C234.848 97.8519 233.98 98.1367 232.896 98.1367C231.72 98.1367 230.776 97.7152 230.065 96.8721C229.359 96.029 229.006 94.901 229.006 93.4883V92.5312C229.006 91.6061 229.17 90.7926 229.498 90.0908C229.831 89.389 230.3 88.8512 230.906 88.4775C231.512 88.0993 232.214 87.9102 233.012 87.9102C234.069 87.9102 234.917 88.2064 235.555 88.7988C236.193 89.3867 236.564 90.2025 236.669 91.2461H235.35C235.236 90.4531 234.987 89.8789 234.604 89.5234C234.226 89.168 233.695 88.9902 233.012 88.9902C232.173 88.9902 231.515 89.3001 231.036 89.9199C230.562 90.5397 230.325 91.4215 230.325 92.5654V93.5293C230.325 94.6094 230.551 95.4684 231.002 96.1064C231.453 96.7445 232.084 97.0635 232.896 97.0635C233.625 97.0635 234.183 96.8994 234.57 96.5713C234.962 96.2386 235.222 95.6621 235.35 94.8418H236.669ZM233.326 98.0615L233.244 98.417C233.941 98.54 234.29 98.9342 234.29 99.5996C234.29 100.042 234.108 100.39 233.743 100.646C233.379 100.905 232.87 101.035 232.219 101.035L232.171 100.304C232.531 100.304 232.809 100.244 233.005 100.126C233.205 100.007 233.306 99.8411 233.306 99.627C233.306 99.4264 233.233 99.2783 233.087 99.1826C232.941 99.0869 232.645 99.0186 232.198 98.9775L232.417 98.0615H233.326ZM243.963 95.4023H239.793L238.856 98H237.503L241.304 88.0469H242.452L246.26 98H244.913L243.963 95.4023ZM240.189 94.3223H243.573L241.878 89.667L240.189 94.3223ZM244.332 85.5996C244.332 86.0918 244.191 86.4906 243.908 86.7959C243.63 87.1012 243.282 87.2539 242.862 87.2539C242.675 87.2539 242.514 87.2311 242.377 87.1855C242.24 87.14 242.06 87.0465 241.837 86.9053C241.618 86.764 241.459 86.6797 241.358 86.6523C241.263 86.6204 241.151 86.6045 241.023 86.6045C240.837 86.6045 240.677 86.6774 240.545 86.8232C240.413 86.9645 240.347 87.1468 240.347 87.3701L239.499 87.3223C239.499 86.8346 239.636 86.4313 239.909 86.1123C240.187 85.7933 240.538 85.6338 240.962 85.6338C241.121 85.6338 241.265 85.6566 241.393 85.7021C241.52 85.7477 241.693 85.8366 241.912 85.9688C242.131 86.1009 242.297 86.1875 242.411 86.2285C242.53 86.2695 242.66 86.29 242.801 86.29C242.997 86.29 243.159 86.2126 243.286 86.0576C243.418 85.9027 243.484 85.7227 243.484 85.5176L244.332 85.5996ZM255.174 93.3447C255.174 94.32 255.01 95.1722 254.682 95.9014C254.354 96.626 253.889 97.1797 253.287 97.5625C252.686 97.9453 251.984 98.1367 251.182 98.1367C250.398 98.1367 249.703 97.9453 249.097 97.5625C248.491 97.1751 248.019 96.626 247.682 95.915C247.349 95.1995 247.178 94.3724 247.169 93.4336V92.7158C247.169 91.7588 247.335 90.9134 247.668 90.1797C248.001 89.446 248.47 88.8854 249.076 88.498C249.687 88.1061 250.384 87.9102 251.168 87.9102C251.965 87.9102 252.667 88.1038 253.273 88.4912C253.884 88.874 254.354 89.4323 254.682 90.166C255.01 90.8952 255.174 91.7451 255.174 92.7158V93.3447ZM253.868 92.7021C253.868 91.5218 253.631 90.6172 253.157 89.9883C252.683 89.3548 252.02 89.0381 251.168 89.0381C250.339 89.0381 249.685 89.3548 249.206 89.9883C248.732 90.6172 248.488 91.4922 248.475 92.6133V93.3447C248.475 94.4886 248.714 95.3887 249.192 96.0449C249.675 96.6966 250.339 97.0225 251.182 97.0225C252.029 97.0225 252.686 96.7148 253.15 96.0996C253.615 95.4798 253.854 94.5934 253.868 93.4404V92.7021Z" fill="#233C54"/>
<path d="M295.308 90V80.0469H298.117C298.983 80.0469 299.749 80.2383 300.414 80.6211C301.079 81.0039 301.592 81.5485 301.952 82.2549C302.317 82.9613 302.501 83.7725 302.506 84.6885V85.3242C302.506 86.263 302.324 87.0856 301.959 87.792C301.599 88.4984 301.082 89.0407 300.407 89.4189C299.737 89.7972 298.956 89.9909 298.062 90H295.308ZM296.62 81.127V88.9268H298.001C299.013 88.9268 299.799 88.6123 300.359 87.9834C300.924 87.3545 301.207 86.459 301.207 85.2969V84.7158C301.207 83.5856 300.94 82.7083 300.407 82.084C299.879 81.4551 299.127 81.1361 298.151 81.127H296.62ZM310.121 85.3994H305.808V88.9268H310.818V90H304.495V80.0469H310.75V81.127H305.808V84.3262H310.121V85.3994ZM315.385 85.5635C314.259 85.2399 313.439 84.8434 312.924 84.374C312.413 83.9001 312.158 83.3167 312.158 82.624C312.158 81.8402 312.47 81.193 313.095 80.6826C313.724 80.1676 314.539 79.9102 315.542 79.9102C316.226 79.9102 316.834 80.0423 317.367 80.3066C317.905 80.571 318.32 80.9355 318.611 81.4004C318.908 81.8652 319.056 82.3734 319.056 82.9248H317.736C317.736 82.3232 317.545 81.8516 317.162 81.5098C316.779 81.1634 316.239 80.9902 315.542 80.9902C314.895 80.9902 314.389 81.1338 314.024 81.4209C313.664 81.7035 313.484 82.0977 313.484 82.6035C313.484 83.0091 313.655 83.3532 313.997 83.6357C314.343 83.9137 314.929 84.1689 315.754 84.4014C316.583 84.6338 317.23 84.8913 317.695 85.1738C318.165 85.4518 318.511 85.7777 318.734 86.1514C318.962 86.5251 319.076 86.9648 319.076 87.4707C319.076 88.2773 318.762 88.9245 318.133 89.4121C317.504 89.8952 316.663 90.1367 315.61 90.1367C314.927 90.1367 314.289 90.0068 313.696 89.7471C313.104 89.4827 312.646 89.1227 312.322 88.667C312.003 88.2113 311.844 87.694 311.844 87.1152H313.163C313.163 87.7168 313.384 88.193 313.826 88.5439C314.273 88.8903 314.868 89.0635 315.61 89.0635C316.303 89.0635 316.834 88.9222 317.203 88.6396C317.572 88.3571 317.757 87.972 317.757 87.4844C317.757 86.9967 317.586 86.6208 317.244 86.3564C316.902 86.0876 316.283 85.8232 315.385 85.5635ZM326.391 85.3994H322.077V88.9268H327.088V90H320.765V80.0469H327.02V81.127H322.077V84.3262H326.391V85.3994ZM336.371 90H335.052L330.041 82.3301V90H328.722V80.0469H330.041L335.065 87.751V80.0469H336.371V90ZM341.997 88.2568L344.841 80.0469H346.276L342.585 90H341.423L337.738 80.0469H339.167L341.997 88.2568ZM355.177 85.3447C355.177 86.32 355.013 87.1722 354.685 87.9014C354.356 88.626 353.892 89.1797 353.29 89.5625C352.688 89.9453 351.987 90.1367 351.185 90.1367C350.401 90.1367 349.706 89.9453 349.1 89.5625C348.493 89.1751 348.022 88.626 347.685 87.915C347.352 87.1995 347.181 86.3724 347.172 85.4336V84.7158C347.172 83.7588 347.338 82.9134 347.671 82.1797C348.004 81.446 348.473 80.8854 349.079 80.498C349.69 80.1061 350.387 79.9102 351.171 79.9102C351.968 79.9102 352.67 80.1038 353.276 80.4912C353.887 80.874 354.356 81.4323 354.685 82.166C355.013 82.8952 355.177 83.7451 355.177 84.7158V85.3447ZM353.871 84.7021C353.871 83.5218 353.634 82.6172 353.16 81.9883C352.686 81.3548 352.023 81.0381 351.171 81.0381C350.341 81.0381 349.688 81.3548 349.209 81.9883C348.735 82.6172 348.491 83.4922 348.478 84.6133V85.3447C348.478 86.4886 348.717 87.3887 349.195 88.0449C349.678 88.6966 350.341 89.0225 351.185 89.0225C352.032 89.0225 352.688 88.7148 353.153 88.0996C353.618 87.4798 353.857 86.5934 353.871 85.4404V84.7021ZM358.465 88.9268H363.182V90H357.146V80.0469H358.465V88.9268ZM366.771 88.2568L369.614 80.0469H371.05L367.358 90H366.196L362.512 80.0469H363.94L366.771 88.2568ZM377.366 87.4023H373.196L372.26 90H370.906L374.707 80.0469H375.855L379.663 90H378.316L377.366 87.4023ZM373.593 86.3223H376.977L375.281 81.667L373.593 86.3223Z" fill="#233C54"/>
<path d="M414.99 56.3994H410.677V59.9268H415.688V61H409.364V51.0469H415.619V52.127H410.677V55.3262H414.99V56.3994ZM424.971 61H423.651L418.641 53.3301V61H417.321V51.0469H418.641L423.665 58.751V51.0469H424.971V61ZM433.974 52.127H430.774V61H429.469V52.127H426.276V51.0469H433.974V52.127ZM439.101 56.9736H436.763V61H435.443V51.0469H438.738C439.859 51.0469 440.721 51.3021 441.322 51.8125C441.928 52.3229 442.231 53.0658 442.231 54.041C442.231 54.6608 442.063 55.2008 441.726 55.6611C441.393 56.1214 440.928 56.4655 440.331 56.6934L442.669 60.918V61H441.261L439.101 56.9736ZM436.763 55.9004H438.779C439.431 55.9004 439.948 55.7318 440.331 55.3945C440.718 55.0573 440.912 54.6061 440.912 54.041C440.912 53.4258 440.728 52.9541 440.358 52.626C439.994 52.2979 439.465 52.1315 438.772 52.127H436.763V55.9004ZM449.703 56.3994H445.39V59.9268H450.4V61H444.077V51.0469H450.332V52.127H445.39V55.3262H449.703V56.3994ZM459.383 59.6943C459.046 60.1774 458.574 60.5397 457.968 60.7812C457.366 61.0182 456.664 61.1367 455.862 61.1367C455.051 61.1367 454.331 60.9476 453.702 60.5693C453.073 60.1865 452.586 59.6442 452.239 58.9424C451.897 58.2406 451.722 57.4271 451.713 56.502V55.6338C451.713 54.1344 452.062 52.9723 452.759 52.1475C453.461 51.3226 454.445 50.9102 455.712 50.9102C456.751 50.9102 457.587 51.1768 458.221 51.71C458.854 52.2386 459.242 52.9906 459.383 53.9658H458.07C457.824 52.6488 457.04 51.9902 455.719 51.9902C454.839 51.9902 454.172 52.3001 453.716 52.9199C453.265 53.5352 453.037 54.4284 453.032 55.5996V56.4131C453.032 57.5296 453.287 58.4183 453.798 59.0791C454.308 59.7354 454.999 60.0635 455.869 60.0635C456.361 60.0635 456.792 60.0088 457.161 59.8994C457.53 59.79 457.836 59.6055 458.077 59.3457V57.1104H455.773V56.0439H459.383V59.6943ZM468.584 51.0469V57.8145C468.579 58.7533 468.283 59.5212 467.695 60.1182C467.112 60.7152 466.319 61.0501 465.316 61.123L464.968 61.1367C463.879 61.1367 463.01 60.8428 462.363 60.2549C461.716 59.667 461.388 58.8581 461.379 57.8281V51.0469H462.678V57.7871C462.678 58.5072 462.876 59.0677 463.272 59.4688C463.669 59.8652 464.234 60.0635 464.968 60.0635C465.711 60.0635 466.278 59.8652 466.67 59.4688C467.066 59.0723 467.265 58.514 467.265 57.7939V51.0469H468.584ZM476.281 56.3994H471.968V59.9268H476.979V61H470.655V51.0469H476.91V52.127H471.968V55.3262H476.281V56.3994ZM485.38 59.2568L488.224 51.0469H489.659L485.968 61H484.806L481.121 51.0469H482.55L485.38 59.2568ZM495.976 58.4023H491.806L490.869 61H489.516L493.316 51.0469H494.465L498.272 61H496.926L495.976 58.4023ZM492.202 57.3223H495.586L493.891 52.667L492.202 57.3223ZM500.932 59.9268H505.648V61H499.612V51.0469H500.932V59.9268ZM514.351 56.3447C514.351 57.32 514.187 58.1722 513.858 58.9014C513.53 59.626 513.065 60.1797 512.464 60.5625C511.862 60.9453 511.16 61.1367 510.358 61.1367C509.575 61.1367 508.88 60.9453 508.273 60.5625C507.667 60.1751 507.196 59.626 506.858 58.915C506.526 58.1995 506.355 57.3724 506.346 56.4336V55.7158C506.346 54.7588 506.512 53.9134 506.845 53.1797C507.177 52.446 507.647 51.8854 508.253 51.498C508.864 51.1061 509.561 50.9102 510.345 50.9102C511.142 50.9102 511.844 51.1038 512.45 51.4912C513.061 51.874 513.53 52.4323 513.858 53.166C514.187 53.8952 514.351 54.7451 514.351 55.7158V56.3447ZM513.045 55.7021C513.045 54.5218 512.808 53.6172 512.334 52.9883C511.86 52.3548 511.197 52.0381 510.345 52.0381C509.515 52.0381 508.861 52.3548 508.383 52.9883C507.909 53.6172 507.665 54.4922 507.651 55.6133V56.3447C507.651 57.4886 507.891 58.3887 508.369 59.0449C508.852 59.6966 509.515 60.0225 510.358 60.0225C511.206 60.0225 511.862 59.7148 512.327 59.0996C512.792 58.4798 513.031 57.5934 513.045 56.4404V55.7021ZM519.97 56.9736H517.632V61H516.312V51.0469H519.607C520.729 51.0469 521.59 51.3021 522.191 51.8125C522.798 52.3229 523.101 53.0658 523.101 54.041C523.101 54.6608 522.932 55.2008 522.595 55.6611C522.262 56.1214 521.797 56.4655 521.2 56.6934L523.538 60.918V61H522.13L519.97 56.9736ZM517.632 55.9004H519.648C520.3 55.9004 520.817 55.7318 521.2 55.3945C521.588 55.0573 521.781 54.6061 521.781 54.041C521.781 53.4258 521.597 52.9541 521.228 52.626C520.863 52.2979 520.334 52.1315 519.642 52.127H517.632V55.9004ZM423.385 72.9736H421.047V77H419.728V67.0469H423.022C424.144 67.0469 425.005 67.3021 425.606 67.8125C426.213 68.3229 426.516 69.0658 426.516 70.041C426.516 70.6608 426.347 71.2008 426.01 71.6611C425.677 72.1214 425.212 72.4655 424.615 72.6934L426.953 76.918V77H425.545L423.385 72.9736ZM421.047 71.9004H423.063C423.715 71.9004 424.232 71.7318 424.615 71.3945C425.003 71.0573 425.196 70.6061 425.196 70.041C425.196 69.4258 425.012 68.9541 424.643 68.626C424.278 68.2979 423.749 68.1315 423.057 68.127H421.047V71.9004ZM433.857 74.4023H429.688L428.751 77H427.397L431.198 67.0469H432.347L436.154 77H434.808L433.857 74.4023ZM430.084 73.3223H433.468L431.772 68.667L430.084 73.3223ZM438.807 73.1035V77H437.494V67.0469H441.165C442.254 67.0469 443.106 67.3249 443.722 67.8809C444.341 68.4368 444.651 69.1729 444.651 70.0889C444.651 71.055 444.348 71.8001 443.742 72.3242C443.141 72.8438 442.277 73.1035 441.151 73.1035H438.807ZM438.807 72.0303H441.165C441.867 72.0303 442.405 71.8662 442.778 71.5381C443.152 71.2054 443.339 70.7269 443.339 70.1025C443.339 69.5101 443.152 69.0361 442.778 68.6807C442.405 68.3252 441.892 68.1406 441.24 68.127H438.807V72.0303ZM447.734 77H446.422V67.0469H447.734V77ZM450.141 77V67.0469H452.95C453.816 67.0469 454.582 67.2383 455.247 67.6211C455.912 68.0039 456.425 68.5485 456.785 69.2549C457.15 69.9613 457.334 70.7725 457.339 71.6885V72.3242C457.339 73.263 457.157 74.0856 456.792 74.792C456.432 75.4984 455.915 76.0407 455.24 76.4189C454.57 76.7972 453.789 76.9909 452.896 77H450.141ZM451.453 68.127V75.9268H452.834C453.846 75.9268 454.632 75.6123 455.192 74.9834C455.757 74.3545 456.04 73.459 456.04 72.2969V71.7158C456.04 70.5856 455.773 69.7083 455.24 69.084C454.712 68.4551 453.96 68.1361 452.984 68.127H451.453ZM464.674 74.4023H460.504L459.567 77H458.214L462.015 67.0469H463.163L466.971 77H465.624L464.674 74.4023ZM460.9 73.3223H464.284L462.589 68.667L460.9 73.3223ZM470.006 67.0469L473.26 75.168L476.514 67.0469H478.216V77H476.903V73.124L477.026 68.9404L473.759 77H472.754L469.493 68.9609L469.623 73.124V77H468.311V67.0469H470.006ZM486.159 72.3994H481.846V75.9268H486.856V77H480.533V67.0469H486.788V68.127H481.846V71.3262H486.159V72.3994ZM496.14 77H494.82L489.81 69.3301V77H488.49V67.0469H489.81L494.834 74.751V67.0469H496.14V77ZM505.143 68.127H501.943V77H500.638V68.127H497.445V67.0469H505.143V68.127ZM512.245 72.3994H507.932V75.9268H512.942V77H506.619V67.0469H512.874V68.127H507.932V71.3262H512.245V72.3994Z" fill="#233C54"/>
<path d="M157.256 40.0411L145.138 36.0241L155.236 27.4349L157.256 40.0411Z" fill="#233C54"/>
<path d="M279.102 107.156L279.544 119.915L267.983 113.429L279.102 107.156Z" fill="#233C54"/>
<path d="M393.391 64.6734L381.994 58.9193L393.245 51.9073L393.391 64.6734Z" fill="#233C54"/>
</svg>
