<svg width="550" height="160" viewBox="0 0 550 160" fill="none" xmlns="http://www.w3.org/2000/svg">
<line x1="160" y1="84.5" x2="550" y2="84.5" stroke="#233C54"/>
<mask id="path-2-inside-1" fill="white">
<path d="M276.955 114.011C271.019 124.287 262.17 132.572 251.526 137.818C240.881 143.064 228.92 145.036 217.155 143.485C205.39 141.933 194.35 136.928 185.429 129.102C176.509 121.275 170.11 110.98 167.041 99.5165L169.903 98.7504C172.82 109.648 178.903 119.435 187.383 126.875C195.863 134.315 206.359 139.073 217.543 140.548C228.727 142.023 240.097 140.148 250.216 135.161C260.335 130.174 268.747 122.298 274.39 112.53L276.955 114.011Z"/>
</mask>
<path d="M276.955 114.011C271.019 124.287 262.17 132.572 251.526 137.818C240.881 143.064 228.92 145.036 217.155 143.485C205.39 141.933 194.35 136.928 185.429 129.102C176.509 121.275 170.11 110.98 167.041 99.5165L169.903 98.7504C172.82 109.648 178.903 119.435 187.383 126.875C195.863 134.315 206.359 139.073 217.543 140.548C228.727 142.023 240.097 140.148 250.216 135.161C260.335 130.174 268.747 122.298 274.39 112.53L276.955 114.011Z" fill="white" stroke="#233C54" stroke-width="4" mask="url(#path-2-inside-1)"/>
<circle cx="225" cy="85" r="46" fill="white" stroke="#E7404A" stroke-width="2"/>
<mask id="path-4-inside-2" fill="white">
<path d="M278.866 70.1541C281.94 58.1151 288.676 47.3275 298.144 39.2809C307.612 31.2343 319.345 26.3256 331.722 25.2326C344.099 24.1396 356.511 26.9162 367.242 33.179C377.974 39.4418 386.496 48.8819 391.633 60.1958L389.194 61.303C384.287 50.494 376.145 41.4753 365.892 35.492C355.64 29.5087 343.782 26.856 331.958 27.9003C320.133 28.9445 308.924 33.6341 299.879 41.3216C290.833 49.009 284.398 59.3151 281.46 70.8167L278.866 70.1541Z"/>
</mask>
<path d="M278.866 70.1541C281.94 58.1151 288.676 47.3275 298.144 39.2809C307.612 31.2343 319.345 26.3256 331.722 25.2326C344.099 24.1396 356.511 26.9162 367.242 33.179C377.974 39.4418 386.496 48.8819 391.633 60.1958L389.194 61.303C384.287 50.494 376.145 41.4753 365.892 35.492C355.64 29.5087 343.782 26.856 331.958 27.9003C320.133 28.9445 308.924 33.6341 299.879 41.3216C290.833 49.009 284.398 59.3151 281.46 70.8167L278.866 70.1541Z" fill="white" stroke="#233C54" stroke-width="4" mask="url(#path-4-inside-2)"/>
<circle cx="337" cy="85" r="46" fill="white" stroke="#E7404A" stroke-width="2"/>
<mask id="path-6-inside-3" fill="white">
<path d="M153.002 34.0027C142.232 19.6421 127.193 9.05951 110.039 3.77173C92.8856 -1.51606 74.4982 -1.2376 57.5125 4.5672C40.5267 10.372 25.8147 21.4051 15.4849 36.0853C5.15512 50.7654 -0.262066 68.3389 0.0097456 86.2871L2.49628 86.2495C2.23242 68.8264 7.49112 51.767 17.5187 37.5164C27.5462 23.2657 41.8279 12.5554 58.3166 6.9204C74.8054 1.28543 92.6549 1.01511 109.307 6.14819C125.959 11.2813 140.558 21.5542 151.013 35.4947L153.002 34.0027Z"/>
</mask>
<path d="M153.002 34.0027C142.232 19.6421 127.193 9.05951 110.039 3.77173C92.8856 -1.51606 74.4982 -1.2376 57.5125 4.5672C40.5267 10.372 25.8147 21.4051 15.4849 36.0853C5.15512 50.7654 -0.262066 68.3389 0.0097456 86.2871L2.49628 86.2495C2.23242 68.8264 7.49112 51.767 17.5187 37.5164C27.5462 23.2657 41.8279 12.5554 58.3166 6.9204C74.8054 1.28543 92.6549 1.01511 109.307 6.14819C125.959 11.2813 140.558 21.5542 151.013 35.4947L153.002 34.0027Z" stroke="#233C54" stroke-width="6" mask="url(#path-6-inside-3)"/>
<circle cx="84.5" cy="84.5" r="75.5" fill="#E7404A"/>
<path d="M48.0391 81V69.625H51.5391C52.5391 69.625 53.4323 69.8516 54.2188 70.3047C55.0104 70.7526 55.6276 71.3932 56.0703 72.2266C56.513 73.0547 56.7344 73.9974 56.7344 75.0547V75.5781C56.7344 76.6354 56.5156 77.5755 56.0781 78.3984C55.6458 79.2214 55.0339 79.8594 54.2422 80.3125C53.4505 80.7656 52.5573 80.9948 51.5625 81H48.0391ZM50.3828 71.5234V79.1172H51.5156C52.4323 79.1172 53.1328 78.8177 53.6172 78.2188C54.1016 77.6198 54.349 76.763 54.3594 75.6484V75.0469C54.3594 73.8906 54.1198 73.0156 53.6406 72.4219C53.1615 71.8229 52.4609 71.5234 51.5391 71.5234H50.3828ZM60.9375 81H58.5938V69.625H60.9375V81ZM69.0156 78.0156C69.0156 77.5729 68.8594 77.2344 68.5469 77C68.2344 76.7604 67.6719 76.5104 66.8594 76.25C66.0469 75.9844 65.4036 75.724 64.9297 75.4688C63.638 74.7708 62.9922 73.8307 62.9922 72.6484C62.9922 72.0339 63.1641 71.487 63.5078 71.0078C63.8568 70.5234 64.3542 70.1458 65 69.875C65.651 69.6042 66.3802 69.4688 67.1875 69.4688C68 69.4688 68.724 69.6172 69.3594 69.9141C69.9948 70.2057 70.487 70.6198 70.8359 71.1562C71.1901 71.6927 71.3672 72.3021 71.3672 72.9844H69.0234C69.0234 72.4635 68.8594 72.0599 68.5312 71.7734C68.2031 71.4818 67.7422 71.3359 67.1484 71.3359C66.5755 71.3359 66.1302 71.4583 65.8125 71.7031C65.4948 71.9427 65.3359 72.2604 65.3359 72.6562C65.3359 73.026 65.5208 73.3359 65.8906 73.5859C66.2656 73.8359 66.8151 74.0703 67.5391 74.2891C68.8724 74.6901 69.8438 75.1875 70.4531 75.7812C71.0625 76.375 71.3672 77.1146 71.3672 78C71.3672 78.9844 70.9948 79.7578 70.25 80.3203C69.5052 80.8776 68.5026 81.1562 67.2422 81.1562C66.3672 81.1562 65.5703 80.9974 64.8516 80.6797C64.1328 80.3568 63.5833 79.9167 63.2031 79.3594C62.8281 78.8021 62.6406 78.1562 62.6406 77.4219H64.9922C64.9922 78.6771 65.7422 79.3047 67.2422 79.3047C67.7995 79.3047 68.2344 79.1927 68.5469 78.9688C68.8594 78.7396 69.0156 78.4219 69.0156 78.0156ZM81.8906 77.2109C81.8021 78.4349 81.349 79.3984 80.5312 80.1016C79.7188 80.8047 78.6458 81.1562 77.3125 81.1562C75.8542 81.1562 74.7057 80.6667 73.8672 79.6875C73.0339 78.7031 72.6172 77.3542 72.6172 75.6406V74.9453C72.6172 73.8516 72.8099 72.888 73.1953 72.0547C73.5807 71.2214 74.1302 70.5833 74.8438 70.1406C75.5625 69.6927 76.3958 69.4688 77.3438 69.4688C78.6562 69.4688 79.7135 69.8203 80.5156 70.5234C81.3177 71.2266 81.7812 72.2135 81.9062 73.4844H79.5625C79.5052 72.75 79.2995 72.2188 78.9453 71.8906C78.5964 71.5573 78.0625 71.3906 77.3438 71.3906C76.5625 71.3906 75.9766 71.6719 75.5859 72.2344C75.2005 72.7917 75.0026 73.6589 74.9922 74.8359V75.6953C74.9922 76.9245 75.1771 77.8229 75.5469 78.3906C75.9219 78.9583 76.5104 79.2422 77.3125 79.2422C78.0365 79.2422 78.5755 79.0781 78.9297 78.75C79.2891 78.4167 79.4948 77.9036 79.5469 77.2109H81.8906ZM92.7734 75.5703C92.7734 76.6901 92.5755 77.6719 92.1797 78.5156C91.7839 79.3594 91.2161 80.0104 90.4766 80.4688C89.7422 80.9271 88.8984 81.1562 87.9453 81.1562C87.0026 81.1562 86.1615 80.9297 85.4219 80.4766C84.6823 80.0234 84.1094 79.3776 83.7031 78.5391C83.2969 77.6953 83.0911 76.7266 83.0859 75.6328V75.0703C83.0859 73.9505 83.2865 72.9661 83.6875 72.1172C84.0938 71.263 84.6641 70.6094 85.3984 70.1562C86.138 69.6979 86.9818 69.4688 87.9297 69.4688C88.8776 69.4688 89.7188 69.6979 90.4531 70.1562C91.1927 70.6094 91.763 71.263 92.1641 72.1172C92.5703 72.9661 92.7734 73.9479 92.7734 75.0625V75.5703ZM90.3984 75.0547C90.3984 73.862 90.1849 72.9557 89.7578 72.3359C89.3307 71.7161 88.7214 71.4062 87.9297 71.4062C87.1432 71.4062 86.5365 71.7135 86.1094 72.3281C85.6823 72.9375 85.4661 73.8333 85.4609 75.0156V75.5703C85.4609 76.7318 85.6745 77.6328 86.1016 78.2734C86.5286 78.9141 87.1432 79.2344 87.9453 79.2344C88.7318 79.2344 89.3359 78.9271 89.7578 78.3125C90.1797 77.6927 90.3932 76.7917 90.3984 75.6094V75.0547ZM98.5078 78.1797L101.086 69.625H103.695L99.7344 81H97.2891L93.3438 69.625H95.9453L98.5078 78.1797ZM111.617 76.0703H107.117V79.1172H112.398V81H104.773V69.625H112.383V71.5234H107.117V74.2344H111.617V76.0703ZM117.984 76.8359H116.117V81H113.773V69.625H118C119.344 69.625 120.38 69.9245 121.109 70.5234C121.839 71.1224 122.203 71.9688 122.203 73.0625C122.203 73.8385 122.034 74.487 121.695 75.0078C121.362 75.5234 120.854 75.9349 120.172 76.2422L122.633 80.8906V81H120.117L117.984 76.8359ZM116.117 74.9375H118.008C118.596 74.9375 119.052 74.7891 119.375 74.4922C119.698 74.1901 119.859 73.776 119.859 73.25C119.859 72.7135 119.706 72.2917 119.398 71.9844C119.096 71.6771 118.63 71.5234 118 71.5234H116.117V74.9375ZM56.5859 97.6562H52.4766L51.6953 100H49.2031L53.4375 88.625H55.6094L59.8672 100H57.375L56.5859 97.6562ZM53.1094 95.7578H55.9531L54.5234 91.5L53.1094 95.7578ZM70.1797 100H67.8359L63.2734 92.5156V100H60.9297V88.625H63.2734L67.8438 96.125V88.625H70.1797V100ZM72.2266 100V88.625H75.7266C76.7266 88.625 77.6198 88.8516 78.4062 89.3047C79.1979 89.7526 79.8151 90.3932 80.2578 91.2266C80.7005 92.0547 80.9219 92.9974 80.9219 94.0547V94.5781C80.9219 95.6354 80.7031 96.5755 80.2656 97.3984C79.8333 98.2214 79.2214 98.8594 78.4297 99.3125C77.638 99.7656 76.7448 99.9948 75.75 100H72.2266ZM74.5703 90.5234V98.1172H75.7031C76.6198 98.1172 77.3203 97.8177 77.8047 97.2188C78.2891 96.6198 78.5365 95.763 78.5469 94.6484V94.0469C78.5469 92.8906 78.3073 92.0156 77.8281 91.4219C77.349 90.8229 76.6484 90.5234 75.7266 90.5234H74.5703ZM89.6797 88.625L92.6016 96.875L95.5078 88.625H98.5859V100H96.2344V96.8906L96.4688 91.5234L93.3984 100H91.7891L88.7266 91.5312L88.9609 96.8906V100H86.6172V88.625H89.6797ZM107.195 97.6562H103.086L102.305 100H99.8125L104.047 88.625H106.219L110.477 100H107.984L107.195 97.6562ZM103.719 95.7578H106.562L105.133 91.5L103.719 95.7578ZM113.883 95.9922V100H111.539V88.625H115.977C116.831 88.625 117.581 88.7812 118.227 89.0938C118.878 89.4062 119.378 89.8516 119.727 90.4297C120.076 91.0026 120.25 91.6562 120.25 92.3906C120.25 93.5052 119.867 94.3854 119.102 95.0312C118.341 95.6719 117.286 95.9922 115.938 95.9922H113.883ZM113.883 94.0938H115.977C116.596 94.0938 117.068 93.9479 117.391 93.6562C117.719 93.3646 117.883 92.9479 117.883 92.4062C117.883 91.849 117.719 91.3984 117.391 91.0547C117.062 90.7109 116.609 90.5339 116.031 90.5234H113.883V94.0938Z" fill="white"/>
<path d="M187.013 82V72.0469H189.822C190.688 72.0469 191.454 72.2383 192.119 72.6211C192.785 73.0039 193.297 73.5485 193.657 74.2549C194.022 74.9613 194.206 75.7725 194.211 76.6885V77.3242C194.211 78.263 194.029 79.0856 193.664 79.792C193.304 80.4984 192.787 81.0407 192.112 81.4189C191.442 81.7972 190.661 81.9909 189.768 82H187.013ZM188.325 73.127V80.9268H189.706C190.718 80.9268 191.504 80.6123 192.064 79.9834C192.63 79.3545 192.912 78.459 192.912 77.2969V76.7158C192.912 75.5856 192.646 74.7083 192.112 74.084C191.584 73.4551 190.832 73.1361 189.856 73.127H188.325ZM201.826 77.3994H197.513V80.9268H202.523V82H196.2V72.0469H202.455V73.127H197.513V76.3262H201.826V77.3994ZM207.09 77.5635C205.964 77.2399 205.144 76.8434 204.629 76.374C204.118 75.9001 203.863 75.3167 203.863 74.624C203.863 73.8402 204.175 73.193 204.8 72.6826C205.429 72.1676 206.244 71.9102 207.247 71.9102C207.931 71.9102 208.539 72.0423 209.072 72.3066C209.61 72.571 210.025 72.9355 210.316 73.4004C210.613 73.8652 210.761 74.3734 210.761 74.9248H209.441C209.441 74.3232 209.25 73.8516 208.867 73.5098C208.484 73.1634 207.944 72.9902 207.247 72.9902C206.6 72.9902 206.094 73.1338 205.729 73.4209C205.369 73.7035 205.189 74.0977 205.189 74.6035C205.189 75.0091 205.36 75.3532 205.702 75.6357C206.049 75.9137 206.634 76.1689 207.459 76.4014C208.288 76.6338 208.936 76.8913 209.4 77.1738C209.87 77.4518 210.216 77.7777 210.439 78.1514C210.667 78.5251 210.781 78.9648 210.781 79.4707C210.781 80.2773 210.467 80.9245 209.838 81.4121C209.209 81.8952 208.368 82.1367 207.315 82.1367C206.632 82.1367 205.994 82.0068 205.401 81.7471C204.809 81.4827 204.351 81.1227 204.027 80.667C203.708 80.2113 203.549 79.694 203.549 79.1152H204.868C204.868 79.7168 205.089 80.193 205.531 80.5439C205.978 80.8903 206.573 81.0635 207.315 81.0635C208.008 81.0635 208.539 80.9222 208.908 80.6396C209.277 80.3571 209.462 79.972 209.462 79.4844C209.462 78.9967 209.291 78.6208 208.949 78.3564C208.607 78.0876 207.988 77.8232 207.09 77.5635ZM213.878 82H212.565V72.0469H213.878V82ZM223.633 80.6943C223.296 81.1774 222.824 81.5397 222.218 81.7812C221.616 82.0182 220.914 82.1367 220.112 82.1367C219.301 82.1367 218.581 81.9476 217.952 81.5693C217.323 81.1865 216.836 80.6442 216.489 79.9424C216.147 79.2406 215.972 78.4271 215.963 77.502V76.6338C215.963 75.1344 216.312 73.9723 217.009 73.1475C217.711 72.3226 218.695 71.9102 219.962 71.9102C221.001 71.9102 221.837 72.1768 222.471 72.71C223.104 73.2386 223.492 73.9906 223.633 74.9658H222.32C222.074 73.6488 221.29 72.9902 219.969 72.9902C219.089 72.9902 218.422 73.3001 217.966 73.9199C217.515 74.5352 217.287 75.4284 217.282 76.5996V77.4131C217.282 78.5296 217.537 79.4183 218.048 80.0791C218.558 80.7354 219.249 81.0635 220.119 81.0635C220.611 81.0635 221.042 81.0088 221.411 80.8994C221.78 80.79 222.086 80.6055 222.327 80.3457V78.1104H220.023V77.0439H223.633V80.6943ZM233.477 82H232.157L227.146 74.3301V82H225.827V72.0469H227.146L232.171 79.751V72.0469H233.477V82ZM245.884 73.127H242.685V82H241.379V73.127H238.187V72.0469H245.884V73.127ZM255.01 82H253.69V77.3994H248.673V82H247.36V72.0469H248.673V76.3262H253.69V72.0469H255.01V82ZM262.967 77.3994H258.653V80.9268H263.664V82H257.341V72.0469H263.596V73.127H258.653V76.3262H262.967V77.3994ZM196.111 93.5635C194.986 93.2399 194.165 92.8434 193.65 92.374C193.14 91.9001 192.885 91.3167 192.885 90.624C192.885 89.8402 193.197 89.193 193.821 88.6826C194.45 88.1676 195.266 87.9102 196.269 87.9102C196.952 87.9102 197.561 88.0423 198.094 88.3066C198.632 88.571 199.046 88.9355 199.338 89.4004C199.634 89.8652 199.782 90.3734 199.782 90.9248H198.463C198.463 90.3232 198.271 89.8516 197.889 89.5098C197.506 89.1634 196.966 88.9902 196.269 88.9902C195.621 88.9902 195.116 89.1338 194.751 89.4209C194.391 89.7035 194.211 90.0977 194.211 90.6035C194.211 91.0091 194.382 91.3532 194.724 91.6357C195.07 91.9137 195.656 92.1689 196.48 92.4014C197.31 92.6338 197.957 92.8913 198.422 93.1738C198.891 93.4518 199.238 93.7777 199.461 94.1514C199.689 94.5251 199.803 94.9648 199.803 95.4707C199.803 96.2773 199.488 96.9245 198.859 97.4121C198.23 97.8952 197.39 98.1367 196.337 98.1367C195.653 98.1367 195.015 98.0068 194.423 97.7471C193.83 97.4827 193.372 97.1227 193.049 96.667C192.73 96.2113 192.57 95.694 192.57 95.1152H193.89C193.89 95.7168 194.111 96.193 194.553 96.5439C194.999 96.8903 195.594 97.0635 196.337 97.0635C197.03 97.0635 197.561 96.9222 197.93 96.6396C198.299 96.3571 198.483 95.972 198.483 95.4844C198.483 94.9967 198.312 94.6208 197.971 94.3564C197.629 94.0876 197.009 93.8232 196.111 93.5635ZM209.147 93.3447C209.147 94.32 208.983 95.1722 208.655 95.9014C208.327 96.626 207.862 97.1797 207.261 97.5625C206.659 97.9453 205.957 98.1367 205.155 98.1367C204.371 98.1367 203.676 97.9453 203.07 97.5625C202.464 97.1751 201.993 96.626 201.655 95.915C201.323 95.1995 201.152 94.3724 201.143 93.4336V92.7158C201.143 91.7588 201.309 90.9134 201.642 90.1797C201.974 89.446 202.444 88.8854 203.05 88.498C203.66 88.1061 204.358 87.9102 205.142 87.9102C205.939 87.9102 206.641 88.1038 207.247 88.4912C207.858 88.874 208.327 89.4323 208.655 90.166C208.983 90.8952 209.147 91.7451 209.147 92.7158V93.3447ZM207.842 92.7021C207.842 91.5218 207.605 90.6172 207.131 89.9883C206.657 89.3548 205.994 89.0381 205.142 89.0381C204.312 89.0381 203.658 89.3548 203.18 89.9883C202.706 90.6172 202.462 91.4922 202.448 92.6133V93.3447C202.448 94.4886 202.688 95.3887 203.166 96.0449C203.649 96.6966 204.312 97.0225 205.155 97.0225C206.003 97.0225 206.659 96.7148 207.124 96.0996C207.589 95.4798 207.828 94.5934 207.842 93.4404V92.7021ZM212.436 96.9268H217.152V98H211.116V88.0469H212.436V96.9268ZM225.287 88.0469V94.8145C225.283 95.7533 224.986 96.5212 224.398 97.1182C223.815 97.7152 223.022 98.0501 222.02 98.123L221.671 98.1367C220.582 98.1367 219.714 97.8428 219.066 97.2549C218.419 96.667 218.091 95.8581 218.082 94.8281V88.0469H219.381V94.7871C219.381 95.5072 219.579 96.0677 219.976 96.4688C220.372 96.8652 220.937 97.0635 221.671 97.0635C222.414 97.0635 222.981 96.8652 223.373 96.4688C223.77 96.0723 223.968 95.514 223.968 94.7939V88.0469H225.287ZM234.235 89.127H231.036V98H229.73V89.127H226.538V88.0469H234.235V89.127ZM237.12 98H235.808V88.0469H237.12V98ZM247.183 93.3447C247.183 94.32 247.019 95.1722 246.69 95.9014C246.362 96.626 245.897 97.1797 245.296 97.5625C244.694 97.9453 243.993 98.1367 243.19 98.1367C242.407 98.1367 241.712 97.9453 241.105 97.5625C240.499 97.1751 240.028 96.626 239.69 95.915C239.358 95.1995 239.187 94.3724 239.178 93.4336V92.7158C239.178 91.7588 239.344 90.9134 239.677 90.1797C240.009 89.446 240.479 88.8854 241.085 88.498C241.696 88.1061 242.393 87.9102 243.177 87.9102C243.974 87.9102 244.676 88.1038 245.282 88.4912C245.893 88.874 246.362 89.4323 246.69 90.166C247.019 90.8952 247.183 91.7451 247.183 92.7158V93.3447ZM245.877 92.7021C245.877 91.5218 245.64 90.6172 245.166 89.9883C244.692 89.3548 244.029 89.0381 243.177 89.0381C242.347 89.0381 241.693 89.3548 241.215 89.9883C240.741 90.6172 240.497 91.4922 240.483 92.6133V93.3447C240.483 94.4886 240.723 95.3887 241.201 96.0449C241.684 96.6966 242.347 97.0225 243.19 97.0225C244.038 97.0225 244.694 96.7148 245.159 96.0996C245.624 95.4798 245.863 94.5934 245.877 93.4404V92.7021ZM256.801 98H255.481L250.471 90.3301V98H249.151V88.0469H250.471L255.495 95.751V88.0469H256.801V98Z" fill="#233C54"/>
<path d="M308.378 90V80.0469H311.188C312.053 80.0469 312.819 80.2383 313.484 80.6211C314.15 81.0039 314.662 81.5485 315.022 82.2549C315.387 82.9613 315.572 83.7725 315.576 84.6885V85.3242C315.576 86.263 315.394 87.0856 315.029 87.792C314.669 88.4984 314.152 89.0407 313.478 89.4189C312.808 89.7972 312.026 89.9909 311.133 90H308.378ZM309.69 81.127V88.9268H311.071C312.083 88.9268 312.869 88.6123 313.43 87.9834C313.995 87.3545 314.277 86.459 314.277 85.2969V84.7158C314.277 83.5856 314.011 82.7083 313.478 82.084C312.949 81.4551 312.197 81.1361 311.222 81.127H309.69ZM323.191 85.3994H318.878V88.9268H323.889V90H317.565V80.0469H323.82V81.127H318.878V84.3262H323.191V85.3994ZM328.817 88.2568L331.661 80.0469H333.097L329.405 90H328.243L324.559 80.0469H325.987L328.817 88.2568ZM340.062 85.3994H335.749V88.9268H340.76V90H334.437V80.0469H340.691V81.127H335.749V84.3262H340.062V85.3994ZM343.713 88.9268H348.43V90H342.394V80.0469H343.713V88.9268ZM357.132 85.3447C357.132 86.32 356.968 87.1722 356.64 87.9014C356.312 88.626 355.847 89.1797 355.245 89.5625C354.644 89.9453 353.942 90.1367 353.14 90.1367C352.356 90.1367 351.661 89.9453 351.055 89.5625C350.449 89.1751 349.977 88.626 349.64 87.915C349.307 87.1995 349.136 86.3724 349.127 85.4336V84.7158C349.127 83.7588 349.293 82.9134 349.626 82.1797C349.959 81.446 350.428 80.8854 351.034 80.498C351.645 80.1061 352.342 79.9102 353.126 79.9102C353.924 79.9102 354.625 80.1038 355.231 80.4912C355.842 80.874 356.312 81.4323 356.64 82.166C356.968 82.8952 357.132 83.7451 357.132 84.7158V85.3447ZM355.826 84.7021C355.826 83.5218 355.589 82.6172 355.115 81.9883C354.641 81.3548 353.978 81.0381 353.126 81.0381C352.297 81.0381 351.643 81.3548 351.164 81.9883C350.69 82.6172 350.446 83.4922 350.433 84.6133V85.3447C350.433 86.4886 350.672 87.3887 351.15 88.0449C351.633 88.6966 352.297 89.0225 353.14 89.0225C353.987 89.0225 354.644 88.7148 355.108 88.0996C355.573 87.4798 355.812 86.5934 355.826 85.4404V84.7021ZM360.413 86.1035V90H359.101V80.0469H362.771C363.861 80.0469 364.713 80.3249 365.328 80.8809C365.948 81.4368 366.258 82.1729 366.258 83.0889C366.258 84.055 365.955 84.8001 365.349 85.3242C364.747 85.8438 363.883 86.1035 362.758 86.1035H360.413ZM360.413 85.0303H362.771C363.473 85.0303 364.011 84.8662 364.385 84.5381C364.758 84.2054 364.945 83.7269 364.945 83.1025C364.945 82.5101 364.758 82.0361 364.385 81.6807C364.011 81.3252 363.498 81.1406 362.847 81.127H360.413V85.0303Z" fill="#233C54"/>
<path d="M441.994 56.6045H437.817V61H436.505V51.0469H442.671V52.127H437.817V55.5312H441.994V56.6045ZM448.577 58.4023H444.407L443.471 61H442.117L445.918 51.0469H447.066L450.874 61H449.527L448.577 58.4023ZM444.804 57.3223H448.188L446.492 52.667L444.804 57.3223ZM455.146 56.5635C454.021 56.2399 453.201 55.8434 452.686 55.374C452.175 54.9001 451.92 54.3167 451.92 53.624C451.92 52.8402 452.232 52.193 452.856 51.6826C453.485 51.1676 454.301 50.9102 455.304 50.9102C455.987 50.9102 456.596 51.0423 457.129 51.3066C457.667 51.571 458.081 51.9355 458.373 52.4004C458.669 52.8652 458.817 53.3734 458.817 53.9248H457.498C457.498 53.3232 457.307 52.8516 456.924 52.5098C456.541 52.1634 456.001 51.9902 455.304 51.9902C454.657 51.9902 454.151 52.1338 453.786 52.4209C453.426 52.7035 453.246 53.0977 453.246 53.6035C453.246 54.0091 453.417 54.3532 453.759 54.6357C454.105 54.9137 454.691 55.1689 455.516 55.4014C456.345 55.6338 456.992 55.8913 457.457 56.1738C457.926 56.4518 458.273 56.7777 458.496 57.1514C458.724 57.5251 458.838 57.9648 458.838 58.4707C458.838 59.2773 458.523 59.9245 457.895 60.4121C457.266 60.8952 456.425 61.1367 455.372 61.1367C454.688 61.1367 454.05 61.0068 453.458 60.7471C452.866 60.4827 452.408 60.1227 452.084 59.667C451.765 59.2113 451.605 58.694 451.605 58.1152H452.925C452.925 58.7168 453.146 59.193 453.588 59.5439C454.035 59.8903 454.629 60.0635 455.372 60.0635C456.065 60.0635 456.596 59.9222 456.965 59.6396C457.334 59.3571 457.519 58.972 457.519 58.4844C457.519 57.9967 457.348 57.6208 457.006 57.3564C456.664 57.0876 456.044 56.8232 455.146 56.5635ZM467.403 52.127H464.204V61H462.898V52.127H459.706V51.0469H467.403V52.127ZM475.374 59.2568L478.218 51.0469H479.653L475.962 61H474.8L471.115 51.0469H472.544L475.374 59.2568ZM485.97 58.4023H481.8L480.863 61H479.51L483.311 51.0469H484.459L488.267 61H486.92L485.97 58.4023ZM482.196 57.3223H485.58L483.885 52.667L482.196 57.3223ZM490.926 59.9268H495.643V61H489.606V51.0469H490.926V59.9268ZM503.777 51.0469V57.8145C503.773 58.7533 503.477 59.5212 502.889 60.1182C502.305 60.7152 501.512 61.0501 500.51 61.123L500.161 61.1367C499.072 61.1367 498.204 60.8428 497.557 60.2549C496.91 59.667 496.581 58.8581 496.572 57.8281V51.0469H497.871V57.7871C497.871 58.5072 498.069 59.0677 498.466 59.4688C498.862 59.8652 499.427 60.0635 500.161 60.0635C500.904 60.0635 501.471 59.8652 501.863 59.4688C502.26 59.0723 502.458 58.514 502.458 57.7939V51.0469H503.777ZM511.475 56.3994H507.161V59.9268H512.172V61H505.849V51.0469H512.104V52.127H507.161V55.3262H511.475V56.3994ZM444.12 77V67.0469H446.93C447.796 67.0469 448.561 67.2383 449.227 67.6211C449.892 68.0039 450.405 68.5485 450.765 69.2549C451.129 69.9613 451.314 70.7725 451.318 71.6885V72.3242C451.318 73.263 451.136 74.0856 450.771 74.792C450.411 75.4984 449.894 76.0407 449.22 76.4189C448.55 76.7972 447.768 76.9909 446.875 77H444.12ZM445.433 68.127V75.9268H446.813C447.825 75.9268 448.611 75.6123 449.172 74.9834C449.737 74.3545 450.02 73.459 450.02 72.2969V71.7158C450.02 70.5856 449.753 69.7083 449.22 69.084C448.691 68.4551 447.939 68.1361 446.964 68.127H445.433ZM458.934 72.3994H454.62V75.9268H459.631V77H453.308V67.0469H459.562V68.127H454.62V71.3262H458.934V72.3994ZM462.584 75.9268H467.301V77H461.265V67.0469H462.584V75.9268ZM470.206 77H468.894V67.0469H470.206V77ZM475.907 75.2568L478.751 67.0469H480.187L476.495 77H475.333L471.648 67.0469H473.077L475.907 75.2568ZM487.152 72.3994H482.839V75.9268H487.85V77H481.526V67.0469H487.781V68.127H482.839V71.3262H487.152V72.3994ZM493.134 72.9736H490.796V77H489.477V67.0469H492.771C493.893 67.0469 494.754 67.3021 495.355 67.8125C495.962 68.3229 496.265 69.0658 496.265 70.041C496.265 70.6608 496.096 71.2008 495.759 71.6611C495.426 72.1214 494.961 72.4655 494.364 72.6934L496.702 76.918V77H495.294L493.134 72.9736ZM490.796 71.9004H492.812C493.464 71.9004 493.981 71.7318 494.364 71.3945C494.752 71.0573 494.945 70.6061 494.945 70.041C494.945 69.4258 494.761 68.9541 494.392 68.626C494.027 68.2979 493.498 68.1315 492.806 68.127H490.796V71.9004ZM500.817 72.0439L503.415 67.0469H504.905L501.474 73.2881V77H500.161V73.2881L496.729 67.0469H498.233L500.817 72.0439Z" fill="#233C54"/>
<path d="M157.256 40.0411L145.138 36.0241L155.236 27.4349L157.256 40.0411Z" fill="#233C54"/>
<path d="M279.102 107.156L279.544 119.915L267.983 113.429L279.102 107.156Z" fill="#233C54"/>
<path d="M393.391 64.6734L381.994 58.9193L393.245 51.9073L393.391 64.6734Z" fill="#233C54"/>
</svg>
