<svg width="100" height="100" viewBox="0 0 100 100" fill="none" xmlns="http://www.w3.org/2000/svg">
<circle cx="50" cy="50" r="50" fill="#FCFCFC"/>
<g clip-path="url(#clip0)">
<path d="M65.05 65.9333H63.1833V69.6667H46.3833V71.5334H63.1833V74.3334C63.1833 75.8796 61.9296 77.1334 60.3833 77.1334H39.85C38.8497 77.132 37.9255 76.5988 37.4232 75.7334L35.8068 76.6667C36.6435 78.1082 38.1834 78.9968 39.85 79H60.3833C62.9596 78.9968 65.0468 76.9096 65.05 74.3334V65.9333Z" fill="black"/>
<path d="M49.1833 73.4H51.05V75.2667H49.1833V73.4Z" fill="black"/>
<circle cx="40" cy="47" r="11" fill="#FF6961"/>
<path d="M54.7833 48.2V46.3333H51.9359C51.4706 40.3774 46.7393 35.646 40.7833 35.1807V32.3333H38.9167V35.1807C38.2878 35.229 37.6639 35.3266 37.05 35.4719V30.4667H51.9833V28.6H37.05V27.6667C37.05 26.1204 38.3037 24.8667 39.85 24.8667H60.3833C61.0651 24.8667 61.7236 25.1155 62.235 25.5667L63.47 24.1667C62.6178 23.4143 61.5199 22.9995 60.3833 23H39.85C37.2738 23.0032 35.1865 25.0904 35.1833 27.6667V36.0667C30.9806 37.8271 28.1163 41.7906 27.7641 46.3333H24.9167V48.2H27.7663C28.2066 54.1673 32.9493 58.9133 38.9167 59.3572V62.2H40.7833V59.3572C46.7507 58.9133 51.4934 54.1673 51.9337 48.2H54.7833ZM38.9167 55.6667V57.4905C37.6146 57.3734 36.3477 57.0074 35.1833 56.4132V54.7333C35.1833 52.1562 37.2729 50.0667 39.85 50.0667C42.4271 50.0667 44.5167 52.1562 44.5167 54.7333V56.4132C43.3527 57.0083 42.0854 57.3747 40.7833 57.4932V55.6667H38.9167ZM37.05 45.4C37.05 43.8537 38.3037 42.6 39.85 42.6C41.3963 42.6 42.65 43.8537 42.65 45.4C42.65 46.9463 41.3963 48.2 39.85 48.2C38.3037 48.2 37.05 46.9463 37.05 45.4ZM46.6941 54.9202C46.5934 55.0132 46.4859 55.0879 46.3833 55.174V54.7333C46.3811 52.2952 45.0212 50.0612 42.8564 48.9392C44.3558 47.6764 44.9059 45.611 44.2337 43.7699C43.5615 41.9283 41.8101 40.7033 39.85 40.7033C37.8899 40.7033 36.1385 41.9283 35.4663 43.7699C34.7941 45.611 35.3442 47.6764 36.8436 48.9392C34.6788 50.0612 33.3189 52.2952 33.3167 54.7333V55.1786C33.2132 55.0938 33.1057 55.0141 33.0059 54.9247C31.0717 53.1902 29.8663 50.7876 29.633 48.2H31.45V46.3333H29.6307C30.0869 41.406 33.9893 37.5036 38.9167 37.0474V38.8667H40.7833V37.0474C45.7107 37.5036 49.6131 41.406 50.0693 46.3333H48.25V48.2H50.067C49.8337 50.7876 48.6283 53.1902 46.6941 54.9247V54.9202Z" fill="black"/>
<path d="M75.3167 39.8C75.8321 39.8 76.25 39.3821 76.25 38.8667V27.6667C76.25 27.1512 75.8321 26.7333 75.3167 26.7333H54.7833C54.2679 26.7333 53.85 27.1512 53.85 27.6667V38.8667C53.85 39.3821 54.2679 39.8 54.7833 39.8H75.3167ZM55.7167 28.6H74.3833V37.9333H55.7167V28.6Z" fill="black"/>
<path d="M57.5833 30.4667H61.3167V32.3333H57.5833V30.4667Z" fill="black"/>
<path d="M63.1833 30.4667H72.5167V32.3333H63.1833V30.4667Z" fill="black"/>
<path d="M57.5833 34.2H72.5167V36.0667H57.5833V34.2Z" fill="black"/>
<path d="M75.1517 41.6667C74.4289 41.6681 73.7316 41.9333 73.1916 42.4132L65.05 49.5909V41.6667H63.1833V51H63.4531L58.1434 55.6854C54.689 55.8832 51.9874 58.7397 51.9833 62.2V63.8466C51.987 64.7726 51.4633 65.6207 50.633 66.0313C50.2452 66.2246 50.0415 66.6593 50.1408 67.0809C50.2402 67.5024 50.6166 67.8005 51.05 67.8H57.5833C61.0437 67.7959 63.9002 65.0944 64.098 61.6399L77.3757 46.5927C78.1463 45.7186 78.3336 44.474 77.8537 43.4117C77.3743 42.3494 76.317 41.6667 75.1517 41.6667ZM57.5833 65.9334H53.315C53.6672 65.2944 53.8514 64.5762 53.85 63.8466V62.2C53.8532 59.7687 55.7199 57.7457 58.1434 57.5484L62.235 61.6399C62.0381 64.0635 60.0146 65.9306 57.5833 65.9334ZM75.9757 45.3581L63.1414 59.9041L59.8793 56.6429L74.4253 43.8077C74.8605 43.4258 75.5172 43.4472 75.9269 43.8565C76.3361 44.2662 76.3576 44.9229 75.9757 45.3581Z" fill="black"/>
<path d="M23.05 74.3333H43.5833C44.0988 74.3333 44.5167 73.9154 44.5167 73.4V65.9333C44.5167 65.4179 44.0988 65 43.5833 65H37.05V60.3333H35.1833V65H23.05C22.5346 65 22.1167 65.4179 22.1167 65.9333V73.4C22.1167 73.9154 22.5346 74.3333 23.05 74.3333ZM23.9833 66.8666H42.65V72.4666H23.9833V66.8666Z" fill="black"/>
<path d="M25.85 68.7333H30.5167V70.6H25.85V68.7333Z" fill="black"/>
<path d="M32.3833 68.7333H40.7833V70.6H32.3833V68.7333Z" fill="black"/>
<path d="M23.05 36.0667H32.3833C32.8988 36.0667 33.3167 35.6488 33.3167 35.1333V27.6667C33.3167 27.1512 32.8988 26.7333 32.3833 26.7333H23.05C22.5346 26.7333 22.1167 27.1512 22.1167 27.6667V35.1333C22.1167 35.6488 22.5346 36.0667 23.05 36.0667ZM23.9833 28.6H31.45V34.2H23.9833V28.6Z" fill="black"/>
<path d="M25.85 30.4667H29.5833V32.3333H25.85V30.4667Z" fill="black"/>
<path d="M34.2477 35.8312C34.9029 35.176 35.5809 35.1731 36.3866 34.815C36.7704 34.6444 37.2059 34.6511 37.6404 34.6511" stroke="white" stroke-linecap="round" stroke-linejoin="round"/>
</g>
<defs>
<clipPath id="clip0">
<rect width="56" height="56" fill="white" transform="translate(22 23)"/>
</clipPath>
</defs>
</svg>
