<svg width="100" height="100" viewBox="0 0 100 100" fill="none" xmlns="http://www.w3.org/2000/svg">
<circle cx="50" cy="50" r="50" fill="#FCFCFC"/>
<path d="M72.2167 66.475V35.925H62.8167V66.475H60.4667V42.1917H51.0667V66.475H48.7167V48.4583H39.3167V66.475H36.9667V55.5083H27.5667V66.475H26.7833C26.3509 66.475 26 66.8251 26 67.2583C26 67.6915 26.3509 68.0417 26.7833 68.0417H27.5667H36.9667H39.3167H48.7167H51.0667H60.4667H62.8167H72.2167C72.6491 68.0417 73 67.6915 73 67.2583C73 66.8251 72.6491 66.475 72.2167 66.475ZM29.1333 66.475V57.075H35.4V66.475H29.1333ZM40.8833 66.475V50.025H47.15V66.475H40.8833ZM52.6333 66.475V43.7583H58.9V66.475H52.6333ZM64.3833 66.475V37.4917H70.65V66.475H64.3833Z" fill="#E7404A"/>
<path d="M32.2902 44.8002C32.4225 44.8002 32.5581 44.7665 32.681 44.6952L61.0918 28.2922L59.3136 32.201C59.1342 32.595 59.3081 33.0596 59.7021 33.2382C59.8071 33.2867 59.9175 33.3087 60.0264 33.3087C60.3241 33.3087 60.6084 33.1379 60.74 32.8496L63.5303 26.7161C63.5389 26.6965 63.5373 26.6754 63.5444 26.655C63.5593 26.6135 63.571 26.5736 63.5788 26.5297C63.5828 26.5078 63.5953 26.4897 63.5969 26.467C63.5976 26.4576 63.5937 26.4498 63.5945 26.4404C63.5961 26.4106 63.5929 26.3832 63.5914 26.3534C63.589 26.3104 63.582 26.2696 63.5726 26.2265C63.5663 26.1968 63.5647 26.1662 63.5546 26.1372C63.5452 26.109 63.5287 26.0855 63.5162 26.0581C63.506 26.0401 63.506 26.019 63.495 26.0002C63.4841 25.9814 63.4653 25.9704 63.4527 25.9524C63.4363 25.9281 63.4237 25.9022 63.4042 25.8803C63.3838 25.8568 63.3579 25.8404 63.3344 25.8192C63.3023 25.7902 63.2702 25.7636 63.2342 25.7401C63.2099 25.7244 63.188 25.7072 63.1613 25.6939C63.1527 25.69 63.148 25.6821 63.1394 25.6782C63.1198 25.6696 63.0987 25.6712 63.0791 25.6641C63.036 25.6484 62.9937 25.6375 62.949 25.6296C62.9287 25.6257 62.9122 25.614 62.8911 25.6124L56.1842 24.9622C55.7494 24.9184 55.3703 25.2364 55.3288 25.6657C55.2865 26.0965 55.6022 26.4796 56.0322 26.5211L60.3061 26.9355L31.8977 43.3385C31.5225 43.5547 31.3948 44.0341 31.611 44.4085C31.7559 44.6599 32.0191 44.8002 32.2902 44.8002Z" fill="black"/>
</svg>
